<?xml version="1.0" standalone="no"?>
<!DOCTYPE svg PUBLIC "-//W3C//DTD SVG 20010904//EN"
 "http://www.w3.org/TR/2001/REC-SVG-20010904/DTD/svg10.dtd">
<svg version="1.0" xmlns="http://www.w3.org/2000/svg"
 width="2774.011458pt" height="924.020216pt" viewBox="0 0 2774.011458 924.020216"
 preserveAspectRatio="xMidYMid meet">
<metadata>
Created by potrace 1.13, written by Peter Selinger 2001-2015
</metadata>
<g transform="translate(-65.837682,1041.768206) scale(0.100000,-0.100000)"
fill="#333333" stroke="none">
<path d="M12436 10404 c-28 -7 -59 -22 -70 -34 -18 -18 -19 -23 -7 -55 7 -19
10 -43 7 -53 -8 -24 50 -139 76 -153 16 -9 35 -8 73 1 61 15 94 3 159 -55 22
-19 40 -35 40 -35 1 0 15 -4 32 -9 28 -8 35 -5 68 25 24 22 31 34 22 34 -9 0
-16 4 -16 9 0 5 -13 14 -30 19 -16 6 -48 29 -71 51 -23 22 -53 42 -68 46 -34
9 -51 23 -51 46 0 9 -14 28 -31 40 -29 20 -30 25 -24 64 5 38 3 45 -17 59 -26
18 -26 18 -92 0z"/>
<path d="M18240 10217 c-36 -18 -36 -50 1 -106 49 -77 76 -77 109 -4 26 58 26
99 1 113 -27 14 -81 12 -111 -3z"/>
<path d="M17015 10134 c-27 -13 -60 -24 -71 -24 -12 0 -27 -7 -34 -15 -7 -8
-20 -15 -30 -15 -9 0 -28 -8 -41 -19 -13 -10 -46 -30 -74 -44 -27 -13 -58 -34
-69 -46 -10 -11 -35 -24 -55 -27 -51 -9 -71 -21 -115 -71 -21 -24 -56 -53 -77
-63 -21 -11 -43 -28 -48 -39 -6 -10 -33 -28 -61 -40 -35 -15 -54 -30 -61 -49
-15 -39 -39 -62 -85 -82 -36 -16 -121 -80 -164 -125 -70 -73 -90 -99 -90 -116
0 -24 -103 -127 -135 -135 -12 -3 -28 -15 -36 -26 -8 -11 -30 -35 -49 -51 -19
-17 -64 -61 -100 -98 -36 -36 -79 -73 -96 -82 -36 -18 -84 -72 -84 -93 0 -7
-12 -21 -27 -31 -16 -10 -59 -50 -98 -89 -38 -39 -87 -81 -108 -93 -20 -13
-43 -31 -50 -41 -18 -26 -64 -42 -85 -31 -9 5 -33 25 -51 45 -19 20 -40 36
-47 36 -7 0 -25 14 -41 30 -19 20 -38 30 -58 30 -21 0 -38 10 -62 37 -18 20
-34 41 -34 47 -1 6 -2 18 -3 26 -1 10 -12 15 -36 15 -29 1 -36 5 -38 25 -4 29
-71 83 -116 94 -17 4 -45 21 -63 37 -19 16 -45 29 -59 29 -14 0 -37 6 -52 14
-32 17 -70 56 -54 56 15 0 16 26 2 35 -6 3 -17 -1 -26 -9 -20 -20 -60 -21 -67
-1 -4 8 -2 17 3 20 6 4 10 15 10 25 0 14 -11 22 -42 31 -46 12 -78 34 -78 55
0 23 -31 44 -65 44 -42 0 -81 17 -119 51 -16 15 -43 30 -59 33 -17 3 -37 12
-45 19 -8 6 -33 12 -56 12 -38 0 -42 3 -52 34 -6 19 -23 44 -38 56 -14 11 -26
26 -26 33 0 30 -99 49 -126 23 -11 -9 -30 -17 -43 -18 -34 -3 -35 -8 -10 -43
18 -24 21 -35 13 -48 -13 -20 -52 -28 -67 -13 -6 6 -19 11 -29 11 -11 0 -29
10 -41 23 -12 12 -34 30 -49 40 -27 17 -65 64 -57 71 20 18 50 14 78 -9 33
-28 43 -28 113 2 31 13 38 21 43 55 5 29 3 43 -6 49 -16 10 -101 29 -128 29
-10 0 -30 9 -44 20 -14 11 -31 20 -37 20 -23 0 -128 85 -147 119 -22 40 -54
57 -113 60 -16 1 -29 9 -35 24 -8 17 -21 23 -55 27 -25 3 -51 9 -58 14 -18 11
-42 -12 -42 -41 0 -15 7 -27 18 -29 9 -3 28 -20 40 -39 14 -20 45 -44 77 -59
69 -32 124 -101 101 -124 -13 -13 -22 -13 -73 7 -32 13 -69 25 -83 28 -14 3
-36 16 -50 28 -14 13 -40 26 -58 30 -18 4 -46 18 -62 31 -16 14 -51 29 -77 33
-54 10 -131 45 -151 70 -7 9 -19 30 -26 48 -8 17 -26 39 -39 48 -23 15 -28 15
-56 1 -38 -20 -77 -20 -130 -1 -23 8 -48 12 -56 9 -8 -4 -26 1 -40 10 -13 9
-34 16 -45 16 -11 0 -51 16 -88 35 -79 42 -174 56 -207 32 -16 -12 -19 -27
-20 -83 0 -38 3 -81 7 -96 4 -17 2 -28 -6 -31 -14 -5 -117 16 -136 28 -6 4
-22 4 -34 1 -27 -7 -58 -72 -46 -96 4 -8 5 -41 2 -73 -4 -52 -8 -59 -34 -73
-23 -12 -36 -13 -60 -5 -17 6 -48 11 -69 11 -21 0 -53 9 -71 20 -18 11 -41 20
-51 20 -43 0 -235 71 -276 102 -13 10 -34 18 -46 18 -12 0 -42 7 -65 15 -23 8
-55 15 -70 15 -34 0 -156 -62 -198 -100 l-31 -28 6 -89 c3 -48 10 -96 15 -106
7 -14 4 -24 -11 -41 -18 -19 -20 -28 -11 -50 5 -15 9 -53 8 -84 -1 -68 12
-566 17 -637 2 -27 6 -219 9 -425 3 -225 9 -393 16 -420 6 -25 15 -61 21 -81
5 -21 5 -66 0 -110 -4 -41 -7 -155 -7 -254 2 -148 5 -186 19 -212 15 -27 15
-37 3 -75 -7 -26 -10 -53 -5 -65 4 -12 5 -54 2 -93 -5 -64 -8 -71 -30 -76 -13
-4 -43 -3 -66 0 -23 4 -93 9 -156 12 -146 6 -247 32 -364 94 -51 27 -112 56
-137 65 -62 22 -185 99 -248 157 -30 26 -58 48 -64 48 -20 0 -214 205 -232
245 -29 63 -126 206 -173 255 -23 25 -43 51 -43 58 0 16 -52 93 -76 113 -9 8
-36 43 -59 79 -23 36 -55 76 -70 90 -15 14 -35 43 -45 66 -11 25 -32 50 -54
63 -19 12 -44 37 -56 56 -12 19 -50 57 -86 85 -35 29 -64 56 -64 61 0 13 -173
180 -222 214 -24 16 -58 35 -77 42 -21 7 -71 51 -130 112 -53 56 -102 101
-109 101 -6 0 -34 20 -62 45 -28 25 -56 45 -63 45 -7 0 -29 12 -48 26 -19 14
-56 37 -84 51 -27 14 -65 38 -85 54 -20 16 -59 35 -86 42 -28 7 -89 37 -137
65 -47 29 -91 52 -97 52 -17 0 -195 77 -291 126 -47 24 -109 48 -137 54 -28 5
-68 20 -89 32 -21 13 -74 39 -118 57 -44 19 -109 46 -145 61 -137 57 -237 85
-334 94 -38 3 -78 12 -90 19 -11 8 -58 26 -104 41 -74 25 -95 28 -200 26 -64
-2 -153 -2 -197 -2 -74 1 -108 -2 -254 -26 -33 -5 -70 -5 -97 1 -38 9 -50 8
-85 -11 -26 -14 -59 -22 -88 -22 -35 0 -53 -5 -66 -20 -24 -26 -50 -33 -75
-20 -31 17 -55 4 -75 -41 -15 -32 -23 -39 -38 -35 -24 6 -125 -41 -137 -63 -4
-9 -35 -33 -67 -54 -33 -21 -67 -52 -77 -68 -11 -18 -25 -29 -39 -29 -12 0
-35 -11 -51 -25 -16 -14 -35 -25 -42 -25 -7 0 -24 -14 -36 -31 -13 -17 -41
-40 -63 -51 -49 -26 -120 -84 -206 -170 -52 -52 -75 -68 -96 -68 -21 0 -32 -8
-46 -31 -9 -17 -17 -39 -17 -48 0 -10 -9 -26 -20 -36 -24 -22 -25 -38 -5 -55
13 -10 10 -18 -20 -53 -30 -35 -35 -48 -35 -91 0 -30 -6 -56 -15 -66 -9 -9
-19 -48 -24 -86 -7 -58 -5 -77 11 -121 11 -29 18 -63 17 -75 -2 -13 1 -34 6
-48 5 -14 8 -35 6 -48 -1 -13 3 -29 9 -37 7 -8 13 -40 15 -72 6 -137 26 -213
76 -283 9 -14 20 -45 23 -70 4 -25 17 -64 30 -87 14 -23 31 -66 40 -95 14 -48
31 -69 153 -194 76 -77 144 -151 151 -164 17 -32 71 -71 197 -145 55 -32 116
-68 135 -80 19 -12 62 -31 95 -44 33 -12 92 -38 130 -56 39 -19 90 -37 115
-40 94 -13 106 -16 158 -35 29 -11 65 -20 79 -20 32 0 93 -21 93 -32 0 -4 14
-15 32 -24 25 -13 48 -15 106 -10 41 3 104 1 142 -5 63 -11 71 -10 107 11 34
19 45 20 78 11 26 -7 44 -7 58 0 22 13 37 10 172 -26 55 -15 135 -33 177 -40
42 -8 86 -19 97 -24 11 -6 37 -11 58 -11 39 0 143 -51 143 -70 0 -6 28 -24 63
-41 l63 -31 52 22 c52 22 52 23 46 59 -10 51 -78 147 -127 178 -23 14 -69 48
-102 76 -63 53 -146 97 -181 97 -12 0 -54 27 -95 60 -44 36 -90 65 -114 71
-22 5 -80 30 -130 54 -49 25 -103 48 -120 51 -48 11 -194 103 -209 133 -8 15
-27 33 -43 41 -83 43 -312 274 -328 332 -13 47 -30 69 -87 114 -32 25 -66 57
-75 71 -14 21 -46 130 -60 205 -3 15 -14 35 -24 44 -29 26 -26 111 6 158 18
27 25 50 25 85 0 40 6 56 37 95 20 25 52 54 70 63 19 9 38 26 43 37 10 28 25
39 75 55 22 7 61 26 86 41 76 46 146 62 226 50 37 -5 83 -14 102 -19 26 -8 38
-7 55 4 32 23 87 19 126 -10 27 -20 46 -25 89 -25 62 0 143 -22 266 -70 44
-18 107 -42 140 -55 134 -50 160 -64 338 -184 62 -42 128 -80 186 -107 30 -13
80 -49 111 -78 30 -29 69 -60 85 -69 17 -9 55 -42 85 -73 30 -31 85 -81 121
-110 39 -31 69 -63 73 -78 3 -15 10 -26 15 -26 5 0 49 -40 98 -89 65 -65 95
-103 108 -138 52 -138 119 -260 175 -318 44 -47 59 -70 65 -103 3 -23 15 -52
24 -64 10 -13 26 -39 36 -58 10 -19 31 -50 47 -69 16 -18 34 -45 39 -59 10
-27 90 -120 175 -206 28 -28 59 -65 69 -82 10 -18 35 -43 56 -55 21 -13 41
-32 45 -42 3 -9 23 -26 43 -37 28 -14 40 -27 44 -49 5 -23 17 -36 48 -51 23
-12 52 -33 64 -46 12 -13 40 -30 61 -37 31 -11 44 -23 61 -59 14 -30 38 -57
70 -79 170 -117 235 -158 261 -164 17 -3 37 -17 46 -29 10 -15 29 -25 56 -30
23 -3 66 -20 97 -36 31 -17 61 -30 67 -30 11 0 153 -45 234 -75 42 -15 46 -15
96 8 59 27 76 25 76 -8 0 -38 64 -62 182 -70 25 -1 57 -10 69 -19 17 -11 46
-16 100 -16 42 0 96 -6 120 -13 108 -30 277 13 310 80 9 18 27 41 40 52 l24
19 -29 30 c-31 33 -57 34 -140 5 -21 -7 -52 -13 -69 -13 -16 0 -45 -10 -64
-21 -33 -21 -35 -21 -79 -4 -25 9 -54 15 -65 12 -24 -7 -310 11 -369 23 -42 8
-161 48 -205 69 -30 14 -241 81 -255 81 -7 0 -27 11 -45 24 -17 13 -61 37 -97
54 -36 16 -70 38 -76 48 -6 10 -41 35 -78 54 -53 27 -73 44 -89 74 -11 21 -32
51 -47 65 -15 14 -42 40 -60 57 -18 17 -56 43 -83 58 -28 15 -57 37 -64 49 -8
12 -44 57 -80 100 -49 59 -81 87 -124 109 -39 19 -64 40 -75 61 -9 18 -45 59
-79 93 -34 33 -65 73 -69 88 -3 15 -25 45 -47 66 -53 51 -77 89 -77 122 0 15
-12 44 -26 65 -14 21 -28 51 -31 66 -4 20 -16 34 -39 45 -19 8 -34 20 -34 25
0 5 -16 28 -35 51 -19 24 -35 52 -35 63 0 10 -7 28 -15 39 -8 10 -15 27 -15
37 0 10 -9 27 -20 39 -13 14 -20 36 -20 59 0 30 -7 43 -34 65 -18 16 -46 36
-62 45 -16 9 -40 38 -54 65 -14 27 -32 58 -41 69 -10 11 -19 29 -21 39 -1 11
-17 24 -35 30 -44 15 -147 115 -208 202 -8 12 -31 25 -50 28 -23 5 -49 21 -73
47 -20 22 -67 63 -104 91 -38 29 -68 55 -68 60 0 4 -25 23 -56 43 -50 32 -63
36 -126 36 l-70 0 -69 70 c-38 38 -82 72 -97 76 -15 3 -48 17 -73 30 -26 13
-57 23 -68 23 -35 0 -73 25 -109 69 -24 30 -42 42 -70 46 -20 3 -61 15 -90 27
-45 17 -66 20 -126 14 -47 -4 -84 -2 -102 5 -56 22 -159 44 -194 42 -19 -1
-89 -5 -155 -8 -90 -4 -129 -11 -155 -25 -19 -10 -53 -21 -75 -25 -22 -4 -74
-22 -115 -40 -41 -17 -87 -35 -102 -39 -58 -14 -262 -199 -271 -246 -3 -14
-11 -43 -17 -65 -7 -22 -14 -56 -17 -75 -3 -19 -12 -41 -20 -48 -11 -11 -12
-25 -7 -56 4 -22 7 -57 6 -77 -2 -23 5 -45 17 -61 22 -27 29 -51 41 -142 6
-42 18 -73 44 -110 20 -29 36 -58 36 -64 0 -20 63 -98 98 -121 19 -12 40 -38
49 -58 14 -34 35 -64 106 -148 15 -19 53 -48 83 -65 30 -17 79 -55 107 -85 29
-29 77 -68 107 -86 30 -18 74 -50 97 -71 24 -21 60 -45 80 -54 21 -9 57 -25
81 -35 23 -11 53 -19 65 -19 12 0 38 -11 57 -23 19 -13 53 -26 76 -29 49 -7
200 -76 232 -108 38 -36 14 -42 -79 -21 -107 25 -220 33 -494 36 -212 3 -222
4 -290 30 -38 15 -107 38 -152 50 -104 29 -185 60 -243 91 -25 13 -71 31 -102
39 -53 15 -76 30 -190 123 -22 17 -46 32 -53 32 -41 0 -250 196 -303 284 -9
16 -31 45 -48 65 -48 56 -114 161 -114 181 0 10 -6 31 -14 47 -8 15 -19 44
-26 63 -7 19 -21 60 -32 90 -11 30 -24 82 -29 115 -5 33 -16 103 -24 155 -22
140 -19 359 6 434 10 32 23 64 28 70 4 6 14 28 21 50 7 21 34 63 61 92 27 30
49 61 49 68 0 8 23 32 51 53 65 49 95 76 100 92 2 6 24 17 49 22 26 6 60 25
86 47 48 42 118 94 151 111 13 6 52 34 88 61 81 62 149 94 181 86 18 -5 30 1
51 24 15 17 68 51 118 75 l90 44 165 7 c236 10 413 6 505 -12 44 -8 116 -17
160 -21 44 -3 106 -14 137 -24 32 -11 68 -19 80 -19 27 0 127 -35 142 -50 5
-5 20 -10 33 -10 12 0 46 -11 75 -24 74 -34 186 -74 228 -82 19 -3 59 -19 87
-35 29 -16 61 -29 71 -29 19 0 171 -71 212 -100 14 -9 50 -25 80 -35 30 -10
75 -29 99 -42 24 -12 52 -23 63 -23 10 0 36 -11 58 -25 22 -14 47 -25 55 -25
17 0 147 -67 236 -121 106 -65 210 -144 293 -223 33 -31 64 -56 70 -56 6 0 43
-30 81 -66 39 -36 90 -79 115 -96 41 -29 148 -135 361 -358 45 -47 114 -119
155 -161 41 -41 74 -81 74 -88 0 -6 19 -37 43 -68 23 -30 51 -72 62 -93 11
-20 39 -59 63 -86 45 -51 71 -91 121 -185 33 -63 181 -209 269 -266 29 -18 58
-43 65 -54 6 -11 28 -30 47 -41 19 -12 51 -36 70 -53 51 -47 112 -85 135 -85
12 0 63 -21 115 -46 94 -46 126 -56 275 -88 44 -10 89 -20 100 -22 11 -3 84
-9 162 -13 103 -6 149 -12 166 -24 31 -20 46 -81 50 -202 2 -49 9 -100 15
-112 14 -25 14 -35 8 -163 -4 -69 -1 -107 10 -140 10 -30 13 -60 9 -92 -4 -28
-2 -70 5 -98 10 -42 9 -56 -5 -94 -12 -31 -14 -49 -7 -62 6 -11 13 -62 17
-114 4 -52 13 -106 20 -120 7 -15 11 -63 9 -125 -1 -55 5 -147 14 -205 8 -58
15 -125 14 -150 -3 -61 -4 -217 -3 -260 0 -19 0 -54 -1 -76 -1 -23 6 -60 16
-82 16 -35 17 -46 6 -88 -7 -28 -12 -100 -10 -169 1 -66 3 -217 4 -335 6 -399
-1 -349 52 -405 26 -27 53 -63 60 -81 9 -20 24 -36 44 -42 34 -12 35 -15 18
-41 -16 -26 3 -48 56 -63 45 -12 76 -34 76 -53 0 -15 42 -53 110 -98 30 -20
74 -54 97 -75 53 -49 135 -85 166 -73 15 6 35 2 67 -13 40 -19 45 -25 48 -59
2 -20 7 -37 13 -37 5 0 9 -6 9 -14 0 -16 21 -26 55 -26 12 0 37 -13 54 -29 17
-16 38 -32 47 -35 12 -5 15 -14 11 -36 -5 -23 -2 -30 13 -35 11 -4 20 -10 20
-15 0 -5 16 -12 35 -16 20 -3 41 -14 48 -24 11 -16 116 -70 136 -70 5 0 28
-22 50 -49 43 -51 92 -81 134 -81 14 0 31 -9 39 -22 11 -16 26 -22 59 -24 24
-1 49 -2 56 -3 18 -2 20 -35 3 -48 -13 -11 -10 -17 20 -43 19 -16 63 -43 97
-60 50 -25 67 -29 82 -20 22 11 34 0 25 -23 -4 -11 7 -22 38 -38 24 -11 72
-51 108 -88 53 -54 78 -71 136 -94 49 -18 81 -25 102 -21 26 5 32 2 45 -22 19
-36 73 -78 125 -99 22 -9 57 -34 77 -56 40 -43 192 -122 258 -133 30 -6 52
-21 99 -71 38 -41 74 -68 97 -76 20 -6 52 -28 71 -48 19 -20 70 -54 113 -76
l78 -40 17 23 c16 20 28 23 97 26 44 2 88 6 97 10 9 4 26 2 38 -4 17 -9 20
-17 15 -39 -4 -19 -1 -32 10 -41 19 -16 19 -25 -2 -46 -12 -12 -14 -19 -6 -21
16 -6 5 -33 -14 -33 -14 0 -43 -23 -43 -34 0 -3 13 -6 29 -6 32 0 55 22 56 54
0 14 11 26 32 36 24 11 38 29 54 68 24 58 21 102 -9 135 -11 13 -18 39 -19 80
-4 116 -21 362 -29 417 -4 30 -13 64 -20 76 -12 17 -12 23 0 39 10 14 11 26 5
43 -14 35 -11 75 7 100 11 17 14 35 10 65 -13 90 -22 255 -19 327 14 296 14
298 -8 318 -19 19 -19 21 -4 63 20 54 20 73 -1 136 -13 37 -18 93 -20 243 -3
187 -11 273 -33 370 -14 60 -21 214 -12 270 4 25 3 59 -2 75 -4 17 -8 85 -7
152 1 77 -3 124 -10 128 -11 7 -6 54 11 112 7 23 7 38 -2 55 -14 24 -17 125
-18 568 -1 429 -3 494 -20 513 -9 12 -11 30 -6 59 8 56 8 243 -1 438 -11 243
-10 281 3 341 11 50 11 62 -4 95 -14 34 -17 93 -19 434 -2 217 -4 430 -4 473
-2 139 23 317 51 363 26 42 25 122 -2 184 -25 57 -22 84 9 88 18 3 26 -4 37
-32 8 -19 32 -47 52 -61 39 -26 295 -115 333 -115 11 0 43 -11 71 -25 40 -21
54 -35 69 -71 23 -52 39 -61 80 -44 35 14 44 36 34 86 -8 43 4 54 57 54 21 0
53 11 81 29 38 24 53 28 87 24 39 -5 45 -3 109 54 37 33 77 63 90 67 12 4 35
18 51 31 34 30 104 43 117 24 5 -8 10 -192 12 -409 2 -217 6 -433 9 -479 3
-48 1 -100 -6 -120 -7 -26 -7 -52 0 -91 6 -30 10 -89 9 -130 -1 -41 -1 -118
-1 -170 1 -52 1 -111 1 -130 1 -19 1 -168 1 -330 0 -162 0 -304 0 -315 1 -69
-13 -263 -20 -298 -7 -30 -6 -50 5 -76 22 -53 26 -257 7 -295 -13 -25 -14 -36
-3 -65 16 -44 15 -193 -1 -222 -8 -16 -8 -36 0 -78 13 -60 18 -247 9 -296 -3
-16 -1 -87 6 -158 6 -70 8 -136 5 -146 -4 -10 -7 -58 -7 -107 -1 -49 -2 -174
-3 -279 -4 -256 -1 -610 5 -721 12 -202 15 -415 6 -470 -7 -41 -6 -69 1 -93 8
-24 8 -66 0 -155 -9 -100 -9 -135 4 -205 8 -46 12 -89 8 -95 -10 -15 -4 -135
7 -157 6 -11 6 -27 1 -41 -6 -16 -5 -32 4 -48 9 -17 10 -30 3 -43 -5 -10 -7
-29 -4 -42 3 -13 1 -57 -5 -98 -10 -68 -9 -77 10 -115 25 -50 26 -70 4 -133
-17 -48 -17 -48 6 -80 19 -26 22 -36 12 -50 -15 -25 -14 -51 5 -110 16 -48 16
-50 -10 -102 -15 -29 -36 -58 -46 -65 -11 -6 -60 -18 -109 -26 -49 -8 -103
-22 -120 -30 -62 -33 -251 -7 -361 49 -79 40 -188 85 -207 85 -10 0 -44 18
-77 40 -62 42 -90 48 -147 29 -55 -19 -62 -30 -40 -65 22 -36 61 -56 174 -90
45 -13 138 -52 207 -85 109 -53 136 -62 215 -72 116 -13 174 -13 258 1 37 7
89 14 115 17 26 3 63 10 82 15 19 6 46 10 60 10 14 0 49 11 78 25 65 30 76 55
64 139 -7 46 -6 67 4 87 13 27 7 70 -26 173 -7 22 -6 36 4 51 12 18 11 24 -5
44 -12 15 -19 39 -19 66 0 35 4 44 26 54 21 9 24 14 14 26 -7 8 -19 15 -26 15
-7 0 -21 11 -29 24 -13 19 -14 29 -5 45 6 12 15 21 20 21 13 0 13 37 0 45 -6
4 -8 16 -4 27 4 13 -2 28 -16 43 l-22 24 26 68 c29 76 31 91 13 114 -8 11 -11
59 -9 165 4 195 5 268 3 392 0 58 4 113 10 124 7 13 8 46 4 91 -6 61 -12 75
-36 98 -31 29 -35 48 -18 81 6 11 13 62 16 112 6 131 6 145 -5 206 -7 39 -6
59 2 69 6 8 12 33 13 55 1 23 7 62 13 88 10 43 10 50 -9 74 -12 15 -21 38 -21
51 0 13 -5 34 -11 45 -8 15 -8 31 1 62 11 41 23 244 20 362 -1 44 4 66 15 77
20 20 6 89 -32 160 -16 30 -12 92 10 155 9 26 8 37 -2 54 -11 18 -10 24 7 47
15 21 21 50 26 126 3 55 8 119 12 142 5 34 0 55 -31 124 -37 81 -38 84 -27
143 16 83 14 154 -4 194 -21 44 -27 247 -9 282 9 18 10 31 3 44 -7 12 -7 31 0
59 6 24 7 63 2 92 -4 28 -11 71 -15 97 -6 35 -4 52 6 64 15 18 20 71 18 204
-2 188 3 317 12 359 9 42 -2 164 -20 216 -4 11 -4 94 -1 185 3 91 3 175 -1
186 -13 38 -29 243 -21 267 5 12 5 85 0 162 -6 99 -5 148 3 168 14 34 6 178
-12 224 -11 27 -11 40 0 75 20 67 24 117 11 133 -16 19 0 45 52 88 51 40 85
53 158 62 112 13 134 2 128 -65 -3 -34 -3 -35 47 -42 28 -4 66 -3 85 2 19 6
60 10 91 10 38 0 61 5 69 15 7 9 32 20 57 26 24 7 59 24 79 40 36 28 37 28
147 24 102 -5 116 -3 176 21 36 14 71 30 76 34 24 18 163 51 244 59 77 7 96
13 152 47 35 21 66 42 69 45 7 9 115 29 159 29 20 0 74 13 121 30 47 16 94 29
106 30 11 0 31 11 44 25 17 18 34 25 63 25 23 0 50 8 67 20 16 11 52 22 86 26
33 3 80 12 105 20 49 15 141 33 200 39 20 2 74 16 120 31 46 15 104 30 129 34
25 4 70 13 100 19 30 6 76 14 103 16 26 3 75 19 109 36 42 21 81 33 122 36 85
6 237 43 261 63 34 28 77 43 145 52 82 10 121 10 134 -1 6 -5 32 -11 59 -13
36 -4 57 -1 85 14 134 72 150 77 266 84 88 5 159 26 222 65 24 15 42 18 77 13
94 -13 125 51 72 143 -29 48 -51 54 -93 24 -25 -18 -230 -76 -310 -88 -43 -7
-66 12 -56 46 23 89 15 135 -28 157 -27 14 -42 15 -97 6 -36 -6 -85 -10 -108
-10 -27 0 -56 -8 -78 -22 -54 -33 -165 -72 -204 -70 -18 0 -53 -9 -77 -21 -42
-20 -48 -20 -102 -8 -56 14 -57 15 -62 54 -3 22 -9 45 -13 52 -4 6 6 40 21 75
39 85 49 178 25 219 -13 22 -23 29 -38 24 -11 -3 -36 -9 -55 -12 -49 -9 -79
-30 -98 -72 -14 -28 -26 -38 -62 -48 -25 -7 -52 -22 -62 -33 -16 -19 -58 -28
-58 -12 0 4 -13 16 -30 25 -38 23 -39 55 -5 96 22 25 24 33 14 50 -15 22 -70
32 -97 16 -10 -5 -35 -23 -56 -39 -30 -24 -51 -31 -98 -34 -44 -3 -62 -9 -71
-23 -7 -12 -23 -19 -42 -19 -17 0 -40 -6 -51 -14 -10 -8 -29 -12 -41 -9 -13 3
-23 1 -23 -5 0 -14 -57 -35 -76 -28 -8 3 -37 -3 -62 -14 -26 -11 -85 -26 -130
-34 -115 -20 -190 -73 -131 -91 11 -4 18 -12 16 -18 -2 -8 -35 -12 -98 -12
-73 -1 -103 -5 -134 -20 -25 -13 -58 -19 -87 -18 -43 1 -51 -3 -78 -33 -57
-66 -29 -114 68 -114 33 0 74 9 111 24 32 14 81 28 109 32 37 5 58 14 78 35
17 18 43 32 65 35 21 4 48 17 60 30 16 17 34 24 58 24 20 0 50 8 67 19 17 10
58 21 95 24 35 3 74 8 87 12 18 6 22 4 22 -14 0 -12 -6 -21 -14 -21 -8 0 -23
-11 -34 -25 -11 -14 -34 -30 -51 -36 -17 -6 -31 -17 -31 -24 0 -15 -14 -20
-75 -30 -22 -3 -49 -13 -60 -21 -20 -15 -19 -16 13 -42 18 -15 32 -33 32 -39
0 -16 -12 -17 -26 -3 -21 21 -84 -26 -68 -51 14 -24 104 10 104 39 0 10 7 12
23 8 33 -8 84 23 105 64 12 24 26 36 47 41 17 3 45 14 64 23 27 14 39 16 58 7
52 -24 93 -3 93 47 0 15 4 33 9 41 13 21 51 -5 58 -40 3 -16 14 -34 24 -39 24
-13 65 3 74 29 8 28 62 66 68 49 3 -10 7 -10 18 -2 8 6 43 17 79 24 62 12 100
32 100 53 0 5 -9 7 -19 4 -24 -6 -46 7 -37 22 10 16 42 14 60 -4 8 -8 24 -15
35 -15 22 0 61 -44 61 -68 0 -9 9 -25 19 -36 16 -18 26 -62 22 -101 -2 -20
-60 -45 -113 -49 -29 -2 -75 -12 -102 -21 -27 -9 -86 -21 -130 -26 -150 -16
-196 -26 -214 -47 -13 -16 -37 -23 -107 -30 -49 -6 -103 -13 -120 -17 -57 -13
-140 -49 -167 -73 -14 -13 -31 -21 -38 -17 -6 4 -17 2 -24 -4 -7 -6 -20 -9
-28 -6 -23 9 -131 -32 -150 -58 -26 -33 -22 -40 20 -33 20 4 57 8 82 10 25 2
59 8 75 14 17 6 59 17 95 25 36 8 97 24 135 35 39 11 95 22 125 26 81 8 260
55 298 77 24 14 50 18 95 17 96 -3 262 18 289 36 25 16 53 23 208 52 146 27
189 29 196 10 16 -42 -104 -115 -167 -102 -21 4 -60 -3 -118 -21 -47 -14 -99
-27 -116 -28 -83 -5 -268 -50 -400 -97 -16 -5 -52 -14 -80 -18 -27 -5 -84 -18
-125 -30 -41 -11 -91 -23 -110 -26 -19 -3 -62 -14 -95 -24 -114 -33 -240 -63
-300 -71 -33 -4 -93 -19 -134 -33 -41 -14 -81 -26 -89 -26 -8 0 -33 -8 -56
-19 -62 -28 -138 -51 -168 -51 -15 0 -45 -6 -65 -14 -21 -8 -59 -17 -85 -21
-26 -3 -51 -11 -54 -17 -4 -6 -36 -24 -71 -40 -49 -22 -77 -28 -116 -27 -59 3
-125 -12 -208 -47 -31 -13 -73 -24 -93 -24 -20 0 -54 -9 -76 -20 -22 -11 -54
-20 -72 -20 -18 0 -58 -7 -88 -15 -30 -8 -68 -15 -85 -15 -16 0 -42 -6 -56
-14 -60 -31 -129 -48 -170 -41 l-42 7 24 22 c14 11 32 33 41 48 17 27 76 46
125 40 12 -2 39 6 60 16 21 11 55 22 77 26 21 4 55 16 75 27 20 10 49 19 65
19 18 0 37 9 52 25 17 18 33 25 61 25 50 0 252 65 300 96 13 8 34 11 50 8 22
-4 35 1 56 20 31 29 38 30 83 17 18 -5 37 -5 47 0 25 15 169 51 197 51 14 -1
39 6 57 14 25 11 37 12 57 3 13 -6 32 -9 41 -5 40 15 -21 107 -93 142 -30 14
-41 14 -72 4 -40 -13 -62 -8 -55 13 14 47 14 65 -1 71 -24 9 -74 -25 -74 -50
0 -25 -63 -58 -114 -59 -17 0 -49 -10 -71 -21 -22 -12 -52 -24 -66 -27 -14 -4
-40 -25 -58 -47 -36 -45 -85 -74 -108 -66 -19 8 -132 -22 -153 -39 -8 -7 -26
-16 -40 -20 -14 -4 -39 -18 -57 -31 -23 -18 -41 -23 -66 -20 -27 4 -40 0 -58
-20 -19 -20 -32 -24 -84 -24 -55 0 -66 -3 -92 -29 -24 -22 -47 -31 -104 -41
-40 -7 -89 -23 -109 -35 -86 -54 -151 -54 -126 0 12 28 58 45 122 45 42 0 84
30 84 61 0 33 118 109 169 109 33 0 60 10 106 39 17 11 44 20 60 20 17 1 45
10 63 21 18 11 37 20 42 20 15 0 100 41 142 68 20 13 41 37 47 53 5 16 16 29
23 30 7 1 28 2 46 4 19 2 45 14 60 28 16 15 45 29 70 33 23 4 45 10 47 15 3 4
38 5 78 3 70 -5 73 -5 101 25 23 24 27 34 18 43 -18 18 -15 26 10 30 20 3 16
8 -30 42 -57 42 -92 43 -112 6 -8 -14 -21 -20 -45 -20 -30 0 -37 -5 -55 -40
-19 -38 -23 -40 -65 -40 -25 0 -45 -4 -45 -9 0 -10 -41 -27 -86 -36 -17 -3
-46 -21 -64 -40 -18 -19 -47 -37 -64 -41 -17 -3 -51 -17 -76 -29 -25 -13 -77
-33 -117 -45 -40 -12 -81 -32 -93 -45 -30 -32 -81 -55 -122 -55 -26 0 -52 -14
-113 -60 -50 -38 -88 -60 -105 -60 -15 0 -35 -10 -47 -24 -11 -13 -54 -40 -94
-59 -41 -20 -108 -65 -149 -102 -41 -35 -78 -65 -82 -65 -5 0 -8 -6 -8 -14 0
-21 -23 -35 -85 -51 -32 -9 -72 -25 -89 -38 -17 -12 -52 -32 -77 -43 -26 -12
-50 -27 -53 -33 -9 -14 -43 -14 -51 -1 -12 19 16 88 46 118 18 17 45 34 60 37
19 4 81 59 186 164 192 191 377 358 420 379 18 9 35 23 38 33 3 9 22 29 41 44
20 15 86 78 147 141 175 176 307 256 307 184 0 -11 6 -20 13 -20 17 0 71 57
91 97 9 18 30 43 46 55 16 12 32 30 35 39 7 21 109 92 178 124 38 18 55 21 80
14 47 -13 59 -31 68 -101 4 -34 13 -89 19 -121 6 -32 8 -63 4 -68 -9 -15 26
-49 51 -49 13 0 27 6 32 13 18 23 35 124 29 168 -3 24 -8 89 -11 144 -3 55 -8
109 -10 121 -10 48 -117 58 -200 18z m-4909 -179 c16 -8 44 -15 62 -15 18 0
55 -9 82 -21 43 -18 55 -20 100 -10 65 14 63 14 50 -8 -15 -30 -12 -48 13 -71
13 -13 31 -20 45 -17 15 3 45 -10 90 -39 36 -24 78 -44 92 -44 14 0 44 -11 67
-24 23 -13 57 -27 75 -31 18 -4 38 -11 45 -17 6 -5 28 -8 50 -7 48 2 89 -14
105 -42 7 -12 36 -32 63 -46 94 -45 212 -124 230 -153 6 -10 120 -87 162 -109
12 -6 34 -11 48 -11 15 0 39 -8 53 -18 15 -10 54 -25 87 -32 65 -14 163 -68
183 -100 8 -14 23 -20 49 -20 50 0 120 -36 138 -70 19 -37 87 -90 116 -90 28
0 40 -8 55 -34 6 -11 19 -24 29 -30 10 -6 37 -23 58 -38 22 -15 56 -30 76 -34
47 -9 71 -21 71 -38 0 -8 30 -26 68 -41 94 -38 97 -39 100 -64 3 -17 24 -32
88 -61 61 -29 87 -46 94 -64 5 -14 27 -34 49 -45 41 -21 45 -29 57 -94 8 -46
-15 -77 -57 -77 -16 0 -52 -9 -80 -20 -51 -19 -89 -15 -89 10 0 5 -15 17 -32
26 -18 9 -37 23 -41 30 -4 8 -22 21 -40 30 -18 10 -53 36 -79 59 -53 48 -104
75 -140 75 -14 0 -35 11 -48 25 -12 13 -37 29 -54 35 -17 6 -53 33 -81 61 -27
28 -72 62 -100 76 -27 14 -74 41 -104 60 -29 19 -60 32 -68 29 -8 -3 -26 6
-41 22 -15 16 -45 39 -67 52 -22 13 -56 38 -75 56 -27 25 -47 34 -90 39 -74 9
-100 27 -100 68 0 29 -9 41 -62 84 -35 28 -85 62 -113 75 -27 13 -72 37 -98
52 -27 16 -69 33 -93 37 -25 5 -61 22 -82 39 -27 21 -56 33 -98 40 -69 11 -94
6 -94 -21 0 -28 -22 -33 -93 -19 -82 15 -92 22 -78 48 15 27 59 37 80 17 24
-20 34 -19 64 9 29 27 25 38 -23 60 -19 9 -60 29 -90 46 -30 16 -64 30 -75 30
-11 0 -33 9 -50 20 -16 11 -42 20 -56 20 -17 0 -32 9 -42 23 -9 13 -37 38 -64
55 -51 33 -215 92 -255 92 -15 0 -46 21 -87 62 l-64 61 36 34 c43 38 37 37 73
18z m331 -57 c-3 -8 -6 -5 -6 6 -1 11 2 17 5 13 3 -3 4 -12 1 -19z m233 -88
c0 -5 -4 -10 -10 -10 -5 0 -10 5 -10 10 0 6 5 10 10 10 6 0 10 -4 10 -10z
m5638 -2 c19 -19 14 -28 -13 -28 -14 0 -25 2 -25 4 0 2 -3 11 -6 20 -7 19 26
22 44 4z m-6442 -13 c20 -8 48 -12 64 -8 21 4 41 -2 72 -20 24 -14 62 -30 86
-36 23 -7 42 -16 42 -21 0 -6 6 -10 13 -10 8 0 22 -9 31 -19 10 -10 56 -31
104 -46 48 -15 94 -33 103 -41 8 -8 24 -14 34 -14 21 0 85 -62 85 -83 0 -7 -5
-18 -11 -24 -15 -15 -103 22 -123 52 -12 18 -37 28 -108 45 -51 12 -100 26
-109 30 -9 5 -40 11 -69 14 -30 3 -60 12 -72 22 -11 11 -46 21 -81 26 -177 23
-200 32 -195 76 2 18 15 32 47 49 52 27 43 26 87 8z m-934 -30 c34 -14 72 -25
85 -25 13 0 49 -9 80 -20 32 -11 69 -20 83 -20 14 0 40 -9 59 -21 18 -11 52
-27 74 -36 22 -9 72 -38 111 -65 38 -26 75 -48 81 -48 6 0 32 -13 56 -30 25
-16 71 -36 103 -44 32 -9 85 -29 119 -46 33 -16 68 -30 77 -30 9 0 34 -13 56
-30 21 -16 68 -39 103 -50 35 -11 88 -34 116 -50 29 -17 59 -30 67 -30 8 0 25
-11 37 -24 13 -14 37 -30 54 -37 18 -7 52 -25 77 -40 25 -15 65 -34 90 -42 25
-9 77 -28 115 -42 101 -38 116 -43 156 -49 21 -4 52 -17 71 -30 19 -12 49 -28
68 -34 18 -7 41 -19 51 -28 9 -8 40 -18 68 -23 35 -5 61 -17 80 -35 15 -14 34
-26 42 -26 27 0 234 -78 339 -128 58 -28 132 -58 165 -67 33 -10 81 -28 107
-41 52 -26 142 -62 253 -101 44 -15 80 -35 99 -55 26 -28 28 -36 22 -82 -3
-28 -8 -123 -12 -211 -3 -88 -10 -182 -16 -208 -8 -35 -7 -60 2 -92 9 -33 9
-51 0 -79 -9 -28 -9 -43 1 -70 10 -27 10 -43 1 -73 -25 -80 -22 -847 5 -1233
4 -58 6 -118 6 -135 -6 -179 -2 -558 5 -586 5 -21 16 -47 24 -58 14 -19 14
-26 0 -64 -8 -23 -16 -82 -17 -132 -1 -49 -5 -108 -9 -131 -8 -38 -6 -44 24
-74 28 -28 30 -34 17 -49 -16 -18 -23 -53 -37 -189 -8 -75 -7 -99 4 -120 20
-39 31 -118 17 -126 -15 -10 -14 -60 4 -102 9 -23 11 -42 6 -57 -13 -33 -31
-138 -31 -178 0 -19 7 -52 15 -74 10 -29 14 -89 15 -213 0 -153 2 -179 21
-222 22 -52 28 -145 14 -237 -4 -32 -3 -70 4 -100 8 -32 9 -64 3 -95 -11 -58
9 -106 50 -122 15 -5 30 -16 32 -22 8 -21 -5 -53 -24 -59 -9 -3 -25 -14 -35
-25 -16 -18 -17 -21 -1 -44 9 -14 16 -40 16 -58 0 -18 4 -40 9 -47 6 -9 6 -22
-1 -34 -6 -11 -11 -105 -12 -216 -2 -123 -7 -206 -14 -224 -18 -42 -14 -198 7
-311 13 -68 16 -107 10 -125 -6 -16 -6 -92 0 -191 9 -169 5 -205 -28 -214 -30
-10 -151 31 -192 64 -22 17 -60 38 -84 47 -25 8 -45 21 -45 28 0 19 -127 106
-178 121 -23 7 -57 25 -76 39 -18 14 -44 25 -57 25 -34 0 -49 18 -42 51 4 23
0 30 -28 45 -19 9 -45 25 -59 36 -15 12 -33 17 -46 14 -15 -4 -32 2 -52 19
-17 14 -41 25 -55 25 -16 0 -37 12 -54 29 -16 17 -58 41 -98 56 -116 43 -275
147 -275 180 0 40 -89 105 -144 105 -18 0 -26 6 -28 21 -3 23 -5 25 -80 60
-26 12 -61 36 -78 52 -16 16 -51 35 -76 43 -64 19 -127 58 -148 89 -10 15 -37
35 -61 45 -23 10 -46 24 -50 30 -4 7 -33 23 -64 37 -45 20 -65 24 -103 19 -38
-5 -47 -4 -42 7 3 8 16 19 30 25 48 22 24 61 -54 86 -27 9 -67 32 -88 50 -21
18 -58 45 -82 60 -23 15 -47 37 -52 50 -10 28 -47 58 -92 76 -43 17 -215 146
-240 181 -11 15 -35 35 -53 45 -19 10 -42 34 -52 53 -17 33 -24 36 -71 41 -42
5 -56 11 -81 39 -37 41 -44 85 -45 292 -1 115 -5 160 -15 172 -9 12 -11 31 -7
64 7 51 7 54 5 178 -1 44 3 136 9 204 7 82 7 131 1 143 -6 10 -7 22 -4 27 12
21 15 138 4 190 -6 31 -13 74 -15 96 -6 87 -12 132 -24 180 -6 28 -12 82 -12
120 0 39 -7 100 -15 137 -9 39 -13 88 -10 115 3 26 1 55 -3 63 -4 8 -4 96 2
195 7 133 6 186 -2 205 -7 14 -15 72 -20 130 -4 58 -12 116 -17 130 -7 17 -7
32 0 48 7 16 7 64 -1 160 -7 75 -12 155 -11 177 1 22 -4 74 -10 115 -6 41 -13
143 -15 225 -2 83 -9 193 -15 245 -6 52 -13 217 -16 365 -4 149 -9 277 -12
285 -6 15 -10 98 -17 290 -2 58 -7 120 -11 138 -5 22 -2 53 10 93 13 48 14 71
6 107 -17 83 -23 135 -26 242 -2 58 -9 125 -15 150 -7 25 -11 55 -10 68 5 68
4 171 -3 282 -11 166 -11 162 -7 260 3 102 24 170 52 170 10 0 46 -11 80 -25z
m5706 8 c-2 -10 -13 -19 -26 -21 -24 -4 -29 7 -10 26 18 18 40 15 36 -5z
m-4742 -208 c27 -8 63 -14 80 -13 28 1 136 -34 159 -51 16 -13 112 -41 137
-41 13 0 77 -27 142 -60 66 -33 129 -60 140 -61 32 -1 273 -127 371 -194 48
-32 128 -78 179 -100 115 -52 218 -121 214 -144 -4 -18 -10 -18 -98 4 -162 40
-224 65 -299 122 -24 18 -60 35 -80 39 -106 17 -295 100 -400 175 -38 27 -65
39 -89 39 -32 0 -127 44 -163 76 -20 18 -181 93 -289 135 -47 18 -91 39 -97
48 -35 41 4 53 93 26z m1124 -344 c0 -12 -29 -23 -41 -15 -18 10 -9 24 16 24
14 0 25 -4 25 -9z m2895 -431 c-3 -5 -10 -10 -16 -10 -5 0 -9 5 -9 10 0 6 7
10 16 10 8 0 12 -4 9 -10z"/>
<path d="M16515 9610 c-15 -28 -14 -30 3 -30 23 0 42 19 42 42 0 28 -28 21
-45 -12z"/>
<path d="M17757 9570 c-62 -22 -70 -30 -58 -62 5 -14 8 -28 5 -31 -3 -2 15 -7
38 -11 37 -6 46 -4 60 15 10 11 18 29 18 40 0 10 4 20 10 24 11 7 3 32 -13 37
-7 2 -34 -3 -60 -12z"/>
<path d="M17533 9473 c-7 -2 -13 -11 -13 -18 0 -17 61 -65 81 -65 31 0 68 -25
71 -49 4 -29 37 -44 62 -26 16 12 16 14 1 27 -41 33 -63 60 -68 86 -4 21 -14
30 -46 40 -42 12 -67 14 -88 5z"/>
<path d="M20276 9428 c-17 -113 -22 -197 -40 -798 -2 -69 0 -134 4 -145 4 -11
3 -56 -1 -100 -4 -45 -10 -173 -13 -285 -3 -113 -10 -245 -15 -295 -6 -56 -7
-145 -2 -235 5 -80 8 -255 7 -390 -1 -135 1 -273 6 -307 4 -34 4 -73 -1 -85
-5 -13 -4 -48 1 -83 12 -73 18 -186 17 -280 -1 -38 -1 -101 0 -140 5 -183 -4
-508 -15 -535 -8 -23 -19 -308 -17 -465 1 -77 2 -192 2 -255 3 -414 8 -629 16
-673 4 -22 3 -48 -2 -60 -14 -31 4 -322 23 -365 12 -29 12 -39 0 -75 -15 -48
-16 -451 0 -467 5 -5 27 -15 49 -22 44 -14 53 -33 31 -63 -12 -16 -16 -17 -30
-6 -11 9 -16 10 -16 2 0 -6 -6 -11 -14 -11 -18 0 -26 -93 -14 -163 5 -29 10
-104 12 -167 2 -80 8 -127 20 -155 15 -35 16 -49 5 -119 -8 -54 -9 -116 -4
-195 5 -64 7 -136 6 -161 0 -25 -2 -93 -4 -152 -1 -58 -6 -110 -10 -115 -5 -4
-39 -11 -75 -14 -37 -3 -112 -15 -167 -26 -55 -12 -127 -24 -160 -27 -92 -9
-203 -26 -280 -42 -95 -19 -244 -44 -335 -55 -178 -22 -217 -28 -255 -43 -22
-8 -56 -15 -75 -16 -19 0 -51 -5 -70 -11 -46 -14 -133 -27 -245 -38 -49 -5
-126 -19 -170 -31 -134 -37 -148 -40 -203 -40 -33 0 -68 -8 -92 -20 -25 -13
-59 -20 -95 -20 -38 0 -69 -7 -98 -22 -47 -24 -93 -34 -213 -47 -44 -5 -134
-20 -200 -34 -65 -14 -159 -28 -209 -31 -49 -3 -142 -15 -205 -26 -146 -26
-156 -28 -265 -40 -49 -6 -133 -15 -185 -21 -52 -6 -131 -12 -175 -14 -44 -1
-105 -9 -135 -18 -30 -8 -86 -18 -125 -22 -94 -8 -190 -32 -247 -61 -57 -29
-60 -33 -48 -75 15 -53 25 -61 74 -69 44 -7 83 -1 221 34 33 9 89 16 125 16
36 0 97 7 135 15 39 8 96 15 127 15 32 0 75 6 95 14 57 21 100 27 255 31 78 3
149 7 157 10 23 6 213 33 296 41 40 3 83 14 101 25 17 11 40 19 50 19 11 1 37
8 59 16 22 8 65 19 95 25 52 10 89 15 281 37 42 5 91 16 109 26 18 9 48 16 67
16 19 0 43 5 53 10 11 6 41 12 67 15 26 2 77 11 113 19 36 8 97 20 135 25 39
6 95 16 125 22 30 5 86 14 123 19 43 5 92 20 135 41 56 27 77 32 142 33 53 1
84 6 101 18 15 9 58 19 100 23 41 4 95 15 120 25 33 14 55 17 75 11 16 -4 59
-8 96 -9 66 -2 68 -1 83 29 16 29 18 30 68 24 29 -3 93 -1 142 5 118 13 228
21 287 20 26 -1 57 4 68 10 16 9 37 7 90 -6 62 -16 70 -17 91 -2 21 13 24 24
25 74 0 33 4 102 8 154 7 80 6 102 -9 135 -21 49 -25 93 -12 122 7 16 5 33 -7
63 -9 22 -16 59 -16 82 0 23 -5 69 -11 103 -8 50 -7 73 6 123 13 51 14 90 9
206 -6 134 -5 150 16 215 26 83 20 111 -38 172 -30 32 -33 41 -27 70 14 66 23
70 167 64 131 -6 161 -12 207 -43 14 -10 47 -26 72 -35 32 -12 69 -42 129
-102 45 -47 101 -95 124 -108 22 -12 45 -31 51 -43 21 -41 78 -105 109 -120
40 -21 106 -84 106 -102 0 -8 32 -44 70 -80 59 -55 70 -70 70 -98 0 -26 7 -38
38 -61 20 -15 41 -35 46 -43 5 -8 34 -40 66 -71 57 -57 100 -118 100 -144 0
-18 52 -55 78 -55 10 0 30 -8 43 -19 33 -25 139 -81 155 -81 7 0 29 -14 48
-31 20 -17 68 -43 108 -59 40 -15 89 -37 108 -48 19 -11 47 -20 62 -20 14 0
57 -11 95 -25 92 -33 152 -49 187 -48 16 0 64 -16 105 -35 69 -32 83 -35 143
-32 37 3 74 0 83 -5 12 -6 29 -4 54 7 20 8 79 22 131 30 52 8 113 24 135 35
21 12 55 21 73 21 19 0 51 4 71 9 20 6 63 17 97 25 33 9 79 16 102 16 24 0 68
9 100 21 31 12 77 25 102 30 70 14 143 40 170 61 14 10 36 27 50 37 19 15 24
28 25 62 0 43 0 44 35 44 83 1 116 15 162 69 25 28 51 62 58 76 14 28 56 81
93 120 14 14 27 37 31 51 4 17 15 29 30 33 39 10 45 109 9 161 -21 32 -16 90
11 122 21 24 26 26 50 15 23 -10 28 -9 42 14 17 24 16 36 -2 157 -2 15 -13 41
-25 57 -19 24 -20 32 -9 45 8 9 12 37 11 68 -1 44 4 61 29 99 41 61 46 127 11
144 -30 15 -55 66 -57 119 -4 77 -16 140 -34 180 -25 53 -44 193 -29 211 6 8
13 31 16 51 2 21 6 44 8 50 2 7 -6 25 -19 40 -13 16 -26 41 -30 56 -8 32 -25
31 -41 0 -16 -31 -37 -54 -44 -47 -3 3 -6 36 -7 73 0 56 -4 72 -23 92 -17 18
-21 31 -16 54 9 40 6 145 -5 165 -5 9 -3 28 5 48 11 24 12 46 5 89 -6 32 -10
77 -10 101 0 24 -6 55 -14 70 -11 22 -12 38 -4 77 6 28 10 57 9 65 0 8 -4 47
-7 87 -5 60 -3 79 14 115 12 24 30 64 40 89 19 44 76 100 131 129 25 13 106 6
116 -10 3 -5 28 -12 55 -16 29 -4 56 -14 66 -25 9 -11 30 -19 47 -19 24 0 28
-3 21 -17 -8 -20 -8 -36 3 -110 6 -39 15 -57 36 -73 15 -12 27 -28 27 -36 0
-8 11 -26 25 -40 14 -14 37 -43 51 -65 14 -23 32 -39 44 -39 10 0 22 -5 25
-10 4 -7 12 -7 25 0 28 15 30 13 30 -26 0 -51 42 -99 118 -135 34 -16 62 -33
62 -37 0 -4 13 -16 30 -25 16 -10 33 -29 36 -42 6 -26 43 -55 70 -55 9 0 55
-22 103 -49 47 -26 136 -68 196 -91 61 -24 128 -56 150 -70 55 -37 138 -63
175 -55 21 5 35 2 47 -10 11 -12 26 -15 49 -12 20 3 55 -2 90 -15 36 -13 70
-19 95 -15 29 4 45 0 68 -17 28 -21 38 -22 163 -19 306 8 610 34 646 57 5 3
51 14 103 26 52 11 103 22 115 25 11 2 38 18 59 35 56 44 94 41 144 -12 66
-71 81 -95 81 -127 0 -20 18 -57 55 -111 l55 -81 0 -80 c0 -51 -5 -90 -15
-108 -15 -30 -37 -88 -59 -158 -8 -23 -23 -54 -35 -69 -11 -15 -21 -35 -21
-46 0 -11 -5 -28 -10 -39 -9 -15 -6 -26 16 -54 34 -45 74 -48 99 -8 10 16 28
40 42 54 28 31 64 120 67 170 4 42 41 97 72 105 31 8 92 -11 147 -46 26 -16
51 -30 55 -30 4 0 27 -16 51 -35 32 -26 54 -35 81 -35 43 0 56 12 58 58 4 55
-36 96 -113 116 -71 20 -123 45 -175 86 -19 15 -52 33 -72 39 -32 11 -42 22
-73 84 -50 100 -106 209 -116 227 -5 8 -16 29 -24 47 -8 17 -19 34 -25 38 -5
3 -10 15 -10 27 0 11 -8 33 -17 49 -27 45 -16 60 185 252 54 52 142 210 140
254 0 10 4 56 10 102 7 61 7 89 -1 102 -9 15 -8 25 6 48 10 18 17 50 17 83 0
42 6 62 25 88 18 25 24 42 20 61 -3 14 -1 38 5 54 9 24 7 33 -16 67 l-27 39
21 22 c26 26 97 30 112 7 15 -23 12 -91 -7 -151 -9 -30 -16 -63 -15 -73 1 -11
-3 -27 -8 -37 -12 -21 6 -38 59 -56 94 -33 146 4 185 130 31 100 32 116 6 164
-11 21 -20 43 -20 49 0 32 -124 94 -187 94 -69 0 -152 83 -152 151 0 52 -8 99
-26 154 -30 95 -35 111 -35 128 0 9 -11 32 -24 51 -13 19 -26 58 -30 88 -7 58
-34 146 -61 197 -18 37 -55 147 -55 167 0 13 -39 62 -131 163 -28 31 -49 64
-49 76 0 13 -7 29 -17 36 -19 16 -63 106 -63 131 0 25 -47 76 -90 98 -21 11
-53 33 -70 49 -18 16 -58 39 -89 50 -31 12 -76 32 -101 45 -25 14 -65 34 -90
46 -25 12 -57 32 -71 46 -23 22 -36 25 -134 29 -59 3 -137 12 -172 20 -35 8
-84 15 -107 15 -24 0 -60 7 -80 15 -27 12 -42 13 -56 5 -15 -8 -27 -7 -48 4
-38 19 -290 25 -351 7 -27 -8 -58 -10 -80 -5 -41 9 -285 7 -376 -2 -33 -4 -88
-12 -122 -19 -41 -9 -75 -10 -100 -5 -27 7 -51 5 -81 -5 -23 -8 -60 -15 -82
-15 -22 0 -59 -7 -82 -14 -55 -19 -183 -35 -226 -28 -21 3 -39 -1 -50 -10 -30
-26 -53 -30 -215 -43 -87 -7 -164 -18 -169 -23 -8 -8 -21 -7 -43 3 -29 11 -41
11 -96 -5 -106 -30 -205 -68 -244 -95 -20 -13 -53 -27 -74 -31 -38 -7 -193
-84 -226 -114 -11 -10 -39 -27 -62 -39 -23 -11 -44 -30 -48 -41 -4 -11 -30
-36 -60 -54 -29 -19 -61 -47 -71 -61 -11 -15 -29 -37 -42 -49 -99 -91 -136
-137 -172 -213 -32 -66 -40 -96 -44 -158 -3 -50 -11 -89 -25 -116 -14 -26 -21
-58 -21 -95 0 -30 -4 -63 -9 -73 -5 -9 -13 -69 -17 -132 -3 -63 -8 -132 -10
-154 -2 -22 -6 -125 -8 -229 -4 -147 -2 -193 8 -210 8 -11 22 -57 31 -101 14
-63 25 -88 51 -118 19 -20 34 -44 34 -53 0 -8 -13 -32 -29 -52 -41 -53 -45
-81 -16 -112 19 -20 25 -42 34 -119 9 -86 13 -97 42 -127 27 -28 31 -37 25
-66 -4 -23 -1 -45 10 -67 11 -23 14 -45 9 -77 -5 -33 -2 -51 11 -73 16 -27 16
-33 2 -77 -15 -48 -14 -63 13 -151 8 -25 6 -39 -6 -64 -10 -19 -15 -46 -12
-68 3 -24 -3 -50 -16 -76 -15 -30 -20 -59 -19 -112 0 -58 -3 -77 -20 -98 -11
-14 -18 -32 -15 -39 7 -17 -24 -80 -54 -112 -12 -13 -19 -30 -16 -38 4 -9 -5
-28 -18 -45 -14 -16 -25 -36 -25 -44 0 -20 -36 -104 -47 -108 -11 -5 -63 -76
-63 -86 0 -5 -20 -36 -44 -70 -48 -65 -95 -106 -136 -118 -14 -4 -38 -17 -55
-30 -71 -52 -103 -57 -349 -52 l-227 5 -57 34 c-31 19 -104 58 -162 86 -113
54 -138 75 -349 284 -62 62 -122 131 -133 153 -12 22 -29 52 -39 66 -27 38
-50 113 -53 175 -2 30 -8 60 -13 67 -5 6 -24 50 -42 97 -17 47 -38 97 -46 112
-8 14 -15 37 -15 51 0 14 -11 39 -25 55 -15 18 -25 42 -25 61 0 51 -66 168
-133 233 -22 22 -37 45 -37 60 0 13 -25 61 -55 107 -30 46 -55 88 -55 95 0 11
-199 206 -211 206 -4 0 -24 16 -45 35 -21 19 -41 35 -45 35 -4 0 -32 22 -62
50 -74 67 -125 88 -220 88 -164 1 -174 18 -143 243 17 121 21 220 12 269 -5
23 -2 48 8 72 22 52 20 140 -5 220 -20 63 -21 77 -12 210 6 91 6 169 0 213 -5
39 -9 90 -8 115 1 25 1 81 0 125 -4 141 -2 198 10 263 9 52 8 70 -3 95 -20 45
-30 199 -27 437 0 57 14 191 22 220 6 19 13 103 16 185 4 124 2 155 -10 179
-12 22 -13 34 -5 49 7 14 6 53 -3 134 -9 87 -10 122 -1 146 10 29 13 55 13
157 0 19 -4 81 -9 137 -8 79 -7 112 3 146 7 24 13 92 14 151 0 60 3 123 6 140
8 39 -24 117 -56 140 -33 22 -37 21 -43 -16z m6137 -1920 c16 1 40 -6 54 -15
22 -15 33 -15 103 -4 83 14 152 6 213 -25 16 -8 39 -11 53 -8 29 7 105 -17
195 -63 37 -18 76 -33 87 -33 11 0 27 -11 36 -25 9 -14 43 -38 75 -55 33 -16
69 -43 81 -60 12 -16 26 -30 33 -30 27 0 98 -43 95 -59 -3 -24 52 -158 74
-178 10 -9 25 -40 34 -69 8 -29 21 -58 29 -64 8 -7 15 -27 15 -45 0 -18 11
-47 25 -66 13 -19 31 -50 40 -69 9 -19 24 -44 34 -55 28 -30 51 -81 51 -112 0
-17 12 -39 31 -59 22 -23 36 -53 51 -110 11 -44 25 -85 31 -93 13 -15 27 -118
30 -209 2 -60 -19 -88 -57 -76 -12 4 -82 8 -156 10 -74 1 -139 3 -143 3 -5 1
-6 22 -3 49 7 49 -15 256 -28 269 -4 4 -29 8 -55 9 -38 0 -57 7 -87 31 -39 31
-136 63 -253 84 -30 5 -59 13 -64 16 -6 4 -128 7 -271 8 l-260 2 -122 -43
c-94 -33 -135 -53 -178 -88 -89 -72 -91 -72 -129 -32 -32 35 -99 66 -141 66
-12 0 -37 11 -54 24 -22 16 -52 25 -99 30 -40 4 -77 14 -94 26 -19 14 -44 20
-83 20 -31 0 -73 7 -92 15 -40 16 -42 16 -249 12 -155 -4 -201 -13 -310 -60
-50 -22 -125 -81 -125 -99 0 -5 -9 -21 -20 -36 -17 -24 -18 -34 -10 -90 6 -43
5 -71 -2 -87 -13 -30 -65 -55 -111 -55 -32 0 -40 6 -71 54 -20 29 -36 56 -36
60 0 4 -16 27 -36 51 -24 30 -50 49 -82 59 -57 20 -74 9 -49 -33 9 -16 17 -37
17 -46 0 -9 9 -19 20 -22 24 -6 25 -21 5 -59 -8 -16 -15 -37 -15 -47 0 -9 -24
-41 -54 -70 -57 -55 -79 -102 -55 -118 8 -5 51 -9 97 -9 81 0 84 -1 113 -32
23 -26 29 -42 29 -76 0 -24 5 -53 11 -64 17 -31 -16 -58 -82 -67 -58 -8 -127
-39 -160 -72 -11 -11 -33 -28 -48 -37 -48 -29 -135 -103 -148 -126 -7 -11 -12
-32 -13 -46 0 -14 -7 -36 -17 -49 -27 -39 -25 -339 4 -449 4 -18 4 -81 -1
-142 -8 -90 -7 -116 6 -147 21 -52 48 -132 57 -169 5 -16 16 -42 25 -56 9 -14
15 -39 14 -56 -1 -17 3 -42 10 -56 7 -14 17 -36 23 -49 6 -13 12 -34 14 -48 1
-13 10 -41 19 -62 10 -21 14 -48 10 -62 -4 -16 0 -34 10 -50 9 -13 16 -33 16
-45 0 -21 14 -86 36 -165 8 -27 13 -68 13 -90 -1 -22 4 -67 11 -100 14 -65 15
-88 6 -210 -16 -218 -28 -313 -45 -350 -64 -141 -80 -176 -108 -230 -17 -33
-51 -83 -75 -111 -23 -28 -69 -88 -100 -132 -64 -89 -140 -149 -268 -212 -105
-52 -337 -128 -450 -149 -30 -5 -68 -14 -83 -20 -16 -6 -52 -11 -80 -11 -29 0
-74 -7 -101 -15 -29 -9 -53 -11 -60 -6 -6 5 -45 14 -86 20 -41 7 -95 16 -120
21 -25 5 -83 15 -130 21 -136 19 -384 108 -470 169 -14 10 -47 25 -75 34 -27
10 -66 28 -86 41 -20 13 -53 31 -74 39 -20 9 -46 27 -57 41 -11 14 -25 25 -33
25 -7 0 -22 15 -32 33 -11 17 -49 67 -84 110 -156 190 -190 234 -207 261 -9
16 -26 40 -38 55 -11 14 -32 46 -46 71 -15 25 -47 65 -72 89 -25 24 -46 49
-46 55 0 7 -42 55 -93 107 -52 52 -96 99 -98 104 -2 6 -20 21 -39 35 -19 13
-60 43 -90 67 -37 30 -84 54 -144 75 -84 28 -96 30 -180 23 -151 -11 -277 -6
-305 13 -13 9 -33 22 -45 29 -19 11 -21 20 -18 80 2 37 8 89 14 116 10 39 9
55 -4 95 -22 63 -23 254 -1 296 11 21 13 42 8 75 -9 62 -6 130 6 153 7 14 6
31 -6 63 -17 42 -16 44 5 73 19 26 21 35 12 59 -6 15 -13 55 -16 88 -12 125
-22 190 -30 203 -5 8 -2 20 9 32 21 23 26 88 10 115 -19 31 -30 162 -15 180
14 17 85 21 95 5 3 -5 24 -14 47 -21 23 -6 64 -26 92 -45 28 -19 55 -34 59
-34 17 0 147 -103 147 -116 0 -7 16 -25 35 -40 22 -17 35 -35 35 -50 0 -12 18
-44 40 -69 22 -25 40 -54 40 -64 0 -31 66 -150 112 -202 80 -91 108 -126 108
-138 0 -12 5 -22 84 -177 25 -51 46 -100 46 -110 0 -11 9 -30 20 -44 11 -14
20 -32 20 -41 0 -15 51 -176 82 -259 7 -19 23 -51 34 -70 12 -19 25 -48 28
-64 4 -17 16 -42 27 -57 11 -16 24 -41 30 -57 12 -34 127 -132 155 -132 16 0
17 -2 4 -10 -13 -8 -12 -11 5 -25 11 -8 37 -23 59 -32 22 -9 51 -34 68 -57 38
-53 100 -91 189 -116 39 -10 77 -24 84 -30 13 -11 68 -23 181 -39 34 -5 71
-14 83 -20 17 -9 30 -9 57 -1 20 7 47 10 61 7 15 -3 44 1 65 9 21 7 75 14 121
15 102 2 186 28 322 100 55 29 115 61 134 71 19 10 43 31 54 48 11 17 32 33
50 38 18 5 37 18 43 29 5 12 28 39 50 60 22 21 47 54 56 73 9 19 25 44 35 55
40 45 123 214 123 249 0 14 5 36 12 50 9 22 7 31 -16 65 -31 45 -29 54 18 76
28 13 32 20 28 45 -3 19 3 38 16 55 12 15 24 50 28 82 5 46 3 61 -15 94 -19
34 -21 43 -10 72 9 25 9 56 -1 137 -7 58 -13 128 -14 155 -1 28 -7 60 -14 71
-6 12 -11 34 -10 50 0 16 -6 55 -15 86 -9 31 -18 85 -21 120 -2 35 -9 83 -15
108 -6 25 -14 61 -17 81 -4 23 -14 38 -28 45 -19 8 -21 17 -22 116 -1 59 -5
115 -9 125 -5 10 -9 40 -10 66 -1 32 -9 58 -25 79 -31 42 -39 95 -28 181 5 40
9 84 8 98 0 15 7 43 15 63 15 34 19 133 25 503 0 13 9 37 20 55 11 18 25 44
31 58 6 14 21 46 35 73 13 26 24 54 24 63 0 8 6 27 14 42 23 42 128 150 158
161 16 6 63 36 105 68 43 31 101 73 128 94 71 52 149 89 188 89 20 0 46 9 62
22 15 11 43 24 64 29 20 4 50 12 66 17 156 55 358 98 540 116 22 2 74 9 115
16 41 7 111 13 155 14 44 1 93 7 108 14 16 7 40 12 54 12 14 0 37 6 51 14 30
16 410 43 461 33 17 -4 43 -2 59 4 15 6 105 11 207 11 98 0 188 4 200 9 11 5
47 6 80 3 33 -4 73 -6 88 -6z m-983 -1209 c19 -6 84 -14 144 -19 93 -7 119
-14 168 -39 32 -17 65 -31 73 -31 8 0 28 -12 45 -27 37 -34 63 -123 49 -162
-9 -23 5 -204 18 -223 2 -5 -1 -44 -8 -89 -14 -96 -33 -117 -93 -101 -21 6
-50 7 -73 1 -53 -12 -126 -11 -160 2 -93 36 -139 39 -367 23 -98 -7 -120 3
-141 64 -8 26 -27 58 -41 73 -25 26 -69 131 -81 194 -3 17 -12 40 -20 52 -13
19 -12 32 1 104 19 102 34 126 83 134 21 3 54 13 73 22 31 14 136 27 255 31
22 1 56 -3 75 -9z m1701 -72 c75 -20 145 -34 156 -31 11 3 41 -4 67 -16 48
-23 57 -39 55 -95 0 -16 0 -48 1 -70 1 -24 -9 -62 -25 -98 -26 -56 -26 -58
-10 -101 14 -35 15 -51 6 -84 -7 -23 -16 -44 -21 -47 -6 -3 -10 -21 -10 -40 0
-46 -51 -120 -92 -134 -52 -18 -154 -14 -199 9 -33 18 -63 21 -183 24 -79 2
-149 7 -156 11 -25 15 -179 31 -255 27 -16 -1 -58 2 -93 6 -85 11 -114 40
-142 147 -12 44 -26 95 -32 113 -14 47 -12 270 3 288 18 22 114 74 137 74 12
0 44 9 72 20 28 11 65 20 83 20 72 -1 361 10 364 14 14 13 158 -6 274 -37z
m-1046 -72 c0 -30 -39 -27 -43 3 -3 20 0 23 20 20 15 -2 23 -10 23 -23z
m-1235 -324 c14 -10 30 -26 35 -37 6 -10 18 -30 27 -44 9 -14 19 -45 23 -70
12 -87 39 -134 85 -152 14 -5 118 -9 231 -9 117 0 221 -4 240 -10 78 -24 350
-44 442 -33 56 7 128 60 140 104 13 52 54 46 61 -8 7 -65 54 -92 160 -92 41 0
77 -4 80 -8 3 -5 58 -8 123 -7 97 2 127 -2 168 -18 39 -15 80 -20 182 -22 111
-3 138 -7 165 -23 24 -14 58 -21 120 -25 139 -8 196 28 273 168 22 39 47 103
57 144 9 41 26 84 37 95 31 31 124 46 191 30 30 -7 79 -13 108 -14 67 0 111
-22 114 -55 1 -14 2 -37 4 -52 8 -111 3 -181 -26 -303 -6 -25 -15 -76 -21
-115 -6 -38 -19 -101 -30 -140 -10 -38 -19 -77 -19 -86 0 -30 -58 -144 -103
-204 -25 -33 -69 -80 -98 -103 -64 -52 -86 -52 -188 0 -136 69 -153 118 -77
212 43 53 86 125 86 145 0 25 -49 43 -96 36 -54 -8 -117 -61 -200 -172 -63
-84 -96 -110 -156 -123 -24 -5 -79 -18 -123 -29 -130 -33 -245 -45 -327 -35
-73 9 -250 11 -343 5 -58 -4 -182 12 -211 26 -10 6 -38 14 -62 18 -24 4 -71
24 -105 46 -124 77 -210 105 -242 79 -14 -12 -12 -17 17 -48 49 -51 108 -92
134 -92 12 0 41 -16 64 -35 27 -23 52 -35 71 -35 17 0 42 -6 58 -14 15 -8 70
-25 122 -37 74 -18 117 -22 199 -20 183 5 243 4 305 -4 83 -11 206 -7 290 11
38 8 99 19 134 24 34 5 71 16 80 24 19 17 102 36 157 36 25 0 42 -9 68 -35 20
-19 40 -35 46 -35 16 0 63 -78 57 -94 -3 -8 -32 -23 -64 -32 -32 -9 -85 -30
-119 -45 -34 -16 -83 -34 -110 -40 -61 -13 -243 -32 -304 -31 -108 3 -452 23
-529 32 -47 5 -89 6 -94 3 -5 -3 -35 -7 -67 -9 -42 -2 -62 1 -70 11 -7 8 -17
15 -22 15 -11 0 -155 61 -267 113 -46 21 -107 46 -135 54 -28 8 -78 29 -111
46 -39 21 -81 33 -120 37 -55 5 -60 7 -58 27 2 17 -8 30 -37 49 -22 14 -42 35
-45 45 -9 28 -142 159 -162 159 -19 0 -43 41 -43 72 0 10 -25 45 -56 77 -58
60 -85 113 -77 153 3 15 -3 30 -16 42 -12 11 -21 25 -21 32 0 19 -52 94 -65
94 -7 0 -10 11 -7 28 3 20 -4 37 -24 59 -15 17 -28 44 -30 59 -2 14 -12 36
-22 48 -35 37 -35 59 -2 105 46 63 91 72 150 32z"/>
<path d="M24354 6299 c-10 -17 13 -36 27 -22 12 12 4 33 -11 33 -5 0 -12 -5
-16 -11z"/>
<path d="M25428 6054 c-9 -11 -19 -36 -23 -57 -6 -33 -3 -45 29 -93 39 -58 64
-73 135 -80 40 -4 47 -1 83 36 36 36 40 44 35 75 -15 90 -60 126 -171 133 -60
4 -74 1 -88 -14z"/>
<path d="M26818 6001 c-39 -25 -46 -35 -50 -68 -10 -80 34 -145 107 -159 67
-12 83 -1 154 111 13 20 13 28 -4 65 -38 85 -121 105 -207 51z"/>
<path d="M18054 7993 c-19 -25 -30 -51 -31 -78 -1 -22 -4 -78 -6 -125 -3 -68
0 -93 14 -124 14 -30 17 -52 13 -92 -4 -31 -1 -73 7 -105 13 -52 19 -163 18
-334 0 -73 2 -82 25 -104 14 -14 26 -32 26 -42 0 -24 32 -34 47 -14 6 10 10
22 7 29 -3 7 4 21 16 31 29 26 26 79 -5 117 -26 31 -29 45 -19 97 10 47 31 53
89 26 28 -13 56 -24 63 -24 7 -1 31 -13 54 -28 64 -43 82 -53 99 -53 9 0 59
-25 110 -55 70 -41 104 -55 133 -55 28 0 45 -7 62 -25 20 -22 26 -23 54 -13
60 21 90 108 51 147 -11 11 -64 41 -117 67 -54 26 -152 76 -217 111 -66 35
-149 73 -184 84 -37 12 -63 26 -63 35 0 7 16 39 36 69 23 36 34 65 32 82 -2
21 5 32 42 58 25 17 50 42 56 54 6 12 21 33 34 46 20 21 22 31 16 72 -8 62
-16 69 -66 54 -29 -8 -41 -18 -46 -36 -3 -13 -31 -43 -61 -66 -54 -42 -75 -71
-86 -120 -7 -27 -33 -39 -70 -31 -16 3 -18 10 -12 39 4 21 2 40 -6 49 -7 8 -9
26 -4 46 4 18 9 60 12 94 3 47 1 63 -11 73 -9 8 -16 20 -16 27 0 18 -36 54
-54 54 -7 0 -27 -17 -42 -37z"/>
<path d="M16978 7860 c-27 -14 -66 -21 -150 -26 -126 -7 -186 -27 -251 -84
-31 -26 -37 -39 -37 -70 0 -30 6 -43 27 -60 33 -25 59 -23 260 21 72 16 137
27 145 24 8 -3 20 -20 26 -38 14 -33 30 -278 38 -571 l4 -168 -45 -45 -45 -45
-97 4 c-70 3 -111 10 -143 25 -120 54 -140 54 -140 2 0 -41 57 -119 118 -160
43 -29 57 -33 152 -40 159 -12 254 21 298 101 23 42 47 153 37 170 -4 6 -11
46 -16 88 -4 42 -13 106 -19 142 -6 38 -7 122 -4 200 6 137 0 192 -33 309 -14
49 -14 56 1 88 25 53 20 77 -24 117 -46 41 -52 42 -102 16z"/>
<path d="M17553 7815 c-12 -8 -25 -30 -28 -48 -4 -17 -14 -41 -21 -52 -8 -11
-14 -41 -14 -68 0 -26 -6 -60 -14 -75 -26 -51 -47 -126 -57 -203 -5 -43 -16
-94 -25 -115 -29 -69 -36 -150 -19 -209 11 -39 12 -61 5 -80 -11 -29 -13 -114
-4 -139 13 -34 51 -13 103 57 8 9 17 36 22 60 5 23 11 53 14 67 7 38 32 50
103 50 53 0 75 -6 131 -34 36 -19 87 -45 113 -58 l47 -22 38 21 c24 15 37 29
36 40 -19 139 -38 191 -83 223 -24 17 -30 29 -30 58 0 26 -6 41 -20 50 -11 7
-20 23 -20 37 0 13 -9 39 -20 57 -11 18 -20 45 -20 59 0 14 -7 34 -15 45 -8
10 -15 33 -15 50 0 24 -8 38 -35 58 -30 23 -35 33 -35 67 0 72 -87 139 -137
104z m95 -267 c5 -7 13 -36 17 -65 5 -39 13 -56 31 -68 17 -11 24 -25 24 -47
0 -18 11 -48 27 -70 19 -28 23 -42 15 -50 -14 -14 -202 -11 -220 4 -18 15 -12
67 20 180 30 107 60 147 86 116z"/>
<path d="M2008 6398 c-24 -4 -54 -13 -66 -20 -30 -15 -228 -16 -329 0 -167 25
-433 7 -433 -29 0 -19 96 -104 150 -134 l55 -30 238 -2 c213 -2 241 0 270 16
55 31 83 33 170 11 45 -11 104 -23 131 -26 26 -3 62 -14 78 -24 27 -16 45 -18
137 -13 195 11 286 11 349 -2 48 -10 87 -11 168 -3 81 8 123 7 182 -3 42 -7
154 -15 247 -16 264 -4 376 -10 425 -23 53 -15 69 -15 305 -7 99 3 196 11 215
17 19 5 48 7 65 4 16 -3 86 1 155 8 69 8 179 13 245 11 314 -8 494 -5 576 12
26 5 46 2 68 -10 22 -11 55 -16 99 -15 88 1 171 -6 203 -18 35 -14 127 -24
233 -27 50 -1 132 -7 181 -13 50 -6 118 -7 152 -3 33 4 72 3 85 -2 26 -10 152
-32 271 -47 43 -6 92 -17 107 -25 16 -8 64 -20 106 -26 43 -6 98 -21 123 -34
25 -14 78 -29 116 -34 39 -5 90 -14 114 -21 24 -6 63 -8 86 -4 33 5 57 0 116
-24 41 -17 99 -34 129 -37 30 -4 71 -13 90 -20 62 -22 173 -54 235 -66 77 -16
172 -56 159 -68 -14 -14 -446 -15 -544 -2 -47 7 -173 14 -280 16 -107 3 -276
10 -375 17 -199 13 -207 13 -350 9 -56 -2 -128 3 -163 10 -51 10 -95 11 -215
2 -109 -8 -169 -8 -212 -1 -33 6 -82 11 -110 10 -138 -2 -438 -22 -495 -32
-68 -12 -179 -7 -241 11 -26 8 -77 8 -185 -1 -82 -7 -165 -12 -184 -12 -758
10 -828 9 -893 -4 -46 -9 -81 -11 -107 -5 -21 5 -41 7 -43 5 -2 -2 -48 -8
-102 -15 -55 -6 -107 -15 -117 -20 -24 -13 -171 7 -211 28 -36 18 -129 43
-163 43 -13 0 -46 11 -72 24 -135 68 -167 80 -236 86 -39 3 -82 12 -95 19 -17
9 -42 11 -87 6 -35 -4 -78 -2 -96 3 -127 39 -199 53 -265 51 -66 -2 -75 1 -99
24 -15 15 -46 30 -75 36 -27 6 -68 20 -90 32 -52 26 -230 79 -266 79 -16 0
-44 11 -64 24 -19 13 -53 29 -76 36 -35 11 -44 10 -67 -5 -24 -16 -30 -16 -79
-2 -28 8 -65 18 -80 21 -15 4 -31 14 -34 24 -15 42 -33 51 -91 46 -138 -12
-191 -25 -198 -47 -4 -12 -17 -32 -30 -44 -13 -12 -24 -30 -24 -41 0 -25 -19
-42 -49 -42 -14 0 -40 -10 -58 -22 -28 -19 -32 -28 -28 -50 5 -19 1 -29 -11
-36 -12 -7 -15 -16 -10 -36 7 -27 166 -206 221 -247 17 -13 34 -30 39 -39 5
-8 27 -32 48 -53 59 -57 118 -190 121 -275 1 -37 7 -73 11 -81 5 -8 11 -39 13
-70 3 -31 9 -58 14 -62 22 -13 -3 -60 -43 -80 -66 -33 -105 -142 -78 -214 15
-40 -6 -77 -55 -93 -33 -11 -52 -12 -103 -2 -59 12 -66 11 -90 -7 -14 -10 -32
-39 -40 -64 -8 -24 -21 -56 -28 -71 -8 -14 -14 -37 -14 -51 0 -35 -18 -80 -38
-95 -10 -8 -17 -28 -18 -55 -1 -23 -7 -60 -13 -82 -34 -117 -41 -224 -23 -350
7 -44 16 -105 20 -135 5 -30 16 -69 25 -87 9 -18 17 -47 17 -66 0 -19 7 -52
16 -73 9 -22 16 -55 15 -75 0 -24 7 -48 24 -70 14 -19 33 -52 44 -74 10 -23
37 -54 62 -72 26 -18 45 -40 46 -52 2 -25 174 -198 212 -213 14 -6 44 -10 66
-9 37 1 162 -43 241 -84 16 -8 36 -15 44 -15 8 0 44 -20 79 -45 38 -26 76 -45
92 -45 15 0 55 -13 90 -30 35 -16 88 -34 117 -40 29 -5 108 -37 175 -70 67
-33 134 -60 147 -60 31 0 100 -31 144 -65 18 -14 38 -25 44 -25 6 0 60 -27
119 -60 60 -33 140 -70 178 -84 39 -13 92 -33 118 -45 27 -12 61 -21 77 -21
16 0 42 -11 59 -25 31 -26 94 -48 191 -65 30 -5 99 -28 154 -50 54 -22 128
-47 165 -55 37 -9 81 -25 99 -35 28 -17 32 -25 30 -55 -1 -19 2 -38 6 -42 4
-4 44 -9 89 -9 87 -2 340 -29 356 -38 15 -9 163 -36 199 -36 18 0 42 5 53 11
11 5 32 11 47 12 19 2 28 9 30 24 4 30 30 33 77 10 30 -15 66 -21 145 -24 163
-6 301 -3 341 8 24 6 72 5 140 -2 57 -7 148 -11 201 -10 57 1 128 -4 173 -14
42 -8 80 -13 84 -11 7 4 131 11 361 20 47 2 94 -1 105 -7 33 -17 191 -18 318
-2 67 9 156 16 197 15 41 -1 138 2 215 5 246 10 278 11 375 5 64 -4 110 -2
140 6 25 7 72 13 105 12 33 0 152 -1 265 -2 113 0 211 -5 218 -9 7 -5 72 -10
144 -13 72 -2 154 -8 182 -13 64 -13 191 -15 370 -7 87 4 150 3 170 -4 17 -5
148 -12 291 -14 201 -3 268 -8 295 -19 19 -8 90 -20 158 -26 108 -10 126 -9
154 5 27 14 39 15 84 4 47 -11 59 -11 99 5 29 10 54 14 68 9 12 -4 65 -10 117
-13 l95 -6 -3 -32 c-3 -29 -1 -31 37 -38 49 -8 95 1 112 22 18 21 -24 98 -70
128 -51 32 -141 134 -141 159 0 12 -6 30 -13 41 -26 39 -49 118 -49 162 1 25
-6 59 -14 76 -10 18 -14 41 -10 58 3 16 1 40 -4 54 -6 15 -6 26 0 30 6 4 10
15 10 25 0 10 6 25 13 32 8 7 14 20 14 28 0 8 3 24 7 36 4 14 1 26 -9 34 -8 7
-15 24 -15 39 0 15 -5 32 -11 38 -13 13 -13 141 0 175 5 14 13 58 17 99 4 41
15 87 25 104 10 17 20 56 22 88 3 54 6 59 65 121 34 35 62 70 62 78 0 18 35
86 58 112 20 23 52 72 52 80 0 3 -24 20 -52 39 -74 46 -127 60 -203 52 -60 -7
-134 3 -194 26 -20 8 -22 14 -16 47 3 20 17 48 30 62 12 14 35 45 51 70 16 25
45 65 66 89 26 30 38 53 38 75 0 17 9 45 20 61 11 17 20 37 20 47 0 9 12 39
26 66 14 28 27 68 28 89 1 25 10 47 24 61 24 24 27 47 12 86 -5 15 -6 47 -1
78 9 58 2 154 -25 348 -9 69 -17 159 -16 200 2 103 -16 140 -121 256 -92 100
-152 151 -216 185 -57 29 -225 29 -316 -1 -28 -9 -39 -9 -50 0 -8 7 -54 14
-101 16 -64 3 -97 9 -121 24 -19 11 -49 20 -66 20 -18 0 -44 6 -59 14 -15 8
-41 17 -57 21 -17 4 -45 14 -62 22 -29 15 -177 30 -339 37 -48 1 -76 9 -110
28 -33 19 -65 27 -120 31 -90 6 -110 13 -110 38 0 10 -6 19 -14 19 -8 0 -45
13 -83 30 -42 17 -78 27 -91 23 -31 -8 -212 35 -244 58 -51 36 -107 48 -188
42 -76 -6 -77 -6 -124 31 -26 20 -53 36 -61 36 -7 0 -33 12 -58 26 -38 21 -57
25 -107 22 -54 -2 -62 0 -85 25 -14 15 -38 29 -53 32 -15 3 -74 17 -132 30
-58 13 -119 26 -135 29 -17 2 -60 18 -97 35 -37 17 -83 31 -105 31 -65 1 -186
26 -223 48 -32 18 -41 19 -103 9 -54 -8 -72 -16 -84 -34 -13 -20 -24 -23 -73
-23 -32 0 -77 7 -101 15 -32 12 -50 13 -72 5 -33 -11 -63 -7 -120 18 -33 14
-52 14 -148 4 -104 -11 -112 -10 -149 9 -22 12 -47 18 -56 15 -9 -3 -30 0 -47
8 -100 44 -303 35 -457 -21 -30 -11 -172 -1 -253 17 -52 12 -65 11 -113 -4
-36 -11 -66 -15 -87 -10 -18 4 -51 6 -74 5 -23 -1 -56 5 -73 14 -51 27 -208
17 -278 -17 -36 -17 -48 -18 -68 -9 -14 6 -35 11 -48 11 -13 0 -40 7 -59 15
-29 12 -83 14 -274 13 -131 -1 -272 2 -313 7 -108 11 -168 7 -218 -17 -36 -16
-54 -18 -91 -12 -25 4 -67 6 -92 5 -25 -1 -62 4 -81 12 -19 8 -55 18 -79 22
-24 4 -54 14 -67 23 -18 12 -36 13 -85 6 -85 -11 -291 -6 -324 8 -35 15 -209
25 -265 16z m-1003 -378 c24 -11 48 -27 53 -36 10 -18 4 -64 -9 -64 -12 0 -11
-37 1 -60 16 -30 -6 -34 -55 -11 -54 25 -75 54 -75 103 0 44 15 88 30 88 6 0
31 -9 55 -20z m240 -31 c5 -5 24 -9 42 -9 19 0 50 -8 71 -19 52 -26 125 -47
212 -61 111 -18 191 -38 304 -76 157 -53 161 -54 185 -54 12 0 32 -5 43 -11
32 -17 127 -38 173 -39 22 0 73 -11 114 -25 62 -21 84 -24 138 -19 57 6 68 4
95 -16 32 -23 63 -32 168 -49 30 -5 73 -14 95 -19 22 -6 72 -16 110 -22 73
-13 199 -49 275 -81 25 -10 60 -21 78 -24 18 -4 58 -17 89 -30 83 -33 123 -13
104 53 -12 42 4 53 65 47 48 -5 100 -22 157 -51 37 -18 104 -18 141 1 39 21
69 19 84 -5 7 -11 19 -20 27 -20 8 0 21 -10 29 -22 29 -44 78 -62 154 -55 38
3 73 2 78 -3 16 -15 130 -49 186 -56 45 -5 56 -3 75 15 l23 21 31 -30 c18 -16
32 -30 33 -31 4 -2 261 -21 341 -24 98 -5 100 -5 120 21 l21 27 53 -18 c29 -9
54 -15 57 -12 3 2 -1 16 -7 31 -7 14 -10 28 -8 31 10 9 112 -13 120 -26 4 -8
16 -24 27 -37 18 -21 24 -22 64 -13 25 6 66 20 92 31 37 15 69 20 142 20 82 0
99 -3 125 -22 59 -44 343 -54 388 -14 26 23 38 20 50 -14 12 -35 42 -40 67
-11 16 18 17 18 61 -7 54 -30 102 -26 141 13 24 24 31 26 92 22 36 -3 92 -10
125 -16 33 -6 112 -12 175 -15 65 -3 150 -14 195 -25 67 -17 103 -19 221 -16
88 3 162 0 197 -7 50 -11 61 -10 85 4 30 18 109 17 182 -2 74 -19 130 -19 148
1 16 16 20 16 42 4 88 -49 167 -57 305 -31 67 13 95 12 95 -4 0 -4 14 -13 31
-20 34 -14 281 -6 326 11 31 11 172 -5 235 -27 30 -10 61 -13 103 -9 67 7 218
-8 282 -27 35 -10 50 -10 80 1 60 22 115 16 172 -19 28 -18 51 -37 51 -43 1
-7 2 -36 4 -64 5 -75 -1 -78 -142 -68 -178 12 -234 13 -265 2 -21 -7 -33 -5
-52 7 -13 9 -35 16 -49 16 -14 0 -53 7 -88 15 -39 9 -106 14 -169 13 -63 -1
-119 3 -142 11 -27 9 -62 11 -115 6 -43 -4 -124 -8 -182 -10 -85 -1 -113 -6
-147 -23 -52 -27 -78 -29 -68 -4 13 33 10 37 -28 34 -24 -2 -65 7 -105 22 -84
31 -284 44 -317 20 -25 -19 -59 -18 -98 3 -18 9 -61 21 -97 25 -168 22 -216
25 -237 17 -19 -7 -102 -21 -198 -33 -11 -1 -32 -6 -47 -10 -34 -10 -54 0 -37
20 14 17 -18 31 -96 40 -65 8 -98 1 -125 -28 -19 -21 -23 -21 -68 -9 -45 12
-190 25 -262 23 -19 0 -54 -8 -78 -18 -35 -13 -60 -15 -116 -10 -39 4 -89 8
-111 9 -27 1 -40 7 -41 17 -2 34 -5 38 -33 49 -27 12 -183 16 -456 12 -60 -1
-139 -2 -175 -2 -50 0 -77 -6 -116 -26 l-52 -26 -35 21 c-19 12 -41 22 -50 22
-9 0 -32 10 -52 21 -31 19 -55 22 -163 25 -94 2 -141 -1 -182 -12 -30 -9 -66
-19 -80 -23 -14 -4 -41 -4 -60 0 -49 11 -116 0 -136 -22 -23 -25 -41 -24 -85
7 -33 23 -41 24 -76 15 -72 -20 -134 -14 -182 19 -41 28 -50 30 -143 30 -80 0
-107 4 -139 20 -34 18 -45 19 -78 9 -33 -10 -43 -9 -62 5 -25 17 -59 22 -59 8
0 -5 11 -18 24 -29 17 -15 26 -37 31 -73 5 -40 12 -53 29 -60 60 -23 143 -32
313 -35 103 -1 204 -8 223 -14 19 -6 71 -11 115 -11 44 0 99 -5 122 -10 99
-23 245 -38 276 -29 18 6 64 9 102 8 95 -2 95 -2 95 21 0 27 16 25 51 -5 28
-23 36 -24 127 -21 53 2 122 11 152 20 78 23 105 20 153 -15 40 -29 45 -30
112 -25 39 4 84 6 101 6 41 0 60 21 44 50 -16 30 4 54 39 45 34 -9 45 -27 24
-42 -9 -7 -14 -15 -11 -18 7 -7 38 5 38 15 0 5 18 0 40 -11 43 -21 84 -23 145
-9 51 12 78 4 72 -21 -10 -39 65 -60 126 -34 35 14 43 14 98 -1 50 -14 69 -15
112 -6 58 12 223 2 292 -19 31 -9 55 -8 107 1 65 13 132 11 293 -9 39 -4 69
-3 85 5 35 16 130 27 143 16 17 -13 110 -22 126 -12 8 4 41 1 75 -7 33 -8 85
-17 114 -19 30 -2 60 -8 68 -15 14 -11 24 -10 160 12 69 11 76 10 178 -21 89
-27 111 -30 138 -21 30 9 101 13 213 11 22 -1 58 0 80 1 86 4 425 -11 505 -22
47 -7 182 -13 300 -13 l215 -1 47 -28 c66 -38 72 -66 52 -231 -9 -71 -13 -137
-11 -147 3 -10 -3 -30 -14 -43 -10 -13 -19 -38 -19 -56 0 -44 -38 -80 -87 -80
-21 0 -51 -9 -68 -20 -16 -11 -45 -20 -63 -20 -26 0 -33 -4 -30 -17 2 -14 15
-19 55 -21 67 -4 81 -20 60 -70 -9 -20 -19 -52 -22 -70 -4 -19 -17 -40 -31
-49 -23 -15 -28 -15 -72 5 -33 15 -76 23 -142 26 -183 9 -439 58 -448 84 -2 7
12 19 32 28 l35 17 -24 19 c-15 11 -37 17 -63 16 -24 -1 -51 6 -66 15 -19 13
-55 18 -138 21 -62 2 -133 9 -158 16 -24 6 -61 8 -81 5 -22 -4 -40 -2 -44 4
-13 22 -46 12 -56 -18 -19 -53 -76 -52 -65 1 4 18 1 30 -7 33 -14 5 -225 16
-283 15 -23 0 -52 3 -65 8 -18 7 -33 5 -57 -8 -37 -20 -74 -18 -156 7 -74 23
-401 27 -434 5 -13 -9 -48 -19 -78 -23 -47 -6 -60 -4 -97 16 -26 15 -50 22
-64 19 -15 -4 -39 4 -69 21 -39 23 -50 25 -71 16 -17 -8 -67 -9 -157 -5 -112
6 -136 4 -164 -10 -51 -26 -125 -26 -154 1 -47 44 -94 56 -198 48 -88 -7 -224
-13 -431 -18 -61 -2 -93 -8 -112 -20 -36 -23 -76 -21 -128 6 -37 20 -64 25
-181 30 -76 4 -194 2 -262 -3 -99 -8 -130 -8 -146 2 -18 11 -23 10 -39 -11
-17 -22 -19 -23 -50 -7 -23 12 -44 15 -81 10 -39 -5 -60 -2 -104 16 -52 22
-58 23 -113 9 -43 -10 -131 -14 -345 -14 -157 0 -289 -3 -293 -7 -4 -3 -8 -18
-9 -32 -2 -15 -11 -35 -20 -45 -26 -28 -19 -34 35 -29 38 4 57 12 75 32 30 31
49 33 64 6 12 -23 60 -50 88 -50 10 0 34 7 52 16 28 15 40 15 81 5 26 -7 91
-18 144 -25 80 -10 100 -10 116 2 10 7 19 20 19 28 0 18 39 18 64 -1 11 -8 34
-15 52 -15 18 0 44 -4 58 -10 17 -6 36 -6 57 2 26 9 39 7 81 -13 81 -38 182
-22 252 39 20 17 41 32 47 32 5 0 35 -14 67 -31 49 -26 64 -30 104 -24 33 4
57 1 77 -10 20 -10 62 -15 128 -17 175 -3 231 1 313 23 61 15 88 18 109 11 15
-5 77 -7 138 -5 99 5 115 3 149 -15 113 -61 268 -71 431 -28 121 31 138 32
155 7 15 -21 43 -27 193 -43 82 -8 127 -8 180 0 49 9 81 9 106 2 41 -11 75 -3
115 29 31 24 144 22 170 -3 12 -13 33 -16 93 -14 55 2 87 -3 112 -15 28 -13
43 -14 72 -6 25 7 49 7 76 -1 25 -6 120 -9 255 -6 208 4 215 4 221 -15 4 -11
22 -27 41 -36 31 -15 32 -17 15 -29 -10 -7 -38 -13 -62 -13 -116 0 -153 -2
-195 -11 -40 -9 -50 -8 -81 11 -32 20 -43 21 -131 15 -54 -4 -114 -13 -136
-20 -29 -10 -48 -11 -75 -3 -22 7 -138 10 -301 8 -146 -1 -308 2 -360 7 -52 5
-156 6 -230 2 -74 -3 -145 -3 -157 1 -12 5 -84 11 -160 14 -75 3 -156 10 -179
16 -26 7 -76 8 -126 4 -135 -11 -267 -10 -368 4 -99 14 -262 11 -460 -9 -187
-19 -400 -20 -442 -3 -38 15 -112 14 -212 -3 -24 -4 -60 -1 -95 9 -110 31
-147 38 -216 41 -39 1 -81 8 -93 15 -16 9 -69 12 -170 10 -99 -2 -164 2 -200
11 -38 10 -61 11 -80 4 -19 -7 -39 -6 -67 2 -38 11 -40 13 -38 48 1 20 -2 36
-7 36 -5 0 -14 17 -19 38 -6 21 -22 53 -35 71 -14 19 -22 39 -19 45 12 19 2
70 -18 92 -23 25 -24 37 -3 69 11 17 14 36 10 55 -4 24 -1 33 19 46 25 16 63
11 77 -10 5 -8 11 -7 20 3 9 9 10 15 2 18 -6 2 -19 9 -28 16 -16 12 -16 14 3
38 20 26 21 26 71 13 63 -16 70 -21 70 -43 0 -25 22 -41 78 -60 37 -13 86 -16
237 -14 105 1 224 2 265 1 118 -3 133 -2 165 10 42 15 133 40 175 47 30 5 42
1 74 -24 62 -50 111 -57 489 -76 54 -2 123 -12 154 -21 35 -10 69 -14 92 -9
34 6 144 6 511 0 124 -2 174 1 200 12 23 9 48 12 75 7 64 -12 109 -14 290 -18
130 -2 181 -7 219 -20 27 -10 65 -17 83 -16 59 3 77 3 143 0 79 -3 111 11 145
61 31 47 31 55 2 74 -18 11 -67 16 -223 19 -109 2 -203 5 -209 7 -5 1 -36 -1
-68 -5 -39 -6 -72 -4 -103 4 -40 11 -47 11 -65 -6 -25 -23 -50 -20 -105 12
-36 21 -53 24 -135 23 -100 -1 -253 -13 -307 -24 -20 -5 -38 -3 -47 5 -9 8
-79 16 -184 22 -166 10 -171 10 -197 -11 -34 -27 -52 -27 -63 2 -12 30 -171
77 -196 57 -12 -10 -30 -10 -94 0 -62 11 -97 11 -161 2 -75 -11 -85 -10 -120
8 -44 23 -73 25 -117 9 -24 -8 -44 -6 -87 6 -52 15 -60 15 -106 0 -41 -14 -56
-15 -86 -5 -37 13 -101 9 -185 -9 -68 -15 -167 -16 -229 -2 -110 25 -267 41
-372 38 -99 -2 -108 0 -131 21 -29 27 -46 79 -54 167 -5 52 -12 74 -34 102
-16 20 -29 44 -29 54 0 18 5 21 39 23 8 1 19 9 25 18 15 25 -6 42 -84 68 -57
19 -108 52 -173 111 -28 26 -94 52 -113 45 -13 -5 -15 -14 -9 -44 4 -20 9 -46
10 -57 1 -11 3 -23 4 -28 2 -15 66 -47 94 -47 21 0 30 -7 38 -27 19 -48 41
-87 71 -125 32 -42 50 -106 53 -195 2 -54 -1 -65 -22 -85 -39 -36 -91 -31
-160 18 -61 43 -135 63 -158 44 -9 -7 -10 -24 -4 -62 7 -42 6 -54 -6 -61 -28
-15 -15 -33 53 -72 63 -38 71 -40 140 -37 79 2 153 -23 173 -59 5 -11 15 -57
21 -103 10 -80 9 -86 -11 -112 l-22 -28 21 -16 c21 -16 21 -16 -20 -35 -50
-22 -70 -14 -84 35 -6 20 -19 36 -35 42 -84 33 -121 53 -126 69 -3 9 -21 29
-40 44 -29 21 -41 25 -70 19 -32 -6 -35 -4 -35 19 0 29 -29 51 -109 84 -61 26
-183 32 -239 12 -27 -9 -38 -7 -79 15 -76 40 -313 92 -374 82 -35 -6 -43 -2
-89 39 -46 41 -55 45 -85 39 -40 -7 -61 2 -45 21 15 18 -1 28 -90 56 -41 13
-86 29 -98 35 -15 8 -34 9 -51 4 -16 -4 -35 -3 -45 2 -35 19 -148 28 -182 13
-17 -7 -43 -11 -58 -8 -29 6 -31 0 -15 -46 11 -32 52 -61 87 -61 11 0 31 -9
45 -20 32 -25 53 -25 67 0 22 42 81 50 94 12 3 -9 11 -25 18 -34 10 -15 10
-22 0 -39 -7 -11 -11 -23 -8 -26 3 -3 40 0 83 6 74 11 79 11 95 -9 9 -11 18
-26 20 -32 3 -7 26 -13 55 -14 35 -2 63 -10 90 -28 21 -13 56 -28 78 -32 46
-8 67 -17 89 -40 19 -19 21 -44 4 -44 -7 0 -33 -20 -57 -45 -47 -47 -62 -52
-108 -33 -62 26 -129 35 -166 22 -31 -11 -40 -10 -74 8 -21 11 -63 24 -94 28
-31 4 -93 25 -140 48 -46 22 -111 47 -144 57 -33 9 -78 26 -101 37 -32 15 -64
19 -155 20 -149 1 -155 3 -158 66 -1 56 16 111 53 171 26 40 28 41 82 41 30 0
68 -7 84 -15 25 -13 32 -13 64 0 45 19 45 34 1 63 -21 13 -35 30 -35 42 0 15
-7 20 -27 20 -65 0 -152 159 -138 253 8 51 13 60 42 76 33 17 61 13 73 -9 10
-19 183 -110 209 -110 6 0 33 9 58 21 46 21 79 19 70 -5 -3 -7 12 -29 34 -49
32 -30 44 -35 68 -31 38 8 122 -12 183 -43 27 -13 52 -22 57 -18 6 3 26 -4 46
-15 20 -11 66 -25 103 -30 37 -5 83 -14 102 -20 19 -5 51 -8 69 -5 19 2 50 -3
68 -10 25 -11 46 -12 74 -6 39 9 79 5 79 -8 -1 -15 -17 -30 -43 -40 -54 -21
-20 -51 85 -76 73 -16 85 -14 161 32 30 19 41 21 58 12 11 -6 19 -16 16 -22
-2 -7 -1 -22 4 -34 6 -17 16 -23 39 -23 29 0 32 3 34 44 1 17 9 20 67 21 36 1
71 5 77 9 40 24 -29 81 -108 89 -30 3 -86 11 -124 18 -52 9 -73 10 -87 1 -27
-17 -60 -15 -53 2 7 18 -25 36 -66 36 -17 0 -48 9 -70 20 -22 11 -50 20 -63
20 -13 0 -35 11 -49 25 -35 35 -93 57 -158 61 -30 2 -83 15 -117 29 -39 15
-82 25 -113 25 -31 0 -66 8 -88 19 -102 54 -147 72 -190 77 -26 3 -66 10 -90
16 -36 9 -49 8 -83 -7 l-40 -19 -25 27 c-19 21 -34 27 -65 27 -46 0 -79 14
-79 34 0 7 -12 16 -27 19 -16 3 -43 19 -62 36 -19 17 -44 34 -55 37 -12 4 -42
22 -68 41 -39 28 -48 41 -48 64 0 17 -7 43 -15 59 -9 17 -13 30 -10 30 3 0 -1
15 -8 33 -8 19 -11 43 -6 59 6 22 1 36 -28 72 -40 51 -40 85 -1 104 24 11 86
6 103 -9z m4665 -390 c221 4 219 4 345 -5 61 -4 178 -8 260 -9 83 -1 182 -8
220 -15 67 -12 74 -11 113 9 35 18 49 20 80 12 131 -35 261 -43 702 -46 279
-2 455 -7 472 -14 15 -6 112 -13 215 -15 104 -3 239 -10 302 -16 62 -7 124 -9
138 -5 32 8 228 -34 417 -89 48 -14 101 -26 116 -26 52 0 90 -22 140 -82 28
-33 47 -64 44 -70 -4 -5 -20 -8 -38 -6 -47 7 -60 12 -72 27 -9 11 -29 13 -100
7 -49 -4 -138 -7 -199 -6 -91 2 -120 6 -172 27 -55 22 -73 24 -141 19 -43 -3
-85 -8 -93 -11 -8 -3 -88 -6 -179 -8 -155 -2 -167 -1 -197 19 -32 21 -56 23
-148 10 -22 -4 -73 -2 -114 3 -61 8 -78 7 -97 -6 -29 -19 -51 -11 -56 19 -3
20 -9 23 -53 25 -27 1 -88 6 -134 12 -62 9 -93 9 -119 0 -18 -6 -48 -8 -65 -5
-21 4 -48 -1 -84 -16 l-53 -22 -28 21 c-15 11 -48 23 -73 26 -110 13 -196 26
-215 32 -14 5 -28 -1 -45 -19 -25 -27 -48 -33 -64 -17 -24 23 -149 81 -174 81
-15 0 -72 -10 -127 -22 -54 -12 -117 -21 -139 -20 -22 2 -71 3 -110 3 -38 -1
-124 9 -190 21 -107 20 -168 23 -300 19 -22 -1 -67 0 -100 2 -33 3 -79 0 -102
-5 -32 -8 -53 -6 -91 6 -58 20 -191 13 -229 -10 -12 -8 -41 -14 -65 -14 -29 0
-49 -7 -64 -21 -29 -27 -66 -19 -106 23 -28 30 -63 33 -52 4 7 -17 -12 -56
-28 -56 -6 0 -21 -11 -34 -25 -13 -14 -33 -25 -45 -25 -18 0 -21 5 -17 31 6
41 -26 64 -77 55 -19 -3 -51 -9 -70 -12 -21 -4 -41 -2 -49 5 -7 6 -38 16 -69
21 -45 9 -63 8 -93 -5 -49 -20 -63 -19 -91 7 -12 12 -38 23 -57 25 -40 4 -102
28 -111 43 -12 19 -55 31 -74 20 -13 -6 -24 -5 -37 5 -44 32 29 44 321 55 157
6 241 5 264 -2 21 -6 62 -8 105 -3 74 7 161 11 456 19 96 3 202 11 235 19 42
9 70 10 95 3 19 -5 109 -8 200 -7z m3767 -226 c40 -18 62 -37 89 -79 49 -74
42 -88 -38 -82 -59 4 -64 7 -104 52 -23 27 -50 64 -61 83 -18 34 -18 35 1 49
23 16 39 13 113 -23z m-3669 -20 c-3 -14 -13 -18 -47 -18 -53 0 -68 22 -19 28
67 8 70 8 66 -10z m3876 -209 c9 -8 16 -24 16 -35 0 -11 6 -32 14 -47 7 -15
16 -60 18 -100 5 -63 3 -74 -13 -82 -31 -17 -60 -11 -91 20 -23 23 -29 38 -27
63 2 17 -1 49 -5 69 -6 29 -4 43 11 65 11 15 23 36 26 46 8 21 31 22 51 1z
m-5016 -47 c3 -14 -1 -18 -20 -15 -12 2 -24 11 -26 21 -3 14 1 18 20 15 12 -2
24 -11 26 -21z m2425 -92 c4 -8 2 -17 -4 -21 -12 -7 -41 15 -33 27 8 14 31 11
37 -6z m2630 -285 c33 -26 38 -76 20 -200 -20 -138 -41 -228 -68 -285 -13 -27
-33 -83 -44 -123 -17 -60 -28 -80 -70 -123 -45 -46 -55 -51 -92 -51 -28 1 -49
7 -62 21 l-20 20 32 66 c18 37 45 81 61 98 15 18 33 50 39 72 7 22 17 54 23
70 6 17 15 48 20 70 6 22 16 54 23 70 8 17 17 55 21 85 3 30 15 66 26 81 16
21 18 31 9 47 -15 27 -14 75 1 90 18 18 52 15 81 -8z m-8725 -130 c9 -12 41
-45 70 -75 49 -51 56 -55 100 -55 26 0 95 -15 155 -35 60 -19 125 -37 145 -41
20 -4 49 -13 65 -21 41 -21 149 -53 178 -53 15 0 78 -16 140 -35 66 -20 135
-35 164 -35 61 0 167 -22 215 -44 19 -9 86 -30 149 -46 62 -17 132 -41 155
-55 22 -13 59 -28 81 -33 22 -6 81 -24 130 -42 87 -31 141 -44 235 -56 25 -4
53 -13 62 -21 9 -8 51 -19 92 -23 41 -5 92 -13 113 -19 21 -5 57 -9 81 -8 54
2 85 -30 72 -72 -20 -62 -19 -88 0 -106 28 -25 25 -41 -10 -62 -17 -10 -28
-23 -26 -29 3 -7 2 -15 -1 -18 -4 -3 -8 -20 -10 -37 -2 -17 -12 -44 -23 -59
-24 -33 -19 -74 11 -93 11 -7 19 -19 19 -29 0 -9 5 -20 10 -23 12 -8 13 -25 1
-25 -5 0 -23 13 -41 30 -30 28 -33 29 -55 14 -32 -21 -37 -38 -24 -90 9 -36 9
-51 -1 -70 -11 -20 -11 -28 -1 -48 8 -13 11 -28 7 -34 -3 -5 3 -21 14 -35 25
-32 25 -35 -2 -57 l-22 -18 26 -34 c33 -44 37 -132 8 -193 l-19 -40 28 -27
c16 -14 35 -36 41 -48 20 -37 40 -114 40 -154 0 -30 9 -48 40 -86 23 -27 51
-50 63 -52 16 -2 24 -12 27 -33 3 -16 14 -47 23 -68 13 -28 15 -42 7 -57 -6
-11 -14 -20 -18 -21 -4 -1 -34 -3 -67 -4 -60 -4 -162 22 -234 60 -41 21 -168
66 -211 76 -19 4 -71 21 -115 37 -129 49 -177 63 -237 72 -31 4 -69 17 -85 27
-15 11 -46 26 -68 32 -37 12 -71 25 -135 55 -13 6 -35 27 -47 45 -17 26 -52
48 -131 88 -59 29 -113 53 -121 53 -8 0 -33 11 -55 24 -23 13 -59 27 -81 31
-22 4 -54 16 -71 26 -17 11 -44 19 -60 19 -16 0 -45 8 -64 18 -19 11 -55 22
-80 26 -80 12 -139 36 -160 66 -11 15 -32 31 -47 34 -16 4 -46 20 -68 35 -22
15 -54 31 -71 34 -17 3 -59 23 -94 44 -68 40 -79 42 -214 33 -58 -3 -61 -2
-85 31 -14 18 -57 70 -96 115 -73 86 -91 123 -119 239 -10 39 -21 86 -26 105
-5 19 -10 51 -10 70 0 20 -7 46 -16 58 -41 59 -48 335 -10 426 9 21 16 53 16
70 0 17 10 47 23 66 13 19 29 57 37 83 10 37 23 57 58 85 40 33 51 37 101 37
31 0 57 3 59 8 5 17 1 27 -13 27 -30 0 -15 29 18 33 17 2 35 5 40 5 4 1 15 -7
25 -18z m1842 -63 c0 -22 83 -95 115 -101 17 -3 48 -9 70 -12 22 -3 43 -9 48
-13 4 -4 -4 -28 -18 -54 -35 -62 -32 -111 8 -115 15 -2 27 1 27 7 0 15 41 51
59 51 8 0 27 -12 41 -26 14 -14 41 -35 60 -47 22 -14 44 -41 60 -74 26 -54 47
-65 70 -38 18 21 38 19 72 -10 29 -25 74 -32 165 -26 17 1 45 -5 61 -13 44
-23 271 -15 318 10 l34 19 38 -42 38 -41 99 -6 c55 -4 132 -12 171 -18 70 -10
134 -8 165 6 10 4 25 -2 43 -19 31 -29 42 -30 82 -11 44 21 112 26 150 10 41
-17 124 -18 159 -2 21 9 32 8 60 -5 30 -14 53 -15 177 -8 79 5 154 13 168 19
38 15 175 13 212 -3 30 -12 36 -11 66 7 32 19 39 20 104 8 70 -12 70 -12 95
14 30 32 40 32 69 1 26 -28 68 -33 100 -10 19 13 25 12 60 -6 32 -17 50 -19
100 -15 41 4 72 2 95 -7 19 -8 68 -19 109 -26 41 -7 94 -17 117 -22 57 -12
150 -11 158 2 4 5 18 14 31 19 14 6 24 18 24 29 0 22 34 46 50 36 6 -3 10 -15
10 -25 0 -13 9 -22 28 -26 15 -4 38 -15 51 -26 26 -20 75 -23 116 -8 14 5 90
11 168 11 119 1 148 -1 180 -17 35 -17 39 -17 54 -1 16 15 15 18 -1 36 -17 19
-17 20 4 31 17 9 28 7 58 -11 35 -22 57 -25 184 -29 15 -1 46 9 70 21 39 20
47 21 107 10 36 -7 77 -20 92 -28 29 -17 46 -14 91 19 14 10 27 9 65 -4 58
-20 188 -34 196 -21 7 11 173 10 268 -1 41 -5 73 -5 84 1 11 6 32 7 56 2 21
-5 101 -14 176 -19 287 -22 313 -28 313 -70 0 -10 7 -23 15 -30 12 -10 19 -9
37 4 13 9 33 23 45 32 18 12 34 14 90 7 79 -9 89 -27 33 -55 -19 -10 -44 -29
-55 -43 -21 -25 -99 -55 -147 -55 -34 0 -145 28 -180 46 -38 19 -75 17 -105
-5 -20 -16 -29 -18 -49 -9 -13 6 -24 15 -24 19 0 5 -55 7 -122 5 -66 -2 -134
1 -150 6 -21 7 -73 7 -168 -1 -102 -9 -145 -9 -160 -1 -16 8 -27 7 -49 -6 -35
-21 -62 -13 -58 18 1 18 -2 22 -18 20 -11 -2 -42 -3 -70 -3 -360 7 -1084 -4
-1131 -17 -23 -7 -52 -8 -70 -4 -16 4 -117 6 -224 3 -107 -2 -249 -5 -315 -5
-141 -1 -611 29 -705 44 -35 6 -75 8 -88 5 -13 -3 -45 1 -71 9 -25 9 -80 16
-121 16 -100 0 -256 8 -415 20 -71 6 -202 14 -290 19 -88 5 -179 14 -203 20
-30 8 -95 9 -219 2 -143 -7 -183 -6 -209 5 -41 17 -129 18 -206 2 -48 -10 -65
-10 -91 1 -18 8 -76 17 -129 22 -110 9 -149 25 -194 77 l-32 37 -104 6 c-58 4
-115 12 -128 19 -13 7 -56 39 -97 72 -77 62 -93 66 -127 29 -21 -23 -73 -19
-151 9 -119 44 -272 90 -295 90 -14 0 -37 8 -52 18 -26 17 -148 138 -148 146
0 2 16 14 35 26 41 25 77 22 138 -10 40 -22 127 -27 171 -10 32 12 52 5 59
-21 9 -33 36 -34 93 -3 30 16 55 34 55 39 2 13 6 37 8 52 0 7 16 17 34 22 46
13 57 13 57 -2z m5348 -374 c2 -8 -6 -13 -22 -13 -25 0 -33 10 -19 24 10 10
36 3 41 -11z m311 -62 c22 -14 -4 -41 -39 -41 -26 0 -90 28 -90 40 0 9 115 10
129 1z m-4384 -305 c246 -2 415 -18 415 -37 0 -16 -24 -22 -99 -26 -81 -3
-202 -35 -182 -47 6 -4 26 -2 45 4 37 12 384 27 526 22 30 -1 89 0 130 4 62 4
85 2 128 -15 69 -27 80 -27 159 9 74 34 101 37 142 15 22 -11 86 -16 273 -20
133 -3 282 -10 330 -16 48 -6 100 -8 115 -5 17 4 51 -2 87 -14 52 -19 83 -21
260 -22 122 -1 220 4 249 11 73 17 313 30 492 26 88 -3 268 -7 400 -10 132 -3
285 -8 340 -12 55 -3 143 -7 195 -9 52 -2 158 -9 235 -14 77 -6 181 -13 230
-15 50 -2 124 -6 165 -9 41 -3 125 -8 185 -12 61 -3 130 -12 155 -18 31 -9 58
-10 85 -4 22 6 97 8 167 5 104 -3 131 -7 154 -23 14 -10 35 -24 46 -30 36 -21
38 -28 28 -89 -8 -50 -7 -62 7 -77 16 -18 16 -22 -1 -66 -10 -26 -22 -80 -26
-121 -6 -61 -12 -77 -31 -92 -32 -24 -66 -28 -112 -11 -20 8 -50 12 -65 9 -34
-6 -62 8 -62 32 0 10 -6 24 -14 30 -17 14 -65 4 -73 -15 -8 -23 -28 -16 -40
14 -10 25 -11 25 -12 5 -1 -18 -7 -23 -26 -23 -29 0 -34 -18 -7 -27 9 -3 27
-17 39 -31 21 -25 24 -26 58 -14 29 11 39 11 62 -1 40 -21 134 -47 169 -47 17
0 39 -6 49 -14 17 -12 18 -18 7 -67 -7 -30 -10 -83 -8 -119 3 -47 0 -72 -11
-89 -11 -17 -13 -37 -9 -75 4 -28 6 -76 6 -108 -1 -47 3 -59 21 -71 19 -14 20
-19 10 -48 -10 -28 -8 -35 8 -53 19 -21 30 -66 35 -142 3 -43 17 -89 42 -136
14 -26 13 -29 -9 -52 -48 -48 -169 -58 -182 -14 -4 10 -1 25 5 33 10 12 7 17
-13 26 -31 14 -61 5 -53 -16 8 -22 -4 -45 -23 -45 -9 0 -34 23 -55 50 -41 53
-46 56 -63 39 -18 -18 -90 -12 -118 9 -36 29 -118 38 -147 18 -28 -20 -80 -21
-118 -1 -20 10 -43 13 -77 8 -26 -4 -61 -6 -78 -5 -32 1 -132 -33 -153 -53
-16 -14 -84 -3 -90 14 -5 15 -37 14 -50 -2 -6 -7 -13 -26 -16 -41 -7 -38 -18
-48 -47 -44 -18 2 -24 9 -24 30 -1 32 -21 58 -45 58 -58 0 -98 37 -91 84 2 13
-2 17 -12 13 -8 -3 -24 1 -34 8 -35 25 -244 21 -292 -5 -11 -5 -33 -5 -59 2
-33 8 -50 7 -82 -6 -50 -20 -77 -20 -113 -1 -16 8 -38 15 -50 17 -28 3 -116
-11 -142 -22 -47 -20 -66 -20 -115 1 -45 19 -61 21 -138 15 -49 -4 -96 -13
-107 -22 -11 -8 -30 -21 -42 -30 -28 -20 -88 -6 -88 20 0 38 -34 41 -341 32
-130 -3 -200 -10 -245 -23 -35 -9 -98 -18 -139 -20 -114 -3 -146 -9 -171 -32
-49 -45 -111 -38 -175 22 -30 27 -38 29 -157 37 -68 4 -134 13 -146 20 -26 13
-70 6 -123 -21 -26 -13 -44 -16 -60 -10 -41 15 -200 12 -232 -4 -36 -19 -62
-19 -69 -1 -3 8 -24 20 -46 26 -39 10 -79 5 -166 -21 -36 -10 -89 2 -116 27
-16 15 -27 15 -96 5 -43 -7 -130 -14 -193 -15 -63 -1 -121 -3 -127 -4 -22 -3
-14 -40 15 -72 l27 -31 109 10 c93 9 113 9 133 -4 12 -8 42 -15 67 -15 25 0
47 -4 51 -9 8 -15 -98 -24 -162 -15 -71 10 -107 7 -153 -13 -20 -9 -89 -19
-160 -24 -116 -7 -127 -6 -152 12 -15 10 -47 21 -70 24 -45 4 -138 49 -138 66
0 5 12 14 27 20 16 6 36 18 46 27 17 15 19 14 40 -11 19 -23 34 -29 100 -38
42 -5 82 -7 87 -4 21 13 9 52 -27 86 -49 46 -90 62 -137 54 -33 -7 -40 -4 -76
33 -38 38 -40 43 -40 101 0 72 14 85 56 52 15 -12 41 -21 60 -21 19 0 34 -5
34 -11 0 -7 11 -9 33 -4 17 4 55 8 82 10 67 5 183 23 195 30 5 3 42 -6 82 -20
121 -44 139 -46 276 -34 220 19 310 17 367 -8 38 -16 64 -20 110 -17 33 3 93
7 134 9 58 3 79 9 97 26 15 14 29 19 40 15 37 -14 182 -17 261 -5 64 9 95 10
135 0 29 -6 89 -14 132 -16 72 -5 82 -3 103 17 l23 22 29 -22 c26 -19 39 -21
101 -17 40 3 77 8 83 12 17 10 116 26 162 25 134 -1 159 -3 172 -13 9 -8 79
-13 206 -16 106 -1 212 -8 237 -14 33 -7 54 -7 75 1 18 7 131 11 304 11 152 0
328 1 391 1 63 0 144 0 180 -1 151 -2 162 -1 190 19 35 25 46 25 53 1 9 -35
55 -50 114 -38 39 8 61 8 91 -2 21 -7 48 -10 59 -7 20 6 83 85 83 104 0 5 -15
17 -34 27 -33 18 -39 18 -141 2 -58 -10 -110 -15 -115 -12 -6 3 -26 -2 -46
-11 l-35 -17 -39 38 c-45 44 -63 46 -180 24 -63 -12 -86 -12 -135 -2 -77 16
-131 16 -158 1 -27 -15 -234 -17 -254 -3 -9 7 -47 8 -111 2 -86 -7 -131 -6
-251 8 -18 2 -58 13 -88 26 -48 19 -59 20 -94 10 -22 -7 -77 -13 -123 -15 -46
-2 -89 -6 -95 -10 -6 -4 -25 -12 -42 -16 -25 -7 -30 -6 -25 5 10 26 -19 32
-139 28 -66 -2 -185 -6 -265 -8 -242 -6 -267 -8 -292 -32 -39 -34 -60 -43 -83
-30 -30 16 -133 36 -187 37 -25 0 -73 -7 -105 -15 -64 -16 -101 -17 -338 -9
-284 9 -331 9 -372 -5 -33 -11 -53 -11 -109 -1 -88 16 -173 13 -203 -7 -19
-12 -31 -13 -60 -5 -20 6 -52 14 -71 19 -19 5 -130 9 -247 8 -165 -1 -214 2
-217 12 -4 9 -26 13 -67 13 -58 0 -63 2 -95 37 -30 33 -39 51 -35 75 7 44 2
178 -7 195 -16 28 -15 31 7 42 12 7 30 7 54 0 32 -8 42 -6 79 17 41 26 44 27
83 13 33 -12 52 -13 110 -2 145 25 170 25 211 1 21 -12 49 -22 62 -23 27 0 44
-25 18 -25 -9 0 -21 -11 -26 -25 -11 -30 -14 -30 -54 -7 -56 34 -364 17 -402
-21 -4 -3 4 -22 17 -41 23 -34 26 -35 84 -34 33 1 78 -2 101 -6 32 -7 44 -5
58 9 15 16 15 19 1 34 -8 10 -15 26 -15 37 1 18 1 18 11 2 5 -10 16 -18 24
-18 9 0 14 -8 12 -22 -2 -19 4 -24 33 -30 154 -31 390 -38 500 -15 21 5 65 2
109 -6 51 -10 86 -12 115 -5 28 6 54 5 82 -2 44 -13 116 -3 199 27 28 10 48
11 65 5 14 -5 40 -7 58 -5 18 3 52 -2 75 -10 23 -8 67 -18 97 -21 53 -6 56 -6
72 24 14 25 23 30 53 30 28 0 38 5 42 20 6 23 16 25 45 9 16 -8 19 -17 14 -40
-7 -35 9 -46 35 -23 17 15 26 16 72 6 181 -37 164 -35 229 -26 56 8 74 24 59
52 -9 16 -7 21 11 25 14 4 26 0 34 -11 10 -13 15 -14 27 -3 13 10 22 10 51 -4
20 -10 46 -17 58 -16 13 1 49 1 80 1 47 0 59 4 68 20 14 26 24 25 50 -2 21
-23 71 -34 210 -44 75 -6 88 3 107 69 10 32 9 39 -5 46 -28 14 -186 23 -402
21 -113 -1 -242 3 -287 9 -69 10 -91 9 -133 -3 -28 -8 -58 -22 -66 -31 -20
-19 -53 -14 -128 21 -28 13 -57 24 -64 24 -26 0 -73 -31 -70 -46 4 -23 -128
-28 -207 -7 -71 19 -138 17 -222 -4 -61 -15 -72 -14 -134 11 -9 4 -26 -3 -44
-20 -25 -23 -34 -26 -75 -21 -26 3 -87 20 -136 37 -49 17 -96 34 -105 37 -9 2
-29 -7 -45 -22 -18 -17 -36 -25 -49 -22 -11 3 -58 13 -105 22 -121 25 -116 23
-99 41 16 15 125 37 140 28 5 -2 17 1 28 8 16 10 27 8 61 -7 42 -19 42 -19 83
2 56 29 145 30 190 3 42 -26 45 -25 49 7 4 39 30 40 67 4 18 -17 33 -31 35
-31 2 0 18 8 37 18 26 13 59 17 139 17 58 0 110 4 117 8 7 4 27 7 46 5 38 -2
88 29 84 52 -3 17 9 16 -322 28 -118 4 -232 14 -261 21 -46 12 -57 12 -92 -2
-32 -13 -63 -15 -155 -11 -93 5 -126 3 -167 -11 -28 -9 -61 -14 -73 -11 -87
26 -385 10 -487 -25 -47 -16 -63 -18 -81 -9 -16 9 -31 9 -64 0 -83 -23 -106
-5 -119 96 -9 76 9 94 99 99 55 3 74 0 88 -13 15 -14 41 -17 128 -18 60 -1
109 2 109 7 0 21 50 30 186 34 142 5 145 4 184 -21 46 -31 106 -31 185 -1 28
10 73 19 100 18 231 -5 315 -9 345 -19 19 -6 78 -9 131 -8 87 3 100 6 132 30
l35 27 102 -16 c98 -14 106 -14 183 6 66 17 85 18 108 8 16 -6 38 -9 48 -6 11
2 34 -4 52 -15 30 -18 44 -20 154 -14 66 3 127 7 135 7 8 0 66 -2 128 -6 91
-5 123 -3 163 10 41 14 55 15 79 5 22 -9 33 -9 51 1 16 8 62 11 144 9 151 -4
199 -3 253 5 31 5 68 1 131 -16 79 -20 93 -22 128 -10 35 12 43 11 67 -4 21
-14 54 -18 188 -20 101 -1 169 2 179 8 12 8 33 7 72 -2 51 -13 112 -11 210 5
31 5 45 1 77 -21 l39 -27 36 22 c33 20 41 21 76 11 22 -7 44 -9 49 -6 5 3 32
-4 60 -17 35 -16 53 -31 59 -50 6 -17 6 -30 0 -33 -17 -11 -9 -25 29 -49 69
-43 206 -57 239 -23 16 15 16 19 3 27 -8 6 -24 12 -35 14 -87 17 -100 22 -103
39 -8 40 75 66 221 71 45 2 94 6 108 10 20 6 33 1 59 -20 42 -36 105 -37 133
-2 18 22 18 23 -5 43 -14 12 -51 29 -82 39 -57 18 -58 18 -86 -3 -36 -26 -36
-26 -72 4 -16 14 -33 23 -38 20 -4 -2 -61 -7 -126 -10 -177 -9 -207 -15 -214
-45 -3 -14 -14 -26 -23 -28 -19 -4 -23 18 -5 36 8 8 8 15 -2 26 -7 9 -16 14
-20 11 -5 -3 -23 7 -41 22 -32 28 -35 28 -183 30 -227 4 -295 8 -366 23 -95
19 -235 17 -290 -4 -67 -26 -186 -24 -243 3 -40 19 -49 20 -95 10 -39 -10 -61
-10 -90 -1 -49 15 -197 16 -223 1 -28 -14 -391 -10 -519 7 -30 4 -118 6 -195
4 -77 -1 -165 -1 -195 0 -30 1 -84 1 -120 0 -36 0 -135 -3 -220 -5 -85 -1
-182 -6 -215 -11 -33 -4 -76 -7 -95 -6 -117 3 -254 12 -258 16 -2 3 -22 -2
-43 -10 -34 -14 -68 -15 -276 -5 -131 6 -257 14 -280 17 -25 3 -70 -2 -109
-12 -49 -12 -87 -15 -138 -10 -97 9 -243 17 -351 20 -85 2 -91 3 -102 27 -10
21 -9 34 10 80 12 30 27 61 32 69 6 8 10 42 10 75 0 49 4 65 23 85 26 28 29
76 5 102 -19 21 -49 23 -83 3 -33 -19 -69 -19 -76 0 -10 25 16 45 60 46 22 0
50 4 61 9 11 5 34 7 50 4 17 -2 147 -6 290 -8z m-449 -189 c-21 -99 -27 -133
-38 -210 -12 -84 -14 -89 -47 -110 -38 -23 -70 -25 -82 -5 -16 24 -9 43 21 63
21 14 35 36 47 72 16 52 16 53 -5 76 -25 26 -26 88 -2 111 49 49 115 50 106 3z
m-94 -502 c14 -113 -24 -181 -83 -151 -30 14 -37 66 -15 98 9 12 16 39 16 58
0 43 16 62 50 58 23 -3 26 -9 32 -63z m35 -377 c29 -32 43 -62 43 -93 0 -14 7
-36 15 -49 14 -21 14 -25 0 -36 -32 -26 -76 -16 -112 25 -42 49 -85 124 -77
136 8 13 65 37 90 38 11 1 30 -9 41 -21z m124 -343 c28 -49 31 -71 14 -89 -20
-19 -30 -14 -78 40 -34 38 -35 42 -21 63 22 31 63 25 85 -14z m1894 -247 c45
-20 22 -43 -27 -25 -37 12 -37 22 -1 36 1 1 14 -4 28 -11z m1189 -26 c5 -1 -1
-11 -14 -22 -25 -22 -65 -26 -76 -8 -15 23 33 39 90 30z m156 -2 c0 -5 -7 -10
-15 -10 -8 0 -15 5 -15 10 0 6 7 10 15 10 8 0 15 -4 15 -10z m-535 -41 c-8
-13 -42 -11 -51 2 -3 6 -1 15 7 19 16 10 52 -7 44 -21z m236 2 c20 -16 21 -21
10 -35 -15 -18 -48 -21 -85 -6 -32 12 -33 33 -3 48 33 16 52 14 78 -7z m-441
-5 c0 -3 -4 -8 -10 -11 -5 -3 -10 -1 -10 4 0 6 5 11 10 11 6 0 10 -2 10 -4z"/>
<path d="M1350 5765 c-19 -36 3 -56 66 -59 27 -1 65 -10 84 -19 63 -30 153
-57 189 -57 20 0 61 -7 91 -15 106 -28 116 -15 42 58 -50 50 -66 54 -119 35
-38 -14 -55 -4 -28 16 19 14 13 36 -10 36 -8 0 -30 -11 -50 -24 -33 -22 -38
-23 -63 -10 -15 7 -41 14 -58 14 -17 0 -48 11 -68 25 -46 31 -59 31 -76 0z"/>
<path d="M1995 5642 c-44 -10 -45 -36 -2 -82 26 -29 54 -42 147 -73 63 -20
122 -37 131 -37 9 0 28 -9 42 -20 46 -36 116 -60 177 -60 85 0 157 18 175 43
21 30 2 46 -71 57 -32 5 -75 13 -95 18 -20 5 -59 7 -86 5 -41 -4 -56 -1 -88
21 -22 14 -43 29 -47 33 -4 5 -25 27 -46 51 -35 38 -44 42 -88 43 -27 1 -67 3
-89 4 -22 1 -49 0 -60 -3z"/>
<path d="M2724 5401 c3 -5 -4 -20 -15 -35 l-20 -26 28 -12 c15 -7 43 -23 61
-36 28 -21 39 -24 80 -18 26 3 49 11 50 16 7 21 34 8 54 -26 22 -37 51 -54 94
-54 13 0 42 -11 62 -25 34 -23 42 -24 73 -13 36 12 78 39 79 50 0 3 -35 21
-77 38 -43 18 -88 41 -101 53 -16 15 -33 20 -65 19 -36 -2 -47 2 -72 28 -23
24 -37 30 -71 30 -24 0 -46 5 -49 10 -3 6 -31 10 -61 10 -30 0 -53 -4 -50 -9z"/>
<path d="M3808 5393 c7 -3 16 -2 19 1 4 3 -2 6 -13 5 -11 0 -14 -3 -6 -6z"/>
<path d="M1556 5014 c-8 -22 -3 -26 29 -26 31 0 39 6 32 27 -8 20 -53 19 -61
-1z"/>
<path d="M1640 4995 c0 -10 29 -24 34 -17 3 6 -3 12 -14 15 -11 3 -20 4 -20 2z"/>
<path d="M7503 4617 c-26 -21 -27 -21 -95 8 -12 5 -20 -1 -30 -18 -7 -14 -30
-39 -51 -56 l-38 -30 27 -18 c25 -16 55 -18 259 -20 558 -3 809 -11 878 -28
38 -9 78 -13 90 -9 36 12 753 13 880 2 104 -9 120 -8 143 7 22 14 25 22 22 63
-3 40 -7 49 -31 60 -25 12 -35 11 -86 -7 -55 -21 -59 -21 -141 -6 -123 23
-231 35 -243 28 -6 -3 -56 -8 -113 -10 -77 -3 -112 0 -139 12 -52 21 -117 19
-159 -6 -19 -11 -59 -23 -89 -26 -45 -5 -64 -1 -116 22 -58 26 -66 27 -112 17
-70 -17 -99 -15 -192 9 -76 19 -91 20 -199 9 -93 -9 -122 -9 -140 2 -15 8 -71
13 -161 14 -125 1 -140 -1 -164 -19z"/>
<path d="M2340 4520 c0 -5 7 -10 15 -10 8 0 15 5 15 10 0 6 -7 10 -15 10 -8 0
-15 -4 -15 -10z"/>
<path d="M9136 4183 c-4 -5 -56 -8 -115 -8 -78 0 -113 -4 -125 -14 -26 -22
-22 -24 141 -62 45 -11 60 -10 106 4 30 9 79 17 109 17 36 0 60 5 67 14 14 16
10 18 -84 36 -33 6 -67 13 -76 16 -8 2 -19 1 -23 -3z"/>
<path d="M4130 3707 c-29 -10 -34 -16 -32 -37 5 -38 17 -43 50 -26 17 9 42 16
56 16 14 0 28 5 31 11 4 6 30 9 59 8 28 -2 71 -2 96 -1 l45 3 -24 19 c-26 22
-72 26 -120 9 -24 -9 -35 -9 -44 0 -14 14 -72 13 -117 -2z"/>
<path d="M8510 3539 c-25 -4 -57 -12 -72 -17 -17 -7 -38 -8 -62 -1 -27 8 -47
5 -92 -10 -56 -19 -57 -19 -92 2 -30 18 -38 19 -66 8 -36 -15 -94 -28 -162
-36 -58 -7 -124 -25 -142 -38 -9 -7 -21 -3 -40 16 -49 47 -162 44 -162 -4 0
-28 44 -53 69 -40 26 15 82 7 115 -14 21 -14 38 -16 79 -11 64 9 69 9 136 0
60 -8 116 13 126 47 3 9 17 24 30 33 23 15 25 14 59 -19 31 -30 41 -34 86 -33
28 1 56 -4 62 -10 20 -20 28 -14 28 23 0 52 29 63 72 27 64 -54 151 -64 235
-26 30 14 87 15 108 2 24 -14 74 -18 100 -8 23 9 31 7 47 -7 10 -9 42 -20 71
-24 29 -3 76 -11 105 -18 37 -7 67 -8 101 0 26 5 65 11 87 12 40 3 52 19 18
26 -10 2 -21 7 -24 12 -3 4 -68 13 -145 19 -97 8 -152 17 -182 31 -31 14 -66
19 -135 20 -51 0 -102 4 -113 8 -11 4 -35 4 -54 0 -25 -5 -45 -3 -75 11 -59
26 -66 27 -116 19z"/>
<path d="M4139 3523 c-38 -6 -66 -39 -53 -61 14 -21 137 -31 233 -19 69 9 185
-5 209 -26 22 -18 203 -20 274 -3 73 17 247 14 346 -6 62 -12 64 -11 81 11 14
19 27 22 82 23 35 1 85 -2 110 -6 44 -8 89 4 89 22 0 4 -23 20 -50 35 -41 23
-56 27 -78 19 -16 -5 -88 -6 -172 -2 -114 6 -155 4 -194 -7 -29 -9 -84 -14
-140 -13 -50 1 -117 -1 -149 -5 -59 -8 -144 4 -225 31 -34 11 -52 12 -88 3
-41 -11 -77 -10 -209 5 -22 2 -52 2 -66 -1z"/>
<path d="M6675 3504 c-66 -16 -134 -17 -189 -2 -35 9 -67 8 -167 -6 -68 -9
-142 -17 -164 -16 -52 3 -195 2 -310 0 -60 -2 -104 3 -131 13 -61 22 -194 4
-194 -27 0 -6 16 -20 35 -30 27 -15 44 -17 87 -11 89 12 185 6 221 -15 46 -27
78 -27 117 -3 28 17 52 22 125 23 200 4 288 -1 315 -17 24 -14 30 -14 68 6 23
12 53 21 68 21 14 0 41 7 59 16 28 13 37 13 57 3 13 -7 52 -14 88 -16 114 -6
165 -10 175 -13 17 -6 85 12 85 21 0 11 2 11 -120 37 -126 28 -165 31 -225 16z"/>
<path d="M7293 3512 c-69 -8 -73 -10 -88 -55 -11 -36 -23 -38 -124 -24 -47 7
-52 6 -39 -7 8 -8 41 -21 74 -29 50 -13 64 -13 89 -2 40 17 129 32 245 40 94
7 130 21 130 50 0 20 -185 37 -287 27z"/>
<path d="M8447 3084 c-4 -4 -33 -8 -65 -10 -38 -1 -70 -9 -96 -25 l-39 -23
-18 22 c-17 22 -49 30 -49 13 0 -6 -19 -11 -41 -13 -30 -2 -46 -9 -56 -25 -14
-20 -13 -23 16 -37 16 -9 37 -16 46 -16 9 0 28 -9 41 -19 29 -23 122 -27 219
-9 65 12 82 21 96 53 5 11 15 29 23 40 9 12 12 25 7 33 -9 15 -73 27 -84 16z"/>
<path d="M7430 3068 c-25 -5 -56 -20 -70 -33 -19 -17 -42 -24 -95 -29 -63 -5
-72 -4 -86 15 -13 18 -29 22 -106 26 -55 3 -93 1 -97 -5 -6 -10 64 -86 87 -95
7 -3 24 1 38 9 32 18 78 17 114 -2 17 -9 47 -22 68 -30 37 -13 39 -12 62 12
13 14 25 35 27 47 3 20 10 22 76 25 68 3 74 1 79 -18 5 -19 11 -21 42 -17 29
3 40 0 57 -21 20 -24 23 -25 66 -14 30 8 56 8 78 2 25 -7 46 -5 93 11 53 18
65 19 109 8 42 -11 50 -11 65 4 32 32 -7 54 -149 83 l-87 17 -48 -25 -48 -25
-63 33 c-69 37 -121 42 -212 22z"/>
<path d="M9100 3049 c-19 -5 -54 -6 -77 -3 -35 4 -43 2 -43 -11 0 -23 83 -58
119 -50 19 4 34 1 44 -9 9 -9 25 -16 37 -16 18 0 21 4 16 23 -4 12 -8 28 -10
36 -3 14 -35 42 -45 40 -3 -1 -22 -5 -41 -10z"/>
<path d="M6105 3043 c-11 -2 -27 -7 -35 -10 -8 -3 -28 -5 -45 -5 -171 8 -236
8 -247 1 -17 -11 -8 -18 59 -45 69 -28 150 -25 197 8 23 17 30 18 37 7 4 -8 6
-24 2 -36 -5 -21 -1 -23 29 -23 18 0 56 -8 84 -19 36 -13 56 -15 69 -9 17 10
215 24 270 19 32 -3 53 -3 246 -2 143 1 171 11 149 51 -11 21 -10 26 8 41 l22
17 -28 4 c-16 2 -93 3 -172 2 -123 -2 -147 -5 -169 -22 -34 -25 -81 -33 -121
-22 -18 5 -73 10 -122 11 -65 2 -99 7 -124 21 -32 17 -66 21 -109 11z"/>
<path d="M7620 2856 c-19 -5 -71 -9 -114 -8 -45 1 -85 -3 -92 -9 -9 -7 -57 -9
-143 -6 -119 5 -133 4 -156 -15 -20 -16 -23 -23 -15 -39 6 -11 21 -19 36 -19
15 0 40 -11 56 -26 29 -23 36 -25 102 -20 49 4 79 12 98 26 30 22 58 26 75 9
7 -7 22 -9 40 -3 15 4 36 8 46 10 10 1 23 6 30 13 18 18 45 13 88 -19 33 -23
45 -27 60 -19 11 5 19 14 19 19 0 15 34 17 74 3 53 -18 106 -16 128 4 17 15
18 15 18 0 0 -10 6 -17 13 -17 7 0 31 -8 53 -19 65 -30 99 -33 129 -10 17 14
36 20 56 17 16 -3 57 1 90 8 45 9 68 10 85 2 13 -6 24 -14 24 -18 0 -4 11 -12
26 -18 26 -12 125 -7 155 9 9 4 20 4 25 0 5 -5 62 -11 126 -14 116 -6 117 -6
137 18 23 30 37 31 59 6 10 -11 36 -22 58 -26 37 -6 45 -3 67 20 l24 27 42
-21 41 -21 0 25 c0 15 11 36 27 51 l28 26 -22 17 c-23 19 -165 37 -199 25 -11
-4 -33 -20 -51 -37 -29 -27 -34 -29 -61 -18 -17 7 -44 10 -64 6 -26 -5 -46 -1
-77 14 -36 19 -47 20 -81 11 -22 -6 -44 -9 -49 -6 -4 3 -41 10 -82 17 -41 6
-85 18 -98 26 -20 13 -45 14 -145 8 -67 -4 -130 -12 -141 -18 -11 -6 -42 -12
-70 -13 -27 -1 -57 -3 -65 -4 -41 -3 -152 10 -172 21 -28 15 -190 19 -238 5z"/>
<path d="M9355 2810 c3 -5 13 -10 21 -10 8 0 14 5 14 10 0 6 -9 10 -21 10 -11
0 -17 -4 -14 -10z"/>
<path d="M9338 2749 c-21 -5 -56 -21 -79 -36 -37 -24 -39 -28 -24 -40 10 -6
38 -15 64 -18 25 -4 68 -17 95 -30 36 -17 54 -21 68 -14 24 13 32 48 18 84
-24 64 -54 75 -142 54z"/>
<path d="M9300 2503 c-25 -8 -62 -24 -82 -34 -49 -25 -73 -24 -125 7 -42 24
-47 25 -88 13 -37 -11 -42 -16 -34 -30 26 -50 -3 -80 -53 -55 -30 16 -69 9
-83 -14 -12 -20 10 -31 72 -35 33 -2 86 -11 117 -20 35 -10 71 -14 92 -11 22
5 44 1 63 -9 34 -17 146 -21 156 -4 5 6 22 8 47 4 31 -6 42 -3 52 10 7 10 25
17 42 17 16 0 44 4 62 9 26 9 32 16 32 39 0 16 6 30 13 33 24 9 -8 24 -88 41
-44 10 -96 26 -115 36 -32 16 -39 16 -80 3z"/>
<path d="M8590 2125 c0 -8 4 -15 9 -15 5 0 11 7 15 15 3 9 0 15 -9 15 -8 0
-15 -7 -15 -15z"/>
<path d="M17225 6018 c-30 -17 -33 -24 -40 -111 -5 -55 -12 -83 -24 -93 -9 -7
-27 -22 -40 -32 -24 -18 -24 -22 -12 -61 12 -42 12 -43 -28 -86 -36 -40 -41
-50 -41 -94 0 -38 -6 -56 -25 -79 -22 -26 -24 -36 -19 -93 3 -35 6 -87 8 -116
2 -43 9 -60 40 -97 75 -92 145 -44 146 101 0 55 25 73 102 73 32 0 79 8 105
18 60 22 81 18 89 -16 16 -72 38 -124 59 -138 12 -8 48 -20 79 -26 49 -11 58
-10 73 5 16 16 16 18 -4 45 -11 15 -23 48 -26 73 -9 80 -24 129 -50 167 -14
20 -28 48 -32 62 -4 14 -23 52 -41 86 -19 33 -34 72 -34 87 0 14 -15 54 -34
89 -19 34 -37 81 -41 103 -12 76 -15 84 -46 114 -27 27 -37 31 -87 31 -31 0
-66 -6 -77 -12z m133 -361 c6 -6 13 -24 17 -39 4 -15 15 -34 26 -44 42 -38 17
-72 -57 -80 -39 -5 -54 -2 -72 13 l-24 19 20 44 c11 25 25 57 31 73 11 29 41
36 59 14z"/>
<path d="M16684 5944 c-19 -9 -38 -31 -48 -53 -16 -35 -16 -48 -3 -182 13
-121 15 -225 8 -345 -2 -43 -30 -36 -98 24 -36 31 -72 71 -80 87 -9 17 -29 45
-45 63 -42 49 -77 105 -128 206 -54 108 -81 132 -128 115 -37 -13 -53 -36 -46
-65 3 -13 -4 -28 -20 -43 -30 -28 -32 -53 -11 -105 15 -36 20 -157 15 -352 -2
-72 13 -143 37 -179 7 -11 13 -29 13 -41 0 -34 72 -58 98 -32 15 15 15 61 2
108 -6 19 -12 94 -15 167 -2 73 -7 148 -11 167 -5 31 -3 37 17 45 21 8 29 4
57 -27 18 -20 45 -54 58 -76 14 -21 47 -59 73 -85 27 -25 57 -64 69 -86 34
-67 125 -143 204 -171 39 -13 44 -13 66 3 32 24 72 121 62 148 -4 12 -11 88
-14 171 -3 82 -8 163 -11 179 -2 17 -7 75 -9 129 -3 55 -10 104 -16 110 -5 5
-10 31 -10 56 0 33 -6 52 -18 63 -23 21 -29 21 -68 1z"/>
<path d="M19389 4633 c-20 -5 -33 -131 -18 -171 18 -46 32 -203 43 -470 5
-115 -5 -126 -80 -81 -27 16 -56 29 -65 29 -9 0 -23 7 -30 16 -7 9 -36 31 -64
49 -51 33 -184 161 -265 255 -29 33 -65 61 -99 78 -79 37 -86 29 -87 -99 -1
-63 4 -114 11 -129 7 -14 13 -47 14 -73 1 -27 5 -67 10 -90 6 -22 7 -52 5 -67
-7 -34 22 -160 43 -182 19 -21 108 -52 123 -43 6 4 10 14 9 23 -2 10 1 32 5
49 10 43 0 69 -33 89 -30 18 -29 6 -22 222 1 22 6 32 16 32 29 0 116 -51 133
-78 9 -15 41 -50 70 -77 30 -28 77 -73 105 -100 29 -28 84 -69 122 -92 l70
-42 72 7 c86 10 108 26 122 91 9 41 8 49 -14 80 -19 27 -22 39 -14 59 7 18 6
35 -2 54 -6 15 -9 38 -6 50 3 11 1 30 -5 42 -6 11 -10 49 -9 84 1 35 -3 69 -9
77 -6 8 -7 21 -2 36 5 13 5 39 1 58 -4 19 -5 72 -2 118 l6 83 -52 50 c-58 56
-79 68 -102 63z"/>
<path d="M18365 4324 c-51 -19 -175 -139 -175 -171 0 -29 -38 -93 -55 -93 -8
0 -17 10 -20 23 -4 12 -18 37 -32 55 -19 25 -31 32 -51 30 -18 -2 -26 -8 -23
-18 2 -8 5 -86 5 -172 l2 -157 30 -29 c17 -16 36 -31 42 -33 8 -3 8 -11 -1
-29 -10 -20 -19 -24 -42 -22 -17 2 -86 6 -155 10 -119 7 -125 8 -137 31 -9 20
-9 30 4 54 11 23 13 43 7 86 -4 31 -6 61 -5 66 8 29 -1 109 -15 138 -20 40
-74 97 -91 97 -21 0 -35 -39 -30 -83 3 -23 -1 -116 -10 -207 -8 -91 -14 -176
-13 -190 1 -14 2 -43 1 -65 -4 -103 -3 -217 3 -238 6 -24 32 -39 89 -52 55
-12 64 -2 71 84 8 85 14 95 75 126 27 13 50 16 98 12 72 -5 103 -25 103 -66 0
-50 98 -82 132 -43 16 18 29 103 33 210 2 71 -9 87 -54 77 -22 -5 -36 -2 -50
12 -19 18 -19 21 -5 48 11 21 14 45 10 79 -4 38 -2 54 11 68 23 26 38 23 83
-18 32 -29 40 -43 40 -70 0 -40 48 -151 76 -176 23 -20 100 -48 132 -48 12 0
38 6 57 14 38 16 78 81 80 131 1 17 9 50 18 75 9 25 21 65 28 90 7 25 16 49
21 55 13 15 9 43 -7 52 -10 6 -16 33 -20 92 -4 80 -6 85 -42 122 -23 23 -50
41 -68 43 -85 13 -113 13 -150 0z m110 -120 c41 -16 69 -155 46 -230 -25 -81
-56 -144 -71 -144 -8 0 -31 19 -50 41 -19 23 -47 54 -62 69 -27 27 -27 29 -16
91 15 90 36 130 83 156 44 25 46 26 70 17z"/>
<path d="M17059 4095 c-71 -15 -79 -20 -79 -55 0 -24 6 -31 43 -45 88 -34 92
-40 93 -162 3 -205 16 -397 30 -425 8 -15 14 -36 14 -47 0 -11 12 -34 26 -51
22 -26 33 -31 63 -28 31 3 36 6 33 26 -1 13 5 33 13 45 20 28 19 30 -10 66
-21 24 -27 43 -30 103 -3 40 -6 98 -8 128 -3 46 1 60 20 84 20 24 23 35 17 80
-4 28 -13 63 -20 77 -25 50 27 77 156 78 54 1 90 23 90 55 0 27 -33 64 -63 70
-52 11 -335 12 -388 1z"/>
<path d="M16082 4035 c-120 -27 -145 -54 -99 -103 27 -29 32 -62 42 -256 3
-55 12 -119 20 -143 8 -24 15 -69 15 -100 0 -51 15 -120 43 -196 14 -41 49
-62 77 -47 15 8 19 17 14 28 -14 32 -22 157 -13 204 4 26 6 76 2 110 -7 76 0
85 82 98 31 5 62 13 69 18 22 17 106 43 128 40 14 -2 24 -13 29 -32 4 -15 15
-36 25 -47 20 -22 23 -140 5 -206 -10 -35 -9 -48 4 -72 8 -17 15 -46 15 -66 0
-29 6 -39 33 -55 41 -25 79 -25 102 0 16 18 17 28 7 107 -6 49 -14 115 -17
148 -4 33 -11 74 -18 92 -14 42 8 69 64 78 21 4 38 10 37 13 -6 19 41 88 83
125 60 51 70 87 40 142 -11 21 -33 46 -48 56 -56 37 -103 17 -142 -60 -24 -45
-44 -64 -67 -59 -19 3 -64 80 -64 109 0 20 -51 66 -89 81 -21 8 -35 5 -68 -13
-40 -22 -44 -22 -76 -7 -50 24 -160 30 -235 13z m226 -101 c41 -28 18 -96 -51
-148 -65 -50 -108 -26 -87 48 6 24 9 53 6 64 -14 44 83 70 132 36z"/>
<path d="M24490 2904 c0 -9 7 -14 17 -12 25 5 28 28 4 28 -12 0 -21 -6 -21
-16z"/>
<path d="M4358 1883 c7 -3 16 -2 19 1 4 3 -2 6 -13 5 -11 0 -14 -3 -6 -6z"/>
</g>
</svg>
