<?xml version="1.0" standalone="no"?>
<!DOCTYPE svg PUBLIC "-//W3C//DTD SVG 20010904//EN"
 "http://www.w3.org/TR/2001/REC-SVG-20010904/DTD/svg10.dtd">
<svg version="1.0" xmlns="http://www.w3.org/2000/svg"
 width="1578.971946pt" height="813.903941pt" viewBox="0 0 1578.971946 813.903941"
 preserveAspectRatio="xMidYMid meet">
<metadata>
Created by potrace 1.13, written by Peter Selinger 2001-2015
</metadata>
<g transform="translate(-53.675519,1253.284456) scale(0.100000,-0.100000)"
fill="#000000" stroke="none">
<path d="M3259 12523 c-15 -6 -84 -15 -151 -18 -174 -9 -331 -59 -410 -130
-33 -30 -90 -55 -126 -55 -7 0 -32 -11 -55 -24 -24 -13 -68 -26 -100 -30 -32
-4 -72 -13 -87 -21 -16 -8 -46 -15 -66 -15 -44 0 -159 -69 -170 -102 -11 -34
-126 -160 -159 -174 -18 -7 -50 -33 -71 -58 -22 -24 -59 -56 -84 -72 -62 -38
-130 -96 -130 -110 0 -21 -106 -137 -153 -169 -25 -16 -53 -46 -64 -65 -10
-19 -34 -55 -54 -80 -20 -26 -44 -60 -52 -77 -23 -44 -58 -230 -55 -294 1 -30
-3 -83 -9 -119 -11 -59 -14 -145 -11 -320 0 -36 -1 -99 -3 -140 -4 -75 23
-295 40 -328 5 -9 14 -51 21 -92 7 -41 25 -102 40 -135 55 -120 90 -229 90
-278 0 -10 6 -31 14 -45 7 -15 22 -45 31 -67 10 -22 24 -51 31 -65 43 -80 84
-166 84 -178 0 -16 28 -59 77 -116 18 -22 33 -43 33 -48 0 -5 42 -51 93 -101
50 -51 110 -112 132 -136 22 -23 77 -65 122 -93 52 -32 113 -82 163 -134 45
-46 86 -84 93 -84 6 0 27 -15 47 -34 19 -19 71 -53 115 -76 44 -23 89 -52 100
-65 11 -12 38 -33 60 -46 22 -12 44 -29 48 -36 10 -16 191 -153 203 -153 5 0
29 -20 53 -45 24 -25 48 -45 53 -45 6 0 45 -33 87 -74 66 -65 202 -166 222
-166 15 0 119 -140 119 -160 0 -12 8 -34 19 -48 25 -37 91 -304 91 -372 0 -53
-15 -58 -101 -33 -61 18 -71 18 -101 5 -19 -8 -79 -17 -140 -20 -89 -4 -117
-1 -176 17 -39 12 -98 21 -132 21 -62 0 -62 0 -123 59 -34 32 -77 66 -96 76
-19 10 -57 35 -84 56 -27 22 -55 39 -62 39 -29 0 -47 32 -41 72 7 45 -13 93
-45 103 -11 4 -47 4 -80 0 -47 -6 -65 -4 -84 9 -23 15 -25 22 -25 101 0 74 -4
93 -31 152 -47 97 -101 145 -192 168 -77 19 -111 20 -252 11 -148 -10 -153
-12 -216 -76 -44 -45 -60 -71 -74 -116 -9 -33 -24 -80 -31 -105 -11 -34 -12
-53 -4 -73 15 -42 13 -93 -6 -100 -23 -9 -97 -7 -113 3 -11 7 -11 15 -2 41 17
49 13 80 -14 135 -74 148 -168 277 -238 328 l-42 31 -147 -2 c-81 -1 -159 -7
-174 -12 -41 -16 -142 -118 -155 -157 -34 -103 0 -193 117 -314 41 -41 74 -79
74 -83 0 -5 -14 -24 -31 -43 -22 -25 -29 -42 -25 -57 23 -78 25 -119 11 -174
-10 -36 -13 -72 -9 -97 4 -22 8 -74 9 -115 2 -83 20 -239 37 -313 6 -27 12
-119 14 -203 1 -85 6 -163 9 -173 3 -10 -6 -42 -20 -72 -23 -52 -24 -57 -10
-103 20 -67 18 -133 -5 -185 -25 -53 -25 -108 -2 -142 20 -31 123 -148 173
-198 57 -58 154 -101 226 -101 50 0 67 5 105 30 25 17 65 56 88 87 l43 56 1
96 1 96 111 -1 c142 -2 154 -8 152 -77 -5 -121 76 -282 200 -398 119 -111 166
-126 284 -89 96 29 211 134 294 267 41 66 45 78 35 99 -6 14 -11 41 -11 60 0
19 -10 53 -22 75 -20 34 -21 41 -8 49 8 5 31 10 51 10 20 0 73 7 117 15 58 11
87 13 107 5 66 -25 99 -4 206 135 50 66 146 125 203 125 17 0 56 9 86 21 40
15 85 22 173 25 65 2 123 6 127 9 16 10 50 96 50 126 0 31 -35 64 -78 74 -15
3 -59 0 -97 -6 -39 -6 -106 -16 -150 -23 -44 -6 -91 -18 -105 -25 -26 -15 -95
-18 -146 -6 -30 7 -37 1 -138 -99 -77 -78 -112 -106 -131 -106 -13 0 -47 -9
-74 -20 -27 -10 -82 -26 -123 -35 -40 -9 -101 -23 -134 -31 -47 -10 -96 -12
-200 -6 -143 7 -265 8 -414 2 -100 -3 -341 16 -388 31 -19 6 -38 22 -47 39 -8
16 -29 38 -46 51 -29 21 -37 21 -159 15 -70 -4 -130 -3 -133 1 -4 7 -9 160 -7
243 0 37 -9 130 -18 185 -6 33 -13 94 -17 135 -11 141 -25 255 -37 292 -10 35
-8 45 32 135 24 54 49 104 56 112 25 28 268 50 509 46 121 -1 231 -7 245 -13
14 -5 49 -10 78 -11 30 0 70 -5 90 -10 39 -10 256 -7 396 4 76 7 83 5 107 -17
15 -12 59 -50 99 -83 83 -68 105 -87 220 -200 46 -44 89 -94 96 -112 17 -40
40 -53 79 -46 40 7 54 20 48 43 -8 32 25 41 93 25 157 -38 275 -47 429 -35
l59 5 6 -35 c3 -19 16 -53 27 -75 24 -46 40 -124 48 -244 3 -46 12 -95 19
-110 7 -14 16 -53 20 -86 4 -33 17 -82 30 -110 14 -27 32 -70 42 -95 10 -25
26 -57 36 -72 13 -18 16 -36 12 -53 -5 -19 -1 -32 14 -48 11 -12 32 -44 46
-72 75 -140 163 -238 258 -286 56 -29 74 -32 161 -35 74 -3 116 1 166 15 137
38 191 84 207 176 8 44 12 50 34 50 19 0 30 -10 45 -40 15 -29 36 -48 76 -70
31 -16 68 -40 84 -52 15 -13 37 -23 49 -23 29 0 81 -34 103 -66 9 -15 41 -37
69 -50 29 -13 55 -28 59 -33 9 -16 52 -13 78 4 13 8 48 23 78 34 73 25 151 72
218 132 55 49 84 59 119 39 9 -5 40 -19 67 -31 28 -11 64 -27 80 -35 121 -55
224 -77 380 -79 110 -1 126 1 190 27 55 22 72 25 81 15 7 -6 39 -69 71 -138
55 -120 63 -132 163 -235 58 -60 130 -132 160 -160 30 -28 67 -64 82 -81 27
-31 116 -82 185 -106 21 -7 72 -36 113 -63 138 -91 246 -145 310 -155 69 -11
257 -73 335 -110 62 -30 79 -33 150 -32 44 0 107 6 140 13 33 7 101 14 150 16
123 5 225 18 254 33 13 7 56 14 95 15 72 3 211 29 230 45 6 5 29 14 51 21 22
7 69 27 105 45 36 18 75 36 87 40 13 3 53 31 89 61 71 58 88 63 134 39 67 -35
172 -67 275 -84 96 -16 141 -17 361 -11 248 7 252 8 296 34 42 25 291 106 324
106 8 0 51 18 95 40 44 22 86 40 93 40 7 0 34 14 62 32 27 17 94 49 149 70 89
35 244 108 270 128 21 16 188 70 216 70 16 0 45 7 65 15 28 11 78 13 257 10
143 -2 234 -8 253 -16 16 -6 48 -20 71 -30 24 -11 48 -19 54 -19 23 0 147 -72
229 -133 106 -79 233 -129 408 -161 45 -9 97 -23 115 -32 48 -25 161 -103 252
-174 78 -61 187 -120 222 -120 10 0 32 -8 48 -18 17 -10 89 -38 160 -61 72
-23 167 -56 212 -72 45 -17 104 -34 130 -38 27 -5 84 -18 128 -29 88 -23 384
-56 410 -46 9 4 63 1 119 -6 117 -14 211 -4 273 31 19 11 54 24 77 29 50 10
175 62 213 88 15 11 57 38 93 60 36 23 83 60 105 83 22 22 63 58 90 79 75 57
465 444 491 488 74 124 104 185 110 224 3 23 17 62 30 85 13 23 24 49 24 59 0
9 18 58 39 108 45 104 61 166 61 229 0 46 35 229 49 256 5 9 11 39 15 66 8 67
23 166 36 245 12 70 28 202 36 290 2 30 -3 107 -12 170 -9 63 -17 156 -18 205
-1 50 -7 113 -14 140 -6 28 -13 89 -16 137 -4 53 -16 118 -32 165 -41 127 -66
252 -68 353 -1 52 -8 105 -15 118 -13 25 -51 166 -51 192 0 17 -29 89 -76 185
-13 28 -24 55 -24 61 0 6 -13 29 -29 51 -16 22 -43 84 -61 139 -18 54 -41 118
-51 140 -11 23 -23 62 -28 87 -20 111 -110 164 -195 115 -32 -19 -41 -31 -52
-73 -7 -27 -13 -53 -14 -57 0 -4 26 -36 59 -70 40 -43 60 -74 64 -98 4 -19 10
-57 15 -85 5 -27 25 -79 44 -115 48 -90 137 -285 155 -342 14 -43 14 -49 -1
-72 -20 -31 -20 -50 -1 -66 18 -15 55 -135 55 -179 0 -18 6 -44 14 -59 21 -42
59 -202 60 -257 1 -27 9 -63 17 -80 10 -19 19 -72 23 -145 4 -63 9 -133 11
-155 17 -177 27 -254 36 -278 12 -28 5 -150 -11 -191 -24 -65 -51 -234 -55
-351 -2 -44 -10 -116 -19 -160 -20 -103 -37 -214 -45 -290 -4 -33 -10 -66 -15
-74 -5 -7 -12 -27 -17 -45 -4 -17 -26 -83 -48 -146 -23 -63 -41 -122 -41 -131
0 -9 -12 -32 -28 -52 -15 -20 -40 -55 -57 -78 -36 -51 -167 -200 -220 -249
-39 -37 -119 -113 -234 -222 -39 -38 -71 -72 -71 -77 0 -5 -24 -24 -52 -42
-29 -17 -57 -37 -63 -44 -21 -25 -153 -105 -207 -125 -143 -53 -365 -72 -568
-49 -52 7 -115 13 -140 14 -25 1 -58 10 -75 19 -16 9 -42 16 -56 16 -15 0 -43
7 -63 15 -20 9 -47 13 -59 10 -13 -4 -62 7 -115 24 -50 17 -111 33 -134 37
-58 8 -124 29 -243 77 -104 42 -193 98 -282 177 -107 97 -184 137 -353 187
-47 13 -99 32 -116 42 -17 10 -48 24 -70 31 -21 7 -50 21 -63 31 -13 11 -31
19 -40 19 -10 0 -37 13 -62 28 -94 60 -271 137 -424 184 l-160 50 -165 1
c-130 0 -178 -3 -225 -18 -33 -9 -64 -21 -70 -25 -5 -4 -68 -22 -140 -40 -123
-31 -198 -60 -256 -101 -25 -17 -110 -48 -195 -69 -23 -5 -56 -25 -76 -44 -19
-19 -86 -59 -149 -89 -162 -77 -187 -87 -215 -87 -13 0 -41 -7 -62 -16 -145
-61 -313 -88 -553 -87 -112 1 -148 4 -198 22 -34 11 -77 21 -96 21 -25 0 -76
21 -163 66 -158 83 -165 87 -232 170 -30 36 -74 88 -97 113 -47 52 -103 167
-108 221 -3 38 -27 109 -49 150 -28 50 -49 165 -39 211 13 62 7 75 -38 93 -55
22 -100 20 -140 -7 -27 -18 -35 -32 -42 -71 -7 -43 -5 -53 18 -87 20 -31 25
-51 25 -99 0 -34 6 -73 14 -88 13 -25 27 -80 57 -227 13 -61 47 -132 82 -172
27 -30 14 -43 -44 -43 -28 0 -112 -7 -187 -16 -151 -18 -204 -13 -318 29 -61
23 -207 99 -283 148 -25 16 -48 29 -53 29 -5 0 -28 13 -51 29 -24 16 -60 36
-82 45 -21 9 -57 34 -80 56 -22 21 -56 54 -75 73 -52 50 -98 110 -129 169 -33
65 -83 221 -76 240 3 8 -5 39 -19 70 -21 48 -25 70 -25 174 -1 145 -18 546
-27 631 -9 79 3 98 58 89 24 -4 82 4 160 21 84 18 147 25 198 24 70 -2 158 -3
385 -3 292 -1 380 -1 465 -1 52 0 113 0 135 0 22 0 195 4 385 9 353 8 676 10
880 3 124 -4 116 0 108 -56 -3 -17 2 -19 79 -41 30 -8 30 -8 58 -179 9 -51 20
-104 25 -118 6 -15 10 -39 10 -54 0 -15 9 -36 20 -46 46 -42 9 -58 -190 -86
-41 -6 -104 -15 -140 -20 -36 -5 -94 -11 -130 -14 -36 -3 -116 -10 -178 -16
-116 -11 -341 -1 -482 22 -135 22 -643 11 -760 -17 -70 -16 -287 -21 -525 -13
-27 1 -63 1 -80 -1 -36 -3 -117 -2 -220 2 -74 4 -92 -7 -125 -72 -16 -33 -30
-68 -30 -79 0 -32 32 -58 102 -81 l67 -23 29 31 29 30 384 -3 c312 -3 396 0
448 12 36 8 75 12 87 9 12 -3 67 -1 121 5 54 7 123 13 153 15 121 7 662 0 676
-8 5 -4 101 -2 214 4 113 5 311 11 440 13 128 3 240 7 248 10 22 8 53 -14 121
-87 69 -75 141 -128 236 -173 33 -16 87 -45 120 -65 74 -44 96 -53 209 -80 69
-17 94 -20 113 -11 13 6 56 11 96 11 54 0 81 5 107 20 63 37 115 59 173 74 42
11 75 30 128 73 39 32 83 67 98 78 14 11 56 52 93 90 68 71 104 127 128 200 7
22 19 49 25 60 7 11 16 33 19 48 5 23 19 34 64 54 74 33 154 52 220 53 29 0
65 6 80 14 25 12 80 21 287 48 95 12 286 16 370 8 l60 -5 -3 -70 c-4 -89 21
-241 48 -294 31 -63 55 -63 154 -2 46 28 100 58 121 67 58 24 202 37 252 23
39 -11 46 -9 119 27 58 30 80 47 92 71 15 31 14 35 -16 92 -17 32 -37 90 -46
127 -26 123 -48 208 -58 234 -6 14 -14 43 -18 65 -8 40 -17 69 -51 160 -11 28
-19 62 -19 77 0 15 -5 39 -11 55 -6 15 -15 64 -19 108 -5 44 -14 109 -20 145
-7 37 -12 166 -12 300 0 185 -3 240 -14 257 -8 12 -14 35 -14 51 0 17 -10 38
-25 52 -44 41 -98 47 -367 38 -263 -8 -280 -11 -327 -61 -22 -25 -23 -28 -13
-104 6 -43 22 -112 36 -153 14 -41 26 -85 26 -98 0 -13 13 -62 28 -110 35
-105 50 -169 57 -242 3 -30 11 -90 17 -133 14 -94 8 -105 -47 -77 -69 35 -98
36 -162 1 -31 -17 -76 -34 -98 -37 -22 -3 -62 -13 -89 -21 -29 -9 -65 -13 -90
-10 -23 4 -69 0 -102 -7 -32 -8 -88 -17 -124 -21 -36 -4 -98 -13 -139 -22 -71
-14 -75 -14 -94 6 -13 12 -23 41 -28 73 -8 66 5 85 70 93 25 3 65 15 89 25 23
11 58 20 77 20 18 0 62 6 97 14 40 9 146 17 286 20 122 3 227 8 231 11 5 3 19
26 31 51 18 37 20 50 12 69 -24 53 -38 55 -282 46 -128 -5 -234 -5 -247 0 -15
6 -38 4 -66 -5 -23 -7 -85 -23 -137 -35 -52 -13 -132 -32 -178 -42 -111 -27
-129 -24 -172 32 -88 116 -285 239 -383 239 -21 0 -61 10 -88 22 -42 17 -57
19 -93 11 -30 -7 -50 -6 -71 4 -17 7 -44 10 -61 8 -19 -3 -73 6 -130 21 -113
31 -118 31 -239 11 -110 -19 -181 -43 -303 -104 -77 -39 -99 -55 -119 -88 -14
-22 -38 -53 -54 -70 -27 -29 -74 -134 -115 -259 -26 -80 -43 -90 -132 -75 -57
9 -75 9 -87 -1 -25 -21 -164 -31 -475 -35 -162 -1 -331 -8 -375 -14 -44 -6
-134 -8 -200 -5 -66 2 -176 3 -245 2 -69 -1 -143 -2 -165 -2 -151 1 -404 3
-425 2 -14 0 -79 0 -145 0 -66 0 -156 0 -200 0 -44 0 -125 3 -181 7 -89 6
-105 5 -140 -13 -30 -15 -52 -18 -96 -14 -43 3 -64 0 -83 -12 -29 -19 -49 -13
-37 12 5 9 7 46 6 80 -2 60 -8 85 -39 157 -43 101 -58 145 -64 186 -4 25 -17
58 -29 74 -12 15 -22 32 -22 37 0 5 -13 26 -29 46 -16 20 -33 51 -39 68 -14
43 -72 118 -107 139 -16 10 -61 45 -98 77 -38 32 -74 58 -81 58 -43 0 -211
-31 -225 -42 -78 -61 -119 -101 -153 -150 -42 -62 -63 -72 -78 -34 -9 23 -75
83 -117 105 -12 6 -35 11 -52 11 -46 0 -128 24 -205 61 l-70 33 -98 -11 c-68
-8 -108 -18 -131 -32 -17 -11 -52 -30 -76 -41 -24 -11 -56 -30 -71 -43 -16
-12 -55 -37 -88 -55 -77 -44 -112 -77 -112 -107 0 -16 -7 -26 -22 -31 -18 -5
-29 2 -62 42 -22 27 -60 68 -84 90 -24 23 -49 52 -55 64 -7 13 -29 37 -50 53
-44 36 -104 44 -240 32 -76 -6 -90 -11 -148 -48 -57 -38 -67 -50 -100 -118
-21 -43 -42 -80 -47 -83 -6 -3 -32 5 -59 19 -26 14 -70 27 -97 30 -28 4 -55 9
-62 13 -15 9 -160 174 -233 265 -29 37 -70 77 -90 88 -105 59 -136 79 -174
116 -23 22 -58 50 -77 63 -19 13 -46 33 -60 45 -14 12 -45 25 -70 29 -24 4
-49 11 -55 15 -5 5 -37 23 -70 41 -60 32 -81 47 -173 125 -27 23 -64 51 -83
63 -38 23 -174 168 -204 217 -10 17 -66 101 -124 188 -58 87 -112 170 -120
185 -30 58 -39 78 -45 108 -4 17 -18 42 -32 54 -13 13 -24 35 -24 49 0 14 -10
42 -22 61 -12 19 -28 67 -35 105 -8 39 -18 88 -22 110 -7 33 -39 102 -69 150
-23 35 -46 149 -46 220 0 85 14 125 42 125 35 0 262 -120 302 -159 8 -8 27
-29 41 -47 25 -32 141 -124 182 -145 12 -6 47 -36 77 -68 71 -72 158 -141 177
-141 8 0 32 -9 52 -20 20 -11 61 -31 91 -44 30 -14 66 -31 80 -39 14 -8 54
-29 90 -47 36 -18 74 -40 85 -49 11 -10 57 -36 102 -59 65 -32 93 -41 140 -42
65 -2 153 11 228 33 70 21 237 103 257 127 10 12 31 22 51 23 40 4 171 88 196
127 18 28 75 84 110 108 12 8 34 32 47 51 77 113 117 151 159 151 29 0 90 -53
105 -92 7 -18 28 -51 45 -73 18 -22 47 -68 64 -103 30 -59 32 -71 33 -172 l2
-109 -41 -43 c-85 -89 -173 -198 -173 -214 0 -26 -76 -164 -131 -237 -28 -37
-55 -82 -59 -100 -5 -18 -12 -42 -15 -54 -6 -18 0 -24 40 -42 26 -12 55 -21
64 -21 27 0 130 89 138 118 17 68 96 198 196 323 78 96 105 100 196 25 29 -24
65 -46 80 -49 14 -3 71 -36 126 -72 113 -76 135 -78 192 -23 77 74 62 94 -156
208 -59 31 -159 104 -231 169 l-55 49 -2 77 c-1 42 -5 84 -8 93 -4 10 -14 52
-21 95 -16 90 -36 133 -92 201 -22 26 -50 67 -62 90 -14 28 -43 56 -87 86 -37
25 -68 50 -70 57 -3 6 12 29 31 51 20 22 36 42 36 46 0 3 23 46 50 96 28 50
50 101 50 113 0 13 11 34 24 46 14 13 28 40 31 63 4 22 15 59 26 82 10 24 19
71 21 107 3 78 -18 272 -38 351 -8 32 -14 76 -14 98 0 27 -10 56 -31 90 -17
28 -59 112 -93 188 -89 194 -99 212 -150 262 -25 24 -46 51 -46 60 0 25 -58
89 -101 110 -21 11 -51 36 -66 57 -99 130 -270 266 -357 284 -28 6 -59 18 -69
27 -10 9 -33 15 -57 14 -21 -1 -52 3 -67 9 -15 6 -80 13 -143 15 -63 2 -160
10 -215 18 -109 17 -404 44 -528 48 -46 2 -91 -2 -108 -9z m296 -187 c39 -8
104 -15 145 -15 41 0 98 -5 125 -11 28 -7 111 -16 185 -20 133 -7 284 -35 364
-68 21 -9 75 -47 119 -84 74 -63 97 -88 141 -160 9 -16 22 -28 29 -28 8 0 37
-29 66 -64 28 -36 78 -88 111 -117 40 -35 61 -62 65 -83 4 -17 24 -60 45 -96
21 -36 41 -83 45 -105 4 -22 13 -47 20 -55 22 -25 68 -112 76 -145 36 -139 40
-169 40 -277 1 -67 -5 -134 -12 -155 -6 -21 -42 -94 -79 -163 -37 -69 -71
-136 -75 -149 -4 -13 -38 -58 -75 -101 -88 -99 -187 -150 -296 -150 -23 0 -69
-9 -102 -19 -72 -23 -286 -46 -355 -37 -33 3 -73 19 -116 46 -37 22 -72 40
-78 40 -6 0 -25 12 -42 26 -17 14 -48 30 -68 36 -27 7 -58 31 -108 84 l-70 74
-58 0 c-54 0 -58 -2 -77 -32 -38 -63 -29 -93 60 -189 43 -47 94 -92 112 -99
18 -8 46 -22 62 -33 48 -33 216 -116 301 -149 l80 -30 148 7 c86 4 166 13 190
21 42 15 113 22 123 12 3 -4 -32 -44 -78 -90 -89 -91 -188 -153 -302 -190 -33
-11 -76 -28 -93 -38 -18 -11 -59 -25 -92 -31 -57 -12 -60 -12 -134 21 -41 18
-88 44 -104 57 -32 28 -116 73 -136 73 -7 0 -36 16 -63 35 -27 19 -55 35 -63
35 -7 0 -28 8 -45 19 -17 10 -48 24 -70 31 -21 7 -66 35 -100 64 -33 28 -80
63 -103 79 -24 15 -43 31 -43 36 0 14 -77 89 -108 105 -17 9 -48 34 -69 57
-21 22 -69 61 -106 86 -38 25 -86 62 -106 82 -59 57 -114 101 -128 101 -8 0
-30 11 -51 24 -20 13 -67 31 -103 40 -62 16 -69 16 -98 1 -18 -9 -45 -36 -60
-60 -27 -43 -28 -49 -23 -139 4 -84 2 -98 -17 -129 -24 -39 -27 -89 -10 -181
17 -95 31 -137 61 -185 15 -25 28 -49 28 -54 0 -5 8 -21 19 -35 10 -16 23 -63
30 -111 9 -58 22 -100 42 -136 16 -28 29 -58 29 -66 0 -17 89 -219 105 -239 7
-8 21 -31 30 -50 10 -19 31 -47 46 -61 16 -15 29 -36 29 -46 0 -11 14 -40 30
-66 17 -26 37 -64 46 -85 8 -20 37 -57 65 -80 27 -24 83 -85 123 -136 111
-137 260 -269 370 -327 34 -18 74 -43 89 -56 16 -12 36 -23 46 -23 23 0 127
-67 216 -140 38 -31 93 -69 120 -85 68 -39 85 -54 101 -92 8 -18 32 -44 53
-57 47 -30 94 -88 120 -150 11 -25 38 -64 60 -86 34 -35 45 -40 85 -40 42 0
61 -7 166 -58 19 -9 42 -31 53 -49 17 -30 17 -43 7 -210 -6 -98 -12 -266 -15
-373 -2 -107 -9 -226 -16 -265 -14 -82 -14 -95 0 -155 21 -84 30 -165 41 -350
11 -178 10 -187 -9 -230 -11 -25 -21 -56 -21 -70 0 -33 -32 -84 -66 -107 -22
-14 -45 -17 -127 -15 -65 2 -107 8 -121 17 -24 16 -126 146 -126 161 0 5 -9
20 -20 34 -11 14 -20 35 -20 48 0 13 -22 65 -50 116 -27 51 -50 105 -50 119 0
15 -6 41 -14 59 -64 155 -98 362 -100 619 -1 74 -5 111 -15 122 -9 12 -12 30
-7 55 3 21 1 54 -5 73 -6 19 -13 81 -16 139 -6 135 -9 209 -11 237 -1 13 -18
41 -38 63 -28 31 -35 45 -30 64 7 29 0 36 -142 142 -57 42 -122 97 -145 122
-23 24 -62 53 -87 64 -25 10 -70 43 -100 72 -30 29 -82 74 -115 99 -33 25 -83
68 -112 95 -28 27 -77 66 -110 87 -32 21 -74 53 -94 71 -20 17 -58 44 -85 59
-27 15 -65 38 -85 51 -19 13 -42 24 -50 24 -8 0 -48 32 -89 71 -41 39 -86 76
-101 81 -16 5 -40 25 -54 44 -14 19 -50 46 -78 60 -75 38 -157 103 -157 125 0
12 -19 31 -50 50 -37 23 -53 39 -57 60 -5 29 -19 45 -66 80 -27 21 -87 125
-87 152 0 8 -10 22 -21 33 -12 10 -32 42 -45 69 -13 28 -35 65 -49 84 -14 19
-29 50 -34 70 -4 20 -13 57 -19 84 -7 26 -12 59 -12 72 0 14 -13 49 -30 78
-16 28 -36 78 -44 110 -8 31 -18 62 -22 68 -4 7 -10 39 -15 73 -4 33 -15 113
-23 176 -34 249 -34 254 -20 416 21 249 26 288 38 309 6 11 13 49 17 85 10 91
35 153 85 209 24 27 44 56 44 65 0 20 75 96 95 96 8 0 32 19 54 43 21 23 71
78 111 122 40 43 91 91 114 106 23 14 72 61 111 105 83 94 83 94 117 94 19 0
43 16 81 53 41 39 71 58 120 75 36 12 76 22 89 22 43 1 191 60 236 95 25 19
54 35 65 35 12 0 51 16 88 35 92 48 191 69 326 70 61 0 115 4 119 8 12 12 145
8 219 -7z m9926 -4218 c36 -31 41 -49 45 -175 3 -70 9 -146 14 -168 5 -22 14
-80 20 -130 19 -167 48 -360 59 -395 6 -19 16 -60 21 -90 5 -30 21 -104 36
-165 15 -60 30 -136 34 -169 5 -34 17 -71 30 -88 26 -35 21 -56 -17 -63 -15
-3 -47 -10 -71 -15 -23 -6 -56 -10 -73 -10 -16 0 -42 -6 -57 -14 -35 -17 -98
-29 -121 -21 -14 4 -19 16 -19 48 -1 23 -2 53 -3 67 -1 14 -1 57 0 95 3 75 -9
181 -24 204 -4 8 -10 41 -11 74 -2 60 -12 122 -41 272 -9 44 -19 114 -23 157
-4 42 -13 91 -18 110 -6 18 -16 77 -22 131 -6 55 -15 107 -20 117 -6 10 -10
32 -10 49 0 17 -9 55 -21 86 -22 60 -18 78 26 95 34 14 249 12 266 -2z m-7506
-188 c31 -16 67 -30 79 -30 12 0 45 -7 72 -15 63 -19 104 -67 104 -123 0 -31
9 -51 46 -98 l46 -59 -8 -65 c-13 -113 -16 -170 -20 -370 -6 -261 -6 -242 7
-355 6 -55 12 -165 14 -245 4 -219 14 -343 35 -465 10 -60 20 -144 22 -185 l3
-75 -80 -6 c-44 -3 -91 -10 -105 -15 -14 -5 -79 -9 -145 -9 -116 0 -122 1
-168 30 -54 33 -70 42 -139 75 -32 15 -54 34 -67 59 -52 96 -81 166 -81 195 0
18 -7 55 -15 82 -8 27 -15 68 -15 92 0 24 -5 53 -12 65 -13 24 -13 25 -22 227
-4 74 -11 149 -18 166 -8 23 -8 40 0 63 8 23 8 40 1 59 -20 50 -35 162 -40
292 -2 48 9 208 17 246 3 18 1 41 -5 52 -9 16 -8 31 5 64 8 24 23 77 33 118
l17 75 61 40 c123 81 248 142 294 144 15 0 53 -12 84 -29z m-5009 -20 c98 -44
171 -154 136 -206 -29 -44 -135 -39 -222 9 -30 17 -76 54 -102 81 -41 44 -48
57 -48 93 0 24 5 43 13 46 6 2 46 4 87 4 60 0 87 -6 136 -27z m5862 -14 c23
-14 42 -31 42 -37 0 -7 15 -29 33 -49 46 -54 87 -124 87 -149 0 -12 11 -43 25
-69 14 -26 32 -58 39 -72 39 -72 47 -106 51 -226 3 -77 10 -135 18 -152 14
-27 29 -224 32 -417 2 -100 30 -404 44 -480 5 -27 7 -63 4 -81 -3 -18 0 -34 6
-38 7 -4 11 -40 11 -91 0 -78 3 -90 41 -167 22 -46 47 -100 54 -121 8 -21 25
-52 37 -69 37 -50 291 -298 313 -304 11 -4 32 -15 46 -25 28 -19 215 -99 234
-99 5 0 29 -15 53 -34 23 -19 54 -37 70 -40 15 -4 77 -29 137 -55 123 -54 245
-77 365 -68 36 3 135 10 220 16 85 5 178 13 206 17 40 5 54 2 67 -11 10 -9 15
-21 11 -26 -11 -18 -79 -56 -114 -64 -18 -4 -66 -22 -104 -40 -39 -18 -82 -36
-96 -40 -14 -4 -29 -11 -35 -15 -5 -4 -28 -10 -50 -14 -22 -4 -51 -11 -65 -15
-58 -20 -134 -31 -270 -41 -80 -6 -193 -18 -251 -26 -94 -13 -109 -13 -135 1
-16 8 -39 15 -52 15 -12 0 -45 11 -71 25 -27 13 -82 32 -122 41 -127 28 -250
73 -286 104 -18 17 -39 30 -46 30 -7 0 -34 14 -61 30 -26 17 -74 41 -107 55
-33 13 -76 37 -94 54 -19 16 -44 32 -57 36 -29 10 -157 116 -228 192 -86 90
-118 136 -150 218 -17 41 -39 90 -49 107 -19 35 -36 137 -51 308 -12 134 -25
212 -40 239 -6 13 -13 92 -16 194 -7 249 -11 316 -22 372 -11 58 -14 199 -8
360 9 200 13 240 29 271 10 20 19 79 25 175 12 189 29 228 120 281 71 41 87
40 160 -6z m-1892 4 c34 0 86 -46 279 -248 l69 -73 2 -242 c1 -254 18 -544 36
-637 6 -30 12 -98 14 -150 2 -52 11 -122 18 -155 8 -33 20 -113 27 -177 6 -69
18 -130 28 -148 81 -148 82 -152 64 -173 -20 -22 -109 -67 -133 -67 -8 0 -39
-16 -68 -36 l-53 -37 -42 18 c-23 10 -73 29 -112 44 -94 35 -171 81 -222 133
-23 24 -64 66 -91 93 -54 54 -86 134 -81 204 1 20 -5 70 -14 111 -19 88 -39
207 -40 235 -1 20 19 352 29 490 3 39 5 82 4 98 -4 136 6 320 19 346 21 39 39
109 34 134 -3 17 9 48 38 98 23 41 48 86 56 101 19 37 42 49 77 43 16 -3 43
-5 62 -5z m-3128 -26 c20 -9 57 -22 82 -30 66 -21 124 -65 128 -96 5 -41 -47
-91 -124 -122 -65 -26 -66 -26 -125 -10 -82 23 -114 60 -105 122 3 25 6 58 6
74 0 36 40 78 75 78 14 0 42 -7 63 -16z m9275 -175 c34 -11 84 -32 112 -45 27
-14 76 -29 110 -34 33 -5 93 -18 134 -30 59 -16 80 -19 104 -10 71 24 159 4
165 -38 5 -31 -20 -38 -173 -51 -71 -7 -179 -16 -240 -21 -139 -13 -202 -30
-317 -87 l-93 -46 -131 -5 c-138 -5 -196 5 -213 36 -11 20 8 83 37 121 10 14
26 40 35 56 9 17 32 47 51 68 29 30 42 37 73 37 21 0 58 7 83 15 198 65 179
62 263 34z m808 -371 c22 -19 47 -61 63 -109 20 -58 9 -69 -65 -69 -32 0 -87
-9 -121 -19 -35 -11 -121 -24 -193 -30 -71 -5 -179 -17 -240 -26 -73 -11 -142
-15 -203 -12 -77 5 -102 2 -150 -15 -40 -15 -79 -21 -132 -20 -41 0 -113 -6
-160 -15 -112 -21 -224 -28 -246 -15 -28 16 -46 89 -30 126 23 55 39 62 103
42 53 -17 57 -17 95 0 35 16 48 16 109 6 94 -16 178 -15 229 3 23 8 55 15 70
15 15 0 46 14 70 31 82 59 202 85 380 81 103 -3 188 6 275 28 48 13 130 11
146 -2z m1238 -57 c9 -6 20 -42 27 -88 6 -43 19 -127 29 -188 21 -138 18 -142
-82 -109 -81 27 -221 33 -327 15 -38 -7 -72 -14 -76 -16 -3 -2 -24 1 -46 6
-33 9 -51 7 -100 -9 -32 -11 -121 -32 -196 -47 -171 -33 -184 -29 -174 49 3
28 6 66 6 83 0 39 20 51 125 78 68 17 107 23 266 44 42 6 103 17 135 24 33 8
73 12 90 10 18 -3 66 8 121 27 81 28 96 38 133 81 44 52 47 54 69 40z m-1171
-382 c3 -77 -9 -116 -40 -128 -40 -16 -459 -80 -623 -96 -33 -3 -114 -12 -180
-21 -66 -8 -154 -19 -195 -23 -42 -5 -100 -14 -130 -20 -54 -11 -209 -9 -229
4 -6 3 -16 25 -22 48 -7 23 -27 67 -45 97 -24 40 -34 70 -36 110 l-3 55 80 -2
c44 -1 161 -3 260 -3 99 -1 259 -2 355 -3 348 -4 477 4 630 38 36 7 90 13 120
12 l55 -2 3 -66z m-100 -341 c9 -9 3 -23 -25 -62 -38 -53 -164 -180 -242 -243
-41 -34 -152 -83 -189 -83 -9 0 -41 -11 -71 -25 -52 -25 -55 -25 -120 -11
-180 39 -256 71 -353 151 -20 16 -50 40 -67 53 -16 12 -41 42 -54 67 -39 68
-64 62 388 96 88 6 203 13 255 14 99 3 218 16 355 39 105 18 109 18 123 4z
m-10718 -559 c0 -12 -7 -19 -19 -19 -26 0 -36 17 -21 35 15 18 40 8 40 -16z
m-168 -15 c43 -54 88 -94 107 -94 39 0 61 -19 61 -50 0 -77 -108 -54 -165 34
-18 29 -40 58 -49 65 -19 16 -20 33 -4 49 17 17 35 15 50 -4z m1010 -62 c14
-9 51 -38 81 -64 34 -31 63 -48 80 -48 129 0 3 -222 -134 -237 -35 -4 -49 -1
-69 17 -14 12 -34 30 -45 39 -11 9 -27 30 -35 46 -8 17 -23 40 -34 53 -15 17
-20 39 -22 93 -3 63 0 74 21 95 19 19 34 24 77 24 33 0 63 -7 80 -18z"/>
<path d="M4338 11429 c-27 -12 -48 -28 -48 -36 0 -8 -8 -27 -19 -41 -36 -52
-46 -98 -33 -147 7 -25 12 -54 12 -65 0 -32 30 -41 96 -29 109 20 162 61 169
130 1 19 6 52 9 74 16 97 -86 158 -186 114z"/>
<path d="M3393 11395 c-20 -8 -39 -28 -51 -52 -10 -21 -25 -48 -32 -60 -13
-20 -12 -28 2 -66 26 -71 66 -126 104 -145 35 -16 36 -16 90 12 61 32 94 67
94 101 0 36 -68 188 -93 207 -26 21 -70 22 -114 3z"/>
<path d="M6900 11386 c-145 -63 -257 -106 -276 -106 -12 0 -41 -7 -65 -15 -55
-20 -111 -9 -207 40 -82 41 -110 43 -146 10 -50 -46 -22 -115 53 -131 14 -3
53 -18 87 -34 34 -17 64 -30 68 -30 4 0 38 -13 76 -30 80 -35 103 -37 137 -10
19 15 39 20 74 19 29 -1 65 5 89 16 29 13 43 15 53 7 19 -16 20 -181 2 -227
-13 -30 -13 -41 0 -90 9 -34 11 -64 6 -78 -5 -12 -4 -53 1 -92 16 -122 28
-268 28 -319 -1 -52 19 -86 50 -86 10 0 29 -9 43 -20 14 -11 37 -20 52 -20 14
0 47 -14 71 -31 25 -17 87 -50 137 -74 82 -38 100 -43 167 -43 90 -1 127 17
212 105 104 107 134 203 86 282 -74 126 -210 198 -388 208 -60 3 -92 -1 -159
-21 -91 -28 -116 -24 -126 17 -7 28 0 376 8 397 3 8 8 39 11 69 3 33 15 69 30
91 33 50 56 107 56 137 0 15 -12 37 -31 54 -27 25 -39 29 -88 29 -37 0 -75 -9
-111 -24z m500 -955 c131 -68 130 -67 96 -126 -31 -51 -97 -95 -145 -95 -25 0
-45 13 -96 60 -36 34 -86 70 -111 81 -51 21 -50 29 9 71 58 41 177 45 247 9z"/>
<path d="M9978 10642 c-139 -69 -231 -92 -287 -71 -17 7 -57 2 -142 -16 -70
-16 -128 -23 -146 -19 -15 3 -64 23 -108 44 -70 33 -92 39 -174 44 -93 5 -94
5 -122 -24 -24 -24 -29 -37 -29 -78 0 -45 -3 -53 -42 -88 -77 -70 -142 -105
-211 -114 -75 -9 -96 -19 -131 -61 -34 -40 -36 -99 -4 -129 27 -25 41 -25 97
0 24 11 63 20 88 20 60 0 167 44 226 93 45 37 50 38 65 23 15 -15 17 -51 18
-314 1 -163 5 -318 9 -344 4 -27 2 -82 -5 -129 -14 -97 -14 -96 86 -143 38
-17 94 -46 126 -64 169 -98 278 -97 432 3 90 58 98 78 99 250 1 124 -1 132
-28 185 -16 30 -35 63 -43 72 -39 47 -236 24 -378 -43 -68 -32 -96 -36 -113
-16 -11 14 -14 430 -3 579 6 95 13 99 108 63 72 -28 75 -28 231 -6 39 6 120
12 180 15 121 5 228 27 275 56 59 35 73 8 82 -156 1 -33 5 -65 9 -71 3 -5 13
-93 22 -195 13 -161 13 -190 1 -225 -22 -62 -29 -144 -16 -178 11 -30 106
-125 126 -125 5 0 25 -11 44 -25 18 -13 49 -30 69 -36 20 -7 49 -21 64 -33 37
-27 86 -24 170 9 51 21 76 38 107 75 106 127 125 303 47 427 -34 54 -130 139
-173 153 -41 14 -89 0 -99 -29 -3 -9 -29 -42 -59 -75 -42 -47 -57 -57 -73 -52
-19 6 -22 18 -28 91 -4 46 -4 88 -1 93 4 6 -1 50 -9 99 -9 49 -15 130 -14 183
2 102 -14 225 -34 249 -17 21 -107 76 -144 89 -30 10 -42 6 -165 -56z m626
-881 c20 -22 16 -55 -16 -128 -28 -63 -57 -74 -115 -43 -25 13 -47 30 -50 36
-4 12 85 129 111 146 20 14 53 8 70 -11z m-994 -170 c5 -11 10 -47 10 -80 0
-69 -15 -92 -77 -118 -42 -17 -84 -12 -132 18 l-34 20 33 30 c28 26 32 35 27
64 -7 40 3 50 64 69 64 20 97 19 109 -3z"/>
<path d="M14478 10675 c-21 -8 -59 -31 -84 -52 -50 -42 -139 -169 -149 -214
-4 -16 -19 -42 -35 -59 -25 -26 -35 -30 -84 -30 -30 0 -88 6 -128 14 -152 30
-231 38 -263 26 -17 -6 -48 -9 -71 -5 -26 4 -56 0 -80 -9 -22 -8 -57 -17 -78
-21 -22 -4 -61 -18 -88 -31 -26 -13 -58 -24 -72 -24 -13 0 -37 -11 -53 -24
-15 -13 -46 -31 -68 -40 -24 -10 -73 -50 -120 -100 -45 -45 -115 -105 -156
-133 -54 -37 -85 -67 -114 -109 -21 -33 -62 -84 -91 -115 -30 -30 -64 -80 -78
-110 -16 -38 -41 -69 -78 -101 -51 -43 -79 -88 -92 -148 -3 -14 -22 -35 -43
-49 -21 -13 -81 -72 -133 -131 -52 -60 -114 -122 -138 -139 -23 -17 -50 -43
-60 -59 -9 -16 -34 -43 -55 -62 -21 -18 -51 -52 -68 -76 -18 -26 -56 -59 -101
-87 -70 -43 -99 -53 -290 -96 -61 -14 -127 -14 -167 0 -24 9 -39 9 -58 0 -83
-38 -310 -47 -416 -17 -32 9 -77 16 -101 16 -27 0 -61 10 -92 26 -29 16 -68
28 -94 29 -54 2 -161 24 -175 35 -5 4 -52 22 -104 40 -78 26 -102 30 -147 25
-32 -5 -72 -2 -102 5 -39 11 -92 10 -288 -3 -329 -23 -333 -23 -466 -86 -35
-16 -101 -47 -148 -69 -47 -21 -95 -50 -106 -64 -12 -14 -35 -33 -51 -43 -16
-10 -38 -33 -49 -52 -10 -20 -32 -46 -49 -59 -25 -19 -36 -40 -55 -106 -12
-46 -40 -117 -61 -158 -36 -71 -52 -126 -80 -265 -7 -33 -23 -80 -35 -104 -25
-47 -24 -109 1 -161 8 -17 10 -46 5 -95 -5 -39 -4 -77 1 -87 5 -9 9 -33 9 -52
0 -41 23 -60 81 -71 29 -5 41 -2 62 17 32 28 36 74 17 241 -11 103 -11 109 10
149 12 23 23 65 25 94 2 33 13 73 32 111 31 60 63 146 93 247 11 40 26 68 47
85 16 14 35 41 43 59 15 39 125 128 236 191 87 50 199 81 284 80 30 0 89 1
130 2 41 2 95 2 120 1 25 -1 92 -4 150 -6 136 -4 194 -14 217 -36 37 -34 69
-44 178 -56 90 -9 125 -18 192 -48 65 -29 103 -39 180 -47 54 -6 116 -16 138
-22 41 -13 97 -9 225 13 37 6 102 9 150 5 69 -4 99 -2 155 15 38 11 88 20 110
20 22 0 63 11 90 23 28 13 74 27 104 31 63 8 92 22 181 85 72 51 310 283 357
348 16 22 76 84 133 137 57 53 113 111 124 130 45 74 77 116 86 116 13 0 94
124 125 193 17 35 37 63 56 74 16 10 41 35 56 57 40 62 203 225 252 254 25 15
60 41 78 58 23 22 62 42 126 63 51 17 110 43 130 57 36 24 44 25 205 27 138 2
177 -1 227 -16 44 -14 82 -18 144 -15 67 2 85 0 91 -12 22 -40 90 -202 108
-255 11 -33 30 -85 42 -115 12 -30 35 -95 50 -143 16 -49 33 -94 39 -100 16
-20 30 -89 36 -177 28 -400 25 -689 -8 -913 -14 -94 -23 -124 -71 -223 -75
-152 -73 -193 8 -243 43 -27 72 -27 94 0 9 12 47 56 83 98 36 42 79 97 96 122
17 25 39 51 47 59 9 7 31 34 48 59 17 25 39 52 50 59 11 8 31 33 46 56 15 23
68 81 119 127 51 47 114 116 140 154 26 38 64 85 84 105 20 19 42 45 48 58 7
13 25 31 41 41 31 18 101 97 190 212 30 39 78 97 106 128 61 67 144 179 144
194 0 6 21 53 46 105 l46 95 0 131 c0 247 -2 256 -80 376 -74 114 -81 126 -88
153 -8 34 -62 80 -134 113 -114 53 -196 98 -228 126 -18 15 -37 28 -42 28 -5
0 -29 17 -54 39 -36 31 -55 40 -101 46 -32 4 -76 13 -99 22 -22 8 -66 19 -96
24 -30 5 -75 13 -100 18 -69 15 -308 12 -352 -4z m362 -214 c269 -69 322 -88
395 -142 28 -20 65 -44 83 -53 85 -43 172 -109 204 -153 18 -27 53 -86 77
-133 24 -47 53 -100 64 -119 17 -29 18 -38 9 -65 -7 -18 -12 -48 -12 -67 0
-30 -22 -101 -74 -238 -20 -52 -32 -68 -184 -239 -62 -70 -120 -140 -129 -157
-9 -16 -68 -84 -131 -150 -63 -66 -126 -138 -140 -160 -47 -74 -244 -258 -270
-253 -24 5 -33 59 -24 145 5 43 5 112 1 153 -4 41 -8 128 -8 192 -2 264 -20
386 -86 568 -13 36 -34 98 -46 139 -12 40 -37 106 -55 147 -19 40 -34 83 -34
95 0 12 -9 36 -19 53 -20 32 -55 121 -65 168 -4 16 0 43 9 64 8 20 15 48 15
61 0 16 19 44 54 81 l55 57 73 6 c117 9 200 9 238 0z"/>
</g>
</svg>
