<?xml version="1.0" standalone="no"?>
<!DOCTYPE svg PUBLIC "-//W3C//DTD SVG 20010904//EN"
 "http://www.w3.org/TR/2001/REC-SVG-20010904/DTD/svg10.dtd">
<svg version="1.0" xmlns="http://www.w3.org/2000/svg"
 width="2653.979907pt" height="1982.504208pt" viewBox="0 0 2653.979907 1982.504208"
 preserveAspectRatio="xMidYMid meet">
<metadata>
Created by potrace 1.13, written by Peter Selinger 2001-2015
</metadata>
<g transform="translate(-110.572580,2074.504208) scale(0.100000,-0.100000)"
fill="#333333" stroke="none">
<path d="M11585 20741 c-28 -5 -68 -17 -90 -29 -22 -11 -60 -25 -85 -32 -25
-6 -52 -18 -60 -25 -8 -6 -60 -35 -115 -62 -55 -28 -122 -62 -149 -77 -29 -15
-65 -26 -88 -26 -46 0 -109 -34 -154 -82 -54 -58 -124 -118 -138 -118 -7 0
-46 -25 -86 -55 -40 -30 -77 -55 -81 -55 -19 0 -118 -84 -153 -130 -21 -27
-44 -50 -52 -50 -7 0 -29 -13 -47 -30 -19 -16 -44 -30 -56 -30 -13 0 -29 -12
-41 -32 -26 -43 -52 -132 -44 -152 7 -18 -38 -91 -61 -100 -17 -6 -115 -156
-164 -250 -20 -39 -45 -83 -55 -98 -21 -32 -27 -198 -8 -221 9 -11 1 -27 -37
-77 -44 -56 -49 -69 -55 -129 -3 -36 -11 -95 -17 -131 -6 -36 -10 -91 -10
-123 1 -40 -5 -70 -19 -97 -13 -25 -18 -49 -14 -64 3 -13 0 -35 -7 -48 -7 -12
-14 -58 -16 -101 -1 -43 -6 -85 -11 -93 -5 -8 -5 -46 0 -84 7 -59 5 -80 -13
-136 -16 -50 -20 -78 -15 -117 7 -53 8 -118 8 -337 0 -136 -1 -179 -6 -255 -1
-27 -6 -115 -10 -195 -3 -80 -11 -198 -18 -262 -9 -103 -9 -120 5 -141 13 -20
14 -36 7 -85 -4 -34 -4 -120 1 -198 5 -77 9 -181 9 -232 0 -52 5 -102 10 -113
7 -13 7 -40 -1 -86 -16 -99 -17 -226 -2 -326 11 -76 11 -92 -2 -124 -9 -22
-12 -45 -8 -57 4 -12 8 -232 9 -491 1 -258 4 -609 8 -780 3 -170 5 -342 5
-380 0 -39 5 -84 12 -100 7 -17 14 -68 16 -115 1 -47 4 -117 6 -155 1 -40 10
-86 19 -106 16 -32 32 -218 28 -314 -5 -121 12 -287 33 -329 5 -11 11 -65 13
-120 2 -56 8 -117 14 -136 5 -19 10 -56 10 -82 0 -57 27 -88 76 -88 30 0 57
18 53 36 -1 5 6 27 16 49 16 37 16 44 0 125 -9 47 -23 101 -30 120 -20 51 -33
204 -26 300 4 53 -7 156 -19 182 -10 22 -11 36 -2 67 17 55 15 73 -13 128 -22
42 -24 53 -14 80 16 47 -6 268 -29 296 -6 7 -11 48 -11 91 0 103 -9 183 -26
226 -16 41 -33 236 -31 365 1 78 4 96 26 130 21 34 25 53 26 120 1 71 13 349
16 364 1 3 -7 33 -17 66 -14 48 -16 74 -10 140 9 90 10 114 7 235 -2 47 2 120
7 162 6 43 8 153 5 245 -3 135 -8 178 -24 220 -23 62 -25 91 -6 115 9 12 12
53 9 155 -4 170 -4 217 3 314 4 41 0 115 -7 165 -22 157 -22 210 -3 264 14 40
16 56 6 87 -12 41 -9 113 7 197 5 28 10 65 10 81 0 17 0 48 1 70 0 22 -7 54
-16 71 -16 30 -16 32 3 51 16 16 19 31 17 86 -3 84 -14 167 -25 189 -7 12 -5
28 6 48 10 19 17 69 21 137 3 60 9 146 14 193 5 47 9 121 9 166 1 49 8 104 20
140 10 32 22 91 25 129 10 99 33 198 67 284 16 40 29 87 29 103 0 16 9 41 19
56 11 15 22 49 26 77 4 30 16 61 31 78 13 16 24 41 24 57 0 35 38 117 73 159
15 18 27 39 27 46 0 16 47 94 82 137 12 15 27 46 33 70 8 32 20 49 55 75 25
18 60 39 78 47 17 8 36 26 41 39 5 14 23 35 40 48 17 13 32 35 34 49 3 22 12
27 63 38 40 9 60 10 62 3 2 -6 13 -11 24 -11 15 0 18 4 11 13 -5 6 -9 17 -9
24 1 18 55 56 81 56 17 0 27 8 36 29 7 18 28 37 53 50 23 11 66 42 96 68 33
29 80 56 118 70 35 13 66 29 69 37 3 7 20 13 40 13 35 0 80 19 122 51 13 11
35 19 48 19 13 0 34 11 46 24 12 12 53 40 92 60 57 30 80 37 125 36 30 0 72 2
92 5 21 2 40 0 43 -5 10 -16 67 -11 110 9 43 19 71 15 94 -13 14 -17 86 -23
95 -8 7 11 128 3 140 -9 14 -13 60 -11 73 2 9 9 20 5 43 -15 34 -28 70 -35 70
-12 0 7 10 26 22 42 13 15 21 36 20 46 -3 14 3 18 27 18 17 0 31 5 31 10 0 6
-4 10 -9 10 -5 0 -12 8 -16 18 -11 38 -47 43 -379 47 -176 2 -348 6 -381 9
-33 2 -83 1 -110 -3z"/>
<path d="M12518 20618 c-43 -47 -74 -106 -61 -118 17 -15 69 -27 88 -20 11 4
35 3 54 -1 19 -4 38 -6 42 -3 5 2 48 -7 96 -21 48 -15 98 -28 110 -30 12 -2
37 -14 55 -28 18 -14 57 -30 86 -36 29 -6 63 -17 75 -25 12 -8 46 -17 75 -21
41 -5 60 -14 79 -36 14 -15 39 -31 57 -34 17 -3 44 -11 59 -17 25 -10 26 -12
12 -28 -8 -9 -15 -22 -15 -28 0 -13 133 -87 173 -96 16 -4 52 -18 80 -31 28
-14 55 -25 61 -25 5 0 24 -13 41 -29 16 -16 53 -41 82 -57 29 -16 76 -48 105
-72 29 -24 67 -53 85 -65 77 -54 164 -131 201 -179 22 -29 112 -127 201 -217
112 -114 161 -170 161 -186 0 -41 28 -89 74 -130 63 -55 92 -101 99 -160 3
-27 21 -84 40 -125 53 -113 96 -251 90 -282 -3 -16 1 -37 9 -51 15 -21 44
-270 34 -286 -3 -4 4 -22 15 -39 14 -24 19 -51 19 -98 0 -36 6 -80 14 -97 16
-36 29 -107 28 -152 -2 -51 -17 -159 -25 -172 -4 -6 0 -29 9 -50 10 -21 23
-51 30 -68 8 -19 9 -35 3 -47 -7 -12 -5 -25 6 -41 8 -13 13 -26 9 -29 -9 -10
-17 -88 -19 -203 -2 -60 -6 -130 -9 -155 -8 -52 -8 -40 -5 -245 1 -88 1 -171
0 -185 -2 -14 -2 -56 0 -95 1 -74 -10 -146 -29 -181 -8 -15 -8 -63 -1 -178 11
-170 7 -362 -8 -392 -10 -20 -8 -282 2 -321 3 -13 -1 -39 -10 -59 -11 -28 -16
-100 -19 -337 -5 -277 -7 -306 -25 -347 -13 -28 -21 -67 -21 -100 0 -126 78
-95 83 32 2 37 11 79 22 103 14 29 19 56 16 97 -1 32 2 72 8 90 13 42 35 230
32 286 -1 24 -6 52 -11 61 -6 13 -4 25 6 40 9 13 13 29 9 39 -4 9 -9 28 -11
42 -1 13 -8 26 -13 28 -15 5 -14 27 3 41 7 6 16 37 19 69 3 31 10 90 16 131
10 67 9 77 -9 106 -11 18 -16 35 -12 39 4 4 8 67 10 139 2 73 5 168 8 212 2
44 4 89 5 100 1 11 5 52 10 90 7 51 6 76 -2 93 -10 18 -9 29 9 66 22 44 30
120 13 130 -14 9 -11 79 5 97 8 9 14 29 14 45 -1 105 -8 202 -14 217 -6 12 -3
24 9 37 15 17 17 32 11 117 -4 54 -12 112 -17 130 -8 26 -13 171 -8 258 0 11
-4 38 -10 61 -6 23 -12 77 -15 120 -4 73 -2 81 21 105 23 25 24 29 10 54 -11
22 -12 34 -3 57 8 22 7 33 -4 51 -32 52 -40 75 -40 124 0 28 -4 55 -10 58 -5
3 -10 26 -10 51 0 25 -7 56 -17 70 -10 16 -18 52 -20 97 -6 130 -11 171 -27
229 -9 32 -18 81 -21 110 -3 29 -10 57 -15 62 -6 6 -10 19 -10 31 0 12 -11 36
-25 55 -14 18 -28 48 -31 66 -5 26 -14 36 -45 48 -41 17 -44 22 -30 45 10 16
-7 57 -35 86 -16 16 -16 20 4 61 24 49 24 52 -31 147 -34 59 -47 72 -98 97
-39 20 -57 35 -53 44 8 20 -14 30 -63 27 -43 -2 -44 -1 -47 39 -2 31 -62 100
-103 120 -24 11 -43 26 -43 34 0 7 -7 19 -15 26 -11 9 -14 22 -10 42 8 35 -27
70 -63 61 -32 -8 -70 21 -92 70 -19 44 -73 107 -92 107 -6 0 -30 15 -53 34
-52 43 -96 67 -164 92 -30 10 -69 34 -86 52 -18 17 -41 32 -52 32 -10 0 -40
14 -66 30 -26 17 -69 41 -95 54 -26 13 -51 34 -57 47 -11 25 -57 51 -185 104
-47 20 -98 44 -115 53 -16 9 -48 19 -70 23 -22 4 -71 17 -110 28 -38 11 -80
21 -93 21 -13 0 -51 15 -85 33 -57 30 -180 77 -201 77 -4 0 -26 -19 -48 -42z"/>
<path d="M7895 14694 c-44 -15 -98 -27 -120 -28 -23 0 -53 -9 -68 -19 -21 -13
-49 -18 -115 -19 -75 0 -94 -4 -137 -28 -27 -15 -81 -33 -120 -40 -38 -6 -88
-21 -110 -32 -21 -12 -53 -25 -70 -29 -16 -4 -59 -20 -94 -34 -35 -15 -99 -37
-143 -50 -93 -27 -125 -47 -142 -86 -7 -17 -24 -38 -38 -47 -14 -9 -43 -30
-65 -45 -23 -16 -62 -31 -91 -36 -35 -5 -62 -18 -87 -39 -20 -18 -46 -32 -58
-32 -13 0 -38 -11 -57 -25 -19 -14 -45 -25 -59 -25 -13 0 -33 -7 -42 -16 -12
-11 -44 -18 -91 -22 -82 -5 -102 -15 -95 -49 7 -35 -22 -50 -89 -46 -60 3 -94
-9 -94 -32 0 -24 -169 -96 -253 -108 -25 -4 -51 -18 -70 -37 -28 -27 -175
-100 -202 -100 -6 0 -35 -20 -65 -45 -31 -25 -80 -53 -113 -65 -40 -13 -76
-35 -109 -65 -27 -26 -74 -58 -106 -71 -31 -14 -66 -30 -77 -35 -21 -10 -36
-51 -55 -154 -10 -51 -9 -57 36 -146 7 -14 11 -34 8 -45 -3 -11 8 -39 25 -66
16 -26 33 -64 37 -85 5 -31 22 -52 85 -112 44 -41 79 -82 79 -91 0 -25 17 -35
97 -59 71 -21 316 -46 335 -35 5 4 51 8 101 9 63 3 108 10 145 24 29 12 62 21
75 21 39 0 72 24 77 55 4 24 10 29 40 33 19 2 50 10 68 18 19 8 49 14 67 14
18 0 43 9 56 19 14 10 42 26 63 35 21 9 49 27 62 41 13 14 33 25 46 25 13 0
41 11 63 25 23 14 56 25 78 25 20 0 79 13 130 29 50 16 126 39 167 52 53 15
86 32 111 56 31 30 42 34 67 28 31 -6 51 -24 72 -64 14 -28 16 -190 3 -381
-10 -167 -6 -310 11 -330 9 -10 12 -43 11 -105 -1 -66 3 -103 16 -139 10 -27
16 -60 13 -73 -4 -13 -2 -29 4 -36 5 -6 17 -35 26 -63 9 -29 26 -60 36 -69 11
-10 20 -28 20 -40 0 -27 26 -91 40 -100 5 -3 10 -17 10 -29 0 -13 7 -40 16
-61 9 -21 13 -49 9 -62 -8 -35 11 -53 59 -53 57 0 72 -11 46 -35 -11 -10 -20
-31 -20 -47 0 -24 -7 -32 -42 -48 -24 -11 -54 -20 -68 -20 -14 0 -49 -11 -78
-25 -30 -14 -62 -25 -71 -25 -18 0 -42 -20 -65 -54 -9 -14 -28 -20 -67 -23
-66 -6 -109 9 -109 36 0 11 -9 25 -20 31 -24 13 -133 6 -138 -8 -1 -5 9 -22
23 -38 14 -15 24 -33 21 -39 -2 -6 2 -22 10 -36 7 -13 13 -27 14 -31 0 -7 -86
-68 -97 -68 -3 0 -27 -16 -53 -35 -26 -19 -54 -35 -62 -35 -12 0 -69 -43 -115
-86 -6 -6 -46 -23 -90 -39 -43 -15 -96 -39 -118 -54 -22 -15 -69 -39 -105 -54
-36 -15 -78 -35 -95 -44 -16 -9 -44 -24 -61 -33 -34 -18 -103 -73 -162 -128
-31 -29 -34 -37 -29 -73 5 -37 3 -42 -25 -59 -36 -22 -58 -74 -58 -139 0 -41
33 -155 52 -176 4 -5 8 -17 8 -27 0 -9 13 -32 28 -50 16 -18 31 -41 35 -50 3
-9 23 -28 44 -42 21 -13 56 -44 79 -68 22 -24 71 -58 108 -77 37 -19 83 -47
103 -63 20 -15 44 -28 53 -28 10 0 51 -21 91 -48 41 -26 108 -62 149 -80 41
-19 94 -42 117 -53 23 -11 65 -27 95 -35 29 -9 63 -22 75 -30 38 -24 253 -78
438 -110 55 -9 143 -27 195 -40 52 -13 124 -28 160 -33 36 -6 94 -17 130 -26
106 -26 240 -31 297 -10 61 22 96 49 91 72 -3 20 -5 20 -295 45 -113 10 -156
18 -170 30 -29 27 -67 37 -106 29 -25 -6 -39 -5 -49 5 -7 7 -44 20 -83 29 -38
10 -86 21 -105 26 -19 5 -91 10 -158 12 -119 4 -126 6 -193 41 -66 34 -72 35
-119 25 -49 -10 -51 -10 -74 19 -40 46 -136 93 -189 91 -40 -2 -51 3 -92 39
-26 23 -104 71 -174 108 -69 36 -133 72 -141 79 -8 7 -36 23 -62 35 -34 16
-57 36 -80 72 -109 167 -116 179 -122 231 -3 28 -9 69 -12 90 -5 29 0 56 21
108 40 103 87 140 325 253 41 20 109 56 150 81 41 24 87 47 101 50 15 3 44 21
66 40 22 18 72 49 112 69 40 19 87 48 106 64 35 32 128 65 210 77 28 4 59 15
70 26 20 18 131 81 210 119 22 10 94 31 160 46 66 14 156 37 200 51 44 13 105
31 135 40 30 9 82 28 115 44 33 15 83 38 110 50 43 20 66 23 168 24 130 0 149
8 120 52 -26 39 -5 68 60 87 30 9 71 16 90 16 83 0 295 82 405 157 20 13 50
23 69 23 18 0 55 11 81 24 26 13 63 26 83 30 20 3 46 17 58 30 21 23 109 70
179 96 19 7 41 24 50 38 15 23 15 25 -4 39 -14 11 -38 14 -95 10 -74 -5 -89
-10 -174 -62 -22 -13 -71 -37 -110 -52 -38 -15 -86 -37 -105 -49 -19 -11 -46
-25 -60 -29 -14 -4 -50 -20 -80 -35 -30 -15 -83 -38 -118 -50 -34 -12 -65 -27
-68 -31 -3 -5 -13 -9 -22 -9 -9 0 -33 -12 -55 -27 -33 -23 -53 -28 -131 -33
-86 -6 -98 -9 -162 -47 -49 -30 -85 -44 -124 -49 -30 -3 -95 -22 -144 -41 -49
-19 -112 -38 -140 -42 -28 -4 -62 -14 -76 -23 -29 -19 -138 -49 -144 -40 -2 4
-7 30 -11 57 -4 28 -12 59 -18 70 -5 10 -9 43 -8 71 1 29 -3 55 -9 59 -5 3
-10 18 -10 33 0 15 -7 36 -15 46 -8 11 -15 31 -15 46 0 14 -7 35 -15 47 -34
49 -53 129 -59 258 -3 39 -9 97 -14 130 -5 33 -8 92 -7 130 2 39 -2 79 -8 90
-6 11 -12 36 -14 55 -4 56 -18 134 -27 148 -4 7 -1 23 8 36 12 19 14 44 9 122
-9 170 -7 259 6 292 8 18 16 32 20 32 3 0 20 13 38 30 21 20 67 41 140 65 59
20 122 45 138 55 65 42 102 57 148 63 74 10 190 54 212 80 11 13 45 36 75 51
30 16 69 41 85 56 29 27 50 35 227 85 48 13 100 31 115 40 116 65 157 85 214
104 35 11 80 36 100 54 20 17 44 37 53 42 15 9 15 15 5 45 -6 19 -19 43 -27
53 -14 15 -14 25 -4 62 8 29 9 53 3 69 -6 13 -8 32 -5 42 3 11 -6 39 -20 64
-66 119 -79 147 -82 175 -8 89 -13 110 -23 113 -7 2 -32 22 -57 43 -25 21 -53
39 -63 39 -10 0 -40 11 -67 25 -27 14 -74 32 -105 40 -31 8 -73 22 -94 31 -26
11 -80 17 -169 20 -120 3 -138 1 -211 -22z m327 -205 c2 -5 22 -13 44 -16 30
-4 44 -12 56 -33 9 -15 28 -30 44 -34 16 -4 58 -21 94 -38 36 -17 75 -36 87
-41 13 -6 33 -31 45 -56 12 -25 30 -57 39 -71 10 -14 21 -51 24 -82 7 -52 5
-59 -17 -80 -69 -64 -122 -97 -176 -109 -31 -7 -82 -28 -112 -48 -67 -43 -252
-121 -289 -121 -16 0 -54 -19 -92 -46 -78 -55 -139 -84 -200 -94 -25 -5 -79
-29 -122 -55 -53 -32 -94 -49 -135 -55 -32 -6 -91 -26 -130 -45 -40 -19 -77
-35 -82 -35 -6 0 -10 -5 -10 -10 0 -6 -24 -10 -58 -8 -49 2 -67 -3 -113 -28
-35 -20 -61 -44 -74 -67 -24 -43 -151 -131 -175 -121 -37 16 -62 16 -80 -1
-11 -10 -20 -23 -20 -30 0 -27 -48 -57 -91 -57 -23 1 -60 -5 -83 -13 -73 -24
-156 -37 -196 -30 -35 6 -43 3 -82 -33 -44 -40 -97 -72 -120 -72 -7 0 -30 -11
-50 -25 -24 -16 -61 -28 -114 -35 -44 -6 -98 -13 -121 -17 -23 -3 -51 -14 -63
-25 -33 -30 -129 -78 -145 -71 -8 3 -25 -1 -38 -9 -38 -25 -69 -28 -99 -10
-27 16 -32 16 -92 -5 -56 -20 -70 -21 -122 -12 -63 12 -62 11 -120 50 -21 14
-55 34 -74 45 -93 50 -152 130 -181 245 l-20 79 33 41 c27 34 112 107 207 177
10 6 55 22 101 33 95 24 160 60 160 88 0 27 16 37 126 74 54 18 109 39 121 45
12 7 31 12 43 12 11 0 54 14 96 32 83 35 111 64 111 116 0 34 12 49 48 56 11
2 47 9 80 16 33 6 76 12 95 13 30 2 35 5 32 24 -2 12 2 24 8 28 5 3 10 15 10
26 0 13 14 25 48 40 26 11 55 25 65 30 23 13 23 -10 -2 -55 -17 -29 -18 -37
-6 -52 12 -17 15 -17 49 10 20 15 53 30 74 33 41 6 84 26 121 54 13 11 35 19
49 19 32 0 96 65 89 91 -6 22 8 35 50 44 22 4 46 23 74 57 40 47 45 49 78 44
20 -3 43 -6 51 -6 8 0 33 -1 55 -2 72 -2 107 1 134 11 73 27 180 54 209 52 19
-1 58 11 95 28 99 47 222 78 352 91 66 6 157 18 202 27 45 8 94 13 109 10 16
-3 27 0 31 9 6 16 60 19 65 3z"/>
<path d="M14843 14492 c-25 -16 -46 -105 -40 -174 3 -37 2 -123 -4 -190 -6
-87 -6 -131 2 -150 9 -22 7 -41 -11 -100 -14 -45 -24 -109 -27 -168 -2 -52
-10 -117 -18 -145 -13 -47 -25 -125 -45 -305 -4 -41 -13 -88 -19 -104 -7 -16
-20 -84 -31 -150 -11 -67 -24 -143 -30 -171 -11 -49 -18 -101 -39 -278 -6 -48
-13 -93 -17 -99 -4 -6 -15 -83 -25 -172 -37 -329 -56 -477 -98 -771 -6 -38
-15 -88 -20 -110 -23 -92 -40 -195 -45 -278 -6 -89 -18 -153 -42 -219 -11 -31
-11 -38 1 -48 8 -6 23 -9 33 -6 20 7 43 92 63 231 5 39 14 95 19 125 6 30 14
87 19 125 5 39 16 92 25 118 8 26 13 60 10 76 -3 15 1 43 9 62 7 19 19 66 26
104 7 39 17 84 22 102 5 17 14 95 19 171 5 77 13 150 18 163 5 13 9 62 10 109
1 49 7 100 16 120 8 19 19 87 25 150 18 183 18 186 31 210 7 14 9 39 6 64 -4
27 -1 65 9 102 9 32 20 86 25 119 5 33 16 94 26 135 9 41 18 93 20 115 5 67
21 151 34 176 7 13 17 50 21 84 4 33 13 87 18 120 6 33 13 121 16 195 3 74 10
164 15 200 6 36 14 106 18 155 4 50 12 96 16 104 5 8 0 24 -13 42 -26 35 -26
43 0 86 17 28 19 36 8 49 -18 22 -43 34 -56 26z"/>
<path d="M12695 13213 c-61 -7 -171 -36 -193 -50 -28 -17 -74 -24 -202 -29
-280 -10 -370 -22 -401 -50 -25 -22 -24 -52 2 -75 11 -10 18 -23 14 -28 -10
-18 -25 -12 -25 9 0 14 -9 21 -36 26 -22 4 -40 2 -47 -5 -6 -6 -29 -11 -50
-11 -22 0 -60 -11 -86 -24 -25 -14 -63 -30 -83 -36 -21 -6 -40 -16 -43 -20 -3
-5 -21 -17 -40 -26 -19 -9 -35 -22 -35 -30 0 -20 -38 -36 -70 -29 -19 4 -41 0
-67 -14 -22 -11 -77 -32 -123 -48 -60 -20 -94 -38 -119 -63 -47 -47 -88 -73
-174 -113 -87 -40 -127 -85 -127 -140 0 -44 -13 -52 -100 -62 -73 -8 -173 -46
-210 -79 -14 -13 -41 -32 -60 -44 -19 -11 -57 -43 -83 -71 -27 -28 -55 -51
-63 -51 -8 0 -26 -11 -39 -24 -21 -21 -23 -29 -15 -52 16 -41 -12 -67 -61 -59
-58 10 -143 -19 -176 -61 -29 -36 -150 -159 -305 -306 -92 -88 -101 -105 -114
-213 -4 -33 -15 -71 -26 -85 -15 -21 -19 -43 -19 -106 0 -43 5 -95 11 -114 5
-19 10 -49 10 -67 0 -21 10 -44 29 -66 16 -18 42 -63 57 -99 31 -76 48 -87
134 -88 102 -2 179 9 217 28 21 11 56 26 78 32 22 7 54 25 71 40 34 30 97 48
184 54 75 5 160 29 206 59 22 14 74 32 118 41 44 9 84 20 90 25 7 6 55 17 108
25 98 16 116 21 191 55 23 10 56 22 73 25 17 4 46 18 64 31 18 14 56 32 84 41
28 9 61 24 73 32 13 8 42 18 65 24 58 13 69 24 57 55 -5 13 -7 28 -4 33 2 4
39 11 82 15 88 8 123 19 123 37 0 9 23 14 79 15 76 2 79 1 92 -25 7 -15 24
-39 37 -54 20 -21 23 -33 18 -60 -4 -18 -6 -45 -6 -61 0 -15 -7 -38 -16 -52
-9 -13 -17 -47 -18 -74 -1 -27 -10 -60 -18 -74 -29 -42 -32 -89 -9 -118 15
-20 19 -35 14 -63 -4 -27 -1 -42 11 -55 16 -18 16 -22 1 -57 -16 -39 -16 -39
10 -60 l26 -21 -16 -94 c-14 -78 -21 -99 -46 -124 -16 -17 -29 -39 -29 -48 0
-10 -12 -29 -27 -42 -25 -21 -26 -26 -15 -44 19 -32 14 -65 -13 -91 -13 -12
-30 -39 -36 -59 -6 -20 -15 -40 -20 -45 -5 -6 -9 -23 -9 -39 0 -16 -12 -48
-26 -72 -14 -25 -23 -48 -20 -53 3 -5 -5 -19 -18 -31 -14 -13 -27 -34 -30 -47
-4 -13 -11 -24 -17 -24 -5 0 -17 -16 -25 -36 -10 -24 -25 -40 -45 -47 -28 -11
-39 -39 -20 -51 4 -3 6 -16 4 -30 -3 -13 0 -27 6 -30 6 -4 11 -16 11 -26 0
-14 -11 -22 -42 -30 -56 -15 -117 -55 -128 -84 -4 -13 -36 -42 -69 -65 -58
-39 -64 -41 -138 -41 -43 0 -103 -7 -133 -15 -30 -8 -68 -15 -85 -15 -16 0
-57 -9 -90 -19 -47 -15 -100 -20 -240 -22 -179 -4 -211 0 -201 27 3 7 -3 18
-13 23 -30 16 -85 -6 -128 -50 -43 -44 -113 -69 -193 -69 -25 0 -101 -7 -170
-15 -261 -33 -280 -34 -306 -25 -39 15 -141 12 -182 -6 -49 -21 -176 -22 -272
-1 -52 11 -153 17 -330 21 -140 3 -272 11 -294 17 -21 6 -60 8 -87 4 -37 -5
-56 -3 -74 9 -30 20 -51 20 -105 1 -51 -18 -69 -39 -70 -81 0 -47 20 -59 75
-44 48 14 145 6 180 -13 12 -7 90 -13 200 -15 320 -6 399 -10 436 -24 24 -9
60 -12 109 -8 44 3 86 1 107 -6 26 -9 43 -9 78 2 59 17 120 27 170 26 22 0 73
-1 113 -1 44 -1 86 5 108 14 20 8 49 15 64 15 16 0 55 6 87 14 60 15 248 17
271 3 6 -5 12 -20 12 -34 0 -13 8 -38 17 -54 16 -27 16 -30 -5 -67 l-22 -39
26 -39 c23 -33 25 -42 16 -69 -16 -43 -14 -168 3 -208 4 -10 2 -24 -5 -33 -8
-9 -14 -47 -15 -94 -1 -59 -5 -84 -18 -98 -20 -22 -23 -102 -5 -135 18 -35 27
-88 18 -112 -7 -18 -19 -24 -62 -30 -76 -10 -128 -25 -172 -53 -22 -13 -70
-35 -107 -47 -83 -29 -189 -74 -209 -91 -8 -6 -30 -15 -49 -19 -51 -11 -139
-53 -217 -105 -39 -26 -87 -55 -106 -64 -50 -24 -65 -44 -95 -122 -14 -38 -34
-94 -46 -124 -11 -30 -23 -87 -27 -126 -5 -60 -12 -80 -41 -119 -29 -41 -43
-51 -103 -71 -37 -12 -78 -31 -90 -42 -11 -11 -40 -31 -62 -45 -32 -20 -46
-37 -60 -77 -20 -56 -66 -109 -132 -153 -24 -15 -46 -37 -51 -50 -4 -12 -14
-38 -21 -57 -7 -19 -13 -46 -13 -60 1 -14 2 -81 3 -150 2 -69 0 -135 -4 -147
-8 -24 -52 -43 -102 -43 -30 0 -39 -5 -72 -45 -7 -8 -23 -15 -35 -15 -39 1
-111 21 -119 33 -4 7 -8 37 -8 67 0 74 -14 117 -44 141 -15 11 -26 25 -26 31
0 6 -11 26 -26 45 -14 18 -22 37 -19 43 3 5 -8 24 -25 41 -16 18 -34 47 -39
65 -5 19 -19 46 -30 60 -12 15 -21 40 -21 56 0 18 -11 43 -26 60 -14 17 -23
36 -20 43 2 6 -7 20 -19 29 -19 14 -23 24 -18 46 4 24 -5 41 -66 114 -39 47
-76 88 -81 91 -6 3 -10 19 -10 35 0 16 -5 32 -11 36 -6 3 -17 21 -25 39 -8 20
-33 46 -61 65 -27 18 -76 62 -109 99 -73 79 -135 114 -229 130 -38 7 -83 17
-100 23 -75 26 -118 38 -230 62 -106 24 -130 26 -205 18 -56 -6 -102 -17 -135
-34 -90 -45 -128 -44 -123 2 4 30 -16 35 -69 21 -29 -8 -48 -23 -72 -56 -25
-35 -39 -45 -60 -45 -16 0 -67 -18 -114 -40 -47 -22 -89 -40 -95 -40 -5 0 -17
-15 -26 -32 -23 -48 -125 -151 -189 -192 -31 -20 -59 -40 -62 -46 -6 -10 -83
-64 -154 -107 -20 -12 -61 -28 -91 -34 -30 -6 -86 -19 -125 -29 -94 -25 -248
-42 -375 -43 -96 -1 -109 1 -154 26 -27 15 -56 27 -65 27 -9 0 -36 14 -61 31
-31 21 -51 28 -65 23 -11 -3 -31 -7 -45 -8 -14 0 -54 -16 -88 -34 -62 -33 -77
-57 -49 -80 12 -10 108 -35 179 -47 21 -3 51 -20 74 -40 21 -19 52 -39 70 -45
18 -6 34 -17 37 -24 3 -7 27 -21 54 -31 26 -9 63 -32 81 -49 30 -28 39 -31
105 -33 40 -1 86 -5 103 -8 19 -4 34 -3 38 4 4 6 23 11 42 11 41 0 45 -20 8
-45 -20 -13 -23 -19 -13 -31 15 -18 125 -18 158 0 17 9 44 12 82 9 70 -7 94
-1 144 32 33 23 41 25 66 14 25 -10 38 -8 88 11 33 12 84 37 113 56 51 34 133
64 170 64 10 0 36 16 59 37 38 34 45 37 142 47 98 11 106 11 212 -17 94 -24
117 -34 155 -67 25 -22 66 -51 92 -65 53 -28 78 -58 78 -95 0 -30 66 -100 93
-100 18 0 47 53 47 87 0 9 -11 29 -25 43 -14 15 -27 42 -30 61 -5 38 -26 59
-98 95 -37 19 -49 31 -54 55 -6 29 -45 69 -68 69 -7 0 -27 10 -46 23 -59 40
-119 56 -204 55 -43 0 -100 -6 -125 -14 -25 -8 -61 -14 -80 -14 -19 0 -47 -6
-62 -14 -15 -8 -40 -21 -55 -29 -15 -7 -51 -26 -79 -40 -29 -15 -61 -27 -71
-27 -11 0 -44 -17 -74 -38 -49 -34 -105 -62 -214 -106 -47 -19 -142 -36 -206
-36 -25 0 -90 14 -145 31 -54 17 -121 36 -149 44 -60 15 -115 45 -115 63 0 23
52 33 250 46 133 9 207 18 231 29 19 9 63 28 99 42 36 15 79 39 95 54 17 15
51 39 76 54 25 14 63 43 85 64 22 21 73 65 113 98 40 33 92 76 115 96 70 61
122 88 264 136 110 37 151 46 207 47 140 0 385 -42 450 -78 22 -13 63 -31 90
-41 28 -10 54 -22 59 -26 6 -5 17 -9 26 -9 26 0 113 -51 160 -94 25 -23 59
-48 77 -55 18 -7 41 -27 51 -45 10 -17 48 -62 84 -101 62 -68 137 -190 152
-249 4 -16 25 -46 47 -68 27 -26 39 -47 39 -66 0 -16 12 -48 28 -73 67 -108
83 -147 93 -236 6 -48 15 -92 20 -97 5 -6 9 -20 9 -33 0 -12 12 -48 28 -79
l27 -56 -40 -35 c-22 -19 -58 -44 -80 -55 -22 -12 -61 -42 -86 -67 -26 -25
-62 -60 -81 -77 -19 -18 -52 -66 -73 -108 -33 -66 -37 -83 -32 -124 3 -26 8
-55 12 -64 11 -27 -27 -54 -85 -62 -29 -4 -66 -14 -82 -22 -15 -8 -47 -19 -71
-24 -23 -5 -54 -12 -69 -16 -22 -5 -34 2 -77 45 -28 28 -51 56 -51 62 0 6 -13
24 -30 39 -16 15 -31 37 -33 49 -2 12 -9 27 -15 33 -7 7 -12 21 -12 33 0 12
-5 26 -12 33 -17 17 -18 132 -2 164 8 15 14 39 14 54 0 15 7 36 16 45 15 16
15 23 2 66 -17 58 -17 216 1 237 6 8 10 25 7 38 -3 12 -8 46 -11 73 -3 28 -9
68 -13 90 -14 74 -92 87 -92 14 0 -31 -22 -49 -51 -42 -11 3 -26 0 -34 -7 -12
-10 -12 -16 3 -46 13 -29 14 -42 5 -78 -8 -28 -9 -63 -3 -103 8 -61 6 -136 -6
-154 -3 -6 0 -17 7 -25 9 -11 9 -21 1 -38 -8 -17 -7 -27 1 -35 8 -8 7 -20 -7
-46 -17 -30 -17 -39 -6 -59 7 -14 10 -35 7 -48 -4 -15 1 -30 15 -46 18 -19 20
-27 12 -50 -12 -33 0 -73 39 -123 15 -20 27 -47 27 -61 0 -25 32 -75 57 -91 7
-4 15 -23 19 -42 4 -24 19 -46 47 -69 38 -32 40 -36 29 -61 -7 -14 -12 -52
-12 -83 -1 -31 -7 -68 -15 -82 -18 -32 -18 -90 0 -114 8 -11 12 -29 9 -41 -6
-25 26 -93 57 -121 11 -10 40 -46 65 -80 33 -48 55 -68 94 -85 34 -15 50 -29
50 -41 0 -18 -53 -58 -78 -58 -7 0 -54 -20 -104 -45 -50 -25 -99 -45 -108 -45
-35 0 -253 -126 -337 -195 -19 -16 -33 -36 -33 -49 0 -12 -12 -33 -26 -47 -24
-23 -25 -27 -18 -96 6 -70 5 -73 -17 -81 -72 -28 -135 -42 -234 -53 -60 -6
-130 -20 -155 -29 -25 -10 -65 -21 -90 -25 -56 -9 -74 -18 -130 -67 -106 -91
-112 -99 -105 -127 3 -14 13 -68 21 -120 16 -105 12 -118 -39 -123 -30 -3 -32
-5 -32 -43 -1 -42 13 -75 30 -75 21 -1 53 -38 60 -69 4 -18 20 -44 36 -58 16
-15 29 -32 29 -40 0 -20 114 -73 159 -73 54 0 69 -7 87 -44 23 -48 112 -116
149 -116 47 0 120 -25 147 -50 41 -38 50 -39 128 -13 42 13 87 22 101 19 18
-3 34 1 48 13 21 19 34 18 107 -4 13 -4 36 1 60 14 21 12 49 21 61 21 28 0 83
47 83 71 0 14 14 26 45 39 36 16 49 28 64 62 10 24 30 54 45 67 14 14 38 45
53 70 25 42 27 55 28 166 1 140 -13 181 -76 220 -20 14 -46 38 -56 56 -10 17
-36 40 -58 51 -22 12 -59 34 -83 50 -41 28 -42 31 -27 48 9 10 40 23 68 29 29
5 72 14 97 20 53 12 167 29 265 41 76 9 216 50 280 82 22 12 58 36 80 55 22
19 74 59 115 89 62 46 80 55 105 50 63 -10 213 -36 270 -47 33 -6 134 -15 225
-20 278 -14 396 -33 470 -77 51 -29 177 -50 345 -57 55 -2 114 -9 130 -15 48
-19 388 -32 465 -19 73 13 124 10 253 -15 67 -12 98 -14 125 -6 20 5 73 7 117
4 53 -4 102 -1 145 8 36 8 124 16 195 17 113 2 134 5 159 23 22 16 33 18 50
10 11 -6 124 -13 251 -15 244 -6 325 -18 530 -81 198 -61 286 -79 389 -80 70
0 117 6 153 18 31 10 73 16 105 14 46 -3 54 -6 66 -30 9 -19 29 -33 68 -47 30
-12 61 -21 70 -21 30 0 154 -84 194 -132 56 -66 77 -78 157 -88 113 -15 188
-34 188 -50 0 -16 -4 -17 -215 -84 -172 -55 -239 -89 -261 -132 -8 -17 -29
-53 -47 -81 -18 -27 -32 -54 -32 -58 0 -5 -12 -26 -26 -46 -35 -51 -52 -124
-41 -174 4 -22 11 -58 14 -80 3 -22 11 -48 18 -58 7 -10 11 -27 8 -37 -4 -14
6 -26 37 -47 23 -15 59 -43 80 -60 20 -18 46 -33 56 -33 11 0 36 -9 57 -20 25
-14 56 -20 98 -20 82 0 128 22 147 71 19 49 37 55 81 26 20 -13 59 -32 86 -44
47 -19 77 -26 250 -53 90 -15 424 1 450 20 6 4 35 13 65 19 30 6 80 24 110 39
46 23 57 34 70 69 9 23 27 55 42 70 63 67 65 200 6 378 -27 80 -41 100 -91
132 -23 14 -79 60 -124 100 -83 75 -138 103 -203 103 -42 0 -53 20 -30 55 12
18 20 47 20 72 0 36 -6 48 -55 98 -33 35 -59 72 -65 94 -5 21 -20 46 -32 57
-36 32 -120 81 -151 88 -16 4 -45 17 -65 30 -152 95 -344 190 -407 202 -48 8
-76 30 -68 52 4 10 22 34 41 56 l34 38 -6 87 c-15 195 -17 210 -47 254 -16 23
-29 52 -29 64 0 20 -35 94 -74 156 -26 42 -28 114 -5 168 19 43 29 52 83 79
33 17 85 50 114 75 29 25 65 47 80 50 62 13 110 31 168 62 33 18 67 33 75 33
8 0 32 9 53 21 21 11 40 18 43 16 12 -13 137 30 252 87 72 35 145 68 163 71
18 4 54 18 81 31 26 14 75 32 110 40 34 9 82 26 107 39 25 12 75 28 112 35 48
9 86 24 130 53 34 22 86 53 116 69 64 33 142 100 142 120 0 9 8 26 18 39 10
13 22 32 25 43 8 20 34 56 84 115 18 21 41 58 52 83 10 25 33 61 50 80 17 20
31 38 31 41 0 2 36 41 80 85 58 58 80 87 80 105 0 20 17 38 81 87 112 85 221
129 359 142 151 15 220 12 345 -18 156 -37 168 -41 219 -80 24 -18 49 -34 53
-34 15 0 118 -82 125 -99 3 -10 29 -38 58 -62 121 -103 153 -136 176 -180 13
-27 48 -68 81 -95 32 -27 65 -58 75 -69 9 -11 40 -45 68 -75 28 -30 66 -75 83
-99 17 -25 66 -81 109 -125 43 -44 78 -83 78 -87 0 -4 9 -10 20 -14 10 -3 40
-23 65 -44 26 -21 56 -43 68 -49 12 -5 70 -33 128 -61 59 -27 142 -60 185 -72
44 -12 104 -32 134 -44 30 -13 70 -26 89 -29 19 -4 62 -19 95 -35 34 -16 80
-32 104 -36 23 -4 55 -13 70 -20 69 -33 172 -75 184 -75 8 0 48 -12 89 -27 79
-28 73 -28 374 -24 94 1 186 0 205 -1 61 -3 140 11 178 31 20 11 57 22 82 24
25 3 79 21 121 41 42 20 82 36 88 36 5 0 23 13 39 28 20 20 48 33 89 41 61 13
90 27 269 123 58 32 116 60 128 64 11 4 34 18 50 31 25 21 37 24 80 20 28 -2
65 -9 81 -15 17 -6 42 -14 56 -17 33 -6 75 -48 83 -83 11 -45 48 -135 68 -164
16 -23 17 -35 10 -84 -7 -42 -6 -63 4 -82 14 -28 11 -42 -11 -42 -8 0 -46 -27
-86 -60 -39 -33 -77 -60 -84 -60 -6 0 -50 -23 -96 -51 -86 -53 -157 -85 -219
-99 -19 -4 -48 -15 -65 -24 -16 -9 -34 -16 -38 -16 -4 0 -25 -11 -45 -25 -20
-14 -47 -25 -59 -25 -13 0 -37 -13 -54 -29 -28 -28 -35 -29 -92 -25 -34 2 -80
7 -101 10 -31 4 -44 0 -63 -18 -18 -16 -34 -22 -65 -21 -23 1 -47 -2 -53 -7
-5 -5 -37 -18 -70 -30 -33 -13 -107 -45 -164 -72 -93 -45 -109 -50 -152 -45
-67 8 -93 -14 -96 -80 -2 -48 -12 -116 -33 -226 -6 -32 -8 -62 -5 -67 3 -5 1
-28 -5 -50 -6 -22 -7 -46 -3 -53 7 -11 12 -91 12 -180 0 -21 -6 -48 -14 -60
-18 -29 -40 -286 -25 -301 5 -5 10 -18 10 -28 0 -10 7 -30 16 -43 14 -21 14
-37 3 -136 -6 -61 -9 -148 -6 -193 5 -70 3 -85 -13 -106 -23 -30 -25 -49 -5
-56 8 -3 17 -16 21 -27 11 -34 12 -111 1 -125 -5 -7 -7 -31 -3 -55 4 -23 6
-49 5 -57 0 -8 -3 -46 -4 -85 -2 -38 -10 -106 -18 -150 -17 -88 -22 -213 -13
-290 12 -93 13 -170 3 -198 -6 -19 -6 -36 1 -51 7 -16 6 -29 -5 -50 -8 -15
-12 -30 -9 -34 3 -3 -1 -13 -10 -23 -12 -13 -14 -26 -9 -46 5 -15 7 -36 6 -45
-1 -10 3 -28 10 -40 7 -13 14 -61 17 -108 3 -69 8 -92 28 -122 13 -21 24 -47
24 -58 0 -30 41 -42 87 -27 l38 12 1 60 c2 74 26 212 43 243 6 12 9 27 5 34
-4 6 -6 69 -5 140 2 93 -2 134 -11 145 -15 18 -13 185 3 215 5 10 7 35 3 55
-4 21 -8 78 -10 128 -2 49 -4 99 -4 110 -1 11 2 49 7 84 6 41 6 77 -1 101 -10
41 2 70 30 70 18 0 47 -57 37 -73 -12 -19 -4 -127 11 -150 11 -17 12 -34 5
-72 -15 -83 -16 -148 -1 -177 9 -20 11 -37 4 -62 -6 -19 -7 -37 -4 -40 3 -3
-1 -17 -8 -31 -10 -18 -11 -31 -3 -47 30 -66 41 -115 30 -134 -6 -10 -14 -54
-18 -97 -4 -43 -14 -88 -23 -102 -18 -28 -20 -48 -7 -73 23 -44 29 -146 27
-451 l-2 -324 -27 -13 c-46 -25 -54 -13 -54 94 -2 160 1 151 -38 173 -25 15
-35 28 -35 46 0 24 -34 62 -56 63 -29 1 -68 -122 -75 -230 -2 -35 14 -141 22
-146 5 -3 9 -16 9 -30 0 -47 32 -125 55 -136 12 -5 39 -30 59 -54 25 -29 45
-44 61 -44 39 0 129 23 143 37 7 7 35 13 61 13 40 0 52 5 79 33 66 68 472 243
618 267 32 5 68 20 88 35 35 27 132 65 164 65 9 0 25 9 35 20 9 11 25 20 34
20 10 0 30 7 46 14 31 17 135 47 187 54 19 2 40 8 45 12 6 4 28 11 50 15 53 9
91 30 97 53 7 27 -2 115 -14 129 -21 26 -63 24 -148 -8 -122 -44 -140 -49
-191 -49 -34 0 -51 -5 -65 -21 -21 -23 -49 -36 -92 -43 -15 -2 -47 -8 -71 -11
-63 -10 -106 -30 -124 -59 -23 -35 -116 -74 -193 -81 -36 -3 -77 -13 -91 -22
-14 -9 -44 -18 -67 -19 -60 -3 -155 -33 -196 -60 -57 -39 -112 -28 -118 23 -2
15 -5 122 -7 238 -2 115 -7 220 -10 233 -3 12 -1 31 5 42 8 15 5 37 -16 96
-25 74 -25 77 -10 119 12 31 14 49 7 68 -6 14 -8 41 -4 59 3 19 0 52 -6 73 -7
26 -7 52 0 84 15 68 14 458 -1 476 -10 12 -10 29 -2 73 21 109 22 129 12 203
-18 125 -21 330 -5 352 12 18 12 23 -5 45 -26 32 -25 52 0 52 13 0 26 -12 36
-33 9 -18 28 -40 44 -49 16 -9 40 -39 54 -66 14 -28 34 -53 44 -56 17 -6 143
-137 150 -158 2 -5 25 -20 52 -33 49 -25 60 -39 60 -82 0 -25 48 -120 78 -155
8 -9 17 -31 21 -49 5 -25 14 -34 41 -43 27 -8 41 -22 59 -59 l25 -48 -27 -24
c-35 -34 -47 -31 -47 9 0 45 -14 49 -106 31 -86 -16 -107 -10 -123 37 -20 57
-75 44 -114 -25 -17 -30 -19 -41 -10 -56 6 -10 12 -60 12 -110 0 -51 4 -98 8
-104 4 -6 8 -46 10 -89 2 -51 8 -87 19 -103 11 -18 14 -35 9 -65 -6 -34 -2
-47 24 -90 17 -28 31 -54 31 -58 0 -4 21 -34 45 -67 42 -55 45 -64 44 -112 -2
-37 2 -58 14 -71 9 -10 17 -27 17 -38 0 -49 44 -57 84 -15 27 28 28 33 22 90
-6 52 -5 60 11 64 15 4 123 2 156 -2 4 -1 30 -22 57 -47 34 -32 52 -57 56 -81
5 -27 14 -38 37 -48 60 -25 74 0 46 85 -24 74 -16 95 44 111 77 21 97 31 132
71 27 29 34 45 29 61 -13 43 -26 49 -68 26 -49 -26 -139 -29 -183 -6 -25 13
-37 32 -62 99 -18 45 -30 87 -27 94 9 23 53 44 104 50 49 5 51 4 67 -25 8 -17
28 -37 44 -45 38 -20 123 -116 117 -132 -3 -7 9 -18 26 -25 17 -7 37 -26 46
-46 9 -18 23 -33 32 -33 30 0 143 -107 183 -173 10 -17 16 -39 13 -50 -3 -14
9 -34 45 -71 28 -28 58 -64 66 -81 20 -37 49 -80 85 -122 14 -17 29 -45 33
-63 5 -22 17 -35 43 -48 28 -13 36 -23 34 -39 -4 -32 14 -60 51 -79 33 -17
187 -167 187 -182 0 -11 45 -32 67 -32 9 0 29 -12 44 -26 28 -27 122 -54 174
-49 17 1 68 6 115 10 46 4 100 13 120 20 19 7 71 20 115 30 44 9 100 24 124
31 25 8 58 14 74 14 17 0 58 16 93 35 34 19 75 35 91 35 31 0 107 32 117 49 4
6 21 11 38 11 16 0 41 9 55 20 21 16 36 19 85 14 44 -3 65 -1 77 10 9 8 33 19
55 25 21 5 46 16 55 24 25 23 82 37 158 41 55 3 78 9 111 31 30 20 48 25 69
21 23 -5 34 -1 53 19 13 14 27 25 32 25 5 0 31 16 59 35 39 26 62 35 94 35 29
0 47 6 60 20 17 19 57 33 168 61 28 7 55 22 66 35 17 22 88 53 121 54 8 0 38
11 65 25 28 13 59 25 70 25 12 0 26 5 31 10 18 18 121 44 259 66 22 3 51 16
65 29 41 38 102 75 122 75 10 0 59 16 108 35 49 19 102 35 117 35 37 0 110 26
141 50 14 11 32 20 42 20 9 0 31 14 49 31 21 19 38 28 50 24 11 -3 32 6 56 25
21 16 56 35 79 41 63 17 96 31 96 40 0 14 85 65 119 72 18 4 48 20 67 37 31
27 63 40 137 55 19 4 31 15 38 34 10 29 21 34 104 48 40 6 129 50 151 74 9 10
24 19 33 19 9 0 52 16 96 35 44 19 86 35 94 35 8 0 37 11 65 24 28 14 80 35
116 47 36 13 80 34 99 46 19 13 40 23 47 23 8 0 21 11 30 25 16 24 167 103
279 146 33 12 75 35 93 51 18 15 45 30 60 34 30 6 82 23 152 49 25 9 56 27 70
39 39 36 114 76 143 76 15 0 41 13 59 29 33 29 92 51 138 51 14 0 41 9 60 20
74 42 157 77 200 84 25 4 55 17 67 28 21 20 26 20 63 8 48 -16 62 -7 79 50 8
28 9 46 1 59 -5 11 -10 31 -10 45 0 20 -16 39 -71 83 -39 32 -80 75 -90 96
l-20 38 27 48 27 48 -48 99 c-27 54 -64 116 -82 137 -18 20 -33 43 -33 50 0 7
-20 37 -45 66 -45 53 -49 61 -45 94 1 10 -5 26 -13 35 -8 10 -17 40 -20 67
-12 117 -49 205 -96 229 -16 9 -38 30 -50 48 -30 47 -69 100 -91 123 -10 11
-34 49 -52 85 -19 36 -54 98 -79 138 -24 41 -54 92 -67 114 -33 59 -55 84
-111 129 -28 23 -51 48 -51 56 0 39 -52 123 -103 167 -35 29 -62 64 -77 98
-13 29 -41 72 -62 95 -21 24 -38 52 -38 63 0 11 -17 39 -38 63 -41 46 -92 118
-92 131 0 5 -15 26 -32 46 -50 58 -105 151 -113 190 -8 39 -48 93 -115 157
-25 24 -52 50 -60 58 -8 9 -68 69 -132 135 -75 76 -124 134 -134 160 -13 33
-26 44 -72 66 -32 15 -59 30 -62 34 -20 28 -100 33 -157 9 -26 -11 -41 -11
-78 -1 -41 11 -50 10 -99 -13 -30 -14 -70 -25 -89 -25 -19 0 -45 -8 -58 -19
-31 -23 -167 -72 -199 -70 -50 2 -124 -19 -142 -41 -22 -27 -111 -51 -160 -43
-27 4 -52 -1 -87 -16 -27 -11 -61 -21 -74 -21 -13 0 -36 -9 -50 -20 -14 -11
-32 -20 -40 -20 -26 0 -47 -11 -47 -25 0 -21 -48 -54 -89 -61 -20 -4 -47 -12
-61 -19 -14 -7 -69 -15 -123 -18 -86 -5 -103 -9 -142 -35 -95 -63 -185 -65
-185 -5 0 16 -9 42 -20 58 -11 17 -20 42 -20 57 0 30 -78 123 -112 134 -10 3
-32 26 -50 52 -17 26 -46 64 -63 84 -17 20 -41 67 -54 105 -13 37 -30 75 -37
84 -17 20 -18 29 -1 29 16 0 38 36 31 52 -3 7 -39 37 -80 67 -80 58 -197 111
-245 111 -24 0 -45 14 -99 68 -38 37 -102 99 -142 139 -44 43 -77 85 -83 105
-8 27 -17 34 -54 45 -29 8 -55 25 -73 48 -20 24 -40 36 -66 40 -20 4 -57 14
-82 24 -25 10 -60 23 -79 29 -52 17 -140 73 -180 114 -24 25 -51 40 -81 47
-30 7 -53 20 -70 41 -14 16 -34 30 -46 30 -11 0 -29 7 -40 15 -10 8 -31 15
-46 15 -15 0 -39 11 -54 25 -15 14 -39 28 -53 31 -14 3 -55 12 -91 22 -75 19
-213 20 -310 2 -36 -6 -121 -14 -190 -16 -290 -9 -326 -11 -347 -22 -12 -7
-42 -12 -66 -12 -50 0 -207 -36 -307 -70 -141 -49 -299 -138 -365 -205 -27
-29 -87 -82 -131 -118 -61 -50 -93 -85 -125 -139 -24 -40 -48 -80 -54 -88 -5
-9 -19 -31 -30 -49 -37 -61 -72 -100 -174 -194 -56 -51 -109 -106 -117 -122
-28 -54 -125 -166 -167 -192 -23 -14 -58 -39 -77 -54 -19 -15 -46 -30 -60 -34
-14 -4 -41 -16 -60 -26 -19 -11 -50 -19 -68 -19 -49 0 -102 -26 -138 -69 -44
-50 -99 -72 -183 -71 -36 0 -118 -1 -181 -3 -63 -2 -185 -1 -271 3 -177 8
-231 25 -311 97 -24 22 -59 46 -78 53 -19 8 -62 39 -95 70 -33 31 -80 71 -105
88 -65 44 -167 146 -189 190 -24 46 -60 79 -131 121 -57 34 -100 72 -232 203
-42 42 -92 84 -110 94 -40 20 -83 60 -227 209 -16 17 -55 50 -87 75 -32 25
-92 77 -134 116 -107 102 -197 167 -293 212 -46 22 -87 44 -91 50 -4 6 -26 16
-49 23 -23 6 -51 19 -62 28 -11 10 -52 33 -92 51 -59 27 -80 31 -113 26 -24
-4 -49 -2 -62 5 -11 6 -67 13 -123 14 -64 2 -114 9 -131 18 -16 8 -59 24 -95
36 -51 17 -72 19 -93 12 -14 -6 -46 -8 -70 -5 -75 11 -74 -33 1 -45 41 -7 54
-35 16 -37 -126 -6 -312 -75 -347 -129 -9 -14 -23 -25 -30 -25 -8 0 -20 -10
-29 -23 -14 -22 -173 -107 -200 -107 -7 0 -39 -14 -71 -30 -32 -17 -70 -30
-83 -30 -28 0 -63 -17 -63 -30 0 -5 -5 -21 -12 -37 -6 -15 -10 -34 -9 -40 1
-7 -2 -13 -6 -13 -5 0 -22 -12 -39 -27 -17 -16 -43 -35 -58 -43 -46 -24 -78
-59 -75 -83 3 -33 -9 -54 -47 -78 -23 -14 -34 -28 -34 -44 0 -18 -10 -27 -46
-42 -26 -10 -74 -31 -108 -48 -58 -29 -62 -33 -81 -90 -12 -33 -28 -76 -37
-95 -9 -19 -21 -49 -28 -67 -7 -18 -27 -44 -46 -58 -19 -14 -34 -32 -34 -39 0
-30 -43 -66 -111 -91 -57 -22 -73 -33 -80 -55 -7 -19 -23 -33 -54 -45 -24 -10
-49 -29 -56 -42 -17 -32 -70 -63 -106 -63 -17 0 -38 -9 -48 -20 -10 -11 -35
-25 -55 -30 -36 -10 -130 -74 -130 -88 0 -7 -39 -17 -172 -42 -42 -8 -67 -20
-94 -46 -34 -30 -86 -54 -120 -54 -7 0 -25 -7 -40 -15 -16 -8 -42 -15 -59 -15
-16 -1 -47 -7 -68 -15 -37 -13 -40 -12 -68 13 -16 15 -61 50 -100 77 -39 28
-95 70 -123 95 -29 25 -67 53 -84 62 -35 19 -51 61 -33 89 6 10 11 54 11 96 0
62 -4 83 -20 103 -11 14 -20 33 -20 42 0 35 -43 115 -83 156 -67 69 -107 85
-279 111 -57 9 -67 -5 -44 -60 11 -27 26 -40 68 -58 151 -66 152 -66 182 -122
25 -46 27 -60 22 -106 -3 -29 -17 -77 -31 -105 -13 -29 -27 -69 -30 -88 -3
-19 -19 -51 -38 -71 -17 -20 -60 -68 -95 -107 -44 -50 -83 -82 -135 -111 -41
-22 -91 -54 -112 -71 -50 -40 -119 -70 -161 -70 -30 0 -61 -10 -169 -53 -16
-7 -58 -27 -94 -45 -35 -18 -118 -52 -185 -74 l-121 -41 -242 -4 c-161 -3
-248 -1 -262 6 -25 14 -195 22 -421 20 -689 -7 -830 12 -1031 136 -84 51 -215
174 -260 242 -35 51 -37 60 -32 112 2 31 9 68 15 83 11 30 65 83 124 121 59
39 72 52 87 79 28 54 151 153 256 207 118 59 146 61 202 13 31 -26 68 -50 134
-88 54 -31 189 -74 232 -74 30 0 50 -7 71 -25 43 -36 84 -51 192 -70 60 -11
109 -26 132 -41 43 -28 108 -40 292 -56 95 -8 141 -8 171 0 23 6 54 8 68 4 14
-4 72 -5 127 -2 82 4 104 8 115 23 7 10 35 21 66 27 60 10 157 45 234 84 28
14 61 26 75 26 32 0 47 10 51 35 3 13 17 22 48 30 33 8 49 18 61 40 13 23 25
31 52 33 20 2 42 10 48 18 8 9 32 14 70 14 44 0 64 5 81 20 l24 21 -22 15
c-33 24 -28 34 15 34 41 0 62 14 62 41 0 9 9 23 21 30 19 13 21 25 24 144 2
95 -1 137 -11 158 -8 15 -21 40 -29 56 -8 16 -15 39 -15 51 0 27 -15 56 -51
98 -16 18 -29 39 -29 46 0 22 -33 43 -95 61 -83 24 -85 25 -101 70 -7 22 -31
58 -53 80 -21 22 -84 86 -139 141 -105 107 -120 131 -103 163 6 11 11 50 11
88 0 37 5 88 11 113 6 25 12 90 13 145 3 84 0 106 -17 140 -14 27 -21 65 -24
120 -5 126 -3 155 12 186 8 15 15 48 15 73 0 70 26 92 140 120 52 13 108 29
123 35 16 6 45 11 65 11 21 0 53 5 72 11 19 6 55 12 80 13 25 2 71 12 104 22
58 18 58 18 96 -3 22 -13 65 -25 103 -29 64 -6 67 -6 142 37 42 24 91 56 108
70 35 29 101 42 227 44 77 1 154 17 202 42 15 7 38 11 51 8 16 -4 44 4 84 24
34 17 87 36 120 42 32 6 87 23 123 39 40 18 75 26 91 23 16 -3 43 4 67 16 23
12 52 21 65 21 14 0 44 7 67 15 23 8 58 15 77 15 18 0 50 7 70 15 19 8 53 15
74 15 37 0 112 22 251 74 37 14 111 32 165 41 62 10 113 25 139 40 58 34 66
46 51 75 -13 24 -15 25 -112 21 -107 -4 -159 -18 -217 -57 -44 -31 -93 -43
-173 -44 -33 0 -71 -7 -85 -15 -14 -8 -35 -14 -48 -15 -13 0 -56 -11 -96 -25
-39 -14 -112 -29 -161 -34 -79 -9 -338 -81 -393 -110 -9 -5 -46 -12 -82 -16
-70 -8 -157 -28 -187 -43 -28 -15 -153 -23 -174 -11 -11 5 -19 17 -19 27 1 28
35 94 71 138 27 31 39 59 53 125 11 50 27 94 40 109 41 47 77 111 86 153 4 23
15 60 24 82 8 22 15 49 16 61 0 11 9 29 21 40 13 12 18 26 15 39 -6 25 16 150
31 180 40 77 55 297 37 560 -3 44 -7 116 -9 160 -2 44 -9 125 -15 180 -11 91
-13 129 -9 152 4 26 -5 42 -34 58 -47 25 -133 17 -159 -15 -19 -24 -25 -85 -8
-95 15 -9 12 -36 -7 -57 -15 -16 -15 -25 -5 -63 8 -31 9 -52 2 -71 -15 -39 -1
-124 27 -166 20 -30 23 -40 13 -57 -8 -16 -7 -28 5 -51 19 -37 13 -62 -22 -90
-21 -16 -26 -29 -27 -71 -2 -44 1 -53 20 -61 22 -10 22 -11 4 -37 -10 -14 -20
-43 -23 -64 -5 -32 -2 -40 19 -54 28 -18 28 -28 3 -115 -11 -39 -11 -61 0
-123 15 -88 6 -110 -39 -100 -46 10 -90 -64 -50 -85 27 -15 25 -27 -9 -59 -28
-26 -29 -32 -24 -83 5 -50 3 -57 -24 -89 -39 -45 -57 -92 -49 -129 8 -41 -38
-109 -84 -124 -27 -9 -36 -20 -47 -52 -12 -35 -21 -44 -56 -58 -34 -13 -48
-25 -65 -61 -34 -71 -98 -106 -275 -150 -81 -20 -151 -34 -155 -31 -3 4 -1 15
6 24 23 32 83 165 95 211 6 25 19 57 29 70 10 13 18 36 18 51 0 39 44 117 100
176 44 47 49 57 56 113 3 33 12 66 20 72 7 5 26 44 43 84 44 104 60 242 46
390 -7 85 -7 93 6 160 9 51 15 154 10 198 -3 25 9 140 20 197 8 43 8 63 -1 79
-12 24 -39 133 -47 194 -7 50 11 71 54 64 32 -6 115 16 141 36 6 5 12 29 12
53 0 23 5 46 11 50 6 4 36 1 67 -7 53 -13 55 -12 73 12 49 64 87 86 119 69 20
-11 98 25 162 74 34 25 143 87 188 107 14 6 37 8 52 5 14 -3 55 0 90 5 34 6
79 11 98 10 51 -1 68 7 85 40 11 20 23 29 40 29 15 0 31 9 40 24 22 33 87 60
129 53 19 -3 48 -2 63 3 15 5 49 13 75 19 27 6 81 33 124 62 88 60 114 102 95
155 -6 17 -11 39 -11 50 0 11 -7 29 -15 40 -20 26 -19 48 6 96 19 38 20 47 9
97 -6 31 -18 66 -26 78 -8 12 -14 38 -14 57 0 28 -10 44 -61 95 -43 43 -74 64
-103 72 -22 6 -54 19 -71 29 -16 9 -59 27 -95 38 -189 59 -238 73 -265 72 -37
0 -171 25 -208 39 -27 11 -107 12 -172 4z m365 -235 c14 -5 38 -19 55 -32 37
-27 216 -106 242 -106 10 0 34 -11 53 -24 19 -12 53 -29 75 -36 99 -31 135
-75 135 -163 0 -48 -4 -61 -30 -90 -40 -46 -127 -86 -209 -96 -36 -5 -79 -16
-96 -25 -16 -9 -37 -16 -46 -16 -9 0 -27 -8 -40 -19 -13 -10 -60 -37 -104 -61
-44 -23 -97 -54 -119 -69 -37 -24 -56 -33 -136 -61 -122 -43 -178 -68 -219
-97 -25 -18 -50 -33 -56 -33 -15 0 -191 -67 -280 -108 -44 -19 -100 -51 -123
-71 -30 -24 -59 -37 -90 -42 -64 -9 -166 -37 -199 -55 -16 -7 -40 -14 -54 -14
-15 0 -37 -8 -50 -19 -36 -28 -146 -81 -168 -81 -10 0 -41 -15 -67 -33 -47
-32 -105 -59 -151 -72 -12 -3 -45 -22 -73 -41 -39 -27 -66 -37 -118 -43 -125
-16 -306 -121 -261 -153 10 -6 7 -7 -11 -2 -14 3 -31 11 -38 17 -7 5 -15 7
-18 4 -3 -3 -18 -1 -32 4 -34 13 -93 -3 -186 -48 -38 -19 -110 -49 -160 -68
-50 -18 -118 -44 -151 -59 -33 -14 -71 -26 -84 -26 -33 0 -126 -25 -265 -71
-135 -44 -219 -52 -254 -21 -11 9 -38 48 -61 86 -44 75 -48 102 -29 186 10 43
19 57 47 75 20 13 54 42 76 65 22 24 58 55 80 70 22 15 78 66 125 113 47 47
99 93 116 103 17 11 46 32 65 47 58 48 290 197 307 197 15 0 52 46 52 65 0 31
19 45 62 45 26 0 47 8 70 28 50 42 115 82 161 98 65 23 77 39 77 105 0 54 2
58 29 67 16 6 32 8 34 5 13 -12 120 20 140 43 11 13 36 27 56 30 20 3 57 19
82 35 25 16 52 29 60 29 8 0 59 23 114 50 55 27 105 50 111 50 23 0 102 51
107 69 3 13 18 21 47 26 29 5 54 18 77 41 34 34 84 46 98 24 9 -15 20 -12 49
15 32 30 86 45 131 38 21 -3 53 1 78 10 55 20 111 27 292 38 83 5 168 10 191
11 22 2 47 8 55 15 8 6 35 12 59 11 25 0 59 2 75 5 17 3 33 6 38 6 4 1 7 9 7
19 0 10 3 22 7 26 10 9 211 -4 243 -16z m-2140 -3703 c9 -10 10 -48 5 -142 -5
-85 -3 -137 4 -156 19 -49 26 -221 11 -282 -11 -46 -11 -59 0 -80 7 -14 11
-26 9 -27 -2 -2 -13 -8 -24 -15 -11 -6 -18 -17 -16 -25 14 -42 16 -281 3 -323
-6 -19 -6 -51 0 -85 13 -72 14 -138 4 -173 -8 -26 -3 -33 43 -77 28 -26 51
-53 51 -58 0 -22 -127 -74 -206 -83 -42 -6 -81 -12 -86 -15 -13 -8 -273 -28
-343 -26 -139 3 -182 12 -227 46 -24 18 -65 41 -93 52 -59 22 -145 106 -145
141 0 29 27 46 121 73 93 27 119 19 119 -35 0 -28 4 -35 20 -35 11 0 20 -4 20
-10 0 -5 7 -7 16 -3 19 7 34 -13 34 -44 0 -25 27 -43 63 -43 21 0 28 9 46 58
21 56 21 60 5 162 -8 58 -16 119 -17 135 -1 17 -8 41 -16 54 -10 19 -12 44 -6
105 8 90 8 92 2 231 -2 55 -8 111 -14 125 -13 32 -9 57 13 81 11 12 15 28 11
48 -3 16 -1 45 4 65 9 34 7 41 -25 85 -20 26 -33 51 -30 54 6 6 21 67 28 110
1 10 9 24 17 32 20 20 158 43 259 44 68 0 97 5 145 25 70 30 174 36 195 11z
m4643 -1144 c23 -6 62 -15 87 -21 25 -6 68 -16 95 -21 116 -23 182 -42 222
-65 23 -13 48 -24 55 -24 7 0 24 -9 38 -20 14 -11 32 -20 42 -20 9 0 35 -16
58 -35 23 -19 48 -35 56 -35 8 0 22 -8 32 -18 11 -11 39 -33 63 -49 24 -17 52
-40 62 -50 10 -11 37 -29 60 -39 133 -58 237 -141 237 -189 0 -16 10 -30 29
-41 16 -9 46 -40 67 -68 21 -28 73 -85 114 -126 42 -41 88 -92 103 -112 20
-27 52 -49 111 -77 46 -22 86 -46 89 -55 3 -8 22 -22 41 -30 20 -8 50 -36 73
-67 37 -51 130 -149 188 -200 17 -14 80 -78 140 -142 61 -64 115 -117 121
-117 6 0 17 -6 23 -14 7 -8 31 -16 54 -19 23 -2 62 -13 87 -23 41 -16 80 -18
430 -18 337 -1 396 2 470 18 47 10 114 24 150 30 58 11 91 25 217 90 18 10 42
29 55 44 29 34 93 84 135 106 18 9 41 33 52 54 10 20 29 56 41 79 12 24 33 46
50 53 16 7 31 22 34 35 3 13 26 38 50 54 24 17 60 55 80 85 20 30 45 58 57 61
12 4 18 12 15 21 -3 8 8 29 24 47 81 91 109 129 113 154 3 15 8 45 12 66 5 30
13 42 38 55 18 9 56 41 84 70 29 28 60 52 68 52 9 0 33 17 55 38 21 20 56 45
77 55 21 10 55 27 75 38 20 10 50 19 67 19 41 0 77 15 139 57 38 27 68 39 110
44 31 4 84 13 117 19 120 23 186 26 248 14 61 -13 119 -8 180 15 16 6 58 11
93 11 36 0 86 5 111 11 100 26 382 -43 551 -135 95 -51 122 -68 221 -133 26
-17 68 -38 93 -47 26 -8 66 -28 90 -44 23 -16 77 -52 120 -81 42 -28 84 -54
95 -58 10 -4 57 -45 105 -93 109 -106 182 -170 233 -202 59 -38 120 -105 156
-173 17 -32 53 -79 80 -103 27 -24 49 -50 49 -57 0 -7 7 -19 16 -26 18 -14 76
-104 87 -131 3 -10 11 -18 16 -18 5 0 15 -15 21 -34 6 -19 17 -37 24 -39 8 -3
22 -30 31 -59 10 -29 30 -67 46 -83 18 -19 29 -42 29 -59 0 -15 11 -42 25 -60
14 -18 25 -38 25 -43 0 -6 11 -35 25 -65 14 -30 25 -71 25 -95 0 -47 11 -102
40 -203 24 -83 31 -182 18 -241 -9 -38 -7 -55 7 -100 10 -30 20 -67 21 -84 2
-16 7 -52 12 -80 6 -28 6 -57 1 -66 -5 -9 -8 -33 -7 -53 1 -25 -6 -44 -21 -60
-22 -23 -32 -41 -80 -132 -22 -42 -54 -64 -96 -64 -13 0 -26 -4 -30 -10 -11
-18 -172 -107 -206 -113 -38 -8 -150 -40 -221 -63 -26 -9 -56 -13 -67 -9 -12
3 -76 0 -143 -9 -68 -8 -150 -15 -183 -16 -216 -4 -273 -1 -312 15 -22 9 -49
13 -68 9 -18 -3 -61 1 -96 10 -41 11 -100 16 -173 15 -134 -1 -160 4 -207 46
-20 18 -53 38 -73 45 -20 6 -36 17 -36 23 0 7 -25 39 -55 72 -31 33 -55 69
-55 81 0 11 -8 29 -19 38 -10 9 -21 30 -25 47 -3 16 -12 29 -20 29 -20 0 -56
48 -56 74 0 12 -13 35 -29 50 -15 15 -34 46 -41 69 -8 23 -19 49 -26 57 -43
50 -94 109 -126 143 -21 22 -38 50 -38 63 0 30 -69 85 -135 109 -27 10 -54 22
-60 25 -5 4 -40 17 -77 29 -58 19 -67 26 -70 49 -3 24 -7 27 -43 27 l-40 0 3
-38 c2 -20 -3 -46 -11 -57 -19 -28 -4 -96 35 -159 20 -33 -11 -108 -54 -133
-42 -24 -74 -19 -59 10 8 14 4 30 -15 66 -14 26 -22 51 -19 56 6 9 -16 93 -51
200 -9 25 -27 55 -42 67 l-27 23 22 19 c24 20 19 30 -22 45 -33 13 -172 27
-305 31 -68 3 -137 9 -154 15 -44 15 -48 14 -100 -35 -27 -25 -52 -45 -57 -45
-5 0 -23 -13 -41 -28 -83 -70 -235 -147 -308 -156 -31 -4 -74 -18 -97 -31 -23
-13 -68 -31 -100 -40 -32 -9 -65 -23 -73 -30 -22 -18 -51 -26 -143 -36 -45 -4
-102 -13 -127 -18 -57 -12 -238 -7 -310 10 -30 6 -91 13 -135 13 -57 1 -103 9
-160 28 -44 15 -106 29 -138 32 -32 4 -72 13 -87 21 -16 8 -37 15 -47 15 -10
0 -47 14 -81 30 -35 17 -79 30 -97 30 -23 0 -46 10 -75 35 -31 26 -52 35 -78
35 -21 0 -56 5 -79 10 -49 11 -199 95 -249 139 -19 17 -47 34 -62 38 -27 6
-111 54 -145 83 -10 8 -38 45 -63 83 -24 37 -55 72 -69 79 -13 6 -29 25 -35
42 -5 17 -36 56 -67 86 -120 116 -162 164 -168 192 -5 21 -25 41 -78 77 -94
64 -118 87 -141 139 -10 23 -23 42 -27 42 -4 0 -27 15 -51 33 -47 36 -153 97
-169 97 -5 0 -49 15 -97 34 -48 19 -113 39 -145 45 -32 6 -67 17 -79 25 -12 8
-46 23 -75 32 -53 17 -59 16 -181 -4 -70 -12 -163 -23 -207 -24 -51 0 -95 -7
-120 -18 -22 -10 -56 -24 -75 -32 -19 -9 -50 -28 -68 -44 -18 -16 -47 -34 -65
-40 -18 -6 -37 -21 -44 -35 -7 -13 -26 -33 -43 -44 -16 -11 -30 -27 -30 -35 0
-8 -9 -32 -20 -53 -11 -20 -20 -48 -20 -61 0 -19 -13 -33 -60 -61 -39 -24 -60
-43 -60 -55 0 -10 -5 -22 -10 -25 -6 -4 -24 -35 -40 -71 -16 -35 -33 -64 -38
-64 -5 0 -14 -12 -21 -26 -6 -15 -23 -35 -36 -46 -14 -11 -25 -24 -25 -30 0
-10 -22 -39 -88 -118 -21 -24 -51 -45 -80 -56 -26 -9 -88 -34 -139 -56 -51
-21 -98 -38 -106 -38 -21 0 -242 -107 -257 -125 -7 -8 -17 -15 -23 -15 -6 0
-49 -20 -96 -44 -47 -24 -108 -51 -136 -59 -27 -8 -81 -27 -120 -42 -38 -15
-106 -40 -150 -56 -83 -31 -148 -62 -225 -109 -25 -15 -106 -52 -180 -81 -93
-37 -155 -68 -198 -101 -35 -27 -74 -48 -87 -48 -23 0 -54 21 -104 71 -14 14
-36 31 -48 37 -33 18 -75 100 -62 123 5 10 16 19 24 19 8 0 15 7 15 15 0 14
-12 19 -33 16 -4 -1 -11 9 -16 22 -5 12 -16 29 -25 36 -19 16 -22 94 -6 137 6
14 12 93 15 175 2 82 6 153 10 158 8 15 222 111 246 111 4 0 30 15 58 34 49
33 122 56 180 56 16 0 37 10 50 24 12 13 52 39 87 57 36 18 84 49 107 70 24
20 74 51 112 68 38 18 98 57 134 89 36 32 91 74 122 94 31 21 64 50 74 65 22
34 67 79 117 117 21 15 40 37 43 47 4 11 22 43 41 72 19 28 34 57 34 64 0 21
78 100 163 166 44 34 86 76 97 96 21 41 80 100 162 160 31 23 59 48 61 56 3 7
27 28 54 46 26 18 56 43 66 56 10 12 44 32 77 44 61 22 105 49 225 136 39 28
86 54 105 58 19 4 62 21 94 37 127 64 256 80 399 49z m-4419 -82 c29 -34 29
-33 20 -78 -7 -35 -41 -44 -50 -13 -3 9 -13 34 -21 54 -13 31 -13 40 -3 53 18
21 25 19 54 -16z m-1358 -153 c12 -8 47 -43 80 -77 47 -49 79 -71 161 -110 56
-26 120 -60 141 -74 77 -51 145 -67 302 -71 98 -2 171 1 225 11 44 8 117 19
162 24 59 6 105 19 160 44 43 19 94 41 113 48 19 7 63 40 98 71 96 90 133 98
191 41 54 -54 76 -141 75 -293 -2 -105 -4 -121 -29 -170 -52 -106 -95 -135
-266 -185 -52 -15 -107 -38 -124 -50 -78 -58 -346 -146 -530 -175 -27 -4 -62
-13 -77 -20 -22 -10 -48 -10 -145 5 -65 10 -136 26 -157 37 -22 11 -81 28
-132 39 -56 11 -128 35 -180 59 -180 85 -212 98 -260 105 -27 4 -85 19 -129
33 -74 24 -86 31 -157 104 -71 72 -78 83 -78 119 0 42 21 103 45 130 9 8 30
46 48 83 28 56 45 75 102 116 37 28 71 50 76 50 4 0 29 17 56 37 44 34 156 82
193 83 9 0 25 -7 36 -14z m13428 -882 c22 -9 20 -24 -3 -24 -21 0 -34 13 -24
24 8 7 8 7 27 0z m-12193 -77 c-1 -12 -15 -9 -19 4 -3 6 1 10 8 8 6 -3 11 -8
11 -12z m14503 -291 c25 -19 48 -36 53 -37 21 -9 176 -185 193 -219 11 -21 37
-60 59 -87 22 -26 53 -63 68 -82 15 -19 38 -53 51 -75 13 -23 35 -52 49 -66
30 -29 142 -181 162 -219 7 -14 28 -44 46 -66 17 -22 51 -74 75 -115 24 -41
53 -85 64 -98 26 -29 91 -136 111 -182 9 -19 19 -40 23 -46 74 -111 101 -154
106 -172 4 -12 18 -35 31 -50 13 -16 31 -47 40 -70 10 -23 21 -42 26 -42 11 0
79 -103 79 -120 0 -7 18 -32 40 -56 25 -27 40 -53 40 -69 0 -32 21 -74 50
-100 12 -11 28 -33 35 -50 7 -16 29 -47 49 -69 20 -21 36 -49 36 -61 0 -13 20
-53 44 -88 62 -93 82 -136 89 -189 9 -65 43 -157 67 -183 12 -12 26 -40 32
-61 5 -21 19 -49 29 -63 11 -13 19 -36 19 -50 0 -18 12 -39 35 -61 33 -32 53
-79 61 -138 1 -13 10 -32 19 -42 35 -38 -11 -101 -93 -128 -18 -6 -40 -18 -48
-27 -8 -8 -24 -15 -34 -15 -10 0 -62 -22 -116 -49 -55 -27 -134 -61 -177 -75
-43 -15 -100 -38 -125 -51 -26 -14 -53 -25 -61 -25 -7 0 -47 -18 -87 -40 -41
-22 -84 -40 -96 -40 -25 0 -49 -14 -132 -79 -36 -28 -72 -47 -101 -52 -24 -4
-63 -22 -86 -39 -23 -16 -48 -30 -55 -30 -8 0 -28 -9 -46 -20 -18 -11 -43 -20
-55 -20 -11 0 -40 -16 -63 -35 -23 -19 -52 -35 -65 -35 -13 0 -44 -9 -70 -20
-26 -11 -56 -20 -67 -20 -12 0 -55 -20 -97 -44 -42 -25 -101 -52 -131 -60 -78
-20 -240 -99 -269 -130 -14 -14 -40 -28 -60 -31 -20 -4 -44 -10 -53 -16 -10
-5 -22 -9 -27 -9 -5 0 -35 -17 -67 -39 -33 -21 -73 -42 -90 -45 -17 -4 -46
-22 -64 -41 -19 -19 -44 -35 -55 -35 -12 0 -30 -9 -40 -20 -10 -11 -37 -25
-59 -31 -23 -6 -60 -22 -83 -35 -23 -13 -58 -24 -78 -24 -45 0 -71 -13 -112
-56 -20 -22 -42 -34 -60 -35 -55 -3 -161 -30 -258 -66 -69 -26 -228 -107 -257
-131 -17 -15 -49 -27 -85 -32 -69 -10 -102 -17 -168 -35 -27 -8 -70 -19 -95
-25 -25 -7 -57 -24 -72 -38 -21 -19 -43 -27 -89 -33 -46 -5 -70 -14 -99 -38
-24 -19 -50 -31 -68 -31 -17 0 -47 -9 -69 -19 -21 -11 -74 -36 -118 -56 -44
-20 -90 -46 -102 -57 -12 -11 -39 -24 -60 -28 -21 -4 -63 -13 -93 -20 -30 -6
-77 -13 -105 -16 -28 -2 -62 -14 -78 -25 -16 -11 -45 -23 -65 -26 -20 -3 -42
-12 -48 -19 -7 -9 -39 -16 -85 -19 -41 -3 -92 -10 -114 -16 -22 -6 -51 -13
-65 -16 -14 -3 -38 -16 -55 -28 -36 -26 -87 -42 -175 -55 -36 -5 -90 -17 -120
-25 -30 -9 -90 -18 -133 -21 -64 -3 -92 -11 -160 -43 -63 -30 -97 -40 -147
-43 l-65 -3 -10 45 c-5 25 -21 71 -35 103 -20 48 -29 59 -53 64 -16 3 -38 19
-50 35 -12 17 -35 37 -52 45 -16 8 -42 27 -58 41 -22 21 -26 32 -21 58 5 27 1
38 -25 65 -38 39 -68 76 -84 104 -40 69 -54 90 -68 105 -9 9 -30 37 -46 61
-17 24 -60 73 -95 109 -35 36 -74 86 -86 113 -12 26 -37 64 -56 85 -18 20 -37
47 -41 60 -4 13 -25 45 -48 72 -68 80 -87 107 -87 125 0 9 -11 27 -24 40 -14
14 -37 42 -53 62 -15 21 -56 70 -90 109 -47 53 -63 79 -63 101 0 17 -9 38 -20
48 -12 11 -20 31 -20 51 0 29 -5 36 -40 54 -22 11 -54 40 -70 63 -16 23 -35
48 -42 56 -7 8 -13 28 -14 45 -1 18 -11 37 -26 47 -50 38 -106 96 -122 127 -9
18 -48 64 -86 102 -62 64 -68 73 -64 104 3 26 -2 42 -21 64 -14 17 -25 33 -25
37 0 4 -25 34 -55 68 -45 50 -55 67 -55 96 0 27 -8 46 -31 70 -17 19 -35 45
-40 58 -5 13 -24 30 -43 38 -35 15 -49 35 -40 58 2 7 -9 26 -26 42 -16 16 -30
35 -30 43 0 7 -18 35 -41 62 -37 43 -41 54 -37 91 4 40 1 45 -54 99 -32 31
-58 63 -58 71 0 8 -20 43 -44 79 -63 95 -64 101 -16 144 22 20 50 36 61 36 12
0 54 17 93 39 39 21 94 44 121 51 28 7 61 21 75 30 14 10 42 20 63 24 32 6
127 62 147 87 11 13 146 99 156 99 17 0 181 78 189 89 3 6 37 20 75 31 38 11
82 32 99 45 16 14 45 32 65 40 47 20 138 78 156 101 22 25 208 111 260 119 67
10 151 35 185 54 37 21 115 33 135 21 11 -7 12 -13 1 -37 -11 -25 -10 -29 11
-46 71 -56 119 -102 144 -140 16 -23 39 -50 50 -59 26 -21 64 -91 64 -118 0
-11 9 -28 21 -38 11 -9 30 -35 41 -57 11 -22 28 -49 37 -60 23 -27 47 -90 58
-150 8 -49 9 -50 48 -56 22 -4 60 -14 85 -24 39 -14 67 -16 200 -10 142 5 173
3 286 -20 16 -4 25 -17 33 -50 6 -25 9 -50 5 -56 -3 -5 0 -32 7 -58 11 -45 10
-51 -9 -78 -12 -17 -26 -52 -33 -79 -6 -27 -17 -62 -25 -77 -8 -16 -14 -36
-14 -45 0 -21 -18 -80 -36 -115 -8 -16 -14 -37 -14 -47 0 -10 -10 -31 -23 -47
-13 -15 -34 -45 -46 -66 -29 -47 -106 -109 -169 -137 -26 -12 -65 -38 -87 -59
-22 -21 -57 -48 -77 -60 -21 -13 -38 -28 -38 -35 0 -8 -8 -24 -19 -37 -30 -40
-89 -181 -94 -228 -4 -39 -25 -71 -47 -71 -12 0 -50 -91 -50 -120 0 -15 -11
-41 -24 -57 -13 -15 -27 -39 -31 -52 -4 -14 -16 -38 -26 -55 -11 -17 -19 -36
-19 -43 0 -25 32 -43 75 -43 42 0 47 3 82 50 81 105 93 124 93 141 0 40 59 31
107 -15 95 -93 122 -116 158 -135 22 -12 51 -21 65 -21 35 0 90 36 90 59 0 19
-110 128 -180 178 -21 15 -50 46 -64 68 -14 22 -37 55 -52 72 -36 45 -44 115
-17 146 11 12 29 44 39 71 25 63 99 137 184 182 56 30 180 126 180 139 0 17
68 93 90 100 12 4 24 22 31 48 6 23 30 71 53 107 51 78 66 137 64 250 -2 106
25 225 56 245 16 10 41 11 111 5 129 -13 180 -12 270 0 44 6 116 15 160 19
149 15 280 43 443 93 97 31 119 41 154 77 23 23 65 53 95 67 39 20 65 42 93
82 22 30 40 63 40 72 0 9 9 25 20 35 11 10 20 31 20 46 0 15 12 42 27 59 l27
32 -2 162 c-1 88 -4 173 -7 187 -3 14 -1 47 5 73 8 35 8 52 0 61 -19 23 -21
107 -3 147 15 36 15 41 -6 104 -12 36 -28 79 -37 96 -14 27 -14 31 2 49 9 10
35 24 56 30 22 5 56 25 76 43 20 18 51 40 67 49 83 44 142 68 179 73 22 2 57
9 76 14 19 6 46 10 59 10 13 0 40 14 62 31 28 22 51 31 86 34 26 2 61 8 76 14
16 6 47 11 70 11 47 0 60 7 70 33 10 27 56 39 117 33 44 -5 64 -2 97 14 23 11
46 20 51 20 5 0 28 14 52 31 58 42 121 57 185 46 91 -17 181 -14 202 6 11 9
34 17 51 17 21 0 41 10 62 30 17 17 37 30 45 30 8 0 35 -15 59 -34z m-13409
-115 c27 -11 77 -25 110 -32 49 -11 67 -21 97 -54 21 -22 38 -47 38 -56 0 -9
18 -30 40 -48 22 -17 40 -40 40 -49 0 -10 9 -35 19 -55 20 -40 34 -128 33
-215 0 -42 -5 -57 -20 -68 -14 -10 -20 -26 -20 -61 -1 -50 -18 -73 -54 -73
-15 0 -63 -20 -118 -50 -8 -4 -14 -14 -12 -23 1 -8 -23 -34 -53 -58 -31 -24
-73 -58 -95 -75 -28 -23 -61 -36 -117 -48 -43 -9 -111 -24 -152 -33 -44 -10
-128 -17 -210 -18 -106 -2 -150 -7 -201 -23 -54 -17 -87 -20 -200 -18 -111 1
-141 -1 -171 -16 -23 -11 -50 -15 -70 -12 -19 2 -95 8 -171 13 -75 5 -141 12
-147 15 -21 13 -102 -6 -132 -31 l-29 -25 -32 20 c-25 15 -39 18 -57 11 -14
-6 -52 -9 -85 -8 -67 2 -125 -10 -171 -34 -16 -8 -59 -20 -95 -26 -36 -6 -85
-16 -110 -22 -25 -6 -73 -10 -108 -9 -48 1 -70 -4 -96 -19 -18 -12 -43 -21
-54 -21 -12 0 -65 -16 -119 -35 -54 -19 -110 -35 -126 -35 -23 0 -108 -39
-191 -87 -12 -7 -29 -13 -39 -13 -10 0 -35 -9 -56 -20 -21 -10 -70 -26 -108
-35 -68 -15 -72 -15 -220 14 -126 25 -172 30 -277 29 -113 -2 -128 0 -153 18
-15 12 -44 29 -63 39 -19 10 -54 33 -77 50 -24 18 -63 38 -87 44 -26 6 -53 21
-64 36 -11 13 -41 36 -68 49 -47 24 -165 137 -212 203 -12 17 -22 41 -22 53 0
11 -7 35 -16 52 -9 17 -13 39 -11 50 3 11 2 30 -3 43 -5 14 -4 30 5 46 8 13
22 40 32 59 21 43 53 80 68 80 6 0 36 21 66 48 29 26 70 56 89 66 19 10 44 27
55 36 23 21 209 110 228 110 6 0 32 10 57 23 25 13 85 34 133 46 l88 23 47
-28 c33 -21 54 -43 70 -76 18 -36 32 -50 58 -58 23 -8 34 -18 34 -30 0 -24 29
-40 74 -40 19 0 72 -14 118 -31 52 -19 94 -29 113 -26 17 3 52 0 78 -6 36 -8
60 -8 94 1 42 12 48 11 67 -7 32 -30 106 -44 183 -36 38 3 89 7 115 8 25 1 50
5 54 10 11 10 54 9 54 -2 0 -6 -5 -13 -11 -17 -28 -17 21 -21 85 -7 63 14 75
14 151 -2 78 -16 85 -16 119 0 32 15 46 16 109 6 40 -6 122 -11 182 -11 61 0
119 0 130 0 11 -1 100 1 197 3 l177 4 48 32 c26 18 59 34 73 37 14 3 72 23
130 46 79 30 132 44 212 53 81 10 124 21 174 44 77 36 95 55 87 94 -5 26 -4
27 38 29 91 4 107 5 124 11 10 5 14 13 11 25 -4 12 1 26 14 37 11 10 20 25 20
33 0 12 23 40 95 112 13 12 74 34 110 39 5 0 32 -8 60 -18z m-4449 -889 c6 -4
14 -25 18 -47 4 -22 18 -60 31 -85 13 -25 29 -62 35 -82 7 -24 28 -51 57 -75
25 -21 65 -57 89 -80 23 -23 58 -49 76 -59 18 -9 40 -22 48 -29 8 -7 27 -15
43 -19 15 -4 36 -14 46 -23 11 -9 34 -21 53 -28 18 -6 69 -38 113 -72 44 -33
89 -64 100 -70 23 -12 92 -22 183 -25 62 -3 84 -20 42 -33 -11 -3 -20 -11 -20
-16 0 -12 47 -12 55 1 11 17 42 11 56 -11 12 -18 31 -22 151 -32 131 -10 139
-10 185 10 26 12 66 24 87 27 22 3 51 16 65 29 35 33 64 47 96 47 14 0 41 11
58 24 18 13 44 26 59 30 14 3 39 16 55 29 55 44 109 66 178 73 51 5 81 15 118
37 44 28 51 30 89 20 25 -7 52 -8 71 -2 16 5 56 11 89 14 76 7 164 28 205 49
35 18 108 15 146 -6 26 -15 223 -13 262 2 15 6 40 10 56 10 16 0 47 9 69 20
47 24 56 24 93 6 35 -19 112 -22 207 -7 74 10 135 14 255 14 163 1 369 -1 445
-4 112 -4 269 22 345 56 33 15 80 36 105 48 25 11 54 30 65 42 11 13 51 44 89
69 62 42 72 45 110 40 57 -9 81 -23 108 -64 14 -21 38 -40 58 -46 19 -6 49
-26 67 -45 26 -26 33 -41 33 -72 0 -44 31 -100 97 -178 24 -27 51 -62 60 -77
10 -15 28 -38 40 -51 12 -14 26 -36 31 -50 5 -15 15 -42 22 -61 12 -33 31
-142 32 -185 0 -11 -4 -44 -10 -72 -14 -67 -101 -190 -140 -199 -15 -4 -48
-26 -74 -50 -35 -33 -55 -44 -79 -44 -23 0 -43 -11 -74 -39 -32 -30 -56 -42
-101 -51 -33 -6 -70 -17 -84 -22 -14 -6 -53 -12 -87 -15 -50 -3 -73 1 -122 22
-49 20 -77 25 -148 25 -86 1 -90 2 -148 40 -33 22 -64 40 -70 40 -5 0 -23 7
-40 16 -64 34 -200 67 -287 70 -48 1 -106 8 -129 14 -46 13 -185 5 -229 -12
-14 -6 -84 -12 -156 -14 -124 -4 -136 -6 -195 -35 -47 -24 -86 -34 -149 -41
-47 -5 -98 -13 -115 -18 -16 -5 -54 -8 -83 -6 -44 2 -57 7 -75 30 -13 15 -39
31 -62 37 -52 14 -320 11 -354 -4 -14 -6 -30 -11 -36 -12 -5 0 -16 -4 -24 -9
-9 -6 -19 -2 -31 15 -14 17 -27 23 -56 22 -21 -1 -47 5 -58 12 -21 13 -60 19
-241 35 -141 14 -231 26 -295 41 -30 7 -104 14 -165 15 -60 1 -148 5 -195 8
-47 2 -136 7 -198 10 -61 3 -117 8 -122 11 -5 3 -38 11 -72 16 -35 6 -90 23
-124 40 -34 16 -76 29 -92 29 -17 0 -52 11 -78 25 -26 14 -58 25 -72 25 -13 0
-37 11 -53 24 -16 14 -53 34 -83 45 -69 25 -147 73 -209 127 -29 24 -72 49
-105 60 -71 23 -79 29 -103 75 -10 21 -39 52 -64 69 -25 17 -45 37 -45 45 0 8
-11 22 -24 30 -35 23 -103 115 -111 150 -4 17 -13 49 -21 73 -29 88 -3 115
138 147 77 18 107 29 118 45 25 37 82 100 89 100 3 0 11 -4 17 -8z m-19 -913
c15 -5 46 -27 68 -47 41 -38 100 -82 110 -82 3 0 24 -13 46 -30 23 -16 57 -32
76 -36 44 -8 41 -35 -7 -48 -19 -5 -78 -38 -130 -73 -75 -49 -109 -66 -155
-74 -33 -6 -82 -19 -110 -29 -27 -10 -61 -21 -75 -24 -90 -20 -198 -49 -214
-58 -10 -5 -55 -11 -100 -13 -45 -1 -97 -9 -116 -17 -37 -16 -41 -15 -106 8
-38 13 -44 20 -63 73 -11 32 -21 65 -21 74 0 9 21 31 48 48 26 18 60 43 75 56
16 13 41 23 56 23 15 0 45 13 67 30 21 16 55 32 74 36 46 9 214 78 248 102 49
35 160 87 194 91 4 1 19 -4 35 -10z m5399 -408 c14 -13 125 -44 152 -43 13 1
54 -11 90 -26 37 -16 88 -37 115 -46 26 -10 52 -26 57 -36 5 -9 22 -20 37 -23
16 -3 32 -15 38 -29 13 -29 123 -84 186 -92 57 -8 86 -35 70 -65 -6 -11 -11
-35 -11 -53 0 -50 -23 -74 -92 -97 -78 -26 -171 -27 -230 -3 -24 10 -65 24
-91 31 -27 6 -76 25 -111 41 -35 17 -75 30 -90 30 -33 0 -58 13 -111 56 -49
40 -240 134 -272 134 -28 0 -113 38 -113 51 0 17 65 49 100 49 22 0 55 13 90
35 30 19 60 35 67 35 7 0 27 14 45 30 31 30 56 37 74 21z m6128 -195 c3 -13
17 -31 32 -41 14 -9 37 -41 50 -71 13 -30 27 -54 32 -54 5 0 18 -17 30 -38 11
-21 32 -44 46 -52 14 -7 33 -27 42 -44 41 -77 53 -99 69 -115 8 -10 19 -36 22
-57 4 -26 19 -53 44 -81 24 -26 36 -48 33 -60 -3 -12 6 -25 31 -41 19 -12 35
-29 35 -36 0 -8 18 -36 40 -61 22 -25 40 -50 40 -55 0 -5 18 -21 40 -37 45
-31 56 -59 43 -100 -9 -25 -6 -29 36 -57 35 -24 47 -38 49 -61 2 -16 13 -40
24 -52 11 -12 17 -26 13 -32 -12 -20 -44 -11 -62 17 -10 15 -32 46 -50 70 -18
24 -33 49 -33 57 0 7 -27 42 -61 76 -33 35 -73 89 -89 119 -15 30 -41 67 -58
81 -16 15 -48 61 -71 102 -23 42 -51 79 -61 82 -19 6 -90 102 -90 121 0 5 -12
27 -26 48 -15 22 -27 52 -26 67 0 15 -8 35 -19 45 -10 9 -19 23 -19 30 0 23
-34 88 -62 119 -27 28 -32 44 -29 73 1 7 -5 15 -14 18 -19 8 -20 44 -1 44 8 0
17 -11 20 -24z m-12604 -56 c0 -5 -6 -10 -13 -10 -8 0 -22 -10 -33 -21 -10
-12 -35 -32 -55 -44 -20 -13 -51 -37 -69 -53 -18 -17 -61 -45 -96 -63 -76 -38
-94 -31 -94 35 0 34 7 51 35 83 45 53 110 76 200 72 35 -2 67 0 71 4 11 11 54
9 54 -3z m393 -6 c8 -3 12 -14 10 -27 -2 -16 5 -27 29 -42 18 -11 34 -29 36
-39 9 -45 135 -176 205 -212 26 -14 32 -26 27 -49 -1 -5 -4 -51 -5 -101 -2
-71 -7 -98 -22 -120 -11 -16 -35 -52 -53 -81 -33 -49 -64 -73 -96 -73 -8 0
-32 -13 -54 -29 -23 -16 -59 -32 -82 -36 -22 -4 -56 -14 -74 -21 -18 -8 -44
-14 -58 -14 -27 0 -191 63 -216 83 -8 7 -27 19 -42 27 -35 17 -159 158 -183
207 -10 21 -22 47 -28 58 -28 55 16 190 71 219 15 8 36 24 47 36 37 42 100 77
195 110 52 19 106 42 120 52 14 10 55 27 90 37 36 10 66 19 67 20 1 0 8 -1 16
-5z m7014 -448 c17 -8 42 -28 55 -44 13 -16 37 -37 53 -48 37 -24 85 -91 85
-119 0 -11 12 -37 26 -56 38 -50 46 -76 49 -154 4 -119 -16 -165 -105 -235
-58 -46 -185 -70 -364 -70 -110 0 -153 5 -196 19 -55 18 -162 81 -175 102 -4
6 -21 19 -38 30 -26 15 -34 29 -48 89 -22 91 -13 216 21 281 12 24 26 51 30
59 8 16 45 31 125 49 28 6 77 25 110 41 132 65 184 80 266 76 42 -2 90 -11
106 -20z m-7937 -16 c0 -5 -4 -10 -10 -10 -5 0 -10 5 -10 10 0 6 5 10 10 10 6
0 10 -4 10 -10z m7163 -102 c9 -13 3 -25 -31 -62 -23 -24 -44 -57 -47 -73 -4
-15 -14 -46 -23 -68 -23 -53 -24 -233 -2 -260 13 -16 31 -44 46 -73 3 -7 4
-15 1 -19 -14 -13 -85 -6 -122 12 -33 16 -41 26 -46 56 -3 19 -14 44 -25 55
-20 20 -23 60 -11 179 7 69 53 208 75 228 17 16 131 46 161 43 8 0 19 -9 24
-18z m5763 -177 c-3 -4 7 -20 21 -35 21 -23 24 -32 15 -51 -12 -26 -57 -38
-72 -20 -16 19 -8 109 10 116 17 7 33 1 26 -10z m-1 -161 c9 -14 -13 -50 -31
-50 -8 0 -17 7 -20 15 -11 29 35 61 51 35z m796 -620 c-4 -93 -9 -100 -85
-100 -70 0 -72 2 -111 74 -31 58 -31 67 -2 93 16 16 34 21 67 21 25 -1 59 6
75 15 29 15 30 15 44 -11 10 -18 14 -50 12 -92z m156 34 c-3 -3 -12 -4 -19 -1
-8 3 -5 6 6 6 11 1 17 -2 13 -5z m316 -21 c-7 -2 -19 -2 -25 0 -7 3 -2 5 12 5
14 0 19 -2 13 -5z m-298 -43 c3 -5 -1 -10 -9 -10 -9 0 -16 5 -16 10 0 6 4 10
9 10 6 0 13 -4 16 -10z m-182 -205 c33 -7 60 -15 61 -17 19 -24 46 -103 45
-129 0 -19 2 -46 6 -61 5 -20 3 -29 -12 -36 -29 -16 -119 -18 -137 -3 -31 26
-61 87 -68 141 -12 80 -11 93 8 107 22 16 25 16 97 -2z"/>
<path d="M22002 6491 c-98 -16 -170 -160 -124 -248 11 -21 26 -51 33 -68 32
-70 68 -86 171 -78 131 11 224 82 222 168 -3 82 -17 119 -52 137 -18 9 -50 35
-71 57 -35 38 -42 41 -87 40 -27 -1 -68 -5 -92 -8z"/>
<path d="M23095 6386 c-34 -15 -85 -98 -85 -139 0 -14 -4 -29 -10 -32 -5 -3
-10 -15 -10 -25 0 -34 79 -187 105 -204 42 -27 82 -21 124 22 21 20 51 47 67
58 28 20 29 25 28 96 0 95 -23 156 -75 202 -43 40 -88 47 -144 22z"/>
<path d="M25750 5991 c-33 -22 96 -202 134 -188 30 12 16 47 -50 122 -36 41
-66 75 -67 75 -1 0 -9 -4 -17 -9z"/>
<path d="M21550 4650 c-26 -26 -25 -38 5 -52 19 -8 31 -8 50 0 30 14 32 33 7
55 -24 22 -38 21 -62 -3z"/>
<path d="M23515 4266 c-62 -20 -123 -54 -134 -74 -5 -10 -43 -46 -83 -79 -55
-46 -73 -68 -75 -88 0 -15 -14 -46 -31 -68 -33 -47 -46 -120 -32 -182 22 -96
238 -239 360 -238 91 1 245 60 297 114 18 19 57 54 87 79 54 44 55 46 56 97 0
28 4 54 8 57 19 12 10 131 -15 201 -69 193 -60 185 -201 185 -60 0 -129 2
-153 5 -24 3 -62 -1 -84 -9z m256 -171 c36 -25 71 -57 78 -72 7 -14 17 -64 22
-109 14 -114 3 -149 -67 -213 -62 -57 -101 -69 -169 -52 -24 6 -70 11 -102 11
-55 0 -62 3 -128 55 -38 30 -81 63 -95 74 -23 18 -25 25 -22 89 3 82 21 133
56 155 13 9 27 25 31 36 8 28 85 51 169 52 39 0 80 4 91 9 40 17 71 9 136 -35z"/>
<path d="M6593 12828 c-15 -7 -28 -28 -38 -63 -8 -29 -21 -58 -30 -65 -11 -9
-12 -17 -4 -32 8 -14 5 -29 -11 -62 -17 -36 -19 -54 -14 -102 4 -33 11 -65 16
-71 6 -7 7 -20 4 -29 -4 -10 1 -25 10 -35 19 -21 12 -49 -11 -49 -8 0 -15 -3
-16 -7 0 -5 -2 -26 -4 -48 -3 -22 -5 -69 -7 -105 l-2 -65 42 -6 c43 -5 82 -32
68 -46 -4 -4 -11 -1 -16 7 -8 13 -10 12 -10 -2 0 -9 -12 -30 -26 -48 -25 -29
-25 -32 -10 -49 20 -22 20 -35 1 -51 -24 -20 -18 -48 20 -87 19 -20 35 -37 35
-37 0 -1 -13 -28 -29 -61 -26 -53 -28 -63 -16 -85 14 -26 35 -103 41 -155 2
-16 9 -34 14 -39 6 -6 10 -21 10 -34 0 -58 40 -80 76 -41 10 12 30 25 43 30
28 11 22 20 -22 35 -23 8 -33 18 -35 36 -3 21 5 31 47 57 28 17 51 37 51 46 0
8 -12 40 -27 72 -32 69 -41 158 -22 215 11 35 11 44 -4 70 -9 16 -17 37 -17
46 -1 20 -34 62 -49 62 -24 0 -9 39 24 64 35 27 35 27 19 58 -10 20 -17 62
-19 112 -1 47 -8 91 -16 103 -11 19 -11 29 4 70 9 26 17 59 17 73 0 28 20 71
62 135 29 44 48 148 29 159 -16 10 -119 36 -139 35 -9 0 -27 -5 -39 -11z"/>
<path d="M13255 11196 c-27 -7 -76 -23 -108 -36 -56 -23 -58 -26 -53 -55 9
-42 33 -58 79 -50 56 8 130 -34 157 -90 11 -23 20 -48 20 -57 0 -16 39 -38 68
-38 9 0 37 -13 62 -30 25 -16 70 -35 100 -41 38 -8 66 -22 90 -44 19 -18 54
-42 77 -54 48 -24 122 -77 197 -139 28 -24 68 -53 89 -64 38 -19 40 -19 88 -2
123 44 71 -64 -96 -202 -49 -41 -49 -41 -33 -67 27 -41 51 -42 124 -6 36 18
68 38 71 45 2 7 22 24 44 38 39 26 39 27 39 90 0 48 5 69 20 89 16 20 19 34
14 71 -5 33 -2 52 10 70 9 14 16 32 16 39 0 29 -33 116 -46 121 -20 8 -44 -22
-44 -55 0 -16 -6 -45 -14 -64 l-14 -33 -63 25 c-65 26 -79 36 -278 208 -89 78
-144 115 -236 164 -66 34 -137 76 -158 93 -43 34 -143 88 -161 87 -6 0 -33 -6
-61 -13z"/>
<path d="M6985 11080 c-10 -16 9 -33 30 -28 16 3 15 5 -3 21 -14 13 -22 15
-27 7z"/>
<path d="M21584 9140 c-12 -5 -32 -25 -44 -45 -20 -32 -22 -45 -16 -101 7 -68
37 -138 63 -148 28 -11 62 21 74 69 6 25 14 45 18 45 4 0 22 13 40 28 l34 28
-17 57 c-10 33 -24 61 -36 67 -22 12 -86 12 -116 0z"/>
<path d="M20645 9064 c-51 -26 -63 -43 -74 -102 -9 -51 -8 -60 10 -82 10 -14
26 -41 35 -60 41 -89 50 -102 77 -117 36 -18 65 -12 99 24 26 27 27 30 18 103
-10 92 -50 208 -80 232 -27 22 -46 23 -85 2z"/>
<path d="M22343 8938 c-33 -23 -63 -88 -63 -135 0 -13 -7 -38 -16 -55 -14 -27
-15 -44 -6 -125 6 -51 14 -97 17 -103 10 -16 40 -12 59 9 17 19 52 102 66 159
4 18 15 43 23 55 16 24 19 181 4 205 -12 19 -49 14 -84 -10z"/>
<path d="M23275 8692 c-48 -29 -95 -89 -95 -120 0 -16 -11 -43 -25 -62 -32
-43 -35 -100 -5 -100 28 0 95 35 112 58 7 10 28 28 46 41 17 12 32 27 32 33 0
5 11 23 25 40 30 36 32 67 4 102 -24 31 -52 33 -94 8z"/>
<path d="M19738 8604 c-27 -14 -45 -54 -39 -83 3 -17 70 -102 89 -115 8 -4 20
-23 28 -42 33 -78 136 -39 159 60 5 25 1 33 -37 65 -23 20 -63 57 -89 84 -50
50 -68 55 -111 31z"/>
<path d="M23975 8203 c-11 -2 -41 -11 -68 -20 -77 -24 -197 -156 -197 -217 0
-24 38 -39 84 -32 39 6 65 20 211 111 67 41 115 89 115 113 0 41 -68 62 -145
45z"/>
<path d="M2302 7965 c-18 -8 -45 -24 -59 -35 -14 -11 -35 -20 -46 -20 -12 0
-52 -19 -91 -42 -57 -34 -83 -42 -138 -48 -65 -5 -70 -8 -118 -55 -27 -27 -56
-63 -64 -79 -8 -17 -29 -40 -46 -51 -39 -25 -140 -147 -140 -168 0 -9 -5 -19
-11 -23 -6 -4 -9 -19 -5 -36 4 -21 0 -37 -16 -59 -20 -27 -21 -33 -10 -77 7
-26 13 -93 14 -150 2 -95 4 -104 29 -131 19 -21 23 -33 16 -40 -8 -8 -8 -11 1
-11 6 0 14 -16 18 -35 3 -20 12 -41 18 -48 6 -7 24 -29 40 -49 26 -35 139
-108 167 -108 19 0 142 -50 159 -65 8 -7 51 -25 95 -40 46 -15 93 -38 110 -54
17 -16 49 -40 72 -54 23 -15 53 -42 67 -60 29 -38 76 -126 76 -143 0 -6 11
-21 25 -34 22 -21 25 -32 25 -93 0 -54 4 -74 20 -94 22 -28 25 -69 10 -123 -8
-30 -5 -44 19 -94 l28 -59 -34 -49 c-18 -28 -33 -58 -33 -67 0 -50 -105 -171
-148 -171 -26 0 -92 -30 -92 -42 0 -4 8 -16 19 -27 10 -10 21 -25 23 -32 7
-20 100 4 142 36 18 14 39 25 47 25 40 0 81 42 116 118 19 42 43 85 51 95 34
39 4 230 -41 262 -19 13 -19 15 -3 40 21 32 26 102 9 117 -16 13 -17 44 -2 54
7 4 9 24 6 51 -3 32 -13 53 -35 74 -17 17 -29 36 -26 44 4 8 -7 17 -30 25 -36
12 -45 23 -26 35 33 20 -25 87 -117 134 -30 15 -43 28 -43 42 0 23 -18 60 -34
71 -6 4 -30 8 -53 8 -46 0 -61 13 -43 35 18 22 -123 87 -199 92 -81 6 -104 18
-163 86 -29 34 -63 73 -75 86 -25 28 -46 110 -37 147 3 13 1 31 -5 38 -9 10
-9 31 -2 78 6 34 19 119 28 187 16 116 20 127 55 171 73 92 219 182 416 256
86 32 254 105 270 117 22 17 13 26 -40 42 -64 19 -123 19 -166 0z"/>
<path d="M4313 7333 c-7 -2 -13 -18 -13 -34 0 -22 6 -32 26 -39 42 -17 82 -12
94 10 14 26 6 39 -36 56 -34 14 -50 16 -71 7z"/>
<path d="M2135 5450 c-22 -4 -85 -16 -140 -25 -55 -10 -114 -26 -131 -36 -17
-11 -46 -19 -63 -19 -18 0 -48 -8 -69 -19 -20 -10 -73 -29 -117 -41 -64 -18
-89 -32 -125 -66 -25 -23 -63 -51 -85 -61 -35 -16 -40 -22 -40 -53 0 -34 -1
-35 -45 -40 -41 -5 -45 -8 -51 -37 -3 -18 -12 -39 -19 -47 -6 -8 -9 -24 -5
-35 3 -12 -4 -33 -20 -56 -14 -21 -25 -43 -25 -49 0 -7 -13 -32 -28 -57 -35
-55 -46 -103 -31 -143 10 -28 8 -36 -15 -70 -29 -43 -27 -76 5 -112 11 -11 19
-25 19 -31 0 -13 81 -99 99 -105 9 -2 14 -17 13 -39 -1 -43 46 -95 100 -110
28 -7 38 -15 38 -29 0 -12 17 -32 42 -50 32 -23 51 -30 89 -30 38 0 51 -4 59
-20 14 -27 89 -28 113 -2 24 27 21 41 -10 47 -16 4 -64 22 -108 41 -44 19 -92
34 -107 34 -37 0 -44 17 -17 38 l22 18 -57 49 c-31 27 -56 57 -56 66 0 9 -15
40 -34 67 -39 59 -56 146 -35 184 7 13 17 48 21 78 5 30 12 80 17 110 5 30 13
70 19 88 16 49 76 135 132 189 61 61 218 150 346 198 54 20 112 44 127 52 16
8 52 18 82 23 55 9 178 77 172 95 -5 13 -33 15 -82 5z"/>
<path d="M1820 4039 c-14 -4 -37 -10 -52 -13 -16 -4 -28 -13 -28 -21 0 -8 12
-17 28 -20 15 -3 54 -12 87 -20 33 -8 105 -20 160 -26 55 -6 112 -18 128 -26
68 -34 264 -51 372 -31 50 9 70 8 116 -6 76 -21 147 -71 184 -127 16 -25 46
-60 66 -77 20 -18 45 -49 54 -70 10 -20 26 -48 36 -61 11 -13 19 -37 19 -53 0
-16 5 -38 11 -49 12 -22 15 -86 5 -116 -3 -10 -26 -29 -50 -40 -27 -14 -49
-33 -57 -51 -7 -16 -25 -38 -40 -48 -22 -15 -27 -24 -22 -45 5 -29 -12 -52
-72 -93 -24 -17 -26 -22 -20 -62 4 -31 2 -50 -9 -67 -18 -27 -9 -76 19 -104
13 -12 15 -26 10 -59 -6 -40 -4 -44 30 -70 29 -22 35 -32 30 -51 -7 -28 11
-87 38 -123 14 -18 18 -39 16 -87 -1 -34 3 -68 9 -75 6 -7 31 -19 56 -27 25
-7 46 -17 46 -22 0 -5 8 -9 18 -9 14 -1 13 -4 -8 -21 l-24 -21 22 -41 c12 -23
22 -52 22 -64 0 -11 12 -32 28 -45 28 -25 40 -43 79 -118 13 -25 37 -65 53
-90 16 -25 37 -62 46 -84 21 -48 94 -86 165 -86 26 0 65 -7 88 -15 31 -11 68
-13 139 -9 146 8 235 4 252 -11 8 -7 51 -20 95 -30 44 -9 91 -21 105 -26 14
-5 97 -11 185 -14 88 -2 174 -9 191 -15 22 -8 39 -8 59 0 15 6 42 8 60 4 21
-4 44 0 63 10 17 9 48 16 69 16 79 0 343 106 405 163 28 26 64 130 51 150 -7
11 -11 90 -17 357 -1 62 -6 92 -19 110 -9 13 -17 33 -17 43 0 10 -10 40 -21
68 -12 27 -19 58 -16 69 3 11 -3 31 -15 45 -15 19 -19 34 -14 56 9 46 -15 88
-87 155 -56 52 -67 68 -73 105 -6 38 -20 56 -118 154 -64 63 -145 133 -191
162 -87 56 -93 62 -131 110 -16 20 -45 39 -82 53 -31 11 -74 30 -94 41 -29 15
-67 22 -161 28 -67 4 -133 13 -145 20 -12 6 -22 9 -22 5 0 -4 -11 5 -24 19
-38 41 -123 46 -341 19 -33 -5 -74 -16 -92 -25 -18 -9 -45 -17 -60 -17 -16 0
-44 -11 -63 -23 -19 -13 -50 -29 -69 -35 -66 -23 -81 -17 -153 59 -38 39 -68
78 -68 87 0 28 -54 101 -90 120 -19 10 -34 25 -32 31 1 7 -13 30 -32 51 -19
21 -39 48 -46 59 -6 12 -43 38 -83 58 l-72 37 -165 4 c-91 2 -191 3 -222 2
-33 0 -70 6 -85 14 -16 7 -64 19 -108 26 -44 6 -96 16 -115 22 -43 13 -156 18
-190 7z m2083 -591 c31 -24 53 -32 105 -38 37 -4 84 -15 106 -24 21 -9 58 -16
81 -16 42 0 117 -33 160 -71 11 -9 46 -28 78 -41 49 -21 63 -33 97 -86 22 -34
53 -68 68 -76 25 -13 112 -113 112 -129 0 -3 17 -36 39 -74 21 -37 48 -99 60
-138 l23 -70 -31 -27 c-37 -33 -94 -37 -205 -14 -55 12 -79 13 -118 4 -37 -9
-64 -9 -111 1 -42 8 -72 9 -95 2 -17 -5 -69 -13 -115 -16 -106 -9 -297 -49
-345 -73 -20 -11 -53 -25 -73 -31 -20 -6 -45 -21 -54 -31 -17 -19 -17 -21 10
-60 16 -23 46 -55 67 -71 21 -17 38 -37 38 -44 0 -7 11 -20 24 -29 28 -17 51
-63 60 -116 4 -19 18 -52 31 -72 14 -21 25 -47 25 -57 0 -11 13 -35 29 -53 37
-44 57 -84 64 -133 3 -22 8 -47 11 -55 3 -8 -4 -28 -17 -44 -21 -26 -30 -29
-86 -31 -34 -1 -67 -7 -73 -13 -18 -18 -42 -14 -56 8 -8 13 -23 20 -45 20 -17
0 -59 10 -92 21 -51 17 -66 18 -100 9 -81 -23 -181 39 -266 162 -21 32 -39 60
-39 63 0 10 -64 89 -88 108 -26 22 -92 147 -92 176 0 11 -5 32 -11 48 -6 15
-12 44 -13 64 -3 45 -50 144 -87 184 -26 28 -28 33 -17 67 10 35 9 39 -20 73
-18 20 -32 41 -32 48 0 7 -5 50 -11 97 -14 114 -12 139 15 180 13 19 26 45 30
57 9 30 64 76 127 107 28 15 65 37 80 50 16 14 45 30 66 36 21 7 47 18 58 24
11 7 52 23 90 35 39 13 93 35 120 49 85 43 191 69 290 70 86 1 92 -1 128 -30z
m364 -870 c6 -7 13 -33 17 -58 4 -25 21 -66 37 -92 17 -26 29 -55 28 -65 -2
-18 12 -48 62 -126 18 -28 31 -68 38 -117 29 -193 27 -187 62 -206 30 -15 33
-15 57 3 43 32 47 45 35 130 -6 43 -14 92 -17 108 -4 17 -12 55 -18 85 -13 66
-56 218 -69 242 -14 28 -11 56 11 78 16 16 33 20 89 20 60 0 74 -3 100 -26 17
-14 46 -27 64 -29 60 -6 113 -24 134 -47 29 -33 72 -129 83 -188 5 -28 12
-126 16 -218 l6 -167 -27 -48 c-29 -51 -103 -114 -144 -123 -14 -3 -52 -15
-84 -26 -52 -19 -83 -21 -287 -22 l-228 -1 -30 28 c-28 26 -50 63 -68 112 -4
11 -16 72 -26 135 -38 233 -46 259 -91 285 -16 10 -37 36 -48 61 -10 25 -33
62 -50 84 -24 30 -32 50 -33 82 -1 43 0 43 57 72 48 24 75 30 165 36 59 4 117
8 128 8 12 1 26 -4 31 -10z"/>
</g>
</svg>
