<?xml version="1.0" standalone="no"?>
<!DOCTYPE svg PUBLIC "-//W3C//DTD SVG 20010904//EN"
 "http://www.w3.org/TR/2001/REC-SVG-20010904/DTD/svg10.dtd">
<svg version="1.0" xmlns="http://www.w3.org/2000/svg"
 width="3281.892978pt" height="2103.428793pt" viewBox="0 0 3281.892978 2103.428793"
 preserveAspectRatio="xMidYMid meet">
<metadata>
Created by potrace 1.13, written by Peter Selinger 2001-2015
</metadata>
<g transform="translate(-146.856220,2273.816492) scale(0.100000,-0.100000)"
fill="#333333" stroke="none">
<path d="M11000 22733 c-14 -3 -46 -21 -71 -40 -92 -70 -144 -154 -141 -228 1
-16 -4 -40 -10 -52 -8 -17 -8 -29 0 -45 22 -47 34 -103 37 -177 2 -42 7 -151
11 -242 5 -124 3 -172 -6 -189 -7 -12 -16 -53 -21 -89 -12 -91 -17 -113 -29
-125 -19 -19 -10 -42 34 -85 36 -35 53 -44 91 -49 l47 -5 64 69 c39 42 64 78
64 91 0 12 11 46 24 76 15 34 21 64 18 86 -3 25 1 38 21 59 14 15 27 43 30 62
28 183 28 196 16 248 -7 29 -16 55 -21 58 -4 3 -8 34 -8 70 0 36 -5 75 -11 86
-18 33 -20 135 -3 149 15 12 19 41 7 53 -5 4 -9 22 -11 39 -11 143 -14 157
-35 172 -21 15 -47 17 -97 8z"/>
<path d="M9490 21894 c-25 -9 -61 -28 -80 -43 -19 -16 -46 -31 -58 -35 -34
-11 -62 -63 -62 -115 0 -40 5 -49 43 -85 24 -23 57 -61 72 -86 16 -25 41 -59
57 -75 15 -17 39 -60 54 -95 14 -36 39 -80 55 -98 16 -18 29 -41 29 -51 0 -10
17 -30 38 -45 22 -15 45 -38 53 -52 21 -39 58 -53 152 -55 79 -2 89 -1 112 21
14 13 25 27 25 32 0 4 23 40 51 79 77 108 77 109 38 162 -19 24 -48 55 -66 68
-17 13 -38 35 -45 49 -6 14 -17 32 -24 40 -6 8 -14 26 -17 40 -4 15 -25 46
-48 70 -60 66 -99 121 -99 142 0 11 -20 40 -45 66 -32 35 -58 53 -98 65 -65
20 -79 21 -137 1z"/>
<path d="M13724 21039 c-25 -9 -229 -14 -350 -9 -31 1 -63 -4 -82 -14 -19 -10
-56 -16 -94 -16 -60 0 -162 -18 -238 -42 -19 -6 -68 -13 -108 -15 -41 -2 -82
-8 -92 -13 -10 -6 -29 -10 -42 -10 -13 0 -42 -9 -63 -20 -22 -11 -56 -23 -75
-26 -19 -2 -44 -6 -55 -7 -11 -2 -61 -16 -112 -32 -70 -21 -105 -39 -145 -72
-59 -49 -124 -76 -219 -93 -35 -6 -84 -18 -109 -27 -25 -8 -60 -20 -79 -26
-19 -7 -42 -24 -50 -39 -9 -15 -28 -33 -43 -39 -15 -6 -47 -30 -73 -54 -60
-57 -135 -105 -218 -140 -41 -17 -76 -39 -88 -56 -11 -15 -36 -33 -57 -39 -53
-17 -82 -37 -92 -66 -5 -13 -30 -39 -56 -57 -78 -54 -114 -94 -114 -125 0 -38
-48 -83 -92 -87 -24 -2 -37 -10 -48 -29 -8 -14 -23 -29 -33 -32 -9 -3 -24 -18
-32 -34 -8 -15 -27 -38 -42 -50 -69 -54 -124 -114 -130 -142 -7 -33 -82 -96
-148 -124 -22 -9 -52 -25 -67 -35 -14 -11 -38 -19 -51 -19 -25 0 -40 -12 -43
-38 -4 -22 -156 -166 -219 -207 -33 -21 -81 -60 -106 -86 -35 -35 -57 -49 -85
-54 -22 -3 -52 -13 -69 -22 -16 -9 -54 -29 -84 -44 -29 -15 -75 -49 -101 -76
-26 -26 -62 -62 -81 -78 -82 -73 -111 -119 -135 -210 -13 -53 -31 -95 -43
-106 -12 -11 -21 -28 -21 -38 0 -22 -19 -31 -64 -31 -29 0 -34 -5 -64 -68 -18
-38 -32 -75 -32 -83 0 -24 -73 -131 -128 -188 -52 -53 -58 -70 -53 -136 4 -52
-9 -94 -40 -129 -30 -35 -37 -72 -42 -238 -2 -34 -8 -53 -27 -73 -22 -23 -23
-29 -12 -57 12 -32 6 -54 -22 -77 -11 -9 -13 -28 -9 -84 5 -66 3 -75 -19 -102
-40 -50 -61 -126 -49 -173 6 -22 8 -48 4 -58 -14 -39 -63 -92 -91 -97 -24 -5
-34 -17 -60 -78 -18 -39 -32 -82 -32 -94 0 -14 -11 -32 -27 -43 -25 -18 -28
-28 -36 -108 -11 -121 -10 -135 13 -166 14 -20 18 -33 11 -50 -10 -27 10 -81
44 -118 18 -20 23 -36 22 -83 0 -45 5 -65 23 -89 17 -24 21 -38 16 -68 -5 -30
1 -53 24 -105 16 -36 29 -69 28 -73 -1 -4 4 -17 11 -30 9 -17 10 -31 2 -53 -5
-16 -8 -29 -5 -29 3 0 -4 -13 -15 -29 -27 -37 -30 -154 -5 -189 11 -16 14 -32
9 -50 -4 -15 -9 -46 -10 -69 -2 -38 0 -43 30 -57 45 -22 52 -33 60 -101 4 -33
11 -68 16 -77 6 -12 6 -25 -1 -38 -9 -18 -6 -22 27 -36 64 -27 68 -31 65 -54
-1 -13 5 -31 14 -41 12 -13 14 -28 9 -58 -6 -37 -4 -41 36 -78 24 -21 82 -77
129 -124 70 -72 94 -89 139 -103 31 -10 78 -37 113 -65 41 -34 72 -50 99 -54
31 -4 50 -16 87 -55 26 -27 70 -61 97 -75 28 -13 77 -38 110 -54 33 -16 71
-36 85 -45 14 -9 39 -20 55 -24 17 -4 35 -10 40 -14 6 -4 26 -11 45 -15 19 -4
46 -15 60 -25 14 -10 41 -21 60 -25 19 -4 55 -20 80 -35 49 -30 108 -50 153
-50 15 0 42 -7 59 -16 19 -10 77 -20 147 -26 66 -5 131 -16 151 -25 25 -11 70
-17 153 -18 109 -2 120 -4 159 -30 29 -19 58 -29 102 -32 34 -3 72 -11 86 -19
16 -8 39 -10 60 -5 43 9 157 -4 176 -20 30 -24 180 -26 262 -3 31 8 95 19 142
24 200 18 399 49 427 66 22 14 73 29 153 44 25 5 77 21 115 35 39 14 93 34
121 45 63 22 128 64 148 95 20 30 148 115 174 115 23 0 140 92 149 117 4 9 39
31 80 50 85 39 226 157 241 203 7 19 24 36 46 46 33 16 35 16 67 -9 33 -25 33
-26 36 -122 2 -81 6 -101 25 -127 12 -18 23 -49 24 -72 2 -37 5 -42 42 -57 46
-20 65 -48 56 -83 -4 -19 1 -29 24 -46 26 -19 31 -31 37 -84 5 -44 15 -73 36
-103 16 -23 29 -53 29 -67 0 -31 25 -73 58 -100 18 -14 22 -25 17 -43 -3 -14
-2 -30 3 -36 11 -15 28 -78 37 -134 4 -28 18 -54 38 -75 26 -28 31 -42 35 -94
4 -65 -10 -106 -53 -154 -105 -116 -135 -144 -182 -176 -30 -20 -58 -46 -63
-57 -4 -12 -19 -33 -33 -46 -32 -29 -46 -97 -25 -114 8 -7 21 -28 28 -47 19
-49 56 -97 90 -115 25 -13 34 -13 77 0 51 15 94 53 131 116 12 19 39 52 62 72
32 30 39 43 34 61 -4 19 2 29 31 52 20 15 42 39 50 54 8 15 50 60 94 100 94
84 100 84 183 17 41 -33 54 -51 59 -78 3 -19 13 -46 22 -59 9 -14 17 -39 17
-58 0 -34 13 -50 80 -101 26 -19 31 -29 28 -56 -3 -28 6 -42 65 -104 37 -39
76 -71 86 -71 31 0 85 22 111 44 14 12 38 28 54 36 49 25 86 107 56 125 -11 7
-7 189 4 216 5 11 -6 32 -33 63 -23 26 -41 58 -41 71 0 30 -56 99 -98 119 -19
9 -50 30 -70 46 -21 16 -54 32 -74 35 -41 8 -61 26 -75 70 -5 17 -29 45 -54
63 -24 19 -60 48 -79 66 -19 18 -45 38 -57 45 -13 6 -30 26 -39 44 -9 18 -26
41 -39 52 -44 37 -125 159 -130 195 -3 19 -10 54 -15 78 -6 23 -10 59 -10 80
0 38 -20 115 -39 148 -21 39 -61 137 -61 150 0 7 -9 28 -20 46 -11 18 -20 50
-20 71 0 22 -6 51 -14 65 -21 40 -56 154 -56 180 0 12 -6 33 -14 45 -7 12 -16
49 -19 82 -7 68 -36 142 -67 170 -11 10 -20 23 -20 29 0 6 -11 34 -25 61 -30
61 -31 75 -5 108 11 14 20 32 20 40 0 9 5 19 10 22 6 3 28 33 50 65 24 36 57
69 83 84 23 14 58 41 77 61 18 19 38 35 43 35 6 0 31 19 58 43 26 23 67 57 91
75 116 88 159 125 169 143 12 23 85 58 139 68 27 5 36 12 38 29 2 13 14 27 28
32 13 5 37 19 53 31 15 11 47 25 71 30 24 6 53 21 66 34 31 33 95 48 182 42
58 -4 78 -10 103 -31 17 -14 35 -26 41 -26 5 0 24 -6 41 -14 37 -16 118 -43
164 -55 17 -5 47 -18 65 -29 18 -11 50 -24 71 -27 38 -8 119 -81 287 -261 30
-32 77 -75 105 -95 27 -19 52 -44 54 -54 2 -11 18 -36 35 -57 36 -41 47 -61
72 -131 12 -33 25 -52 42 -58 19 -7 23 -14 18 -33 -3 -14 2 -42 14 -68 11 -23
20 -54 20 -68 0 -14 7 -34 15 -44 8 -11 15 -28 15 -38 0 -10 11 -41 25 -68 14
-28 23 -50 21 -50 -7 0 33 -88 63 -140 14 -25 31 -74 38 -110 20 -112 32 -159
48 -189 8 -17 15 -50 15 -75 0 -25 4 -48 10 -51 5 -3 7 -18 4 -33 -3 -15 2
-47 11 -72 26 -68 33 -174 19 -285 -3 -22 -6 -62 -8 -90 -2 -27 -10 -81 -19
-118 -10 -38 -17 -83 -17 -101 0 -19 -9 -45 -21 -60 -16 -21 -19 -34 -14 -64
5 -29 2 -42 -9 -52 -9 -7 -16 -22 -16 -34 0 -24 -28 -54 -72 -76 -17 -8 -39
-36 -59 -74 -17 -34 -40 -70 -52 -81 -34 -31 -66 -80 -82 -124 -8 -23 -25 -56
-38 -74 -29 -40 -67 -134 -67 -166 0 -12 -10 -36 -21 -53 -23 -32 -51 -113
-42 -122 3 -2 -4 -18 -16 -34 -12 -17 -21 -35 -21 -41 0 -7 -8 -24 -17 -38
-28 -42 -43 -119 -27 -141 8 -12 12 -43 10 -86 -3 -57 -8 -71 -30 -95 -23 -24
-26 -37 -30 -111 -4 -65 -2 -88 10 -101 17 -19 44 -117 44 -162 0 -18 7 -42
15 -54 23 -33 29 -96 12 -129 -11 -22 -12 -35 -5 -48 7 -12 7 -25 0 -40 -7
-16 -6 -29 2 -45 9 -16 10 -37 3 -74 -14 -79 -37 -125 -78 -158 -43 -34 -74
-109 -64 -155 13 -58 17 -65 46 -80 22 -11 28 -20 24 -33 -4 -12 7 -33 30 -61
20 -24 34 -49 31 -56 -3 -8 1 -29 9 -47 8 -19 16 -72 18 -119 3 -47 10 -95 17
-108 10 -18 9 -28 -1 -47 -10 -19 -11 -28 -1 -41 7 -9 15 -24 18 -32 24 -63
24 -62 57 -57 41 6 61 -5 76 -41 8 -18 24 -33 46 -41 22 -8 35 -19 35 -30 0
-18 39 -61 56 -61 15 0 94 -70 94 -83 1 -25 39 -56 76 -63 71 -12 146 -63 187
-127 9 -15 26 -27 37 -27 11 0 28 -8 38 -18 10 -9 34 -28 55 -42 20 -14 37
-29 37 -33 0 -12 129 -137 141 -137 22 0 138 -63 209 -114 67 -48 79 -53 115
-48 33 3 51 -2 93 -27 29 -17 62 -31 73 -31 11 0 22 -6 25 -14 8 -21 47 -29
154 -31 92 -2 133 -8 175 -25 79 -33 135 -51 142 -47 4 2 46 -2 93 -9 47 -7
100 -10 118 -7 18 3 38 1 45 -5 6 -6 37 -13 67 -16 35 -4 68 -16 92 -32 23
-16 44 -24 54 -20 11 4 32 -4 55 -20 21 -14 42 -23 47 -20 6 3 25 0 43 -8 30
-12 44 -11 124 10 50 13 95 25 102 27 7 2 16 6 19 10 17 16 64 6 79 -17 20
-30 56 -37 205 -37 98 0 123 -4 170 -24 82 -35 121 -40 167 -20 48 22 74 32
95 38 27 9 421 -13 453 -25 17 -6 53 -22 82 -35 41 -19 61 -23 100 -18 62 8
140 -13 223 -60 48 -27 83 -39 135 -45 127 -16 144 -20 187 -49 24 -15 63 -36
88 -45 91 -36 239 -140 268 -191 16 -26 29 -35 59 -40 55 -9 67 -15 117 -62
24 -24 71 -58 103 -77 32 -19 63 -45 68 -58 6 -12 25 -30 43 -40 49 -24 72
-48 72 -75 0 -17 12 -31 46 -51 86 -51 165 -113 184 -144 10 -17 22 -54 25
-82 4 -28 15 -71 26 -95 11 -25 16 -53 13 -67 -4 -16 -1 -31 10 -43 17 -19 55
-149 56 -190 0 -14 7 -32 15 -41 9 -10 18 -41 22 -70 4 -34 14 -61 29 -77 17
-18 24 -41 28 -91 4 -37 11 -87 17 -112 5 -25 11 -58 13 -75 1 -16 23 -68 48
-115 37 -68 51 -85 70 -86 60 -3 58 -1 55 -51 -2 -27 -9 -59 -16 -72 -21 -38
11 -103 93 -191 79 -84 98 -130 89 -211 -4 -39 -2 -49 18 -68 14 -12 24 -35
25 -54 3 -40 25 -100 46 -124 23 -26 27 -82 10 -132 -12 -36 -13 -53 -3 -100
26 -124 30 -148 30 -189 1 -23 8 -53 16 -66 15 -23 37 -154 28 -169 -10 -16
10 -47 43 -68 28 -17 34 -26 30 -44 -3 -13 0 -27 8 -34 7 -6 19 -32 26 -57 7
-26 30 -68 51 -94 20 -26 39 -58 41 -71 2 -14 11 -25 23 -27 27 -5 55 -31 55
-52 0 -34 39 -68 97 -86 38 -11 69 -29 90 -50 21 -23 41 -34 60 -34 20 0 45
-16 88 -55 37 -34 69 -55 83 -55 13 0 32 -5 42 -10 11 -6 43 -15 72 -20 29 -5
91 -27 138 -49 103 -48 183 -66 242 -57 108 19 108 19 114 2 4 -9 16 -22 28
-28 24 -14 126 -30 171 -27 34 2 129 2 190 -1 22 0 81 2 130 5 50 2 124 6 165
6 58 1 97 9 170 36 157 56 190 71 238 106 26 19 64 40 84 46 21 7 40 17 44 22
3 5 28 22 55 37 94 51 124 68 179 103 30 19 72 41 94 49 24 9 42 24 46 36 3
11 41 53 84 94 44 41 92 95 108 120 30 47 143 182 216 257 43 43 81 112 82
144 0 9 17 38 38 65 21 27 52 79 69 115 19 40 43 74 62 88 22 16 31 30 31 50
0 16 10 37 25 51 14 13 25 32 25 42 0 11 20 63 46 116 67 144 76 160 110 200
25 30 94 159 94 177 0 2 13 33 29 69 27 58 63 106 153 206 32 36 61 82 97 157
11 23 38 62 61 86 22 24 40 51 40 59 0 9 32 48 71 89 40 40 77 87 84 104 8 16
33 49 57 71 23 23 70 76 103 117 33 41 74 83 90 93 38 22 205 191 205 207 1
18 120 104 155 113 17 4 44 14 60 22 19 10 68 17 131 19 84 3 110 0 153 -17
28 -11 62 -20 76 -20 13 0 43 -8 67 -19 24 -10 66 -23 94 -29 59 -13 217 -107
310 -184 25 -21 49 -38 53 -38 4 0 23 -15 42 -33 20 -17 62 -48 93 -67 58 -35
125 -102 181 -180 17 -22 40 -53 52 -68 28 -33 113 -161 113 -170 0 -3 9 -15
19 -26 10 -12 29 -46 42 -76 13 -32 41 -74 68 -100 54 -53 81 -104 81 -153 0
-28 8 -43 40 -73 22 -21 40 -47 40 -59 1 -28 20 -58 58 -90 17 -15 32 -33 32
-40 0 -7 12 -24 28 -37 15 -13 44 -49 65 -81 20 -31 41 -57 46 -57 6 0 13 -10
17 -22 4 -13 19 -41 34 -63 68 -101 80 -123 80 -144 0 -12 6 -34 14 -49 7 -15
16 -43 20 -62 3 -19 20 -51 36 -72 17 -20 30 -43 30 -52 0 -8 18 -50 40 -93
27 -54 44 -104 54 -163 8 -47 22 -107 31 -135 9 -27 21 -66 27 -87 6 -20 24
-46 39 -57 16 -12 36 -38 44 -57 8 -20 26 -49 39 -65 14 -16 28 -39 31 -51 4
-13 18 -35 32 -50 14 -14 28 -41 32 -60 5 -23 18 -41 46 -60 22 -14 49 -42 59
-62 10 -20 26 -38 35 -41 17 -5 72 -51 122 -101 17 -17 41 -27 70 -31 30 -4
61 -18 98 -46 53 -39 80 -49 191 -67 30 -5 71 -14 90 -20 19 -5 53 -10 76 -10
27 0 51 -7 69 -22 25 -19 32 -20 71 -10 60 16 90 15 131 -4 29 -14 40 -15 74
-5 35 10 48 9 99 -8 45 -16 65 -18 91 -11 19 6 90 9 159 8 111 -1 130 1 167
20 23 12 47 22 53 22 6 0 22 7 36 16 18 12 45 17 92 16 37 -1 88 5 115 14 30
10 61 13 87 9 34 -6 47 -1 114 39 42 25 84 46 94 46 11 0 41 12 68 26 27 14
68 27 91 29 67 4 218 85 305 163 151 136 241 236 336 376 47 69 95 122 146
161 16 11 28 31 28 45 1 14 8 33 16 43 9 9 20 27 26 39 6 12 25 29 41 38 24
13 32 27 41 66 5 27 15 60 21 74 23 54 34 126 23 155 -8 21 -7 31 4 44 17 20
27 51 36 121 10 70 33 158 48 187 7 12 12 36 12 53 0 22 9 40 28 58 40 39 72
98 72 136 0 22 8 40 25 56 14 13 25 28 25 34 0 6 9 22 20 36 11 14 20 34 20
46 0 11 13 41 30 67 16 25 29 59 29 74 -1 42 12 85 32 112 11 13 19 32 19 42
0 11 4 27 10 37 27 50 50 115 50 145 0 23 8 41 25 57 14 13 23 30 21 37 -3 7
8 23 24 35 27 19 30 28 30 75 0 43 4 54 21 64 22 11 79 125 79 158 0 11 11 33
25 49 15 19 27 46 29 72 2 23 13 52 24 63 42 49 60 92 67 171 4 44 12 90 18
103 9 21 6 28 -28 63 l-38 39 32 48 c43 64 48 90 24 114 -21 22 -89 27 -183
14 -57 -8 -120 -44 -120 -70 0 -8 -19 -36 -42 -64 -50 -57 -118 -163 -118
-183 0 -7 -9 -30 -20 -51 -11 -20 -20 -52 -20 -70 0 -18 -6 -41 -13 -52 -7
-11 -21 -42 -31 -68 -14 -37 -28 -55 -61 -75 -145 -92 -369 -287 -399 -349
-17 -36 -25 -50 -50 -98 -16 -29 -105 -115 -152 -147 -21 -14 -61 -47 -89 -73
-27 -25 -65 -54 -83 -62 -19 -9 -38 -26 -44 -37 -5 -12 -23 -31 -39 -41 -17
-11 -39 -34 -50 -51 -32 -53 -106 -114 -135 -114 -20 0 -44 -17 -91 -65 -35
-36 -76 -68 -91 -71 -15 -4 -44 -18 -64 -31 -21 -12 -41 -23 -45 -23 -13 0
-129 -49 -174 -74 -26 -15 -75 -30 -118 -36 -40 -6 -85 -17 -100 -24 -34 -19
-156 -46 -202 -46 -20 0 -61 5 -90 11 -30 6 -74 12 -99 14 -70 4 -274 51 -302
69 -34 22 -116 46 -161 46 -36 0 -143 45 -177 74 -8 8 -36 23 -62 34 -34 15
-49 28 -54 46 -3 14 -17 32 -30 41 -19 12 -23 21 -18 40 8 34 -8 51 -66 70
-58 19 -108 60 -146 120 -15 25 -30 45 -33 45 -4 0 -17 9 -30 19 -19 15 -22
21 -12 39 9 17 3 32 -36 97 -26 43 -58 85 -72 94 -40 27 -81 75 -88 101 -4 14
-17 33 -30 43 -13 10 -23 27 -23 36 0 31 -84 100 -131 107 -36 6 -44 12 -56
43 -14 33 -98 111 -121 111 -14 0 -42 34 -42 52 0 8 -11 25 -25 38 -15 14 -25
35 -25 50 0 32 -36 83 -114 163 -31 32 -56 63 -55 70 1 7 -4 26 -11 42 -7 17
-14 43 -16 59 -1 20 -16 43 -45 71 -24 22 -57 64 -74 93 -16 28 -33 52 -37 52
-5 0 -8 15 -8 34 0 27 -9 42 -45 77 -26 26 -45 53 -45 66 0 26 -40 59 -83 68
-18 4 -39 13 -47 19 -8 7 -32 21 -53 31 -21 11 -40 30 -43 42 -8 30 -32 49
-81 62 -26 7 -49 22 -62 39 -10 15 -40 38 -66 51 -41 20 -51 22 -90 12 -63
-16 -105 -14 -105 4 0 29 -43 45 -113 43 -64 -3 -68 -2 -91 27 -24 30 -25 30
-115 27 -75 -2 -98 1 -130 18 -44 22 -92 26 -122 9 -14 -7 -30 -7 -55 1 -45
15 -253 17 -329 3 -33 -6 -101 -19 -152 -27 -50 -9 -107 -23 -127 -31 -19 -8
-55 -15 -80 -15 -28 0 -59 -8 -81 -21 -19 -12 -54 -25 -78 -31 -23 -5 -49 -15
-57 -23 -8 -7 -34 -18 -58 -25 -24 -6 -46 -18 -49 -26 -3 -8 -22 -23 -42 -33
-83 -42 -138 -76 -171 -106 -58 -53 -111 -89 -154 -105 -22 -9 -45 -25 -51
-37 -6 -11 -31 -36 -55 -55 -25 -19 -90 -79 -145 -132 -55 -54 -122 -113 -150
-131 -27 -18 -72 -57 -100 -86 -58 -60 -126 -111 -208 -158 -32 -18 -97 -72
-145 -119 -66 -66 -108 -98 -172 -131 -78 -41 -231 -148 -246 -173 -3 -5 -25
-18 -48 -29 -82 -39 -110 -62 -230 -187 -17 -18 -51 -38 -76 -46 -25 -7 -75
-34 -112 -60 -36 -25 -73 -46 -83 -46 -25 0 -57 -19 -81 -46 -20 -24 -26 -25
-140 -25 -187 0 -221 1 -351 15 -103 12 -127 18 -151 38 -16 13 -51 32 -77 43
-91 34 -209 146 -234 220 -7 22 -20 47 -28 57 -13 15 -20 35 -22 65 -1 6 -12
24 -24 40 -13 15 -27 40 -30 54 -6 25 -54 74 -131 133 -31 23 -37 33 -33 55 3
14 1 33 -3 42 -5 8 -10 27 -12 41 -2 14 -8 32 -14 39 -15 20 -39 82 -36 93 2
5 -6 18 -16 30 -11 11 -22 33 -26 48 -3 15 -21 35 -41 48 -27 17 -35 28 -35
51 0 16 -6 32 -14 35 -28 11 -49 92 -43 165 3 39 2 71 -4 74 -5 4 -9 23 -9 44
0 21 -6 56 -14 77 -7 22 -16 60 -19 87 -6 50 -22 80 -56 104 -15 10 -19 21
-15 38 4 16 -1 34 -15 54 -12 16 -21 38 -21 49 0 12 -14 28 -35 41 -25 14 -35
27 -35 45 0 14 -4 28 -10 31 -5 3 -10 19 -10 35 0 29 -15 40 -55 40 -13 0 -27
5 -30 10 -4 6 -22 17 -41 25 -19 8 -34 21 -34 30 0 9 -13 24 -30 33 -22 13
-30 24 -30 46 0 20 -13 43 -42 75 -54 59 -90 81 -133 81 -27 0 -42 8 -67 36
-18 20 -57 48 -87 63 -30 14 -59 35 -65 45 -14 25 -81 86 -117 108 -21 13 -29
26 -29 46 0 30 -54 83 -117 116 -18 9 -37 25 -43 35 -5 11 -33 27 -62 37 -29
9 -69 28 -88 41 -19 12 -41 23 -49 23 -7 0 -28 9 -45 19 -17 10 -47 22 -66 26
-33 7 -88 43 -138 92 -13 12 -40 27 -60 34 -20 7 -57 23 -83 35 -26 13 -56 24
-68 24 -12 0 -47 18 -79 39 -48 33 -73 45 -122 56 -41 10 -73 22 -112 41 -26
13 -62 24 -80 24 -19 0 -69 18 -113 40 -65 32 -87 38 -117 33 -25 -3 -44 -1
-54 8 -11 9 -37 12 -78 10 -33 -2 -77 -3 -96 -3 -19 1 -61 1 -94 2 -32 0 -71
7 -85 15 -19 9 -79 14 -202 17 -147 2 -179 0 -199 -13 -40 -25 -69 -29 -107
-13 -19 9 -117 25 -217 36 -215 25 -324 31 -458 26 -24 -1 -81 5 -128 12 -47
7 -103 12 -124 11 -22 -1 -54 5 -72 14 -18 8 -39 12 -48 9 -9 -3 -27 1 -41 10
-13 9 -31 16 -40 16 -9 0 -42 14 -75 30 -40 20 -68 28 -84 24 -33 -8 -114 35
-171 91 -26 25 -54 45 -63 45 -23 0 -91 43 -135 84 -21 20 -42 36 -47 36 -5 0
-18 16 -30 34 -25 42 -73 73 -136 89 -39 10 -50 19 -71 57 -28 50 -36 57 -110
101 -38 22 -53 37 -53 52 0 14 -21 41 -53 72 -41 38 -61 67 -82 120 -15 39
-39 82 -52 96 -15 16 -22 34 -20 50 2 13 -2 28 -8 34 -20 16 -56 143 -54 188
1 23 -2 51 -8 62 -19 36 -31 85 -27 103 3 9 -2 30 -10 46 -11 22 -12 34 -3 53
8 19 8 29 -2 45 -10 16 -10 26 0 49 7 18 9 49 6 78 -4 35 -1 54 10 71 15 21
18 44 27 165 2 28 4 56 5 63 0 7 15 26 31 44 29 30 30 32 14 56 -16 24 -15 26
19 56 22 20 38 44 42 66 4 19 12 44 18 55 15 26 19 63 18 157 -1 69 1 81 29
121 36 54 37 61 5 103 -23 30 -25 42 -26 136 -1 79 4 123 21 188 13 47 24 101
26 120 5 67 24 175 38 222 8 26 12 62 10 80 -5 26 0 39 18 58 20 22 23 36 22
95 0 39 -4 82 -8 97 -6 20 -2 39 13 68 19 37 20 43 6 63 -13 19 -13 23 1 39
15 15 15 23 3 60 -23 78 -8 292 26 359 23 44 22 116 -4 199 -20 62 -33 85 -81
135 -31 33 -65 79 -75 102 -10 23 -26 50 -36 59 -11 10 -19 29 -19 43 0 14 -9
41 -20 59 -11 18 -20 44 -20 58 0 14 -7 38 -15 54 -9 17 -17 47 -19 67 -2 21
-11 55 -20 77 -9 21 -16 60 -16 85 0 33 -6 54 -20 68 -10 12 -26 52 -35 89 -8
37 -20 73 -26 80 -6 7 -12 49 -14 93 -2 63 -8 87 -25 111 -17 24 -21 41 -17
70 4 31 1 43 -19 61 -22 21 -40 70 -36 96 2 7 -4 23 -12 35 -45 73 -73 323
-39 360 10 11 13 26 9 44 -5 17 -1 35 9 50 12 19 13 28 3 49 -9 20 -9 36 0 71
7 24 12 55 12 69 0 13 4 26 9 29 5 4 16 32 25 64 9 31 24 77 33 102 16 45 24
104 23 170 -3 145 0 191 9 209 9 16 8 34 -4 75 -15 50 -15 57 0 80 14 21 14
31 4 65 -9 30 -9 47 0 68 6 15 10 57 9 93 -1 36 0 80 2 98 2 23 -3 39 -18 55
-12 13 -22 30 -22 38 0 8 -7 25 -16 37 -8 12 -15 32 -14 45 1 12 2 59 1 105
l-1 83 -47 46 c-26 25 -52 53 -58 63 -5 9 -31 48 -57 86 -27 38 -48 79 -48 92
0 36 -34 93 -84 142 -35 33 -46 52 -46 75 0 23 -11 40 -52 78 -29 27 -63 53
-75 58 -12 4 -30 21 -40 36 -9 15 -29 42 -43 59 -14 17 -39 62 -55 100 -35 85
-57 119 -107 165 -24 23 -36 42 -32 52 4 12 -34 67 -76 107 -3 3 -13 17 -22
31 -9 14 -39 41 -67 58 -28 18 -51 39 -51 46 0 7 -19 29 -42 49 -59 49 -77 67
-121 119 -20 25 -66 66 -101 90 -35 24 -78 57 -95 73 -48 43 -106 73 -154 80
-67 11 -129 45 -221 124 -22 20 -73 57 -112 83 -40 26 -74 54 -78 62 -3 8 -13
15 -21 15 -9 0 -49 16 -89 35 -40 19 -83 35 -95 35 -12 0 -35 7 -50 15 -16 8
-46 19 -67 24 -22 6 -70 19 -109 31 -38 11 -93 22 -121 23 -32 2 -70 12 -103
30 -29 15 -63 27 -75 27 -12 0 -48 14 -79 30 -69 36 -80 36 -142 9 -40 -18
-54 -19 -89 -11 -22 6 -54 8 -69 5 -15 -3 -53 0 -85 6 -31 6 -124 18 -206 26
-82 9 -175 24 -207 35 -58 20 -202 25 -245 9z m-269 -460 c58 -8 91 -8 119 -1
22 6 44 8 50 4 6 -4 67 -7 136 -8 144 -2 267 -15 326 -37 23 -8 97 -18 165
-22 132 -8 285 -27 334 -44 17 -5 60 -12 98 -15 37 -3 82 -9 100 -15 17 -5 75
-15 127 -21 52 -7 103 -16 112 -21 9 -5 37 -11 61 -13 61 -6 115 -16 171 -32
27 -7 52 -12 56 -9 4 3 13 -2 20 -10 7 -8 19 -15 28 -15 8 0 39 -18 68 -40 55
-41 81 -48 112 -29 14 9 26 8 52 -6 32 -17 33 -18 15 -31 -17 -13 -15 -14 26
-14 24 0 61 -5 81 -10 40 -12 98 -70 98 -100 0 -30 48 -62 89 -58 32 3 37 -1
52 -33 10 -19 24 -41 33 -48 9 -8 16 -21 16 -30 1 -27 24 -49 72 -70 39 -16
46 -24 52 -54 8 -44 56 -87 97 -87 19 0 32 -6 36 -17 3 -10 22 -34 43 -53 20
-19 39 -40 41 -45 2 -6 24 -24 48 -40 46 -31 53 -40 67 -89 8 -26 18 -35 64
-56 8 -4 16 -19 18 -33 2 -20 18 -35 63 -62 32 -20 59 -40 59 -44 0 -5 18 -31
40 -59 22 -27 40 -55 40 -62 0 -6 20 -34 44 -62 24 -27 49 -68 57 -91 7 -23
28 -59 46 -80 18 -20 33 -43 33 -50 0 -7 20 -52 46 -100 25 -48 42 -92 39 -98
-4 -5 0 -20 8 -32 8 -12 18 -51 22 -87 7 -60 9 -114 15 -435 1 -66 -1 -165 -4
-220 -4 -55 -9 -145 -12 -200 -2 -55 -6 -129 -9 -165 -3 -36 -5 -103 -5 -148
0 -51 -6 -98 -15 -119 -18 -43 -19 -171 -3 -228 7 -22 13 -94 14 -160 1 -66 7
-140 13 -164 10 -36 9 -47 -3 -66 -15 -23 -27 -72 -32 -134 -1 -20 -8 -63 -14
-96 -15 -78 -13 -145 4 -164 8 -9 21 -32 30 -51 9 -19 27 -53 41 -75 14 -22
25 -51 25 -66 0 -14 23 -69 50 -122 28 -53 50 -105 50 -115 0 -11 9 -27 20
-37 13 -12 20 -31 20 -55 0 -28 8 -43 35 -70 19 -19 35 -40 35 -47 0 -7 16
-27 35 -44 19 -18 35 -39 35 -47 0 -7 9 -25 20 -39 11 -14 20 -40 20 -57 1
-17 8 -49 16 -71 9 -22 23 -63 32 -91 10 -28 23 -58 29 -65 20 -24 26 -69 13
-93 -10 -19 -9 -30 8 -62 15 -31 19 -55 16 -111 -1 -39 2 -87 7 -107 7 -24 6
-55 0 -93 -6 -32 -13 -79 -15 -104 -3 -26 -14 -66 -26 -88 -11 -23 -18 -46
-15 -51 10 -16 26 -112 25 -149 0 -18 -10 -52 -22 -75 -12 -22 -20 -57 -20
-76 1 -19 -5 -49 -13 -66 -12 -26 -14 -67 -10 -220 6 -242 6 -247 -4 -389 -5
-66 -16 -141 -25 -167 -10 -27 -14 -58 -10 -73 5 -20 0 -33 -19 -53 -13 -15
-27 -38 -30 -52 -19 -90 -49 -187 -66 -221 -12 -22 -21 -54 -21 -72 0 -18 -5
-38 -11 -44 -19 -19 -58 -193 -64 -284 -2 -32 -8 -66 -14 -77 -6 -12 -11 -36
-11 -54 1 -18 -2 -60 -6 -94 -5 -49 -3 -68 14 -100 20 -41 48 -181 38 -191 -3
-4 1 -17 10 -31 9 -13 18 -38 20 -56 8 -71 13 -86 39 -120 14 -19 25 -37 23
-41 -2 -3 17 -26 41 -51 31 -33 42 -51 38 -66 -3 -12 -1 -31 6 -42 6 -12 11
-43 12 -70 0 -31 5 -51 13 -54 7 -2 24 -22 38 -43 14 -22 33 -43 42 -46 25
-10 38 -25 77 -92 20 -34 40 -61 45 -61 5 0 19 -19 31 -42 12 -24 37 -60 55
-81 19 -20 34 -43 34 -50 0 -18 49 -63 78 -72 23 -7 26 -13 22 -53 -2 -24 25
-62 43 -62 5 0 23 -10 40 -22 19 -14 43 -21 64 -20 31 3 36 -1 50 -37 8 -22
23 -42 32 -45 9 -4 43 -22 76 -41 75 -43 216 -114 278 -140 26 -11 47 -25 47
-31 0 -26 41 -47 92 -48 47 -1 53 -3 58 -26 6 -24 10 -25 72 -25 48 0 71 -5
85 -17 23 -21 96 -38 137 -31 21 3 45 -2 71 -16 38 -19 48 -20 205 -10 91 6
211 10 268 9 56 0 110 4 119 9 10 5 29 5 47 -1 17 -5 44 -11 60 -13 16 -3 45
-10 64 -16 52 -17 233 -19 257 -3 29 20 226 19 295 -2 31 -9 90 -16 138 -16
64 0 92 -4 114 -18 24 -14 37 -16 64 -8 19 5 39 6 45 3 5 -4 33 -7 61 -7 28 1
63 -5 77 -12 14 -7 45 -16 69 -19 32 -4 51 -14 77 -41 30 -32 39 -36 83 -36
29 0 73 -10 109 -25 34 -13 92 -31 131 -39 39 -8 83 -21 100 -30 16 -8 56 -19
88 -25 41 -6 77 -21 119 -49 33 -22 76 -43 95 -47 135 -27 258 -93 357 -192
31 -31 77 -67 102 -80 25 -12 79 -50 119 -83 41 -33 84 -60 95 -60 36 0 49
-15 45 -50 -3 -35 -2 -37 67 -68 32 -14 40 -22 38 -42 -4 -50 20 -122 47 -139
14 -8 31 -21 38 -28 7 -7 21 -13 30 -13 17 0 62 -38 62 -53 0 -5 9 -20 20 -34
11 -14 20 -36 20 -49 0 -15 10 -30 28 -41 37 -23 52 -43 52 -68 0 -11 18 -39
40 -60 23 -23 45 -56 51 -77 5 -22 25 -52 45 -70 33 -30 34 -34 28 -82 -9 -71
-7 -86 11 -106 9 -10 21 -35 27 -56 21 -78 93 -228 130 -269 20 -24 28 -43 28
-67 -2 -47 43 -167 81 -217 10 -12 21 -39 24 -60 7 -38 28 -98 50 -141 11 -21
11 -30 0 -50 -9 -16 -10 -31 -4 -42 5 -9 9 -27 9 -39 0 -23 50 -119 80 -154 9
-11 27 -48 39 -82 13 -34 36 -76 52 -94 16 -18 29 -35 29 -39 0 -3 24 -31 53
-61 39 -42 68 -62 112 -78 33 -12 71 -30 85 -39 14 -9 30 -17 35 -18 27 -1
108 -48 136 -78 27 -30 35 -33 68 -29 24 3 49 -1 68 -10 22 -12 66 -16 184
-17 85 -1 186 -2 224 -2 73 -1 89 -1 274 1 118 2 135 7 191 57 27 23 53 31
140 43 59 8 113 35 173 88 20 18 45 33 55 33 29 1 103 39 101 52 -5 38 19 56
107 78 57 14 70 32 57 75 l-11 33 53 -5 c49 -5 54 -4 70 21 10 15 31 34 47 42
50 26 128 108 138 146 7 25 28 50 70 84 32 27 62 57 65 67 4 10 19 25 33 34
15 9 54 42 87 73 33 31 81 71 107 89 25 18 49 43 52 55 9 30 74 76 108 76 17
0 39 10 53 24 40 40 77 62 135 81 30 10 60 21 65 24 6 4 37 17 70 30 33 13 76
38 95 56 19 18 70 54 112 82 67 43 168 138 168 158 0 3 15 24 33 45 27 33 38
40 69 40 27 0 44 7 60 25 14 15 38 26 62 29 21 3 48 11 60 19 26 16 137 53
188 61 21 4 62 18 92 32 45 20 70 25 143 25 48 0 167 0 263 0 193 1 222 -2
325 -36 39 -12 133 -37 210 -55 112 -26 146 -38 170 -60 17 -15 60 -48 96 -74
37 -25 73 -53 80 -62 7 -9 23 -20 36 -25 12 -4 39 -31 58 -58 20 -28 44 -53
54 -56 11 -3 46 -38 80 -79 33 -40 79 -87 101 -105 22 -18 49 -50 60 -71 11
-21 28 -45 38 -52 11 -7 26 -27 35 -44 9 -18 32 -41 52 -52 19 -12 35 -29 35
-39 0 -10 10 -46 23 -80 19 -51 40 -79 131 -175 104 -108 109 -115 107 -154
-1 -29 5 -46 18 -58 11 -10 23 -31 26 -46 11 -48 43 -102 80 -133 20 -16 34
-34 33 -40 -3 -17 11 -41 112 -188 63 -93 155 -213 175 -231 6 -5 39 -30 75
-55 36 -26 97 -71 136 -100 40 -29 76 -53 81 -53 5 0 32 -15 61 -34 29 -18 69
-36 90 -40 25 -4 51 -19 79 -46 27 -25 52 -40 68 -40 13 0 53 -11 87 -24 176
-68 245 -89 289 -87 54 2 144 -18 249 -54 106 -37 152 -46 262 -50 54 -2 115
-9 135 -14 61 -16 221 -3 254 20 15 10 49 22 76 26 26 3 60 14 74 24 25 18 80
40 148 61 35 10 76 33 99 55 14 13 85 35 162 49 31 6 48 16 54 30 5 11 32 37
59 57 42 31 57 37 101 37 56 0 64 4 268 147 43 29 91 56 107 59 16 4 34 16 42
30 7 13 27 33 46 44 18 10 33 24 33 30 0 5 11 10 23 10 23 0 24 -2 23 -87 -1
-59 -7 -98 -18 -118 -9 -17 -19 -53 -23 -80 -4 -28 -14 -59 -21 -70 -8 -11
-14 -30 -14 -43 0 -13 -5 -33 -12 -45 -6 -12 -11 -37 -9 -55 1 -23 -8 -48 -29
-80 -16 -25 -28 -53 -25 -62 3 -9 -2 -25 -10 -36 -8 -10 -15 -29 -15 -40 0
-12 -8 -32 -19 -45 -10 -13 -37 -60 -60 -103 -23 -44 -60 -101 -84 -127 -78
-89 -97 -117 -97 -142 0 -41 -10 -57 -52 -78 -22 -11 -48 -36 -60 -54 -11 -19
-37 -44 -58 -56 -22 -12 -44 -35 -51 -51 -6 -16 -26 -38 -43 -50 -17 -12 -44
-34 -61 -49 -43 -40 -123 -95 -172 -119 -23 -11 -72 -41 -109 -65 -37 -25 -71
-45 -75 -45 -5 0 -38 -13 -72 -30 -35 -16 -69 -30 -75 -30 -6 0 -26 -6 -44
-14 -63 -26 -137 -48 -147 -42 -5 3 -36 -3 -68 -13 -33 -11 -95 -24 -139 -31
-43 -6 -99 -16 -124 -21 -25 -6 -145 -13 -267 -16 -187 -5 -229 -4 -260 9 -49
20 -126 38 -161 38 -15 0 -43 10 -62 22 -19 11 -54 25 -78 29 -46 9 -91 38
-159 103 -35 33 -43 47 -43 76 0 26 -7 42 -27 61 -16 14 -43 51 -61 81 -18 31
-42 64 -53 74 -11 10 -19 30 -19 49 0 17 -7 40 -15 51 -8 10 -15 33 -15 51 0
19 -10 43 -25 61 -14 17 -25 39 -25 51 0 11 -16 36 -35 55 -20 20 -35 45 -35
59 0 13 -18 42 -44 69 -24 26 -47 61 -51 79 -4 17 -22 48 -39 68 -35 39 -116
159 -116 171 0 4 -9 15 -19 24 -11 10 -22 28 -25 41 -3 13 -26 41 -50 62 -23
21 -47 49 -51 63 -4 14 -18 38 -31 53 -13 16 -24 35 -24 43 0 16 -43 97 -66
124 -7 8 -22 40 -34 71 -11 32 -39 77 -60 102 -22 25 -40 50 -40 56 0 17 -49
108 -66 122 -8 6 -14 26 -14 43 0 23 -9 41 -30 61 -20 19 -30 39 -30 57 0 16
-11 45 -24 66 -15 22 -27 60 -31 94 -5 36 -14 63 -26 74 -10 9 -19 27 -19 40
0 12 -11 36 -25 52 -14 17 -25 35 -25 40 0 6 -35 47 -77 90 -43 44 -90 97
-105 119 -30 44 -83 74 -169 98 -42 11 -69 27 -106 62 -28 27 -83 75 -122 108
-40 33 -78 70 -86 81 -8 12 -26 25 -41 28 -14 4 -45 15 -68 25 -22 10 -60 26
-84 36 -23 10 -47 24 -53 32 -6 7 -26 13 -44 13 -18 0 -65 13 -105 30 -40 16
-79 30 -87 30 -7 0 -25 8 -40 17 -27 18 -124 36 -185 34 -41 -1 -126 -1 -183
0 -19 0 -52 0 -72 0 -21 0 -51 1 -68 1 -17 1 -48 -10 -71 -25 -37 -23 -47 -25
-78 -16 -38 11 -58 4 -133 -46 -86 -58 -240 -205 -254 -245 -5 -14 -24 -34
-41 -45 -100 -63 -136 -86 -163 -101 -33 -18 -68 -49 -184 -164 -42 -42 -93
-88 -113 -104 -21 -15 -40 -38 -44 -49 -4 -12 -15 -33 -25 -46 -11 -13 -19
-37 -19 -54 0 -25 -12 -42 -60 -86 -53 -50 -62 -64 -80 -125 -19 -66 -30 -84
-92 -147 -16 -17 -28 -39 -28 -55 0 -14 -9 -37 -20 -51 -11 -14 -20 -33 -20
-42 0 -10 -5 -22 -10 -27 -13 -13 -110 -234 -110 -250 0 -7 -13 -22 -30 -34
-17 -12 -30 -28 -30 -35 0 -27 -35 -90 -72 -132 -26 -29 -38 -52 -38 -73 0
-20 -8 -34 -24 -45 -14 -9 -29 -28 -34 -43 -5 -15 -27 -47 -49 -72 -22 -25
-44 -61 -48 -80 -4 -19 -15 -44 -25 -55 -10 -11 -25 -36 -34 -56 -9 -20 -39
-57 -65 -82 -27 -26 -53 -60 -60 -77 -6 -16 -16 -43 -22 -60 -6 -16 -19 -32
-28 -35 -28 -9 -88 -68 -96 -95 -5 -14 -19 -42 -31 -62 -13 -21 -24 -43 -24
-51 0 -7 -15 -21 -32 -32 -18 -10 -43 -31 -56 -47 -13 -15 -30 -28 -37 -28 -7
0 -31 -21 -53 -48 -29 -34 -54 -52 -91 -66 -33 -12 -63 -32 -86 -59 -71 -81
-79 -89 -119 -109 -23 -12 -70 -40 -106 -64 -36 -23 -78 -46 -95 -50 -16 -4
-49 -20 -72 -37 -23 -16 -59 -33 -80 -38 -178 -39 -190 -41 -295 -35 -58 4
-125 13 -147 21 -28 10 -61 12 -105 8 -45 -4 -78 -1 -117 11 -30 9 -79 24
-109 33 -96 27 -144 45 -200 73 -31 15 -70 31 -87 34 -17 4 -49 23 -71 42 -23
19 -61 42 -84 50 -25 8 -69 39 -105 72 -47 44 -65 69 -77 108 -9 29 -26 60
-37 70 -28 25 -49 67 -49 97 0 13 -11 45 -25 71 -14 26 -28 66 -31 89 -3 23
-14 63 -25 89 -10 26 -19 59 -19 73 0 15 -9 38 -20 52 -11 14 -20 38 -20 53 0
29 -58 165 -89 209 -10 14 -22 51 -26 81 -4 30 -11 60 -15 65 -4 6 -11 33 -15
60 -4 28 -15 64 -26 81 -25 42 -59 140 -59 173 0 15 -9 51 -21 81 -12 30 -28
73 -36 94 -7 22 -19 48 -25 59 -6 11 -10 47 -9 79 1 38 -4 67 -15 83 -12 19
-13 28 -4 45 10 18 6 29 -20 71 -18 27 -30 55 -27 63 3 8 -3 22 -13 31 -12 11
-21 38 -26 74 -5 41 -14 65 -35 89 -24 27 -29 42 -29 85 0 52 -16 90 -120 287
-16 30 -38 75 -49 100 -11 25 -30 57 -41 71 -12 15 -27 55 -34 95 -7 38 -20
86 -29 106 -9 21 -17 41 -17 46 0 5 -11 19 -24 32 -14 12 -28 37 -31 54 -4 17
-18 50 -31 74 -14 23 -23 46 -20 51 7 10 -70 108 -126 161 -21 19 -64 60 -95
90 -32 30 -79 74 -105 97 -26 24 -55 57 -63 73 -17 33 -69 70 -97 70 -10 0
-18 4 -18 10 0 19 -71 88 -97 95 -15 3 -44 21 -64 40 -20 18 -50 36 -67 39
-16 4 -47 22 -69 41 -21 18 -58 38 -81 44 -22 7 -44 16 -47 21 -8 14 -115 60
-139 60 -11 0 -52 12 -91 26 -38 14 -94 30 -123 34 -29 5 -67 17 -85 28 -18
10 -51 22 -73 26 -21 4 -67 21 -100 37 -34 16 -67 29 -73 29 -6 0 -37 9 -69
21 -34 12 -87 22 -132 23 -41 2 -104 8 -140 16 -36 7 -96 14 -135 15 -38 2
-106 6 -150 10 -58 5 -95 3 -135 -8 -42 -11 -74 -12 -135 -6 -44 5 -137 13
-207 18 -70 5 -132 12 -138 16 -6 4 -66 7 -133 6 -134 -1 -196 7 -302 38 -39
11 -128 25 -198 31 -70 6 -140 16 -155 21 -33 13 -264 38 -352 39 -36 0 -83 7
-105 15 -22 8 -72 14 -112 15 -39 0 -84 5 -100 11 -15 6 -62 17 -105 24 -43 8
-89 22 -105 33 -15 12 -47 26 -70 32 -27 7 -58 25 -82 50 -22 22 -47 40 -56
40 -9 0 -34 18 -56 40 -22 22 -44 40 -49 40 -5 0 -30 18 -55 40 -28 24 -67 46
-101 56 -45 13 -59 23 -79 54 -13 21 -29 41 -34 45 -6 3 -15 23 -21 43 -5 21
-25 56 -43 78 -19 21 -39 49 -45 61 -7 12 -26 25 -44 28 -18 4 -46 22 -63 40
-19 21 -50 40 -84 50 -43 14 -59 26 -85 63 -17 25 -43 60 -58 78 -16 17 -28
37 -28 43 0 7 -9 29 -20 51 -21 42 -26 86 -10 110 10 16 -14 50 -35 50 -7 0
-18 6 -24 14 -10 12 -9 20 3 38 14 22 14 29 -5 79 -11 29 -23 61 -26 70 -3 10
3 51 12 93 9 41 13 81 9 87 -4 7 -9 58 -11 113 -2 61 -10 118 -20 143 -13 37
-14 55 -5 129 10 74 9 89 -4 110 -11 16 -14 32 -8 51 7 29 10 63 17 283 3 80
11 141 21 169 10 26 14 57 10 76 -5 26 1 42 35 90 23 32 41 65 41 73 0 8 27
74 60 146 33 73 60 143 60 157 0 13 7 38 16 54 9 17 20 44 25 60 32 113 72
213 98 239 35 38 58 85 77 154 8 29 23 70 33 90 11 21 22 55 26 75 4 20 11 37
15 37 11 0 31 50 40 100 9 53 26 123 50 201 9 33 13 65 9 77 -5 12 3 53 21
109 30 93 33 129 23 311 -3 69 -10 102 -24 125 -10 18 -19 48 -19 67 0 19 -8
49 -17 65 -12 23 -16 51 -14 117 2 78 0 93 -25 140 -15 29 -33 64 -40 78 -21
42 -44 113 -44 137 0 12 -8 28 -19 35 -10 7 -31 38 -46 68 -15 30 -54 82 -86
116 -33 33 -59 69 -59 80 0 10 -16 44 -35 74 -19 30 -35 60 -35 66 0 7 -8 19
-19 26 -10 7 -26 28 -35 46 -9 17 -21 32 -27 32 -5 0 -16 15 -24 33 -8 19 -21
39 -29 47 -9 7 -16 26 -16 42 0 33 -5 46 -81 183 -29 53 -90 125 -106 125 -8
0 -23 15 -34 34 -11 19 -34 39 -52 46 -77 30 -95 41 -107 70 -7 16 -21 32 -31
35 -11 4 -27 17 -35 31 -13 18 -25 24 -54 24 -24 0 -49 9 -71 25 -58 43 -112
65 -160 65 -25 0 -72 9 -105 21 -32 11 -80 21 -106 21 -38 0 -51 5 -71 28 -24
26 -29 28 -94 23 -37 -2 -81 -9 -98 -15 -16 -6 -48 -12 -70 -15 -22 -2 -46 -9
-53 -15 -7 -6 -47 -17 -89 -24 -87 -15 -173 -67 -193 -115 -9 -22 -25 -33 -63
-47 -27 -9 -71 -35 -96 -58 -25 -23 -57 -45 -71 -49 -57 -17 -105 -50 -200
-135 -55 -50 -104 -90 -108 -90 -5 0 -17 -8 -28 -17 -10 -10 -42 -36 -69 -58
-28 -22 -52 -44 -54 -50 -2 -5 -25 -30 -50 -55 -25 -24 -50 -53 -56 -64 -5
-11 -30 -31 -54 -45 -32 -20 -48 -37 -61 -70 -12 -32 -31 -54 -71 -82 -29 -22
-63 -39 -74 -39 -28 1 -94 32 -130 62 -16 14 -41 29 -55 33 -14 4 -36 15 -50
25 -14 9 -55 27 -92 39 -36 12 -72 29 -79 38 -16 19 -53 33 -99 39 -18 3 -48
16 -66 29 -17 13 -56 35 -85 48 -30 13 -76 38 -103 55 -28 18 -57 32 -67 32
-9 0 -36 9 -60 19 -24 10 -89 26 -144 36 -94 15 -145 34 -145 54 0 8 24 40
140 189 45 57 74 117 65 133 -9 13 -67 2 -149 -29 -54 -21 -74 -34 -89 -60
-12 -20 -38 -42 -64 -54 -25 -12 -50 -33 -59 -49 -8 -16 -18 -29 -23 -29 -4 0
-66 -56 -137 -125 -76 -75 -145 -133 -169 -144 -57 -25 -115 -78 -115 -105 0
-12 -7 -31 -15 -43 -25 -36 -163 -143 -225 -175 -42 -21 -74 -49 -116 -100
-82 -100 -129 -143 -179 -167 -24 -11 -46 -29 -50 -40 -3 -11 -43 -53 -87 -93
-45 -40 -92 -82 -105 -94 -12 -11 -40 -26 -61 -32 -50 -15 -96 -49 -201 -150
-119 -114 -186 -151 -304 -164 -51 -5 -103 -9 -117 -8 -14 1 -101 3 -195 4
-293 4 -270 1 -316 46 -23 22 -58 44 -80 50 -22 6 -54 24 -73 40 -18 17 -38
30 -43 30 -5 0 -35 22 -66 49 -32 26 -75 53 -96 60 -41 12 -89 55 -112 99 -7
15 -21 38 -31 51 -10 13 -18 31 -18 39 0 9 -13 30 -29 47 -31 31 -93 164 -106
226 -4 18 -18 45 -30 59 -29 31 -40 60 -50 130 -4 30 -16 71 -27 92 -22 42
-37 137 -33 208 2 25 -1 53 -6 62 -5 10 -11 53 -13 96 -2 49 -10 90 -21 112
-13 26 -16 48 -12 93 3 37 0 80 -10 116 -9 34 -12 75 -9 106 4 28 10 88 14
135 4 47 15 99 23 115 34 65 48 102 55 140 4 22 11 49 17 60 6 11 12 59 13
107 2 52 9 98 17 115 24 45 67 181 67 210 0 64 67 231 105 263 8 7 15 21 15
32 0 32 31 150 51 196 11 23 19 47 19 53 0 8 83 159 121 219 16 26 59 118 59
128 0 5 11 19 24 31 13 12 31 41 41 64 32 78 38 86 76 112 20 15 43 40 49 55
7 16 35 49 64 74 28 24 83 77 121 117 39 40 95 98 125 129 30 31 96 99 146
151 50 53 108 108 130 124 21 16 62 50 89 75 28 26 79 60 115 77 50 24 70 40
87 69 12 22 54 66 93 99 40 33 94 81 121 108 27 26 54 47 59 47 6 0 10 7 10
15 0 13 45 48 156 123 19 12 40 31 47 43 6 11 28 30 47 41 19 12 57 41 84 65
26 24 86 61 131 83 61 28 87 47 97 67 13 27 86 72 228 139 136 63 162 78 202
114 52 45 118 80 152 80 14 0 45 9 68 19 91 41 148 61 172 61 14 0 40 13 58
29 36 32 128 57 190 52 20 -1 75 9 121 23 47 14 103 26 126 26 27 0 55 9 83
26 36 23 49 26 102 21 34 -3 84 -2 111 3 57 9 165 4 280 -11z m-1037 -4978
c20 -10 66 -22 102 -26 36 -4 78 -13 94 -21 16 -8 44 -14 61 -14 18 0 61 -13
96 -29 35 -16 84 -34 109 -41 25 -7 70 -25 100 -41 30 -16 62 -29 72 -29 9 0
44 -16 78 -35 34 -19 65 -35 69 -35 4 0 31 -7 59 -15 82 -25 152 -97 152 -159
0 -36 -112 -214 -153 -241 -20 -14 -37 -35 -40 -52 -6 -27 -64 -92 -119 -134
-16 -11 -28 -25 -28 -32 0 -12 -90 -97 -104 -97 -14 0 -120 -72 -129 -87 -29
-48 -70 -80 -114 -92 -26 -6 -66 -16 -88 -22 -21 -6 -64 -30 -93 -55 -30 -24
-60 -44 -68 -44 -7 0 -20 -11 -29 -23 -18 -27 -59 -49 -78 -41 -7 2 -35 -4
-61 -16 -26 -11 -52 -17 -58 -14 -5 4 -24 -4 -41 -17 -40 -29 -103 -39 -281
-46 -109 -4 -148 -1 -187 11 -26 9 -62 16 -80 16 -17 0 -52 7 -78 15 -80 25
-231 40 -338 35 -21 -1 -59 8 -86 20 -46 21 -51 21 -108 6 -52 -13 -65 -13
-101 0 -22 8 -60 14 -83 14 -24 0 -84 13 -133 29 -49 16 -106 33 -126 36 -49
10 -63 36 -33 62 64 58 202 133 244 133 13 0 40 16 61 34 33 30 128 86 146 86
3 0 36 30 73 66 38 36 93 86 125 111 31 24 75 67 98 94 23 27 58 58 79 68 37
20 121 102 121 120 0 6 20 24 45 41 25 17 45 37 45 45 0 7 25 38 55 68 30 30
55 61 55 69 0 17 64 78 82 78 6 0 41 26 77 58 84 75 109 87 201 101 41 7 95
23 120 36 59 31 163 34 218 6z"/>
<path d="M12180 18479 c-30 -4 -84 -8 -120 -8 -67 -1 -102 -14 -190 -69 -38
-24 -46 -35 -57 -78 -6 -27 -16 -64 -22 -83 -13 -42 -3 -189 15 -216 8 -11 14
-28 14 -38 0 -10 27 -44 60 -76 33 -32 60 -65 60 -73 0 -27 41 -68 92 -94 35
-18 54 -35 63 -58 13 -31 19 -34 69 -40 94 -12 185 28 173 75 -3 12 4 31 17
47 13 15 30 42 39 60 43 83 53 100 82 142 38 54 58 121 51 175 -15 112 -35
225 -44 241 -28 52 -68 69 -232 97 -8 1 -40 -1 -70 -4z"/>
<path d="M10625 17550 c-11 -5 -40 -9 -64 -9 -72 -1 -158 -39 -207 -90 -40
-41 -44 -51 -44 -94 0 -26 -7 -62 -16 -79 -36 -70 1 -188 88 -279 71 -75 114
-105 176 -125 52 -17 52 -17 105 9 41 22 66 27 121 27 93 0 138 16 193 66 l46
43 -7 103 c-4 73 -11 107 -23 120 -12 14 -17 40 -18 107 -1 80 -4 93 -28 125
-27 35 -39 40 -136 52 -30 3 -69 13 -87 20 -37 16 -69 17 -99 4z"/>
<path d="M8100 20248 c-19 -12 -44 -27 -55 -33 -24 -13 -27 -64 -5 -76 8 -4
32 -11 53 -14 21 -3 35 -9 33 -14 -9 -14 33 -70 64 -86 16 -8 30 -20 30 -25 0
-15 72 -78 105 -91 17 -7 45 -25 63 -41 18 -15 39 -28 46 -28 7 0 23 -12 37
-26 13 -14 42 -35 63 -46 21 -11 47 -27 57 -37 26 -24 114 -54 157 -54 103 1
175 48 197 128 8 28 17 60 20 71 8 27 -21 55 -93 91 -31 15 -69 45 -90 70 -40
48 -97 83 -135 83 -13 0 -55 15 -93 34 -38 19 -80 37 -94 41 -14 4 -52 20 -85
35 -46 22 -81 30 -150 35 -82 5 -93 4 -125 -17z"/>
<path d="M19025 15960 c-40 -26 -135 -120 -135 -135 0 -6 14 -30 31 -54 18
-23 35 -56 38 -74 5 -25 14 -33 50 -45 32 -11 46 -22 56 -46 8 -17 41 -59 73
-93 75 -78 99 -117 108 -173 15 -95 57 -158 136 -202 21 -12 41 -31 44 -42 4
-12 20 -36 35 -54 16 -18 38 -51 50 -73 13 -26 32 -45 53 -54 38 -16 51 -30
59 -65 4 -14 24 -39 46 -55 22 -17 48 -45 58 -63 10 -18 41 -51 69 -72 28 -21
80 -66 115 -100 35 -34 84 -80 108 -103 93 -88 232 -239 318 -346 11 -13 39
-33 64 -45 28 -13 45 -28 47 -42 2 -12 16 -34 33 -49 16 -16 29 -33 29 -39 0
-5 11 -21 24 -35 24 -26 59 -103 70 -152 3 -16 26 -40 60 -65 30 -21 60 -49
67 -60 6 -12 22 -27 35 -33 13 -6 30 -23 36 -38 22 -52 49 -83 84 -98 21 -8
34 -21 34 -32 0 -51 24 -95 88 -160 37 -38 77 -80 88 -94 38 -42 107 -104 156
-137 26 -18 85 -76 132 -130 46 -53 98 -107 116 -120 17 -13 46 -47 65 -76 18
-29 45 -60 59 -70 16 -10 26 -26 26 -40 0 -23 -53 -106 -68 -106 -5 0 -30 -19
-55 -42 -25 -24 -70 -64 -99 -90 -29 -26 -80 -71 -114 -101 -33 -29 -82 -65
-109 -78 -61 -30 -171 -131 -179 -164 -4 -14 -10 -25 -15 -25 -5 0 -33 -21
-63 -48 -29 -26 -69 -60 -90 -75 -39 -29 -128 -149 -128 -173 0 -8 -8 -29 -17
-47 -9 -18 -20 -50 -24 -72 -6 -34 -4 -45 19 -75 36 -48 39 -50 102 -50 92 0
215 59 250 121 11 20 20 43 20 50 0 19 55 76 92 95 17 9 42 29 55 45 13 15 33
31 45 35 23 7 101 64 134 98 11 11 26 36 33 53 7 18 38 53 67 79 73 62 172
134 184 134 5 0 39 26 74 59 74 66 119 91 168 91 43 0 81 26 75 50 -5 18 25
60 42 60 14 0 40 62 34 79 -4 9 -13 24 -22 35 -12 14 -16 43 -17 133 -1 122
-5 133 -52 133 -13 0 -34 11 -48 25 -13 13 -33 29 -44 35 -11 6 -20 19 -20 30
0 26 -37 50 -77 50 -37 0 -73 41 -73 83 0 19 -11 33 -42 54 -28 19 -46 39 -52
62 -5 18 -21 40 -35 49 -45 27 -71 55 -71 74 0 26 -48 108 -77 133 -23 19 -45
78 -45 121 0 11 -13 29 -30 40 -26 17 -29 23 -24 55 5 32 3 37 -26 50 -34 15
-39 22 -63 90 -10 29 -27 52 -44 62 -16 9 -43 45 -62 80 -38 71 -141 172 -186
183 -42 10 -116 69 -238 191 -60 61 -128 121 -151 135 -23 15 -55 49 -75 81
-23 38 -46 61 -71 73 -20 9 -38 24 -41 33 -2 9 -17 23 -33 31 -46 22 -64 41
-64 65 0 14 -13 33 -35 49 -19 15 -43 46 -54 70 -10 24 -29 54 -40 65 -14 14
-21 32 -19 48 3 24 -2 29 -42 43 -37 13 -45 21 -51 47 -4 19 -25 49 -55 78
-104 98 -114 108 -114 122 0 8 -9 23 -20 35 -11 12 -20 34 -20 49 0 20 -6 28
-24 33 -28 7 -86 81 -86 109 0 11 -16 35 -35 53 -39 36 -80 117 -69 135 3 6
-3 24 -15 40 -11 15 -21 37 -21 48 0 29 -115 147 -162 165 -21 9 -60 16 -87
16 -41 0 -51 4 -65 25 -9 14 -25 25 -35 25 -10 0 -47 9 -81 20 -76 24 -106 24
-145 0z"/>
<path d="M7205 14841 c-11 -5 -39 -30 -62 -55 -24 -25 -55 -48 -70 -51 -29 -7
-58 -18 -83 -34 -8 -6 -42 -18 -75 -27 -74 -21 -98 -40 -90 -71 7 -31 -8 -58
-62 -112 -32 -32 -55 -46 -87 -52 -24 -4 -65 -22 -92 -38 -26 -17 -55 -31 -63
-31 -22 -1 -67 -41 -75 -66 -7 -22 -44 -44 -74 -44 -30 0 -61 -28 -55 -49 8
-32 -68 -81 -127 -81 -39 0 -53 -6 -87 -35 -23 -20 -51 -50 -62 -69 -21 -33
-59 -54 -136 -75 -30 -8 -54 -25 -90 -67 -52 -61 -127 -104 -181 -104 -35 0
-59 -22 -74 -67 -8 -22 -24 -36 -62 -54 -29 -13 -74 -43 -101 -65 -27 -23 -68
-52 -92 -65 -24 -13 -46 -30 -48 -39 -2 -8 -29 -28 -59 -43 -30 -15 -71 -45
-92 -67 -28 -30 -46 -40 -68 -40 -48 0 -130 -44 -152 -80 -14 -25 -23 -30 -41
-26 -18 5 -28 -1 -45 -24 -12 -16 -28 -30 -35 -30 -8 0 -16 -8 -19 -17 -8 -24
-143 -105 -231 -139 -38 -15 -94 -45 -124 -68 -30 -23 -76 -56 -103 -74 -27
-18 -53 -43 -58 -57 -5 -14 -13 -25 -18 -25 -5 0 -30 -20 -55 -45 -26 -25 -52
-45 -57 -45 -23 0 -124 -75 -142 -106 -11 -19 -24 -34 -29 -34 -6 0 -16 -15
-24 -34 -17 -39 -46 -60 -99 -70 -21 -4 -50 -18 -65 -32 -14 -13 -33 -24 -41
-24 -9 0 -25 -7 -36 -15 -10 -8 -26 -15 -34 -15 -26 0 -130 -89 -130 -110 0
-10 -20 -36 -45 -57 -25 -20 -45 -44 -45 -53 0 -19 -44 -83 -89 -130 -18 -19
-42 -46 -54 -59 -36 -38 -109 -81 -139 -81 -47 0 -95 -25 -102 -54 -7 -28 -94
-98 -151 -122 -19 -7 -41 -26 -50 -41 -9 -16 -61 -57 -116 -93 -55 -36 -123
-89 -152 -118 -40 -41 -61 -54 -92 -59 -23 -3 -70 -26 -110 -52 -38 -25 -101
-59 -139 -76 -49 -21 -74 -38 -86 -60 -10 -19 -28 -32 -50 -38 -19 -5 -46 -16
-60 -26 -14 -9 -47 -28 -74 -42 -27 -13 -66 -41 -87 -62 -38 -38 -192 -137
-214 -137 -12 0 -35 -23 -118 -122 -48 -56 -48 -57 -55 -147 -6 -66 -4 -97 5
-114 7 -12 12 -34 13 -50 0 -31 40 -61 94 -71 18 -4 47 -22 66 -41 19 -19 40
-35 48 -35 15 0 421 -403 464 -462 15 -20 46 -49 69 -65 30 -20 47 -42 61 -78
11 -27 28 -59 39 -71 10 -11 19 -25 19 -31 0 -17 80 -94 146 -141 48 -34 65
-53 79 -88 11 -29 29 -53 52 -68 21 -15 48 -48 66 -83 16 -32 39 -75 49 -95
11 -20 34 -46 52 -56 19 -11 46 -36 62 -57 16 -20 46 -45 67 -56 23 -12 44
-33 52 -52 15 -35 137 -167 154 -167 6 0 14 -15 19 -32 5 -20 16 -34 27 -37
41 -7 93 -50 100 -81 4 -18 21 -41 43 -57 20 -15 46 -37 58 -48 11 -11 30 -28
42 -37 12 -10 22 -27 22 -37 0 -12 22 -37 55 -63 30 -23 55 -50 55 -59 0 -29
153 -174 197 -187 34 -10 43 -20 71 -77 18 -36 36 -65 40 -65 4 0 15 -20 25
-44 10 -25 31 -58 47 -74 20 -21 26 -37 23 -54 -4 -20 9 -38 71 -100 41 -41
78 -87 82 -102 3 -15 14 -32 23 -39 10 -6 32 -34 51 -62 18 -27 46 -61 62 -74
16 -13 27 -30 24 -37 -3 -8 18 -41 47 -75 29 -34 61 -76 72 -94 44 -71 62 -95
88 -115 15 -12 27 -29 27 -37 0 -9 36 -55 80 -103 44 -49 81 -96 83 -106 4
-29 20 -50 45 -63 13 -7 39 -37 58 -68 20 -30 66 -86 102 -123 95 -98 142
-155 142 -173 0 -9 24 -44 53 -79 30 -35 61 -77 70 -95 9 -17 35 -52 57 -78
22 -25 40 -50 40 -56 0 -5 15 -26 34 -46 18 -21 37 -49 41 -63 4 -14 13 -32
20 -40 7 -8 16 -34 20 -56 7 -43 60 -125 114 -179 17 -17 31 -37 31 -46 0 -9
9 -24 21 -35 12 -10 32 -40 45 -65 13 -26 38 -56 56 -67 48 -30 85 -71 104
-117 9 -22 42 -65 74 -96 42 -40 61 -67 70 -98 11 -41 31 -69 99 -136 106
-104 141 -141 141 -151 0 -6 30 -45 68 -87 87 -98 122 -146 122 -168 0 -9 16
-27 35 -39 19 -12 38 -33 41 -46 3 -13 16 -32 28 -42 22 -17 51 -71 58 -107 2
-10 20 -31 42 -45 29 -20 45 -43 67 -95 16 -37 45 -85 63 -105 19 -21 37 -51
41 -68 3 -16 15 -38 27 -48 37 -34 108 -134 108 -152 0 -10 13 -31 29 -46 16
-15 32 -41 35 -58 3 -17 22 -48 41 -69 19 -22 35 -45 35 -52 0 -8 9 -22 21
-33 12 -10 30 -38 41 -61 11 -23 35 -54 54 -68 19 -15 37 -39 42 -58 6 -22 19
-38 44 -52 27 -14 44 -36 69 -86 17 -37 29 -73 26 -81 -7 -20 2 -32 38 -49 16
-8 40 -29 52 -48 13 -19 37 -43 53 -53 21 -12 30 -26 30 -44 0 -24 29 -60 95
-116 11 -9 31 -32 45 -51 14 -20 36 -42 48 -49 13 -7 30 -25 38 -40 8 -15 28
-38 45 -50 35 -26 69 -77 69 -104 1 -11 14 -35 30 -54 17 -19 30 -39 30 -45 0
-7 12 -22 26 -36 34 -32 132 -172 150 -215 10 -25 26 -39 54 -50 31 -12 47
-29 71 -71 17 -30 49 -70 70 -90 21 -20 39 -44 39 -53 0 -9 11 -31 25 -50 14
-19 25 -37 25 -42 0 -7 41 -54 126 -142 24 -25 54 -46 73 -49 20 -4 35 -15 43
-32 16 -36 45 -41 72 -13 13 12 40 37 59 53 24 20 36 39 37 56 0 17 9 33 25
43 14 10 30 28 35 41 5 13 25 35 45 47 34 22 36 26 34 73 -2 72 -3 71 39 96
20 12 56 39 79 58 85 73 151 120 177 127 16 4 37 22 52 45 13 21 43 51 67 65
23 15 65 48 92 73 52 49 174 113 237 125 21 4 57 24 85 47 26 23 85 58 131 80
45 21 97 49 115 62 17 13 59 39 92 56 33 18 69 43 80 56 11 12 45 30 75 40 60
19 110 50 110 68 0 16 87 95 130 117 19 10 44 28 55 40 11 12 36 31 57 41 20
10 47 33 61 51 14 18 43 42 64 53 23 13 45 36 56 58 9 20 22 37 27 37 6 0 37
27 70 60 32 33 83 75 113 94 29 19 67 51 83 71 16 20 48 58 72 84 23 26 42 58
42 70 0 16 11 27 43 40 23 10 59 36 80 57 43 45 93 89 157 140 25 20 51 49 58
65 9 21 30 38 76 60 54 26 75 44 137 121 40 50 91 102 114 116 22 14 63 44 90
67 28 23 71 54 97 68 26 15 64 43 85 63 38 36 252 178 325 215 31 16 38 25 38
49 0 21 8 34 28 47 15 9 54 45 88 79 33 33 89 80 125 104 35 24 94 72 131 107
37 35 72 63 78 63 5 0 10 6 10 14 0 19 99 109 138 125 17 7 32 17 32 21 0 23
215 217 276 248 23 12 65 41 94 66 30 26 60 46 67 46 7 0 21 13 31 29 22 37
92 93 163 130 30 16 62 37 69 46 19 23 166 135 177 135 5 0 24 13 43 28 19 16
46 35 60 42 59 31 150 105 159 131 5 15 20 30 33 34 24 8 82 50 133 96 28 26
61 47 130 85 17 9 75 46 130 82 100 65 176 114 228 146 15 9 27 23 27 31 0 9
12 20 26 26 15 5 43 22 63 37 20 16 53 36 74 46 20 9 37 20 37 24 0 4 14 16
32 27 18 10 59 46 93 79 44 45 72 65 107 74 33 10 67 33 120 82 41 37 90 75
109 83 19 7 81 50 139 93 61 46 124 85 149 93 29 8 71 36 122 82 43 38 95 75
115 84 20 8 57 32 83 53 25 21 64 49 86 62 22 13 59 41 82 62 30 26 52 38 73
38 20 0 43 11 67 33 21 19 67 54 103 78 36 24 81 56 101 72 20 15 41 27 47 27
6 0 23 15 39 34 15 19 40 39 56 45 15 6 41 33 61 64 19 29 41 59 50 66 9 7 16
21 16 31 0 9 9 25 20 35 26 24 25 41 -4 60 -26 17 -41 86 -25 116 6 12 5 21
-3 28 -7 6 -38 31 -68 56 -30 25 -65 48 -78 52 -43 10 -104 -4 -129 -31 -13
-15 -39 -32 -58 -40 -18 -8 -41 -28 -49 -44 -9 -18 -52 -53 -108 -90 -51 -33
-107 -72 -124 -86 -21 -17 -44 -26 -70 -27 -22 0 -61 -13 -89 -27 -42 -23 -50
-32 -53 -59 -4 -37 -12 -40 -48 -17 -24 17 -25 16 -77 -39 -29 -31 -64 -75
-79 -97 -16 -23 -36 -40 -47 -40 -10 0 -47 -31 -83 -70 -36 -38 -72 -70 -80
-70 -8 0 -34 -13 -56 -30 -23 -17 -55 -30 -70 -30 -31 0 -60 -26 -85 -76 -20
-40 -38 -54 -95 -75 -26 -9 -65 -24 -87 -32 -26 -10 -43 -24 -49 -40 -7 -19
-28 -34 -85 -58 -42 -17 -93 -34 -115 -36 -29 -4 -42 -12 -57 -37 -26 -44
-114 -116 -155 -128 -41 -11 -137 -65 -143 -80 -2 -6 -34 -40 -72 -77 -44 -43
-69 -75 -69 -89 0 -14 -13 -30 -37 -46 -21 -13 -47 -33 -58 -46 -11 -12 -51
-38 -90 -57 -38 -20 -100 -55 -138 -80 -37 -25 -83 -49 -102 -54 -28 -8 -42
-21 -66 -65 -29 -51 -33 -54 -70 -54 -24 0 -51 -9 -75 -25 -20 -14 -54 -29
-74 -35 -21 -6 -48 -18 -61 -29 -13 -10 -43 -28 -66 -40 -23 -11 -53 -36 -68
-55 -15 -19 -44 -41 -70 -51 -25 -9 -45 -20 -45 -24 0 -10 -106 -118 -135
-137 -15 -10 -44 -41 -66 -70 -50 -68 -124 -119 -153 -106 -41 20 -56 21 -83
7 -16 -7 -41 -19 -58 -25 -27 -10 -76 -68 -173 -203 -21 -29 -115 -131 -154
-167 -30 -27 -71 -73 -105 -120 -57 -75 -130 -139 -175 -151 -40 -10 -158 -85
-158 -100 0 -12 -99 -105 -127 -120 -53 -27 -169 -117 -221 -171 -29 -31 -64
-61 -77 -68 -14 -7 -29 -28 -36 -47 -6 -18 -15 -33 -20 -33 -5 0 -9 -7 -9 -15
0 -8 -33 -30 -77 -51 -43 -21 -93 -50 -110 -65 -18 -15 -49 -32 -68 -38 -20
-5 -48 -21 -63 -36 -39 -38 -100 -86 -152 -120 -25 -17 -53 -39 -62 -50 -10
-11 -28 -31 -41 -45 -13 -14 -39 -46 -59 -71 -20 -25 -52 -56 -70 -69 -19 -12
-40 -37 -48 -54 -7 -17 -37 -53 -67 -81 -39 -37 -53 -57 -53 -77 0 -22 -8 -30
-45 -47 -25 -11 -45 -24 -45 -29 0 -16 -95 -107 -131 -126 -19 -10 -52 -43
-72 -72 -21 -30 -56 -68 -79 -86 -88 -71 -101 -85 -102 -109 -1 -21 -6 -24
-49 -27 -40 -3 -51 -8 -65 -30 -29 -48 -196 -196 -267 -237 -38 -22 -87 -58
-109 -80 -23 -22 -60 -47 -84 -54 -25 -9 -52 -26 -63 -43 -12 -17 -30 -28 -43
-28 -13 0 -39 -15 -58 -34 -26 -25 -48 -36 -83 -42 -36 -5 -57 -16 -83 -42
-43 -43 -88 -62 -146 -62 -34 0 -54 -8 -92 -35 -27 -19 -69 -48 -94 -64 -85
-54 -143 -96 -185 -134 -23 -20 -46 -37 -51 -37 -5 0 -28 -18 -51 -40 -23 -21
-64 -51 -90 -65 -43 -23 -82 -48 -136 -87 -10 -7 -29 -47 -43 -88 -38 -111
-91 -140 -149 -83 -15 16 -46 37 -68 48 -29 14 -43 28 -49 49 -4 17 -33 54
-68 86 -33 32 -60 61 -60 67 0 5 -15 32 -32 58 -18 27 -31 58 -30 70 2 13 -8
28 -27 43 -35 25 -55 85 -46 135 6 28 2 35 -24 55 -17 12 -31 31 -31 41 0 31
-41 135 -60 152 -10 8 -36 45 -58 82 -23 37 -54 78 -70 92 -16 13 -34 42 -41
64 -7 24 -33 63 -67 98 -30 32 -62 72 -71 88 -8 17 -23 39 -33 50 -20 23 -110
183 -110 196 0 12 -35 29 -60 29 -13 0 -28 12 -40 33 -11 18 -33 43 -50 55
-18 14 -30 32 -30 46 0 12 -8 30 -19 40 -10 9 -35 50 -55 91 -21 42 -45 76
-55 80 -33 10 -71 46 -71 66 0 29 -71 125 -120 160 -63 45 -180 168 -180 188
0 23 -41 61 -67 61 -11 0 -32 9 -47 21 -22 17 -26 28 -24 60 1 32 -4 45 -29
72 -17 17 -43 53 -57 79 -15 26 -36 50 -47 53 -11 4 -19 15 -19 30 0 14 -13
33 -34 50 -19 15 -48 47 -65 70 -27 37 -30 47 -21 70 14 36 14 36 -20 86 -16
24 -30 51 -30 60 0 9 -7 22 -15 29 -8 7 -15 25 -15 40 0 20 -10 35 -35 54 -27
21 -35 34 -35 60 0 25 -6 35 -25 44 -14 7 -30 22 -36 35 -6 12 -23 31 -39 42
-16 11 -35 33 -42 50 -11 30 -42 67 -105 131 -18 18 -33 37 -33 42 0 5 -9 17
-19 26 -11 10 -25 31 -31 47 -9 20 -29 36 -65 53 -38 19 -57 35 -69 60 -9 19
-25 38 -36 41 -11 3 -38 22 -61 41 -22 19 -53 37 -68 40 -34 9 -51 23 -62 51
-5 13 -23 30 -41 39 -49 24 -92 89 -99 151 -7 56 -14 67 -72 102 -45 28 -56
46 -50 87 4 25 -2 39 -26 67 -27 30 -31 40 -25 74 5 32 2 42 -20 62 -14 14
-26 32 -26 42 0 9 -7 22 -15 29 -8 7 -15 18 -15 25 0 8 -11 26 -24 42 -13 15
-28 44 -35 65 -7 20 -36 62 -66 94 -37 40 -57 72 -65 103 -9 32 -26 60 -59 91
-25 25 -54 59 -63 75 -35 59 -104 146 -129 163 -35 23 -86 83 -98 114 -10 26
-269 208 -296 208 -25 0 -43 38 -35 74 7 33 -6 66 -28 66 -13 0 -61 57 -73 87
-5 13 -24 30 -43 39 -21 11 -32 22 -29 30 3 8 -9 30 -26 49 -17 20 -31 45 -31
57 0 11 -9 36 -21 54 -11 19 -20 46 -19 61 3 46 1 50 -35 72 -19 11 -35 27
-35 35 0 8 -19 28 -42 45 -24 16 -66 52 -95 80 -28 28 -58 51 -65 51 -16 0
-58 60 -58 83 0 9 -13 32 -30 50 -17 19 -30 41 -30 49 0 17 -31 48 -48 48 -7
0 -20 4 -30 10 -9 5 -34 16 -55 24 -29 12 -39 22 -43 46 -4 19 -17 37 -35 47
-16 10 -29 21 -29 25 0 4 -13 20 -30 35 -16 14 -30 36 -30 47 0 13 -14 31 -37
46 -20 13 -42 38 -49 55 -16 39 -41 62 -79 71 -41 9 -51 18 -76 71 -12 24 -32
49 -45 55 -16 7 -28 26 -36 52 -13 47 -35 76 -56 76 -8 0 -37 12 -66 26 -28
14 -61 28 -74 30 -35 7 -149 61 -170 81 -10 10 -34 30 -55 46 -36 28 -98 121
-110 167 -4 14 -17 40 -29 59 -13 19 -31 49 -41 65 -11 17 -28 41 -40 54 -18
19 -19 26 -9 42 15 25 15 30 -2 30 -7 0 -41 29 -75 65 -45 49 -61 73 -61 94 0
25 -6 31 -42 44 -24 8 -60 31 -81 50 -21 20 -55 41 -76 47 -37 10 -57 32 -46
51 3 4 -1 19 -10 33 -15 22 -15 28 -2 53 17 31 90 100 158 148 23 17 58 46 78
65 45 44 131 105 159 114 12 4 44 24 70 45 27 21 62 42 78 45 16 4 50 20 74
36 25 17 52 30 61 30 9 0 36 13 60 30 24 16 51 30 61 30 9 0 29 14 45 31 35
37 131 107 198 143 94 50 121 71 203 154 45 45 88 82 96 82 8 0 33 16 56 35
23 19 46 35 51 35 6 0 44 25 84 55 41 30 78 55 81 55 4 0 24 16 46 35 21 20
50 41 64 47 14 7 28 24 32 41 6 25 17 33 57 47 51 18 89 44 134 93 63 69 109
114 144 140 20 15 37 35 37 43 0 24 59 76 145 128 44 27 96 62 115 78 19 16
59 49 88 73 29 25 59 45 66 45 7 0 31 12 52 27 21 14 68 42 104 61 96 50 132
72 165 102 17 15 53 40 80 55 120 68 175 96 211 109 22 8 69 28 107 45 53 25
71 39 86 69 22 42 47 57 115 67 25 4 46 11 46 16 0 5 14 16 32 25 18 9 63 48
100 85 37 38 72 69 78 69 5 0 27 15 47 33 50 44 79 61 134 79 26 9 71 36 101
60 30 23 73 54 97 68 23 14 58 37 78 53 20 15 41 27 47 27 17 0 133 77 185
122 25 21 72 55 105 75 34 20 88 57 121 83 34 26 71 52 83 59 12 7 45 32 72
56 28 25 74 57 103 71 29 15 68 41 88 58 21 17 62 40 92 50 31 10 81 40 115
67 56 47 246 175 310 211 40 22 50 79 28 163 -9 32 -16 67 -16 76 0 9 -20 38
-45 65 -24 27 -45 56 -45 65 0 31 -37 51 -102 55 -35 2 -72 0 -83 -5z"/>
<path d="M8352 13059 c-13 -5 -45 -8 -70 -8 -44 1 -237 -41 -263 -57 -7 -4
-35 -6 -63 -6 -38 2 -61 -4 -91 -23 -22 -13 -61 -35 -87 -49 -38 -21 -49 -33
-58 -65 -5 -21 -17 -44 -25 -51 -7 -6 -19 -28 -26 -48 -6 -20 -15 -41 -19 -47
-15 -20 -10 -136 7 -162 14 -20 14 -29 3 -63 -7 -21 -10 -49 -6 -62 7 -27 47
-72 98 -110 22 -17 39 -40 43 -58 4 -16 11 -32 16 -36 5 -3 19 -25 30 -50 12
-24 25 -44 30 -44 5 0 9 -6 9 -13 0 -18 51 -64 133 -121 51 -37 67 -53 67 -72
0 -24 18 -47 57 -75 11 -8 27 -28 36 -46 29 -55 171 -153 223 -153 26 0 30 2
112 43 30 16 68 27 91 27 30 0 44 6 55 22 34 48 8 162 -48 213 -18 17 -61 63
-96 103 l-64 74 18 31 c10 18 44 52 77 77 58 44 119 122 119 152 0 8 8 26 19
39 32 42 51 88 53 126 3 116 0 264 -6 295 -12 63 -47 90 -256 195 -69 35 -82
37 -118 22z m-72 -318 c34 -16 35 -17 34 -76 0 -35 -8 -73 -17 -92 -26 -48
-88 -103 -119 -103 -38 0 -157 56 -164 77 -6 20 -11 29 -38 67 -17 24 -17 30
-4 63 10 28 26 44 63 65 46 25 56 26 130 21 44 -3 96 -13 115 -22z"/>
<path d="M7248 12415 c-26 -7 -64 -22 -85 -34 -21 -11 -57 -25 -80 -31 -26 -6
-54 -24 -75 -46 -18 -20 -64 -56 -103 -81 -38 -25 -81 -58 -93 -74 -13 -16
-45 -40 -71 -54 -27 -13 -55 -35 -64 -48 -28 -43 -117 -86 -210 -102 -46 -7
-78 -36 -70 -63 2 -10 -2 -25 -9 -33 -8 -8 -22 -26 -32 -42 -18 -27 -18 -28 8
-62 27 -36 37 -40 116 -49 146 -19 172 -25 196 -47 13 -12 24 -28 24 -36 0 -7
15 -30 34 -50 18 -21 36 -48 40 -59 7 -24 99 -114 115 -114 6 0 18 -16 27 -35
20 -43 92 -117 145 -151 21 -13 39 -29 39 -36 0 -6 12 -27 26 -46 15 -19 27
-43 28 -55 1 -22 16 -33 59 -42 15 -3 26 -9 23 -14 -9 -14 53 -52 154 -93 31
-13 40 -13 85 3 28 10 62 18 77 19 15 0 30 5 33 10 3 6 14 10 23 10 36 1 55
28 64 91 l8 62 -125 122 c-69 68 -125 126 -125 130 0 3 -14 18 -30 32 -17 14
-38 39 -47 57 -9 17 -39 58 -68 91 -56 64 -75 95 -75 119 0 24 -47 88 -85 115
-28 19 -35 31 -37 60 -2 60 1 73 27 93 13 10 30 31 37 46 7 14 33 40 57 56 24
16 46 37 48 47 3 9 18 23 33 29 24 10 37 28 55 80 10 31 32 59 59 78 31 21 33
26 26 60 -10 55 -26 79 -61 91 -38 13 -59 13 -121 -4z"/>
<path d="M12128 12225 c-23 -21 -51 -36 -75 -40 -54 -8 -105 -36 -119 -64 -7
-13 -24 -33 -38 -45 -28 -23 -47 -108 -27 -120 6 -4 11 -15 11 -24 0 -27 49
-89 105 -131 42 -31 54 -48 65 -85 7 -25 23 -60 36 -78 16 -22 24 -45 24 -74
0 -37 7 -51 54 -104 l53 -62 -1 -91 c-1 -79 -4 -92 -19 -95 -15 -3 -87 22
-212 74 -31 12 -174 14 -232 2 -31 -7 -64 -22 -85 -40 -42 -37 -74 -54 -119
-62 -27 -5 -53 -24 -108 -80 -84 -87 -98 -120 -82 -199 6 -29 12 -72 13 -97 3
-39 0 -45 -18 -48 -23 -3 -85 65 -119 130 -11 21 -52 71 -92 111 -39 40 -84
95 -100 122 -20 35 -43 58 -75 75 -25 14 -62 40 -83 58 -45 40 -74 52 -126 52
-45 0 -84 -17 -113 -49 -17 -19 -18 -26 -7 -74 11 -53 45 -99 99 -137 14 -9
23 -29 26 -53 3 -20 16 -51 30 -68 32 -38 33 -63 1 -114 -36 -59 -33 -100 14
-173 22 -33 52 -66 67 -74 16 -7 37 -29 47 -48 19 -36 64 -68 322 -228 80 -50
137 -92 147 -110 22 -37 141 -99 290 -152 152 -54 174 -53 227 7 22 26 41 51
41 55 0 14 37 89 60 123 11 17 20 39 20 51 0 11 11 35 25 54 31 42 31 71 1
174 -14 44 -27 104 -31 133 -6 46 -4 52 14 58 24 7 77 -1 146 -22 59 -19 310
-22 328 -4 6 6 18 11 27 11 20 0 100 92 100 115 0 21 17 52 46 88 13 15 29 47
35 70 6 23 24 56 40 75 30 34 32 39 49 144 9 60 8 70 -10 100 -18 31 -18 37
-5 54 21 28 18 52 -10 86 -13 16 -30 47 -36 69 -13 42 -24 55 -104 130 -65 60
-105 108 -105 125 0 8 -20 23 -44 34 -44 18 -44 18 -39 62 5 41 2 48 -37 94
-24 27 -46 51 -49 54 -41 35 -71 81 -76 114 -2 22 -14 49 -25 61 -11 12 -20
27 -20 35 0 25 -44 80 -65 80 -11 0 -37 -16 -57 -35z"/>
<path d="M6020 11850 c-19 -11 -49 -19 -66 -20 -27 0 -55 -16 -109 -62 -30
-26 -175 -128 -182 -128 -3 0 -36 -25 -74 -55 -37 -30 -71 -55 -75 -55 -3 0
-23 -14 -44 -30 -21 -17 -54 -37 -73 -45 -18 -8 -54 -31 -78 -51 -24 -20 -63
-45 -86 -56 -23 -10 -51 -32 -63 -48 -11 -16 -33 -35 -48 -42 -26 -13 -44 -55
-44 -108 0 -48 69 -79 182 -82 34 -1 65 3 68 9 4 6 27 14 52 18 25 4 65 13 89
21 67 22 107 10 164 -50 32 -33 54 -68 65 -101 16 -51 47 -95 66 -95 6 0 44
-27 84 -60 41 -33 77 -60 81 -60 20 0 111 -101 111 -122 0 -15 14 -32 40 -51
22 -16 47 -43 55 -60 29 -62 51 -91 85 -110 53 -30 159 -67 194 -67 17 0 42
-9 56 -20 30 -23 57 -25 128 -6 110 30 132 70 87 162 -20 40 -37 60 -64 74
-31 15 -157 126 -194 169 -5 5 -26 29 -48 52 -22 24 -47 56 -56 73 -9 17 -29
43 -44 59 -16 16 -29 35 -29 43 0 8 -15 31 -34 52 -19 21 -38 50 -42 66 -3 15
-20 37 -36 49 -17 12 -36 34 -44 49 -7 14 -34 39 -60 55 -83 51 -97 67 -97
106 0 43 25 84 61 100 15 6 77 62 137 123 131 134 155 161 155 179 0 28 -47
99 -80 121 -45 31 -138 33 -190 4z"/>
<path d="M4866 10909 c-25 -19 -57 -70 -62 -95 -3 -16 6 -27 43 -53 18 -12 36
-33 39 -46 4 -16 21 -32 49 -45 52 -25 95 -58 95 -72 0 -5 9 -21 20 -35 20
-26 25 -58 14 -88 -6 -15 -26 -28 -141 -90 -51 -28 -62 -39 -83 -85 -4 -8 -22
-25 -41 -37 -19 -12 -49 -36 -68 -54 -32 -31 -34 -32 -103 -25 -111 10 -142
30 -218 141 -51 74 -63 86 -101 105 -50 26 -57 26 -128 -12 -67 -35 -105 -81
-115 -139 -6 -33 -2 -41 39 -87 25 -27 45 -55 45 -61 0 -21 61 -79 104 -100
59 -27 76 -54 70 -105 -5 -46 -2 -53 43 -84 17 -12 41 -43 53 -70 50 -110 77
-159 108 -196 17 -22 32 -43 32 -48 0 -12 18 -33 63 -77 20 -20 37 -42 37 -49
0 -6 18 -21 39 -32 22 -11 43 -24 46 -30 4 -6 24 -22 46 -36 24 -15 39 -32 39
-44 0 -13 10 -25 28 -32 15 -6 41 -24 57 -39 17 -15 53 -36 80 -47 51 -18 51
-18 138 3 98 25 108 32 143 91 24 40 24 44 10 73 -9 16 -16 39 -16 50 0 11 -6
25 -12 30 -7 6 -31 25 -53 44 -22 19 -50 39 -62 46 -12 6 -54 48 -94 94 -40
45 -93 98 -118 117 -25 20 -47 45 -49 55 -2 11 -16 34 -32 50 -29 32 -54 91
-44 106 3 5 23 18 45 30 26 13 51 38 70 70 23 36 39 52 61 56 16 3 34 15 40
27 6 11 24 37 39 57 16 20 29 46 29 58 0 15 16 28 62 51 51 25 69 30 104 24
40 -6 53 -14 137 -91 15 -14 44 -31 63 -38 20 -6 68 -44 108 -84 72 -70 75
-72 127 -73 33 -1 66 5 86 15 18 10 41 17 52 17 11 0 29 13 41 30 18 26 20 36
12 79 -5 27 -20 64 -33 81 -46 62 -184 200 -199 200 -25 0 -113 50 -150 86
-20 19 -48 58 -63 86 -42 84 -218 227 -363 298 -23 11 -47 27 -54 35 -20 24
-121 20 -154 -6z"/>
<path d="M10325 10904 c-22 -8 -50 -12 -62 -9 -39 9 -164 -41 -201 -81 -30
-31 -33 -40 -27 -74 4 -21 7 -73 7 -116 0 -67 4 -84 24 -110 13 -17 27 -53 31
-80 7 -39 14 -52 35 -62 15 -7 35 -26 45 -42 9 -17 21 -30 25 -30 4 0 8 -6 8
-14 0 -7 14 -31 31 -52 23 -29 29 -46 25 -66 -3 -17 1 -35 12 -50 10 -13 26
-43 37 -67 12 -28 33 -52 57 -67 42 -27 78 -88 78 -132 0 -16 9 -37 20 -47 25
-23 25 -32 0 -40 -13 -4 -50 9 -109 39 -82 42 -93 44 -145 39 -37 -4 -56 -2
-56 5 0 10 -136 152 -146 152 -8 0 -112 79 -119 90 -8 14 -72 40 -97 40 -11 0
-38 15 -61 33 -23 17 -52 38 -64 45 -34 18 -88 15 -115 -7 -12 -11 -39 -33
-58 -49 -19 -16 -58 -41 -86 -55 -28 -14 -55 -36 -61 -50 -7 -14 -29 -35 -50
-47 -54 -30 -65 -51 -54 -102 5 -22 19 -53 30 -68 11 -15 33 -56 49 -92 16
-36 35 -68 41 -72 6 -4 11 -15 11 -25 0 -9 16 -34 35 -55 38 -41 39 -44 27
-64 -10 -15 -62 0 -62 18 0 6 -17 27 -38 48 -28 28 -62 45 -134 70 l-95 32
-48 -17 c-94 -34 -227 -190 -210 -244 6 -17 131 -106 200 -142 17 -8 44 -30
60 -47 33 -36 97 -69 133 -70 14 0 35 -13 50 -30 15 -16 32 -30 39 -30 7 0 20
-12 29 -26 10 -14 38 -36 64 -49 26 -13 60 -38 76 -55 16 -16 51 -37 77 -46
38 -13 52 -23 62 -48 18 -44 36 -56 148 -110 66 -31 117 -48 155 -52 57 -6 57
-6 99 38 23 23 54 67 68 96 15 30 37 58 51 64 13 6 24 14 25 17 3 23 11 46 43
123 20 48 36 96 36 108 0 12 4 29 9 39 7 12 5 26 -5 45 -8 16 -14 34 -14 41 0
27 -41 63 -85 74 -35 9 -46 16 -43 29 6 28 84 18 133 -17 22 -16 63 -33 91
-39 28 -6 85 -22 128 -37 78 -25 79 -25 110 -6 36 22 77 32 146 35 70 4 153
47 187 99 41 60 61 107 69 158 4 24 16 57 26 72 19 26 19 29 3 53 -10 16 -15
37 -12 52 3 15 0 36 -5 46 -6 11 -17 47 -25 80 -17 78 -38 123 -73 161 -15 17
-31 41 -35 55 -4 14 -21 42 -38 63 -23 30 -28 44 -23 68 5 26 1 35 -24 57 -20
18 -30 36 -30 55 0 16 -11 39 -25 55 -14 15 -25 35 -25 44 0 10 -13 33 -30 51
-16 19 -30 44 -30 55 0 11 -16 32 -35 46 -19 15 -35 36 -35 47 0 10 -9 36 -20
56 -11 21 -20 43 -20 50 0 6 -16 21 -35 33 -20 12 -43 36 -51 53 -22 44 -54
77 -73 76 -9 0 -34 -7 -56 -15z m-460 -1282 c89 -62 107 -135 58 -233 -36 -70
-83 -103 -137 -96 -46 6 -104 50 -128 98 -44 84 -1 226 77 260 32 14 86 2 130
-29z"/>
<path d="M8296 9611 c-3 -5 -29 -20 -58 -34 -83 -39 -139 -94 -154 -152 -7
-28 -13 -59 -14 -69 0 -34 58 -143 105 -196 25 -28 45 -55 45 -59 0 -5 18 -31
40 -57 22 -27 52 -79 67 -117 27 -68 49 -100 91 -127 13 -8 30 -35 38 -60 8
-25 28 -62 45 -82 16 -20 29 -42 29 -47 0 -16 -38 -13 -47 3 -5 8 -26 21 -48
28 -34 11 -40 18 -45 49 -5 25 -20 48 -54 80 -27 24 -53 46 -60 48 -6 2 -34
15 -63 27 -34 16 -71 24 -110 24 -32 1 -101 7 -153 15 -80 11 -111 21 -194 64
-55 28 -106 51 -113 51 -49 0 -169 -112 -204 -190 -9 -19 -17 -62 -18 -96 -2
-58 0 -64 38 -112 22 -27 45 -53 51 -57 6 -3 8 -10 5 -15 -3 -5 0 -21 5 -36 7
-19 7 -37 0 -59 -8 -24 -7 -40 5 -68 8 -20 15 -46 15 -58 0 -11 9 -32 20 -46
11 -14 20 -34 20 -45 0 -11 15 -27 35 -39 33 -20 105 -113 105 -136 0 -6 11
-27 25 -47 26 -39 25 -62 -4 -50 -9 4 -44 10 -77 14 -36 4 -74 16 -90 27 -16
11 -50 22 -75 25 -28 3 -71 20 -108 42 -34 20 -71 36 -82 36 -37 0 -89 29 -99
54 -5 14 -27 37 -49 50 -24 15 -41 34 -43 48 -2 17 -12 25 -38 30 -19 4 -66
14 -105 23 -128 30 -129 30 -210 -9 -78 -38 -93 -57 -115 -141 -4 -16 -9 -36
-11 -44 -4 -13 56 -64 116 -99 16 -9 48 -35 70 -57 39 -39 118 -95 134 -95 4
0 24 -11 43 -24 64 -43 223 -124 258 -131 19 -4 67 -24 107 -46 40 -21 81 -39
92 -39 11 0 36 -13 54 -30 26 -23 44 -30 75 -30 34 0 44 -5 62 -30 13 -19 30
-30 45 -30 13 0 36 -11 52 -24 40 -33 154 -86 189 -86 37 -1 100 -23 123 -44
11 -10 36 -16 67 -16 45 0 53 4 102 51 28 28 52 55 52 59 0 3 21 22 48 40 63
44 72 57 72 102 0 22 5 59 11 83 10 41 9 48 -30 127 -23 46 -41 89 -41 95 0 6
-16 21 -35 34 -32 22 -65 83 -65 120 0 9 -9 28 -20 42 -11 14 -20 37 -20 50 0
14 -4 36 -9 50 -18 48 1 54 81 25 40 -15 102 -36 138 -48 36 -13 88 -33 115
-45 28 -13 73 -30 100 -38 28 -8 83 -29 124 -46 87 -37 151 -40 199 -11 18 11
37 32 42 46 6 14 26 40 45 58 19 19 35 43 35 55 0 27 35 98 64 129 36 40 30
193 -11 243 -7 8 -13 27 -13 40 0 13 -11 40 -24 59 -13 20 -26 55 -30 78 -18
131 -109 278 -196 317 -22 10 -40 21 -40 25 0 4 -27 25 -60 46 -106 68 -154
120 -211 229 -28 55 -64 116 -80 136 -16 20 -29 44 -29 53 0 27 -81 96 -112
96 -15 0 -29 -4 -32 -9z"/>
<path d="M9385 6909 c-126 -7 -192 -20 -228 -43 -12 -8 -49 -22 -82 -31 -120
-32 -201 -59 -227 -77 -14 -10 -34 -18 -43 -18 -10 0 -47 -26 -84 -58 -36 -32
-79 -66 -94 -76 -15 -9 -31 -25 -34 -34 -3 -9 -16 -28 -28 -42 -30 -34 -95
-144 -95 -161 0 -8 -9 -31 -20 -52 -11 -20 -20 -52 -20 -71 0 -32 -11 -96 -32
-181 -5 -22 -13 -68 -18 -102 -5 -34 -18 -79 -28 -100 -11 -21 -22 -67 -26
-103 -11 -98 -14 -112 -27 -147 -11 -26 -11 -49 -1 -118 9 -59 9 -91 2 -104
-5 -11 -10 -43 -10 -70 0 -49 2 -54 60 -112 33 -33 63 -72 66 -87 15 -70 27
-92 58 -111 35 -22 136 -124 136 -138 0 -5 23 -31 50 -58 28 -28 83 -83 122
-122 39 -40 77 -73 83 -73 6 0 27 -14 47 -30 20 -17 56 -37 79 -45 24 -9 50
-22 59 -29 8 -8 39 -31 69 -51 49 -33 65 -37 172 -51 130 -16 228 -8 329 26
97 32 147 40 276 45 130 5 154 10 259 52 110 44 166 78 201 121 20 23 53 51
74 62 36 18 80 73 80 100 0 7 13 28 30 46 33 38 62 118 65 184 2 25 6 63 10
85 9 49 -12 72 -65 75 -61 3 -68 1 -120 -45 -28 -25 -55 -45 -59 -45 -15 0
-76 -93 -100 -153 -13 -31 -28 -60 -33 -63 -5 -3 -20 -23 -33 -43 -37 -60
-141 -113 -255 -131 -30 -5 -93 -17 -140 -25 -134 -26 -265 -44 -402 -56 -115
-11 -133 -10 -174 6 -26 10 -56 29 -68 42 -23 28 -99 80 -163 113 -23 12 -48
31 -56 43 -8 12 -27 36 -42 52 -14 17 -44 53 -64 80 -21 28 -50 61 -63 75 -36
36 -78 100 -78 120 0 9 -11 27 -25 40 -15 14 -25 35 -25 51 0 15 -9 49 -21 75
-24 57 -25 71 -16 324 5 162 10 205 28 255 11 33 24 80 29 105 26 141 96 287
190 397 72 84 150 111 415 142 39 5 102 14 140 21 84 15 77 15 190 -1 86 -12
145 -14 218 -9 34 2 79 -15 221 -85 75 -37 83 -44 108 -94 15 -30 32 -68 38
-86 6 -18 22 -43 35 -55 14 -13 25 -33 25 -44 0 -11 11 -43 24 -71 54 -115 57
-125 50 -178 -12 -86 -91 -186 -165 -207 -20 -6 -47 -18 -60 -29 -32 -25 -94
-44 -118 -36 -22 7 -26 17 -36 90 -4 28 -15 65 -26 83 -10 18 -19 48 -19 65 0
18 -9 58 -20 90 -11 31 -20 66 -20 77 0 12 -19 47 -41 80 -32 44 -52 62 -83
73 -23 8 -59 22 -81 31 -22 8 -53 15 -69 16 -33 0 -121 -39 -181 -80 -22 -15
-66 -44 -97 -64 -32 -20 -58 -39 -58 -43 0 -5 -16 -19 -35 -32 -19 -13 -37
-33 -41 -45 -3 -11 -19 -34 -34 -51 -91 -99 -123 -203 -126 -410 -2 -122 1
-155 14 -175 19 -31 87 -105 127 -139 16 -14 44 -41 61 -58 18 -18 59 -47 91
-64 51 -28 68 -32 143 -34 190 -3 310 42 378 145 30 44 50 61 102 87 37 19 81
33 101 33 19 0 76 16 125 35 49 19 100 35 114 35 36 0 86 33 156 106 39 40 65
76 69 96 4 18 16 44 27 59 15 20 21 49 25 115 3 49 9 96 13 104 13 24 -7 188
-25 216 -9 14 -20 60 -25 102 -10 88 -24 147 -38 165 -5 7 -17 35 -27 62 -10
28 -25 59 -32 70 -7 11 -13 26 -13 35 0 8 -22 38 -48 65 -26 28 -62 69 -81 93
-18 23 -40 42 -49 42 -10 0 -36 11 -60 25 -23 13 -59 27 -80 31 -20 4 -42 10
-47 15 -6 4 -29 13 -50 18 -22 6 -65 17 -95 26 -50 14 -105 19 -315 28 -38 2
-124 0 -190 -4z m224 -853 c26 -31 47 -298 41 -526 0 -25 2 -61 5 -81 6 -32 2
-41 -28 -70 -19 -19 -39 -44 -46 -56 -10 -20 -20 -23 -70 -23 -58 0 -59 0
-130 66 -90 84 -128 157 -141 278 -10 87 -5 115 35 195 24 46 169 186 219 211
47 23 98 26 115 6z"/>
</g>
</svg>
