<?xml version="1.0" standalone="no"?>
<!DOCTYPE svg PUBLIC "-//W3C//DTD SVG 20010904//EN"
 "http://www.w3.org/TR/2001/REC-SVG-20010904/DTD/svg10.dtd">
<svg version="1.0" xmlns="http://www.w3.org/2000/svg"
 width="3475.747768pt" height="2211.954305pt" viewBox="0 0 3475.747768 2211.954305"
 preserveAspectRatio="xMidYMid meet">
<metadata>
Created by potrace 1.13, written by Peter Selinger 2001-2015
</metadata>
<g transform="translate(-207.500000,2469.889530) scale(0.100000,-0.100000)"
fill="#333333" stroke="none">
<path d="M8435 24686 c-11 -7 -32 -16 -46 -19 -39 -10 -79 -46 -79 -71 0 -36
94 -276 169 -430 38 -77 74 -155 81 -173 6 -17 22 -41 36 -54 14 -13 24 -34
24 -49 0 -33 34 -114 66 -156 13 -17 24 -35 24 -40 0 -6 18 -27 39 -48 27 -26
42 -51 46 -77 6 -33 12 -40 61 -63 30 -14 64 -26 75 -26 53 0 100 72 80 121
-5 13 -15 60 -21 104 -10 76 -13 82 -50 113 -32 27 -44 47 -60 103 -14 45 -33
84 -54 107 -37 42 -48 61 -145 264 -39 80 -71 154 -71 165 0 10 -29 49 -65 88
-36 38 -65 71 -65 73 0 1 7 13 16 26 14 23 14 25 -8 40 -27 19 -29 19 -53 2z"/>
<path d="M11302 24413 c-22 -15 -46 -36 -52 -47 -6 -12 -29 -34 -50 -49 -38
-27 -39 -30 -39 -85 0 -107 -7 -177 -21 -202 -16 -28 -23 -71 -45 -245 l-14
-120 26 -37 c17 -25 27 -54 28 -85 2 -27 4 -51 4 -55 1 -11 51 -10 51 0 0 5
16 17 35 28 22 11 38 29 42 44 3 14 14 39 25 57 11 18 24 47 29 65 32 102 70
312 73 398 1 30 7 75 14 100 11 46 29 124 39 171 4 21 -1 31 -25 47 -57 41
-76 43 -120 15z"/>
<path d="M6170 23343 c-80 -11 -141 -28 -156 -44 -15 -16 -15 -22 -3 -51 18
-43 71 -101 137 -150 28 -21 52 -45 52 -53 0 -8 15 -26 34 -40 19 -14 37 -37
40 -50 3 -14 21 -35 40 -47 18 -13 52 -45 76 -73 46 -54 149 -134 199 -155 22
-9 40 -30 61 -69 17 -31 46 -67 65 -80 19 -13 35 -28 35 -33 0 -23 54 -58 91
-58 36 0 39 2 51 43 7 23 11 49 10 57 -2 8 -5 30 -8 49 -4 19 -19 57 -35 85
-16 28 -34 62 -41 76 -6 14 -30 44 -52 66 -106 108 -136 143 -136 157 0 8 -13
26 -29 40 -16 13 -36 37 -44 54 -16 31 -90 103 -106 103 -5 0 -18 18 -27 41
-15 33 -32 48 -94 83 -78 44 -115 55 -160 49z"/>
<path d="M12730 22853 c-59 -7 -138 -25 -170 -38 -19 -7 -47 -16 -61 -19 -14
-3 -56 -26 -94 -51 -50 -33 -79 -45 -106 -45 -24 0 -48 -9 -72 -27 -19 -16
-43 -33 -53 -39 -18 -11 -18 -13 -1 -42 9 -16 17 -37 17 -45 0 -12 99 -87 116
-87 4 0 34 -14 68 -31 53 -27 68 -30 111 -25 114 15 152 23 192 44 23 12 47
22 53 22 7 0 48 16 93 36 143 62 229 178 210 282 -11 64 -30 72 -168 70 -60
-1 -121 -3 -135 -5z"/>
<path d="M9370 22755 c-52 -6 -128 -23 -168 -38 -40 -15 -86 -27 -101 -27 -16
0 -39 -9 -52 -19 -43 -34 -93 -48 -192 -56 l-97 -7 -30 -38 c-52 -66 -207
-155 -313 -181 -54 -13 -110 -44 -124 -68 -14 -22 -130 -101 -148 -101 -7 0
-46 -34 -88 -75 -52 -50 -85 -75 -100 -75 -27 0 -57 -28 -57 -52 0 -9 -24 -41
-54 -72 -29 -31 -59 -69 -65 -84 -7 -16 -26 -36 -43 -47 -29 -17 -32 -17 -43
-1 -12 16 -46 22 -58 10 -3 -3 -2 -17 3 -30 8 -19 3 -33 -21 -69 -16 -24 -34
-47 -40 -50 -5 -4 -9 -37 -9 -75 0 -45 -7 -87 -19 -119 -29 -73 -30 -203 -2
-258 11 -23 21 -55 21 -70 1 -15 7 -39 15 -53 8 -14 14 -40 15 -58 0 -18 10
-46 22 -62 19 -27 21 -37 15 -139 -6 -109 -5 -109 23 -148 27 -34 29 -45 30
-118 0 -44 5 -96 11 -115 5 -19 11 -105 12 -190 2 -119 7 -162 19 -185 34 -65
48 -108 48 -148 1 -63 85 -216 119 -217 14 0 79 69 77 81 -2 14 38 49 56 49
24 0 23 -19 -4 -47 -20 -21 -20 -24 -5 -40 8 -10 17 -22 19 -28 2 -5 26 -10
55 -10 40 0 57 -5 74 -22 20 -19 21 -25 10 -52 -10 -23 -10 -38 -1 -65 6 -20
9 -44 5 -55 -4 -13 2 -23 19 -34 16 -11 23 -23 20 -35 -4 -13 11 -31 55 -65
33 -25 75 -53 93 -60 18 -8 50 -29 72 -46 21 -17 43 -31 48 -31 42 0 217 -127
228 -165 11 -42 112 -155 138 -155 7 0 39 -26 71 -57 32 -32 67 -66 80 -76 12
-9 24 -31 28 -48 3 -19 22 -43 49 -65 52 -43 63 -72 73 -208 7 -78 14 -112 28
-133 11 -15 23 -47 27 -70 5 -34 2 -46 -17 -70 -26 -33 -72 -141 -63 -150 3
-3 1 -12 -5 -19 -12 -15 -15 -170 -3 -206 12 -39 74 -121 105 -140 32 -20 38
-51 13 -83 -9 -12 -12 -30 -9 -47 4 -15 1 -43 -6 -62 -9 -26 -10 -44 -2 -70 9
-30 8 -37 -8 -52 -20 -18 -25 -49 -10 -58 4 -3 11 -35 14 -72 5 -49 14 -77 32
-104 19 -27 24 -45 20 -63 -5 -18 2 -44 21 -84 17 -37 28 -78 29 -113 2 -41
12 -74 41 -130 l39 -75 49 0 c47 0 49 -1 50 -28 1 -16 11 -34 24 -43 13 -9 27
-27 32 -40 9 -22 15 -24 83 -24 106 0 118 12 134 136 3 30 0 50 -12 68 -10 15
-16 28 -14 30 2 2 33 -1 69 -7 36 -5 76 -9 90 -8 14 1 75 3 135 5 96 4 119 8
182 35 49 21 88 31 122 31 28 0 68 6 88 14 33 12 142 33 267 52 56 8 136 86
145 140 6 37 8 39 51 45 25 4 64 14 87 23 27 10 57 13 84 10 41 -6 42 -6 35
20 -3 14 -8 38 -11 54 -3 15 -11 52 -16 82 -6 30 -18 73 -27 95 -8 22 -21 69
-27 105 -19 98 -43 198 -65 265 -10 33 -22 76 -25 95 -4 19 -14 55 -23 80 -31
89 -41 254 -30 495 6 115 5 122 -18 158 -13 20 -26 37 -28 37 -2 0 -32 -10
-67 -21 -49 -17 -92 -22 -184 -24 -84 -1 -143 -8 -195 -22 -150 -41 -296 -85
-320 -98 -47 -24 -235 -86 -304 -101 -38 -8 -90 -26 -117 -40 -90 -50 -121
-16 -133 141 -7 103 -31 226 -51 270 -8 17 -21 54 -29 82 -8 29 -28 73 -45 97
-17 24 -36 66 -42 92 -28 124 -30 128 -88 184 -31 30 -92 80 -135 110 -50 36
-85 68 -97 92 -10 20 -43 56 -72 80 -30 24 -83 75 -118 114 -35 38 -108 115
-161 172 -54 56 -98 106 -98 111 0 10 -143 133 -189 163 -62 41 -201 241 -201
289 0 12 -20 58 -44 102 -24 45 -47 96 -50 112 -4 17 -20 51 -36 75 -17 25
-30 52 -30 61 0 9 -13 59 -29 110 -68 221 -90 442 -55 545 8 25 19 83 24 127
11 97 27 151 80 273 22 50 40 100 40 111 0 18 66 84 180 180 79 66 370 202
434 203 11 0 38 9 60 19 67 32 146 51 209 51 41 0 70 6 91 19 25 15 51 19 131
19 55 0 123 5 150 11 68 14 412 -17 562 -50 23 -5 55 -9 71 -9 16 0 78 -21
138 -46 60 -26 138 -54 174 -64 97 -26 177 -65 185 -89 3 -12 24 -30 46 -41
25 -13 41 -29 45 -46 5 -18 19 -31 48 -44 25 -10 60 -39 85 -69 24 -28 64 -64
90 -78 80 -47 147 -111 160 -153 6 -22 16 -42 21 -45 17 -11 43 -78 41 -106
-2 -19 6 -33 28 -50 31 -24 31 -25 35 -142 4 -108 7 -122 35 -170 17 -29 33
-73 37 -97 4 -25 19 -67 34 -95 25 -48 27 -56 25 -182 -2 -96 -6 -137 -16
-149 -8 -10 -13 -25 -11 -36 4 -22 -34 -127 -54 -149 -8 -9 -21 -38 -29 -66
-18 -60 -65 -110 -126 -133 -38 -14 -53 -30 -104 -107 -33 -49 -77 -102 -98
-117 -21 -16 -36 -34 -33 -41 2 -7 -2 -24 -9 -39 -8 -14 -15 -40 -17 -58 -3
-31 -6 -33 -45 -36 -38 -3 -46 -8 -72 -46 -16 -23 -36 -48 -45 -55 -9 -8 -16
-25 -16 -40 -1 -18 -10 -32 -33 -47 -18 -11 -31 -25 -30 -30 1 -5 5 -36 8 -69
7 -58 6 -61 -29 -105 -40 -50 -45 -88 -22 -144 7 -18 17 -53 21 -77 3 -24 11
-59 17 -78 8 -25 7 -44 -2 -71 -11 -33 -10 -41 4 -61 9 -13 16 -30 16 -38 0
-7 12 -25 26 -38 20 -18 24 -29 19 -46 -4 -12 -9 -46 -11 -75 -4 -59 10 -89
51 -116 23 -15 29 -15 87 5 134 46 200 162 128 226 -22 19 -30 35 -30 60 0 18
-9 49 -19 69 -15 28 -17 42 -10 61 5 14 6 35 3 47 -10 29 -11 193 -3 296 5 61
15 101 33 141 25 53 143 205 254 329 172 191 233 258 256 279 14 14 26 33 26
43 0 10 27 47 60 83 32 35 62 76 66 92 4 15 15 40 26 55 10 15 24 42 30 60 6
18 19 44 30 57 10 13 18 32 18 43 0 11 5 28 10 38 6 11 15 63 20 117 20 184
26 228 40 256 12 24 11 35 -3 80 -10 32 -14 68 -10 94 4 31 -1 54 -20 96 -14
30 -32 79 -41 109 -8 30 -27 65 -41 78 -14 13 -25 34 -25 46 0 13 -4 26 -10
29 -5 3 -10 19 -10 34 0 15 -9 36 -20 46 -10 9 -24 32 -30 49 -6 18 -24 40
-41 50 -17 10 -39 36 -49 58 -9 21 -34 56 -54 76 -83 83 -145 163 -175 226
-25 51 -44 75 -88 108 -75 57 -183 165 -183 183 0 7 -8 16 -19 20 -10 3 -37
26 -59 50 -24 26 -50 45 -62 45 -11 0 -44 12 -72 26 -37 19 -67 26 -100 25
-43 -1 -50 2 -58 24 -6 17 -32 35 -86 59 -67 31 -84 35 -130 30 -56 -6 -114
14 -114 40 0 7 -9 21 -20 31 -19 17 -26 18 -66 7 -24 -7 -75 -12 -112 -13 -37
-1 -78 -4 -92 -8 -30 -8 -156 10 -187 27 -26 14 -113 13 -243 -3z m-1155
-2854 c0 -22 -32 -38 -46 -24 -9 9 -9 16 1 28 15 19 45 16 45 -4z m-75 -80 c0
-5 -7 -12 -16 -15 -22 -9 -24 -8 -24 9 0 8 9 15 20 15 11 0 20 -4 20 -9z
m2487 -1509 c42 -55 45 -113 9 -151 -39 -42 -71 -174 -44 -183 6 -2 11 -20 10
-39 -1 -30 13 -84 39 -144 4 -11 9 -29 11 -40 2 -10 22 -32 46 -48 40 -27 54
-58 32 -72 -5 -3 -10 -18 -10 -32 0 -13 -8 -38 -17 -53 -16 -27 -16 -31 0 -64
49 -101 72 -175 63 -203 -4 -12 -1 -33 5 -47 10 -20 10 -29 1 -38 -25 -25
-110 -50 -197 -57 -50 -5 -124 -19 -165 -31 -41 -13 -91 -24 -110 -25 -20 -1
-69 -18 -110 -37 -41 -20 -93 -41 -115 -48 -22 -7 -56 -21 -75 -31 -19 -11
-51 -19 -71 -19 -43 0 -157 -50 -182 -80 -10 -12 -23 -20 -30 -18 -7 3 -25 44
-41 94 -15 49 -33 103 -38 119 -6 17 -14 66 -19 110 -5 44 -14 89 -20 101 -6
11 -9 34 -7 50 l3 29 160 1 c102 0 171 5 190 13 16 7 57 13 90 15 45 2 69 9
98 29 28 19 57 28 108 33 43 4 78 13 93 25 12 10 47 29 77 43 63 30 122 72
163 114 l29 31 -13 66 c-16 82 -40 104 -98 87 -20 -6 -70 -14 -111 -18 -61 -6
-91 -16 -169 -55 -52 -27 -103 -49 -113 -49 -10 0 -42 -9 -71 -20 -29 -11 -65
-20 -79 -20 -14 0 -54 -11 -89 -25 -35 -14 -71 -25 -80 -25 -9 0 -46 -18 -83
-40 -48 -29 -77 -40 -106 -40 -49 0 -81 27 -81 68 0 35 -45 189 -61 209 -8 9
-10 34 -5 76 6 66 22 87 62 87 13 0 59 18 103 40 44 22 84 40 89 40 5 0 45 24
89 53 73 48 107 62 238 95 22 6 60 17 85 25 25 9 63 20 85 25 22 6 63 18 90
27 28 9 64 22 80 27 17 6 62 23 100 38 95 39 121 36 162 -18z"/>
<path d="M36783 21692 c-15 -9 -6 -52 11 -52 35 1 55 53 21 58 -11 1 -25 -1
-32 -6z"/>
<path d="M12991 21179 c-13 -5 -73 -11 -133 -13 -96 -3 -112 -6 -131 -24 l-21
-22 22 -44 c25 -52 110 -116 154 -116 16 0 45 -9 65 -20 21 -11 46 -20 56 -20
10 0 33 -11 50 -24 25 -18 50 -25 111 -30 44 -3 89 -12 100 -20 32 -20 258
-28 285 -9 12 8 21 21 21 28 0 8 18 26 40 40 22 14 42 35 44 48 20 95 15 126
-22 146 -37 20 -224 50 -347 55 -71 4 -157 13 -190 21 -69 17 -72 17 -104 4z"/>
<path d="M6230 20934 c-22 -9 -48 -13 -68 -9 -33 6 -143 -11 -174 -27 -25 -12
-143 -27 -301 -38 -112 -7 -142 -6 -165 6 -38 19 -64 18 -117 -8 -36 -18 -52
-34 -71 -72 -23 -46 -24 -49 -7 -62 68 -54 258 -93 385 -79 40 5 114 9 163 10
113 3 282 23 315 36 31 14 121 30 182 34 48 4 93 26 107 54 5 9 12 35 16 58 6
36 3 45 -22 73 -27 30 -32 31 -118 35 -67 3 -99 0 -125 -11z"/>
<path d="M10103 20810 c-13 -5 -23 -13 -24 -17 0 -4 -2 -54 -5 -109 -2 -60
-10 -113 -18 -129 -11 -21 -12 -33 -3 -52 8 -17 7 -36 -1 -71 -7 -26 -12 -78
-11 -117 1 -38 1 -101 0 -140 -1 -38 2 -94 5 -123 4 -37 1 -64 -10 -93 -22
-55 -23 -162 -2 -223 11 -30 20 -91 22 -155 3 -58 9 -133 14 -166 6 -33 10
-88 10 -123 0 -35 5 -73 12 -85 6 -12 13 -46 15 -74 4 -51 3 -53 -21 -53 -16
0 -27 7 -31 20 -3 11 -33 43 -66 71 -32 29 -59 57 -59 64 0 7 -9 20 -21 31
-12 10 -30 36 -40 56 -11 21 -32 52 -48 70 -15 18 -31 45 -34 59 -9 37 -96
167 -156 233 -29 32 -51 66 -51 78 0 12 -16 38 -34 58 -19 19 -51 67 -71 105
-20 39 -41 75 -46 81 -5 6 -20 44 -34 85 -47 143 -57 164 -93 218 -20 30 -53
70 -73 88 -42 38 -53 74 -37 120 10 26 9 36 -3 50 -9 10 -30 48 -47 84 -59
122 -94 139 -205 97 -46 -18 -63 -30 -75 -55 -14 -30 -14 -33 16 -80 17 -27
38 -77 46 -112 8 -35 20 -69 25 -74 6 -6 11 -20 11 -30 0 -10 9 -30 20 -44 11
-14 20 -36 20 -49 0 -13 15 -41 33 -61 18 -21 43 -63 56 -93 35 -84 35 -83 79
-113 42 -29 82 -97 82 -142 0 -12 11 -32 25 -45 14 -13 25 -34 25 -46 0 -23
17 -52 91 -158 23 -33 46 -74 51 -92 5 -18 25 -52 45 -76 19 -24 49 -67 65
-96 17 -28 40 -60 52 -70 13 -9 29 -29 36 -42 7 -14 30 -43 52 -65 136 -141
158 -166 158 -174 0 -6 21 -32 48 -60 26 -27 65 -70 88 -95 37 -42 44 -46 73
-40 36 7 60 -14 61 -52 0 -12 18 -42 40 -67 34 -38 40 -52 40 -90 0 -47 18
-74 44 -64 8 3 28 25 43 48 24 37 28 51 26 113 -2 81 -10 202 -17 261 -3 22
-10 76 -15 120 -6 44 -16 121 -22 170 -36 280 -53 1079 -25 1187 20 79 6 303
-22 330 -22 22 -78 31 -109 18z"/>
<path d="M16880 19761 c-22 -12 -54 -19 -82 -19 -26 1 -54 -5 -63 -12 -9 -7
-46 -16 -83 -20 -37 -4 -82 -13 -99 -21 -28 -11 -39 -11 -75 2 -34 12 -61 14
-131 8 -94 -9 -131 -24 -211 -88 -41 -33 -59 -37 -100 -21 -37 14 -45 -9 -13
-35 15 -11 27 -24 27 -28 0 -19 -41 -25 -117 -16 -72 8 -86 7 -129 -12 -27
-12 -51 -25 -54 -29 -14 -19 -45 -27 -68 -19 -19 7 -37 3 -79 -16 -31 -14 -70
-25 -89 -25 -23 0 -37 -6 -44 -20 -11 -20 -82 -45 -105 -36 -11 4 -34 -4 -122
-47 -12 -5 -34 -27 -49 -49 -15 -21 -31 -38 -35 -38 -5 0 -11 0 -14 0 -17 1
-67 -34 -85 -60 -11 -16 -53 -51 -92 -77 -39 -26 -73 -56 -76 -65 -2 -10 -20
-27 -38 -39 -19 -11 -41 -33 -48 -47 -8 -15 -32 -42 -55 -60 -27 -22 -41 -41
-41 -57 0 -30 -15 -39 -56 -37 -26 2 -37 -4 -53 -27 -12 -16 -21 -34 -21 -39
0 -6 -18 -25 -40 -42 -22 -17 -40 -40 -40 -49 0 -37 -113 -175 -167 -206 -42
-24 -128 -96 -158 -132 -15 -19 -36 -33 -49 -33 -25 0 -66 -26 -66 -42 0 -6
-14 -26 -30 -45 -25 -28 -30 -40 -25 -67 6 -28 2 -37 -25 -59 -17 -15 -44 -30
-58 -33 -15 -4 -43 -18 -62 -33 -19 -15 -47 -34 -62 -44 -23 -14 -28 -25 -28
-58 0 -40 -25 -89 -58 -116 -9 -7 -35 -13 -59 -13 -51 0 -79 -23 -88 -73 -6
-29 -14 -37 -68 -63 -48 -22 -67 -38 -84 -69 -13 -22 -23 -50 -23 -63 0 -18
-9 -27 -37 -39 -33 -13 -44 -27 -81 -102 -27 -55 -42 -99 -42 -123 0 -43 -39
-95 -98 -129 -50 -28 -95 -87 -88 -116 4 -14 -2 -31 -19 -51 -14 -17 -25 -35
-25 -41 0 -6 -25 -41 -56 -77 -30 -36 -54 -73 -52 -82 1 -9 -13 -33 -32 -54
-80 -84 -110 -129 -110 -164 0 -19 -7 -46 -16 -60 -16 -23 -16 -27 2 -59 17
-32 17 -35 1 -53 -14 -15 -16 -29 -11 -61 6 -40 6 -41 -24 -47 -46 -9 -55 -26
-54 -103 0 -65 -1 -68 -31 -86 -48 -29 -78 -67 -73 -94 2 -15 -7 -41 -25 -69
-16 -25 -29 -53 -29 -63 0 -20 -28 -89 -44 -109 -16 -19 -36 -89 -36 -126 0
-30 -41 -99 -78 -135 -21 -19 -23 -30 -26 -115 -1 -18 -9 -41 -18 -51 -10 -11
-18 -26 -18 -34 0 -8 -30 -41 -66 -74 -58 -52 -65 -63 -60 -87 3 -15 1 -39 -4
-53 -7 -20 -6 -32 6 -50 9 -13 13 -29 9 -35 -11 -17 -27 -110 -55 -318 -9 -68
-8 -91 5 -134 18 -61 20 -151 4 -180 -14 -27 9 -48 45 -41 34 7 43 -15 11 -27
-22 -8 -24 -13 -15 -29 15 -30 12 -39 -17 -53 -41 -20 -52 -88 -23 -140 24
-43 20 -72 -19 -127 -17 -23 -19 -38 -14 -80 6 -53 -11 -154 -31 -180 -5 -7
-21 -17 -34 -22 -20 -8 -23 -14 -17 -40 13 -58 13 -64 -2 -87 -9 -14 -11 -31
-7 -45 10 -28 6 -48 -14 -70 -13 -15 -14 -22 -4 -38 7 -11 10 -29 6 -41 -4
-15 3 -27 28 -49 32 -28 32 -29 14 -43 -11 -9 -29 -13 -46 -9 -32 6 -43 -7
-47 -52 -8 -85 -13 -143 -14 -168 -2 -36 38 -80 66 -73 18 5 21 0 23 -40 1
-27 -5 -59 -15 -77 -22 -41 -20 -47 28 -110 36 -48 39 -57 39 -114 0 -34 -5
-73 -11 -86 -14 -30 12 -126 41 -152 22 -20 27 -74 9 -106 -6 -12 -7 -28 -3
-37 4 -9 8 -53 9 -97 2 -44 5 -115 8 -158 3 -66 1 -82 -15 -102 -10 -13 -17
-27 -16 -32 1 -4 -2 -19 -6 -31 -6 -19 -2 -30 18 -51 29 -30 32 -41 13 -41 -7
0 -18 -5 -25 -12 -14 -14 2 -48 23 -48 8 0 15 -8 15 -17 1 -17 1 -17 14 -1 12
16 15 16 45 -3 31 -19 32 -21 19 -42 -8 -12 -33 -31 -56 -41 -48 -22 -51 -34
-19 -72 l23 -27 21 27 c27 34 39 33 52 -6 9 -25 8 -35 -4 -48 -19 -21 -19 -40
-1 -40 24 0 29 -20 10 -41 -16 -18 -16 -21 -1 -52 9 -17 26 -43 37 -57 12 -16
20 -42 20 -70 3 -108 10 -136 40 -153 15 -9 31 -28 34 -42 4 -14 13 -25 21
-25 20 0 92 -76 115 -120 10 -20 26 -42 34 -49 9 -8 16 -20 16 -29 0 -8 11
-30 25 -48 13 -17 29 -50 33 -72 5 -22 18 -53 29 -69 11 -15 23 -40 26 -54 4
-14 18 -42 32 -63 14 -20 25 -44 25 -53 0 -9 20 -36 45 -60 36 -35 45 -49 45
-78 0 -27 7 -39 30 -57 30 -22 30 -22 27 -107 -5 -122 -3 -128 45 -134 43 -6
54 -16 64 -57 11 -41 24 -50 75 -50 42 0 49 -3 49 -19 0 -24 36 -51 68 -51 13
0 40 10 61 22 33 19 41 20 55 9 20 -17 21 -50 1 -57 -8 -4 -15 -17 -15 -30 0
-27 39 -58 63 -49 8 4 18 2 21 -3 4 -7 19 -7 42 0 25 6 40 6 47 -1 14 -14 5
-21 -29 -25 -42 -5 -51 -27 -27 -67 22 -37 29 -94 13 -104 -20 -13 -9 -25 23
-25 46 0 57 -15 57 -81 l0 -56 71 -72 70 -72 52 6 52 7 13 -34 c6 -19 12 -48
12 -65 0 -36 12 -48 60 -60 23 -6 36 -16 38 -29 2 -13 17 -25 45 -35 28 -11
53 -31 76 -60 18 -24 50 -51 70 -59 70 -29 120 -63 131 -90 6 -15 27 -34 46
-43 19 -9 34 -20 34 -25 0 -22 75 -80 126 -98 34 -11 63 -29 73 -43 9 -13 37
-47 64 -74 26 -28 47 -56 47 -63 0 -7 12 -23 28 -36 15 -12 37 -36 50 -53 15
-19 47 -39 90 -56 52 -20 67 -31 67 -47 0 -11 14 -33 30 -50 17 -16 46 -48 65
-71 42 -51 77 -71 124 -71 30 0 39 -7 70 -49 20 -27 36 -53 36 -58 0 -5 14
-28 31 -51 26 -36 37 -42 80 -48 52 -7 64 -25 29 -44 -33 -18 -23 -30 24 -30
38 0 45 -3 55 -28 10 -23 9 -37 -3 -73 -17 -48 -14 -57 38 -112 14 -15 27 -38
27 -50 1 -12 3 -31 3 -42 1 -11 -2 -29 -5 -41 -8 -23 6 -54 25 -54 7 0 18 16
26 35 10 26 19 35 34 34 43 -4 56 2 62 26 3 13 14 27 24 30 26 8 70 -15 70
-37 0 -10 8 -19 18 -19 66 -5 81 -14 82 -46 0 -7 5 -13 10 -13 6 0 10 -16 10
-35 0 -26 -9 -44 -34 -71 -43 -46 -51 -76 -30 -109 19 -29 20 -27 -25 -50 -31
-15 -33 -20 -28 -55 8 -58 29 -93 70 -115 20 -11 37 -25 37 -31 0 -6 9 -19 20
-29 18 -16 20 -16 26 -1 3 9 2 29 -4 44 -5 15 -11 46 -11 69 -3 77 63 76 89
-1 12 -39 39 -55 52 -31 10 17 34 20 43 5 3 -5 -1 -20 -9 -32 -20 -28 -21 -82
-1 -98 8 -7 15 -18 15 -25 0 -6 12 -17 26 -24 22 -10 25 -16 19 -39 -4 -15
-13 -31 -22 -36 -22 -12 -8 -94 22 -126 13 -14 23 -37 23 -52 -1 -31 17 -58
38 -58 7 0 17 -6 21 -13 4 -7 28 -26 53 -43 34 -22 46 -38 53 -67 6 -25 22
-48 47 -68 25 -21 36 -36 33 -49 -6 -24 22 -76 52 -96 31 -20 48 -77 33 -109
-9 -19 -7 -28 10 -49 17 -22 18 -31 10 -60 -9 -29 -7 -39 11 -70 15 -24 21
-48 20 -79 -2 -24 1 -50 6 -57 5 -8 10 -37 11 -65 2 -27 5 -82 8 -121 5 -66 3
-74 -19 -100 -14 -16 -25 -39 -25 -50 0 -12 -10 -43 -22 -70 -12 -27 -25 -74
-29 -104 -11 -86 -25 -127 -54 -162 -15 -18 -36 -51 -45 -74 -20 -46 -121
-142 -160 -151 -14 -3 -39 -18 -57 -32 -46 -38 -118 -81 -136 -81 -8 0 -37 -9
-64 -21 -26 -12 -74 -23 -107 -25 -32 -3 -66 -9 -75 -14 -9 -5 -57 -11 -107
-15 -49 -3 -107 -10 -129 -15 -22 -4 -67 -14 -100 -20 -33 -6 -89 -18 -125
-25 -150 -31 -180 -35 -285 -39 -66 -3 -126 -11 -148 -21 -20 -8 -49 -15 -64
-15 -16 0 -73 -11 -127 -25 -54 -14 -116 -25 -138 -25 -22 0 -63 -7 -91 -15
-29 -8 -99 -19 -157 -24 -58 -6 -128 -17 -156 -25 -41 -13 -61 -14 -110 -4
-32 6 -87 12 -120 13 -34 2 -67 6 -74 10 -7 4 -48 7 -93 6 -68 -2 -88 2 -134
24 -49 25 -64 27 -216 30 -216 5 -371 13 -492 25 -55 6 -162 15 -239 20 -76 5
-159 16 -185 24 -25 8 -62 17 -81 21 -19 3 -57 12 -85 20 -86 24 -186 38 -295
41 -58 2 -122 9 -142 15 -29 9 -73 10 -180 2 -79 -6 -226 -11 -328 -12 -230
-2 -389 -15 -460 -40 -30 -11 -76 -22 -102 -26 -26 -3 -68 -17 -93 -31 -25
-13 -58 -24 -72 -24 -76 0 -425 -111 -510 -162 -34 -21 -66 -38 -71 -38 -5 0
-27 -12 -48 -28 -21 -15 -56 -35 -78 -45 -99 -46 -265 -178 -266 -212 0 -5
-31 -25 -68 -42 -50 -23 -83 -49 -120 -90 -28 -32 -67 -74 -87 -93 -19 -19
-35 -40 -35 -46 0 -5 -16 -26 -36 -45 -59 -57 -115 -135 -109 -152 4 -8 20
-18 37 -21 l31 -6 -26 -24 c-19 -17 -26 -34 -26 -58 0 -18 -9 -58 -20 -88 -27
-71 -27 -116 -1 -130 11 -6 62 -15 112 -19 83 -8 96 -7 123 9 17 11 45 26 63
34 18 8 35 22 38 31 3 8 12 15 20 15 12 0 26 -24 82 -137 9 -19 28 -37 46 -43
17 -7 39 -16 49 -21 23 -12 346 -2 405 13 33 8 53 7 95 -5 75 -23 222 -14 310
19 47 18 114 18 158 1 49 -19 257 -5 306 21 32 18 77 14 104 -7 28 -21 98 -33
189 -32 36 1 80 -3 97 -8 20 -6 69 -6 127 -1 76 8 102 6 130 -5 31 -13 40 -13
97 5 34 11 68 25 75 31 8 7 29 9 51 5 21 -4 66 -10 100 -15 35 -5 70 -14 78
-21 8 -7 40 -25 71 -42 57 -29 58 -29 128 -17 105 19 148 16 200 -15 39 -23
59 -27 143 -30 126 -5 285 -21 397 -40 49 -9 105 -16 125 -16 24 0 49 -9 71
-25 28 -20 45 -25 96 -25 34 0 79 -7 100 -16 27 -11 69 -17 134 -17 60 0 102
-4 115 -13 14 -9 53 -11 137 -9 70 3 120 1 123 -5 3 -6 26 -10 49 -10 24 0 63
-7 87 -16 47 -16 142 -14 192 5 22 8 35 8 57 -4 16 -8 32 -19 35 -25 9 -14 63
-12 112 5 35 12 57 13 120 4 79 -10 117 -13 163 -9 27 2 189 -14 256 -25 30
-5 48 -3 65 9 35 22 134 21 249 -4 25 -6 97 -12 160 -15 63 -3 153 -7 200 -10
63 -3 96 0 127 11 38 15 46 15 88 1 26 -9 59 -14 74 -11 17 4 47 -2 79 -16 29
-12 61 -20 73 -17 12 3 33 1 48 -5 14 -6 78 -10 141 -8 175 3 212 7 222 24 15
27 71 51 123 52 28 1 70 7 95 13 25 7 63 14 85 16 22 2 51 8 65 13 19 7 34 4
61 -10 48 -25 163 -36 185 -17 16 13 88 26 190 33 28 3 81 18 117 35 37 16 88
33 113 37 51 7 116 36 116 50 -1 21 31 74 47 79 10 3 28 15 41 27 20 19 36 22
119 24 53 1 108 6 122 12 19 8 33 7 57 -5 30 -15 32 -14 74 19 43 34 75 52
113 62 32 9 115 92 115 114 0 22 76 74 163 111 26 11 59 29 74 40 16 11 55 25
88 31 126 24 130 26 187 96 37 46 68 73 103 89 27 13 55 34 60 47 6 13 17 22
27 20 47 -8 125 60 316 273 10 11 35 51 55 88 33 61 36 70 22 83 -33 34 -13
55 43 46 27 -4 32 -1 32 15 0 10 23 43 50 73 48 52 50 57 50 111 0 55 1 58 28
61 27 3 27 3 24 71 -2 55 1 74 18 97 11 15 20 36 20 45 0 9 4 24 10 34 6 11 6
30 1 49 -7 24 -5 35 9 52 11 12 24 38 31 57 9 29 8 42 -10 83 -19 44 -20 52
-7 87 13 38 13 42 -15 86 -28 45 -35 50 -95 62 -39 7 -68 61 -59 109 6 28 2
37 -37 72 -34 31 -42 45 -40 67 2 15 -1 27 -7 27 -20 0 -11 26 15 49 l26 23
-31 32 c-33 34 -38 55 -20 87 15 28 -5 51 -37 43 -36 -9 -53 10 -47 55 4 32 1
41 -22 59 l-26 21 16 53 c16 49 16 57 0 110 -9 32 -21 60 -26 63 -5 4 -9 15
-9 25 0 11 -13 35 -30 53 -16 19 -27 36 -25 39 3 3 -11 19 -30 37 -37 33 -36
28 -39 183 -1 20 -7 43 -13 49 -7 7 -13 20 -13 29 0 22 -48 110 -76 141 -13
14 -24 33 -24 42 0 10 -24 44 -54 76 -30 33 -65 79 -77 103 -12 24 -37 60 -55
81 -19 20 -34 43 -34 51 0 8 -78 91 -172 184 -310 304 -323 315 -413 363 -23
11 -48 34 -57 50 -10 16 -26 29 -36 29 -11 0 -30 8 -43 19 -13 10 -46 28 -74
40 -34 15 -78 50 -141 114 -100 101 -161 155 -244 218 -30 22 -60 54 -67 70
-7 16 -17 29 -22 29 -6 0 -23 12 -39 27 -15 16 -45 36 -65 45 -21 10 -41 28
-46 41 -5 13 -20 31 -34 40 -13 8 -31 22 -38 30 -8 7 -25 19 -38 26 -23 13
-91 72 -115 100 -6 7 -37 42 -70 77 -36 39 -61 76 -65 96 -6 29 -15 37 -74 65
-45 22 -74 43 -85 62 -9 17 -27 32 -38 35 -12 3 -44 28 -71 55 -26 27 -70 61
-98 75 -27 15 -55 34 -61 42 -6 7 -29 20 -50 28 -86 30 -133 58 -152 91 -11
18 -38 43 -61 56 -22 12 -43 30 -46 40 -3 10 -29 35 -57 56 -28 21 -63 47 -78
58 -15 11 -50 44 -78 73 -28 28 -56 52 -62 52 -24 0 -70 42 -70 63 -1 12 -15
39 -33 59 -30 35 -54 53 -162 124 -22 15 -53 44 -70 65 -16 22 -40 52 -51 67
-12 15 -25 38 -29 52 -11 36 -34 59 -88 87 -35 17 -53 34 -63 58 -8 19 -32 46
-53 60 -21 14 -52 48 -70 75 -31 47 -101 104 -206 166 -26 15 -57 43 -69 63
-13 20 -42 55 -65 79 -36 37 -41 48 -36 72 5 24 1 32 -24 51 -34 25 -61 83
-68 149 -2 25 -16 67 -29 94 -14 26 -23 54 -20 61 2 7 -2 22 -10 33 -8 12 -24
51 -35 89 -11 37 -36 91 -54 118 -19 28 -39 70 -45 95 -6 25 -18 72 -27 105
-23 92 -53 155 -75 155 -11 0 -18 7 -18 20 0 13 7 20 19 20 30 0 34 17 13 48
-12 18 -17 35 -12 52 6 26 -7 112 -22 146 -7 15 -6 28 2 44 11 20 8 26 -24 59
-20 20 -36 46 -36 56 -1 11 -8 38 -17 60 -8 22 -19 74 -24 115 -12 106 -16
310 -6 342 5 16 5 34 -1 45 -7 12 -6 26 4 45 13 25 12 32 -4 65 -20 40 -19 62
4 76 16 9 19 93 4 102 -18 11 -10 25 14 25 30 0 44 17 44 53 0 28 5 44 45 123
15 30 19 53 15 87 -5 39 -2 49 18 68 14 13 29 41 35 63 6 23 28 70 49 106 21
36 46 83 56 105 9 22 21 50 27 63 10 21 51 73 127 164 17 20 42 65 56 100 20
51 34 71 76 103 28 22 83 72 122 111 68 69 157 133 211 154 15 6 42 22 60 36
44 33 116 56 188 58 42 2 65 8 85 25 44 35 124 71 162 71 19 0 44 7 55 16 12
9 41 15 70 15 55 0 218 13 335 28 267 33 280 33 325 22 26 -6 50 -9 54 -6 5 2
44 -4 87 -15 44 -11 98 -24 122 -30 23 -5 69 -10 102 -10 49 0 74 -7 130 -35
39 -19 85 -35 103 -35 19 0 54 -9 79 -20 36 -16 54 -18 95 -11 50 8 103 -7
103 -28 0 -5 28 -20 63 -34 45 -18 98 -28 191 -37 106 -9 137 -16 180 -38 32
-17 69 -28 101 -29 189 -8 382 -30 455 -53 19 -6 52 -8 73 -4 28 4 50 0 80
-14 23 -11 67 -27 97 -36 173 -47 174 -48 203 -37 38 15 47 14 47 -4 0 -20 42
-29 106 -21 37 4 63 2 82 -7 18 -9 56 -13 112 -11 68 2 91 -1 116 -16 49 -28
119 -38 239 -35 104 3 111 5 130 29 23 29 37 32 57 13 14 -14 84 -32 163 -42
28 -4 142 -8 255 -9 221 -2 263 6 303 54 14 16 25 20 43 16 22 -6 102 11 165
35 15 6 31 21 37 35 13 28 37 30 78 9 32 -16 144 -21 160 -6 17 17 137 61 164
61 15 0 34 7 41 16 22 26 87 64 110 64 11 0 29 -10 38 -21 21 -26 34 -21 112
46 29 25 58 45 64 45 18 0 95 84 95 103 0 10 14 26 31 35 17 9 47 29 66 45 49
37 86 36 129 -7 22 -22 34 -43 34 -62 0 -15 11 -39 23 -53 23 -25 67 -132 67
-162 0 -19 41 -99 72 -140 14 -19 30 -50 36 -69 18 -58 42 -176 42 -204 0 -15
12 -39 30 -57 23 -24 29 -40 28 -68 0 -20 4 -46 10 -58 7 -12 12 -34 12 -50 0
-15 6 -48 13 -73 20 -68 15 -175 -10 -203 -24 -26 -39 -113 -34 -200 2 -40 -2
-65 -13 -82 -10 -15 -18 -55 -21 -107 -3 -46 -10 -112 -16 -148 -13 -79 -15
-360 -3 -382 5 -9 28 -37 52 -62 38 -41 48 -46 86 -46 24 0 57 7 75 16 31 15
101 106 101 131 0 6 15 13 32 15 28 3 37 11 64 63 27 50 32 67 27 106 -3 29
-1 49 6 53 8 5 9 24 5 57 -6 45 -4 53 21 79 19 20 25 34 21 48 -4 11 -2 23 4
27 6 4 8 20 5 38 -4 20 -1 43 9 61 8 16 12 34 9 40 -16 26 -20 91 -7 111 16
24 20 71 10 103 -6 17 -4 22 11 22 25 0 163 -140 163 -166 0 -26 18 -44 45
-44 31 0 50 -27 64 -90 14 -64 34 -90 70 -90 20 0 31 -10 49 -41 18 -30 29
-39 45 -37 19 3 22 9 22 45 0 22 2 44 5 47 3 3 25 6 48 7 24 2 45 6 48 11 3 4
-7 25 -22 48 -22 34 -25 44 -16 67 5 16 13 36 16 46 8 25 35 9 67 -38 21 -31
28 -35 54 -30 17 3 44 8 62 10 38 5 93 32 93 45 0 13 -112 142 -146 169 -15
12 -38 24 -50 27 -13 3 -35 21 -49 40 -14 19 -32 34 -40 34 -8 0 -40 23 -71
50 -37 32 -66 50 -83 50 -14 0 -44 14 -65 30 -22 17 -49 30 -61 30 -29 0 -45
19 -45 52 0 38 -37 72 -103 93 -29 9 -59 23 -67 30 -8 7 -31 16 -50 20 -19 4
-45 16 -57 27 -24 22 -43 99 -41 161 2 27 -3 42 -15 48 -12 7 -15 18 -11 39 4
19 -1 44 -16 74 -13 28 -19 54 -15 66 4 11 0 42 -9 68 -8 26 -18 74 -22 107
-4 33 -13 70 -21 82 -20 30 -53 141 -53 178 0 17 -9 41 -20 55 -11 14 -20 33
-20 43 0 10 -16 46 -35 78 -19 33 -35 70 -35 81 0 12 -17 38 -39 58 -44 42
-61 70 -61 100 0 11 -21 43 -47 71 -47 50 -66 104 -65 184 0 17 -5 58 -11 92
-9 53 -8 65 5 80 8 10 18 47 22 82 3 36 13 75 21 87 8 13 15 42 15 65 0 29 7
50 25 71 14 16 25 38 25 49 0 11 7 33 15 49 9 17 13 40 9 54 -4 19 0 28 21 42
29 19 65 82 65 113 0 11 12 47 26 81 26 60 27 61 9 93 -13 24 -15 39 -8 53 5
10 9 59 7 108 -1 69 -5 92 -18 101 -9 7 -16 17 -16 24 0 14 40 54 47 47 10
-10 33 16 33 38 0 11 7 29 15 40 24 32 29 100 10 129 -9 15 -14 34 -10 46 3
10 1 22 -4 26 -7 3 -9 34 -7 74 2 38 0 75 -5 82 -5 9 0 23 16 39 l24 25 -25
80 c-14 44 -36 91 -50 106 -14 14 -24 37 -24 54 0 15 -11 43 -25 61 -14 18
-25 46 -25 62 0 17 -12 53 -27 82 -20 39 -33 53 -55 57 -22 4 -28 11 -28 31 0
26 -49 82 -72 82 -7 0 -21 10 -31 23 -9 12 -28 36 -42 53 -14 18 -25 42 -25
53 0 12 -15 36 -34 54 -19 18 -39 41 -44 53 -6 11 -41 36 -77 54 -91 46 -155
132 -155 207 0 31 -34 93 -50 93 -6 0 -9 4 -5 9 3 6 -9 20 -26 33 -30 22 -31
25 -26 80 5 56 4 58 -29 83 -19 14 -31 31 -28 39 3 8 -6 26 -20 41 -20 22 -26
38 -26 74 0 42 -3 48 -32 65 -49 28 -118 97 -118 119 0 11 -13 23 -37 33 -48
20 -85 55 -126 119 -18 27 -44 61 -59 73 -16 13 -28 32 -28 41 0 10 -11 30
-24 44 -14 15 -26 39 -28 54 -2 22 -10 29 -35 34 -18 3 -58 27 -89 53 -31 25
-65 46 -76 46 -26 0 -80 29 -74 39 8 12 -21 34 -79 62 -27 13 -63 34 -78 46
-16 13 -41 23 -56 23 -58 0 -120 31 -165 82 -31 36 -61 57 -102 74 -69 28 -78
29 -94 9 -21 -25 -48 -17 -92 26 -40 39 -45 41 -86 35 -50 -7 -103 13 -140 52
-18 19 -30 23 -52 18 -20 -4 -41 1 -63 14 -18 11 -52 26 -75 34 -24 9 -55 24
-70 34 -24 17 -83 29 -218 47 -23 2 -54 12 -70 20 -20 10 -43 13 -75 9 -30 -4
-61 -1 -92 10 -26 9 -63 16 -82 16 -20 0 -37 6 -42 15 -5 9 -34 32 -63 52 -46
30 -63 35 -100 33 -158 -9 -247 -3 -335 23 -49 15 -135 33 -190 42 -54 9 -104
20 -110 25 -15 12 -131 29 -190 28 -27 -1 -74 3 -104 10 -29 7 -84 12 -121 12
-47 0 -82 6 -116 22 -41 18 -71 22 -193 24 -98 2 -156 -1 -181 -10 -26 -9 -44
-10 -61 -2 -13 5 -58 10 -99 11 -41 0 -88 4 -105 8 -21 5 -40 1 -65 -12z m193
-245 c100 -23 202 -36 277 -36 38 0 81 -5 97 -11 19 -7 46 -7 88 0 48 8 70 8
109 -4 27 -8 62 -15 78 -15 16 0 47 -9 68 -20 28 -14 56 -20 92 -18 65 2 156
-17 179 -38 11 -10 53 -19 115 -25 55 -6 127 -17 161 -25 34 -8 83 -14 108
-14 26 0 54 -4 64 -9 9 -5 37 -12 61 -15 25 -3 77 -17 115 -32 39 -14 102 -30
141 -35 39 -5 100 -21 135 -35 35 -15 87 -28 114 -30 65 -4 147 -26 215 -58
30 -14 66 -26 79 -26 14 0 59 -18 102 -40 43 -22 92 -40 108 -40 18 0 40 -9
52 -21 11 -11 35 -27 52 -34 18 -8 40 -23 49 -34 17 -20 32 -25 73 -22 11 1
39 -5 63 -13 24 -9 56 -13 73 -9 25 5 35 1 59 -26 21 -22 38 -31 60 -31 36 0
108 -34 116 -55 3 -8 26 -28 52 -45 36 -24 48 -27 60 -18 11 10 16 9 24 -5 5
-9 26 -26 46 -36 20 -10 54 -35 74 -55 20 -20 44 -36 53 -36 26 0 75 -29 75
-45 0 -8 45 -59 100 -113 65 -64 110 -117 127 -153 19 -37 39 -59 62 -71 50
-25 87 -64 102 -110 8 -24 28 -52 51 -71 21 -16 40 -39 44 -51 3 -12 19 -34
34 -51 15 -16 35 -44 43 -60 8 -17 36 -49 61 -72 25 -23 46 -48 46 -56 0 -36
77 -175 121 -217 30 -29 48 -57 53 -79 3 -19 23 -53 45 -76 28 -31 46 -63 60
-113 12 -38 21 -75 21 -83 0 -8 9 -27 20 -44 11 -16 20 -42 20 -56 0 -14 13
-43 30 -65 16 -21 30 -48 30 -60 0 -12 11 -41 24 -66 13 -25 27 -65 31 -89 4
-24 16 -56 27 -71 12 -17 16 -36 13 -51 -4 -15 3 -45 19 -80 13 -31 28 -78 32
-104 4 -27 15 -67 25 -91 27 -62 26 -189 -1 -242 -18 -35 -19 -51 -13 -144 5
-83 3 -114 -9 -143 -8 -21 -21 -54 -29 -73 -7 -19 -14 -72 -14 -116 0 -45 -5
-88 -11 -95 -14 -17 -26 -115 -29 -224 -2 -58 -8 -93 -25 -129 -16 -36 -21
-59 -16 -87 5 -31 3 -40 -13 -48 -14 -8 -31 -4 -75 20 -32 17 -63 40 -69 51
-7 11 -30 29 -52 40 -66 34 -102 66 -156 139 -44 60 -57 71 -96 81 -25 6 -68
27 -96 46 -34 24 -68 37 -106 43 -107 15 -221 61 -221 89 0 6 -17 18 -37 27
-74 30 -76 47 -10 87 47 27 132 107 160 149 13 19 26 27 47 27 21 0 39 10 61
35 18 19 38 35 45 35 7 0 28 15 46 34 18 18 47 37 63 41 37 8 95 92 95 137 0
31 -38 78 -64 78 -35 0 -150 -33 -203 -58 -77 -36 -159 -99 -173 -132 -8 -19
-38 -42 -98 -75 -48 -27 -94 -54 -103 -62 -9 -7 -69 -40 -134 -74 -65 -33
-132 -71 -149 -83 -33 -24 -146 -76 -164 -76 -6 0 -59 -25 -117 -55 -58 -30
-112 -55 -120 -55 -16 0 -103 -44 -164 -82 -34 -21 -108 -41 -276 -74 -44 -8
-110 -24 -146 -35 -56 -17 -86 -19 -195 -16 -155 6 -252 18 -317 41 -26 9 -61
16 -77 16 -16 0 -53 9 -82 21 -31 12 -86 23 -133 26 -51 3 -93 12 -118 25 -22
11 -71 26 -111 34 -100 21 -239 79 -299 125 -47 35 -114 59 -166 59 -10 0 -39
-11 -65 -25 -27 -14 -64 -25 -85 -25 -46 0 -56 -11 -65 -69 -5 -33 -2 -50 10
-70 25 -37 55 -59 92 -66 18 -3 47 -15 65 -25 19 -11 58 -24 87 -30 38 -7 64
-20 85 -40 29 -28 37 -30 103 -30 58 0 83 -5 122 -25 27 -14 59 -25 71 -25 11
0 32 -9 47 -20 21 -17 34 -20 82 -14 51 6 63 3 121 -26 55 -27 78 -33 162 -37
69 -4 97 -3 97 6 0 6 5 11 10 11 6 0 10 -7 10 -15 0 -9 6 -12 15 -8 9 3 42 -4
75 -16 54 -20 66 -21 145 -11 47 6 100 8 118 5 45 -8 179 9 262 34 39 11 81
21 95 21 14 0 37 8 50 17 13 9 49 20 80 24 56 6 230 71 309 115 68 38 118 49
231 51 58 1 130 4 161 8 46 5 65 3 102 -14 25 -12 55 -21 66 -21 31 0 63 -15
94 -44 15 -14 34 -26 42 -26 8 0 51 -12 97 -26 62 -20 94 -37 126 -66 59 -54
106 -73 143 -58 40 17 59 7 59 -30 0 -39 33 -104 62 -124 12 -9 42 -16 66 -16
38 0 51 -6 98 -47 40 -36 55 -57 60 -83 4 -23 19 -46 42 -66 31 -26 36 -37 40
-86 4 -57 -23 -155 -53 -188 -8 -8 -18 -28 -24 -43 -15 -40 -107 -147 -161
-187 -25 -19 -59 -49 -76 -67 -19 -19 -42 -33 -56 -33 -13 0 -42 -9 -63 -21
-26 -13 -59 -21 -92 -21 -64 0 -148 -21 -183 -46 -14 -10 -43 -23 -66 -30 -23
-7 -58 -25 -79 -42 -20 -16 -41 -28 -45 -25 -16 10 -174 14 -186 5 -26 -22
-156 -60 -206 -60 -29 0 -107 -10 -173 -21 -187 -33 -197 -34 -219 -10 -21 23
-57 27 -105 10 -24 -9 -64 -9 -154 0 -359 35 -439 48 -562 91 -71 25 -110 33
-185 35 -52 2 -111 9 -130 16 -19 6 -71 13 -115 14 -44 1 -118 12 -165 23 -79
19 -230 45 -361 62 -30 4 -65 12 -77 19 -11 6 -31 11 -44 11 -13 0 -46 9 -75
20 -36 13 -78 20 -135 20 -46 0 -91 1 -102 1 -10 0 -40 9 -67 20 -28 10 -69
19 -93 19 -32 0 -54 8 -84 30 -23 17 -48 30 -56 30 -8 0 -18 4 -21 10 -4 6
-36 8 -79 5 -68 -4 -76 -2 -122 26 -43 28 -54 31 -100 25 -38 -4 -62 -1 -90
11 -30 13 -64 16 -149 15 -79 -2 -123 2 -159 14 -36 12 -69 15 -122 11 -64 -5
-77 -3 -99 15 -18 14 -34 18 -53 15 -15 -4 -47 -10 -72 -15 -25 -4 -54 -13
-65 -18 -11 -6 -71 -9 -133 -8 -111 1 -114 1 -123 -22 -5 -14 -17 -24 -28 -24
-19 0 -45 23 -36 32 3 3 -1 10 -9 17 -19 16 -102 -4 -132 -31 -33 -29 -89 -41
-130 -28 -40 14 -58 4 -68 -35 -5 -18 -15 -26 -44 -31 -50 -9 -138 -66 -156
-102 -15 -29 -19 -31 -169 -84 -34 -13 -79 -40 -113 -69 -30 -27 -64 -53 -74
-59 -11 -6 -22 -21 -26 -34 -3 -13 -19 -33 -35 -45 -16 -12 -29 -30 -29 -40 0
-11 -21 -32 -52 -52 -37 -24 -54 -43 -60 -64 -9 -36 -53 -65 -98 -65 -43 0
-89 -29 -179 -112 -40 -37 -77 -68 -83 -68 -5 0 -16 -16 -24 -36 -14 -33 -14
-38 2 -55 9 -10 25 -19 35 -19 24 0 35 -37 16 -58 -8 -9 -17 -28 -19 -41 -6
-42 -32 -49 -83 -22 -53 28 -87 23 -111 -17 -9 -15 -26 -40 -36 -55 -28 -40
-20 -67 22 -81 25 -8 35 -17 35 -31 0 -21 -21 -24 -76 -10 -23 6 -27 3 -42
-37 -23 -59 -22 -67 11 -73 62 -14 75 -34 37 -59 -24 -16 -28 -16 -50 -2 -14
9 -28 16 -33 16 -13 0 -62 -98 -62 -123 0 -12 -7 -31 -15 -41 -21 -28 -19 -35
12 -47 l26 -10 -26 -27 c-19 -20 -27 -39 -27 -65 0 -24 -7 -44 -21 -58 -19
-19 -20 -27 -12 -58 7 -29 5 -43 -10 -71 -20 -35 -20 -36 0 -80 18 -41 28
-109 25 -183 -1 -15 3 -39 8 -53 7 -17 6 -32 -1 -45 -14 -28 -14 -96 1 -114 7
-8 21 -15 31 -15 29 0 33 -20 9 -45 -24 -25 -21 -55 8 -88 14 -16 13 -21 -7
-57 l-22 -40 20 -34 c14 -21 21 -51 21 -82 1 -56 33 -110 51 -83 7 11 9 11 9
-3 0 -10 -5 -18 -11 -18 -17 0 -1 -52 21 -67 22 -16 34 -79 22 -113 -7 -18 -3
-37 14 -75 30 -62 30 -64 -2 -110 -36 -53 -29 -81 29 -122 50 -36 63 -39 110
-27 50 12 83 -38 57 -87 -15 -27 -83 -60 -101 -48 -20 12 -56 11 -65 -3 -4 -6
6 -22 25 -37 17 -14 31 -35 31 -46 0 -22 47 -55 68 -48 8 3 12 -6 12 -26 0
-17 5 -31 12 -31 17 0 118 -108 118 -126 0 -9 8 -28 18 -42 10 -15 26 -52 35
-82 13 -41 25 -59 47 -72 20 -11 30 -25 30 -41 0 -16 9 -28 25 -35 17 -8 25
-20 25 -38 0 -24 38 -75 160 -214 16 -19 30 -44 30 -57 0 -13 14 -33 35 -50
19 -15 37 -39 40 -54 6 -26 40 -49 74 -49 10 0 30 -9 45 -21 20 -15 26 -29 26
-57 0 -30 5 -40 28 -53 19 -11 31 -30 42 -65 8 -27 13 -52 12 -56 -1 -4 3 -20
10 -35 6 -15 10 -31 10 -36 -3 -13 37 -84 50 -89 21 -9 60 11 65 32 6 24 31
25 59 2 27 -21 33 -41 23 -68 -5 -14 -3 -28 6 -40 8 -11 15 -29 15 -42 0 -12
7 -25 15 -28 8 -4 15 -18 15 -34 0 -22 6 -30 31 -39 18 -6 45 -11 60 -11 27 0
67 -19 138 -67 19 -13 42 -23 53 -23 22 0 34 -25 21 -43 -14 -18 -11 -29 17
-61 54 -64 56 -65 101 -59 35 5 41 4 36 -9 -3 -10 9 -26 39 -49 24 -18 44 -37
44 -41 0 -24 124 -129 191 -163 104 -51 144 -77 173 -108 16 -18 35 -27 55
-27 21 0 36 -8 48 -25 25 -36 145 -106 190 -112 51 -6 117 -53 121 -87 2 -17
17 -36 45 -55 23 -16 53 -41 67 -56 28 -30 119 -75 165 -81 17 -2 35 -11 42
-20 6 -9 26 -24 45 -34 25 -13 32 -23 30 -40 -4 -25 66 -105 105 -120 12 -5
31 -28 42 -52 31 -67 71 -118 130 -166 55 -45 65 -47 128 -27 19 6 23 1 38
-52 9 -32 28 -72 41 -90 20 -26 23 -39 18 -76 -6 -42 -5 -44 25 -56 16 -7 36
-19 42 -27 6 -8 22 -14 35 -14 14 0 40 -15 61 -35 20 -19 45 -35 55 -35 9 0
30 -11 45 -25 26 -23 27 -26 11 -39 -30 -23 -20 -34 37 -41 43 -6 55 -11 55
-24 0 -10 11 -28 24 -40 13 -13 27 -34 30 -47 4 -16 17 -26 38 -32 17 -4 33
-13 35 -19 6 -17 -31 -22 -58 -8 -40 22 -60 3 -53 -48 13 -84 31 -102 109
-109 22 -2 34 -12 49 -40 29 -57 76 -64 76 -12 0 30 22 31 60 4 20 -14 31 -35
40 -72 16 -69 39 -120 63 -137 40 -29 61 -62 86 -137 27 -78 31 -83 88 -104
23 -9 33 -19 35 -38 3 -23 10 -29 46 -36 23 -6 42 -15 42 -22 0 -6 11 -19 25
-28 23 -15 24 -20 18 -79 l-6 -63 39 -37 c30 -28 36 -39 27 -48 -9 -9 0 -26
38 -71 27 -32 52 -71 55 -86 4 -15 15 -41 25 -58 11 -17 22 -53 25 -80 8 -55
25 -95 60 -137 13 -16 24 -39 24 -51 0 -12 13 -35 29 -50 32 -31 43 -88 46
-231 1 -44 7 -102 13 -130 19 -83 22 -351 4 -408 -11 -37 -12 -54 -3 -73 8
-19 8 -30 -3 -47 -7 -12 -17 -42 -20 -66 -4 -24 -13 -56 -21 -72 -8 -15 -15
-38 -15 -51 0 -13 -14 -45 -30 -73 -16 -27 -30 -62 -30 -78 0 -32 -35 -90 -80
-132 -17 -16 -41 -47 -51 -68 -11 -21 -27 -41 -35 -44 -8 -3 -25 -24 -39 -47
-33 -57 -237 -256 -262 -256 -18 0 -45 -18 -157 -103 -21 -16 -61 -38 -90 -49
-67 -25 -203 -94 -243 -124 -17 -13 -35 -24 -38 -24 -4 0 -26 -13 -49 -29 -24
-17 -70 -37 -102 -45 -32 -8 -117 -36 -189 -61 -71 -26 -148 -51 -170 -56 -22
-5 -61 -18 -87 -29 -26 -11 -60 -20 -76 -20 -16 0 -67 -15 -113 -34 -46 -18
-110 -36 -142 -40 -32 -3 -91 -15 -130 -26 -39 -11 -87 -20 -107 -20 -19 -1
-71 -7 -115 -16 -241 -45 -380 -54 -625 -41 -52 2 -189 7 -303 11 -115 3 -213
8 -218 12 -6 3 -198 8 -427 10 -528 6 -740 15 -770 32 -17 10 -41 12 -80 7
-41 -4 -83 -1 -148 14 -54 11 -153 22 -245 26 -133 6 -158 10 -183 28 -26 17
-46 21 -140 22 -89 1 -128 7 -199 29 -71 22 -99 26 -145 20 -44 -4 -67 -2 -97
11 -84 36 -145 48 -280 56 -179 10 -235 18 -260 35 -11 8 -26 14 -35 14 -8 0
-28 7 -43 15 -22 11 -75 15 -220 18 -106 1 -199 7 -207 12 -17 11 -153 26
-218 25 -24 -1 -50 4 -57 10 -8 7 -88 9 -236 7 -206 -4 -227 -2 -263 15 -27
14 -49 18 -73 13 -19 -3 -50 -1 -69 5 -27 9 -44 8 -82 -4 -26 -8 -69 -18 -97
-21 -27 -4 -60 -11 -73 -18 -18 -8 -28 -8 -42 1 -27 17 -130 15 -173 -3 -29
-12 -46 -13 -87 -4 -41 9 -66 8 -123 -4 -111 -24 -218 -33 -304 -26 -66 5 -84
3 -117 -13 -29 -15 -50 -18 -78 -14 -21 4 -47 2 -58 -4 -11 -6 -59 -12 -107
-14 -48 -2 -116 -11 -151 -21 -91 -24 -106 -20 -110 33 -3 36 2 50 32 91 20
26 39 57 43 68 12 30 99 120 134 138 16 9 47 32 67 51 20 20 51 41 67 48 42
18 65 43 65 72 0 13 3 25 8 25 4 1 17 3 30 4 13 1 33 11 45 22 12 11 34 27 49
36 14 9 30 27 34 39 18 59 184 212 285 263 76 39 374 115 448 115 24 0 61 5
82 10 22 6 56 14 77 20 71 18 235 22 279 6 23 -8 44 -12 47 -9 9 9 384 11 543
3 106 -5 148 -11 167 -23 14 -9 45 -17 68 -17 24 0 61 -5 83 -11 22 -5 97 -12
167 -14 76 -3 137 -9 150 -17 16 -8 80 -13 197 -14 140 -1 176 -4 185 -16 20
-26 49 -30 241 -34 277 -6 323 -11 367 -40 21 -13 46 -24 57 -24 11 0 46 -6
78 -14 105 -26 228 -29 324 -8 71 15 100 17 163 9 63 -8 83 -6 117 7 25 10 84
19 143 22 129 7 138 9 176 40 31 27 32 27 102 14 68 -13 74 -13 137 10 36 13
93 27 126 31 33 4 74 11 92 14 20 5 48 1 76 -10 40 -15 55 -16 138 -4 52 6
121 11 154 9 168 -8 270 0 404 31 46 11 98 27 114 36 21 11 44 13 81 9 31 -4
78 -1 120 8 58 13 76 22 114 58 25 24 53 51 64 61 17 16 47 31 73 37 6 1 16 7
24 13 7 6 21 12 30 12 57 2 120 21 151 44 19 15 53 38 75 51 22 13 42 26 45
30 3 3 22 18 43 33 24 19 47 49 63 85 29 64 45 105 46 112 0 3 4 11 10 18 6 7
11 27 10 45 -1 18 3 48 8 67 8 30 18 39 58 56 39 17 50 27 55 50 3 16 18 42
32 58 18 19 25 36 21 50 -3 12 2 41 10 66 l15 44 -31 29 c-25 23 -29 32 -19
43 6 8 18 14 25 14 10 0 14 14 14 47 0 43 -4 52 -46 95 -52 52 -62 86 -63 213
-1 52 -6 79 -22 104 -15 25 -19 43 -14 70 6 39 -23 169 -50 222 -8 15 -15 34
-15 42 0 8 -16 38 -35 66 -19 28 -35 57 -35 65 0 9 -13 25 -30 38 -25 18 -30
29 -30 64 0 24 -4 46 -10 49 -5 3 -10 16 -10 29 0 13 -13 35 -30 49 -16 15
-30 35 -30 45 0 41 -55 183 -105 273 -30 53 -55 104 -55 112 0 9 -10 28 -23
44 -12 15 -28 39 -35 53 -42 82 -61 110 -93 138 -20 18 -41 48 -47 69 -7 25
-34 61 -77 103 -36 36 -73 79 -82 95 -9 17 -40 56 -69 88 -30 32 -54 64 -54
71 0 18 -85 96 -104 96 -8 0 -26 24 -39 53 -18 40 -40 66 -84 99 -32 26 -65
54 -73 63 -8 9 -39 29 -70 45 -32 16 -71 40 -87 54 -17 14 -35 26 -41 26 -5 0
-35 13 -67 29 -46 23 -61 37 -76 70 -10 23 -24 47 -31 54 -18 17 -87 52 -119
60 -26 7 -110 83 -141 130 -10 14 -30 31 -46 38 -17 7 -39 31 -53 57 -16 30
-39 53 -69 69 -51 29 -66 46 -75 86 -4 18 -17 33 -33 40 -15 6 -38 21 -52 33
-14 12 -36 24 -50 26 -21 3 -25 8 -23 34 2 27 -4 37 -40 65 -24 18 -58 53 -77
77 -18 24 -54 57 -79 75 -55 37 -77 60 -101 107 -23 43 -76 96 -121 118 -19 9
-40 29 -47 44 -7 15 -31 41 -53 59 -22 17 -51 52 -64 78 -13 25 -42 64 -64 86
-23 21 -41 45 -41 53 0 7 -16 28 -35 45 -19 17 -44 50 -56 73 -11 24 -43 67
-71 96 -27 29 -62 69 -76 88 -15 19 -43 48 -61 65 -19 16 -42 38 -50 49 -9 10
-28 30 -43 44 -16 14 -28 31 -28 39 0 7 -4 13 -10 13 -5 0 -10 5 -10 12 0 25
-55 90 -97 115 -31 18 -43 31 -43 48 0 39 -29 93 -60 111 -16 10 -33 28 -37
41 -8 21 -179 183 -194 183 -4 0 -13 25 -19 55 -6 30 -26 76 -43 103 -58 86
-85 137 -92 175 -4 22 -18 46 -35 61 -16 13 -28 34 -29 47 -3 127 -27 220 -71
279 -36 47 -52 79 -45 89 3 5 -6 18 -19 29 -25 19 -25 21 -14 87 l11 68 -33
27 c-31 25 -32 29 -22 59 8 21 8 39 2 50 -5 10 -10 29 -12 43 -2 14 -10 33
-17 41 -7 9 -12 24 -11 34 4 33 0 40 -35 75 l-36 34 21 24 c24 28 24 31 5 75
-8 20 -29 44 -48 55 -39 23 -50 57 -35 102 6 16 7 44 2 66 -4 20 -9 73 -10
117 -2 44 -6 145 -9 225 -3 80 -5 159 -5 175 1 17 2 66 3 110 1 44 7 89 14
101 15 27 18 100 5 141 -6 18 -8 41 -5 52 3 11 -2 30 -11 42 -16 24 -14 49 9
109 19 49 37 153 40 230 3 82 13 171 27 232 8 39 7 58 -7 102 -12 38 -15 68
-10 98 4 24 6 68 6 97 0 30 5 64 13 75 15 25 31 173 27 272 -1 38 3 90 9 115
7 24 20 91 30 149 31 176 32 184 46 212 8 15 14 40 14 56 0 32 15 72 43 113 9
14 19 48 21 76 2 27 8 59 15 71 6 11 17 63 25 114 8 51 27 134 44 183 47 143
65 207 68 245 5 71 25 136 55 179 16 24 39 65 49 91 10 26 28 63 39 81 12 19
21 41 21 50 0 9 6 19 14 22 17 7 66 94 66 118 0 11 13 43 29 72 16 28 39 77
51 107 12 30 34 69 48 85 44 48 92 113 92 124 0 5 27 50 60 99 33 50 60 94 60
99 0 5 16 25 36 44 61 58 104 124 104 158 0 23 13 45 50 86 28 30 50 62 50 71
0 8 30 51 66 96 36 44 72 97 81 117 36 86 62 127 118 191 74 85 155 198 155
217 0 16 62 100 116 159 22 23 57 63 79 90 22 27 56 65 76 84 109 105 213 197
251 221 24 15 54 36 68 47 14 10 40 27 58 36 19 10 55 39 80 66 26 26 59 54
74 61 39 20 154 152 166 191 6 18 14 49 17 68 11 55 31 80 65 80 18 0 37 8 47
20 15 17 211 120 229 120 3 0 40 23 81 50 41 28 80 50 87 50 6 0 27 11 46 24
19 13 51 27 70 31 19 4 66 20 103 37 46 20 77 27 95 23 31 -6 99 15 216 69 88
41 199 61 279 50 34 -4 54 -2 70 9 25 16 96 28 182 31 43 1 71 8 97 24 19 12
51 22 69 23 19 0 66 9 104 19 86 23 82 23 158 6z m507 -5562 c0 -14 -3 -14
-15 -4 -8 7 -15 14 -15 16 0 2 7 4 15 4 8 0 15 -7 15 -16z m-3490 -1153 c0
-16 -38 -41 -54 -35 -21 8 -21 33 1 49 18 13 53 4 53 -14z m8262 -356 c3 3 11
-2 18 -10 10 -12 10 -19 1 -28 -16 -16 -45 3 -49 34 -3 19 -1 21 10 11 8 -6
17 -10 20 -7z m-10082 -870 c0 -8 -4 -15 -10 -15 -5 0 -10 7 -10 15 0 8 5 15
10 15 6 0 10 -7 10 -15z m1060 -1945 c0 -5 -4 -10 -10 -10 -5 0 -10 5 -10 10
0 6 5 10 10 10 6 0 10 -4 10 -10z m4580 -2410 c22 -40 -15 -55 -50 -20 -12 12
-18 25 -15 30 11 18 54 11 65 -10z m723 -967 c4 -3 2 -12 -4 -19 -13 -16 -54
0 -44 17 7 10 38 12 48 2z"/>
<path d="M17585 17540 c-15 -17 -26 -19 -69 -14 -42 5 -54 3 -68 -13 -91 -99
-179 -183 -206 -197 -17 -9 -44 -35 -60 -58 -15 -22 -31 -47 -37 -54 -6 -9 -5
-24 4 -46 7 -18 15 -44 18 -58 3 -14 15 -36 27 -50 12 -14 37 -49 56 -77 38
-58 42 -60 115 -74 34 -6 60 -19 82 -41 32 -31 34 -32 71 -19 20 7 51 24 69
37 17 13 36 24 41 24 5 0 26 14 47 30 24 19 49 30 70 30 34 0 77 27 80 51 9
56 28 129 34 129 4 0 6 29 4 64 -3 44 0 73 11 93 9 19 11 34 5 44 -14 22 -11
79 5 95 13 12 13 19 0 52 -25 59 -38 68 -68 49 -33 -22 -61 -21 -115 3 -55 25
-93 25 -116 0z"/>
<path d="M19870 17510 c-70 -17 -168 -48 -197 -63 -16 -9 -44 -32 -62 -52 -42
-48 -42 -99 -1 -174 17 -30 30 -59 30 -65 0 -6 -11 -33 -25 -60 -15 -29 -25
-66 -25 -91 0 -38 5 -47 54 -94 30 -28 64 -51 75 -51 11 0 35 -13 53 -29 18
-15 50 -34 70 -42 36 -12 39 -12 67 15 16 16 35 41 41 57 8 18 20 29 32 29 10
0 37 10 60 21 34 17 52 20 95 15 99 -12 149 27 163 124 5 34 11 65 14 67 3 3
-6 19 -19 35 -30 35 -30 35 -8 101 10 31 29 64 50 83 55 52 45 62 -85 89 -55
11 -100 14 -136 10 -49 -6 -55 -5 -66 15 -11 20 -79 56 -123 64 -12 2 -38 0
-57 -4z"/>
<path d="M6615 18958 c-27 -11 -66 -28 -85 -38 -19 -11 -67 -35 -107 -54 -39
-20 -74 -40 -77 -45 -4 -5 -28 -17 -55 -26 -28 -9 -73 -37 -106 -65 -34 -31
-66 -50 -80 -50 -30 0 -126 -42 -162 -70 -14 -11 -42 -24 -63 -30 -20 -5 -56
-23 -78 -40 -35 -25 -42 -36 -42 -64 0 -18 -7 -39 -16 -46 -9 -8 -14 -25 -12
-43 3 -26 9 -32 41 -41 22 -7 43 -21 50 -34 7 -13 26 -32 42 -42 30 -19 31
-19 74 1 24 10 53 19 65 19 28 0 61 23 124 87 53 55 111 89 200 118 32 10 59
26 69 42 9 13 39 36 67 50 28 14 73 45 100 69 26 24 55 44 63 44 8 0 35 19 59
43 24 23 53 50 64 60 28 24 29 136 2 160 -24 22 -74 20 -137 -5z"/>
<path d="M29626 18112 c-26 -10 -54 -25 -61 -35 -15 -21 -34 -21 -59 -2 -48
36 -130 10 -208 -67 -27 -26 -61 -50 -76 -54 -84 -18 -126 -57 -143 -134 -13
-61 -23 -75 -62 -95 -12 -6 -24 -24 -28 -42 -7 -35 -40 -92 -66 -115 -10 -8
-33 -20 -52 -27 -43 -14 -71 -39 -71 -62 0 -9 24 -38 54 -63 49 -42 54 -51 59
-98 5 -36 2 -59 -7 -73 -27 -40 -69 -75 -92 -75 -41 0 -37 -21 12 -69 130
-127 156 -179 159 -321 1 -45 11 -100 24 -139 11 -35 21 -70 21 -79 0 -8 9
-33 19 -56 11 -23 24 -77 29 -121 5 -44 19 -105 29 -135 15 -40 19 -71 15
-112 -4 -50 -1 -61 21 -87 14 -17 28 -50 32 -73 4 -25 18 -54 32 -70 14 -15
31 -37 37 -50 16 -32 74 -68 110 -68 23 0 43 12 77 43 52 48 109 134 109 164
0 11 7 40 15 63 17 49 20 106 5 115 -5 3 -10 23 -10 44 0 23 -6 44 -16 51 -27
23 -35 47 -24 75 6 16 7 47 2 80 -10 58 -54 124 -105 156 -33 19 -34 25 -41
162 -4 75 -3 79 20 89 18 9 37 9 72 0 51 -12 141 -7 156 8 6 6 18 10 28 10 41
0 144 57 166 91 11 19 45 50 74 69 61 41 144 140 154 183 3 16 17 39 30 51 14
12 32 35 42 53 9 17 30 52 45 77 40 63 55 163 34 214 -14 34 -21 70 -32 158
-4 38 -49 113 -73 121 -9 3 -29 17 -44 31 -16 15 -33 22 -43 18 -9 -3 -24 1
-33 10 -15 15 -15 19 1 46 l16 29 -56 24 c-30 14 -62 25 -70 25 -8 0 -25 11
-39 25 -50 51 -114 63 -188 37z m357 -249 c-7 -2 -19 -2 -25 0 -7 3 -2 5 12 5
14 0 19 -2 13 -5z m-544 -124 c46 -16 60 -17 95 -7 50 14 65 12 92 -13 12 -11
28 -17 36 -14 10 4 29 -5 48 -22 28 -25 33 -38 37 -84 2 -30 11 -71 20 -91 22
-53 6 -124 -52 -232 -60 -111 -78 -122 -223 -136 -61 -6 -117 -8 -124 -3 -7 4
-46 10 -86 14 -46 4 -77 11 -82 20 -9 14 8 32 22 23 12 -7 65 23 72 42 4 9 -3
32 -14 51 -21 36 -26 63 -11 63 20 0 19 32 -2 53 -30 30 -32 129 -5 207 30 87
62 149 78 153 16 5 18 5 99 -24z m-1 -1352 c2 -11 -3 -17 -16 -17 -23 0 -37
26 -19 34 19 7 32 1 35 -17z"/>
<path d="M26039 17951 c-48 -5 -66 -14 -140 -70 -87 -65 -108 -90 -109 -128 0
-12 -5 -33 -11 -47 -10 -20 -9 -34 5 -70 9 -24 18 -77 20 -117 1 -41 8 -84 15
-97 7 -13 11 -35 10 -50 -2 -15 3 -43 11 -61 10 -25 11 -41 3 -61 -8 -22 -5
-37 18 -83 15 -30 25 -58 22 -60 -2 -3 -8 -22 -13 -41 -6 -29 -4 -41 11 -60
23 -30 24 -67 3 -108 -12 -24 -15 -45 -9 -87 4 -31 6 -78 6 -105 -1 -37 7 -63
34 -114 28 -54 35 -77 35 -124 0 -33 -7 -72 -17 -92 -20 -43 -9 -61 42 -70 35
-7 44 -23 25 -42 -21 -21 -13 -241 9 -268 16 -19 64 -14 91 9 8 7 37 15 63 19
58 7 87 21 87 43 0 8 16 33 36 55 25 28 33 45 28 56 -4 10 -7 37 -6 62 2 34 8
50 28 68 18 15 25 31 23 50 -1 15 1 37 5 50 6 17 1 30 -18 53 -29 35 -31 44
-12 79 9 16 11 32 5 47 -5 13 -6 36 -3 51 3 15 1 61 -5 101 -8 60 -7 78 5 96
8 12 12 24 9 27 -3 2 -8 31 -11 64 -4 32 -13 75 -22 94 -8 19 -15 56 -16 82
-2 33 -10 58 -26 80 -19 27 -24 46 -26 111 -2 50 -8 85 -17 96 -7 9 -24 36
-36 60 -21 42 -22 47 -10 185 6 77 16 147 21 154 6 6 8 25 5 40 -3 16 0 41 9
56 19 39 18 43 -16 61 -30 15 -63 17 -161 6z"/>
<path d="M28083 17791 c-23 -15 -61 -31 -85 -35 -56 -9 -128 -76 -128 -119 0
-29 -41 -89 -89 -131 -33 -28 -98 -96 -141 -146 -30 -35 -44 -43 -100 -54 -43
-9 -73 -10 -89 -4 -13 5 -43 6 -66 2 -37 -5 -45 -3 -59 17 -20 29 -20 58 -1
86 15 21 14 23 -16 45 -17 13 -46 51 -65 84 l-34 62 -63 6 c-34 3 -78 8 -98
12 -25 4 -49 0 -80 -14 -24 -11 -73 -30 -107 -42 -36 -13 -70 -33 -78 -45 -15
-23 -17 -135 -14 -596 1 -21 -15 -72 -35 -118 -31 -70 -35 -88 -29 -129 6 -46
5 -49 -29 -75 -31 -24 -36 -34 -43 -84 -3 -32 -14 -74 -24 -93 -16 -33 -16
-38 0 -80 23 -59 45 -67 117 -46 32 9 65 21 73 27 8 5 32 16 53 25 23 10 37
23 37 34 0 10 6 25 14 32 8 7 36 34 64 60 49 46 113 140 127 188 4 14 20 39
35 57 35 39 46 117 31 218 -14 96 -15 93 21 126 41 37 56 37 70 -2 11 -33 12
-33 90 -14 19 5 34 1 55 -14 26 -19 35 -21 78 -12 28 5 59 9 70 9 74 -5 97 2
136 42 32 33 47 40 78 40 38 0 71 24 84 63 4 9 19 22 34 28 33 13 56 24 83 41
28 18 56 -13 70 -77 7 -27 18 -72 25 -100 8 -27 11 -62 8 -77 -3 -19 1 -33 16
-49 13 -14 22 -38 23 -61 3 -67 5 -93 12 -156 4 -39 3 -69 -4 -82 -20 -37 -2
-110 36 -144 24 -21 34 -38 34 -60 0 -16 7 -37 15 -46 14 -15 13 -19 -4 -41
-11 -14 -21 -50 -26 -85 -6 -59 -5 -63 25 -97 17 -20 34 -52 37 -72 8 -48 39
-68 108 -69 47 0 56 3 76 27 13 17 30 27 43 26 11 0 26 -1 33 0 25 2 75 56
100 108 l27 55 -27 20 c-15 11 -27 27 -27 37 0 9 -7 26 -15 38 -17 24 -11 49
15 63 30 16 44 90 35 188 -18 207 -29 273 -50 288 -10 8 -20 24 -22 36 -2 13
-22 42 -45 65 -41 42 -41 43 -29 82 6 22 9 52 5 66 -3 14 -1 31 6 40 15 18 6
47 -27 86 -22 25 -24 34 -15 49 8 13 7 43 -4 116 -20 137 -19 134 -43 181 -12
23 -21 46 -21 52 0 21 -73 152 -90 161 -10 6 -45 10 -77 10 -47 0 -66 -6 -100
-29z m437 -1336 c0 -47 -62 -62 -68 -17 -5 32 13 50 43 44 18 -3 25 -11 25
-27z"/>
<path d="M33375 17805 c-22 -7 -68 -10 -102 -7 -46 3 -72 0 -98 -13 -20 -9
-47 -14 -59 -11 -13 3 -32 -1 -45 -10 -13 -9 -44 -18 -69 -20 -39 -2 -52 -9
-77 -37 -27 -31 -52 -47 -137 -87 -22 -11 -28 -20 -28 -46 0 -29 -6 -36 -40
-54 -21 -11 -44 -29 -50 -40 -15 -28 -33 -25 -58 10 -13 17 -30 30 -38 30 -19
0 -46 -25 -36 -34 14 -15 -23 -25 -43 -12 -32 20 -65 26 -94 15 -40 -16 -101
-80 -101 -107 0 -13 -11 -37 -25 -54 -14 -16 -25 -35 -25 -41 0 -19 31 -59 91
-117 54 -52 57 -58 64 -117 5 -41 15 -72 31 -94 13 -18 24 -46 24 -61 0 -16 6
-41 14 -56 7 -15 19 -54 26 -87 7 -33 21 -85 31 -116 11 -30 19 -72 19 -91 0
-23 14 -62 36 -105 20 -37 41 -93 45 -123 8 -52 14 -80 38 -194 10 -44 27 -71
100 -153 30 -34 99 -32 140 3 17 14 31 32 31 39 0 8 18 22 41 32 58 25 93 96
105 209 6 54 4 64 -15 83 -13 13 -34 21 -55 21 -41 0 -52 12 -61 70 -7 47 10
105 37 128 19 15 108 -26 130 -60 9 -14 43 -42 75 -64 71 -47 133 -103 133
-120 0 -7 14 -22 30 -34 17 -12 30 -27 30 -34 0 -8 30 -39 68 -70 37 -31 79
-72 95 -91 15 -19 60 -62 100 -96 50 -42 77 -74 88 -103 16 -40 27 -48 97 -79
18 -8 33 -18 33 -23 0 -5 9 -9 22 -9 12 0 27 -3 33 -7 7 -4 17 -2 23 6 6 7 24
16 40 19 16 3 37 14 46 24 10 10 30 23 45 28 41 15 93 80 82 102 -18 36 0 66
47 78 32 8 46 17 53 35 5 13 14 27 20 31 6 4 -7 18 -33 34 -24 16 -47 34 -52
41 -4 7 -43 41 -86 74 -44 34 -82 67 -84 74 -3 8 -31 22 -62 31 -60 19 -109
51 -100 65 7 11 -34 40 -56 40 -10 0 -30 11 -46 24 -15 13 -43 31 -61 40 -18
9 -37 28 -42 42 -5 13 -21 29 -35 34 -15 6 -25 17 -25 30 0 13 -12 25 -32 35
-18 8 -46 30 -63 50 -16 19 -54 60 -82 90 -77 80 -83 131 -21 171 18 12 47 41
63 65 16 24 40 57 52 72 13 16 23 41 23 56 0 18 17 49 48 88 26 33 53 73 59
89 20 55 33 124 33 174 0 27 5 60 11 74 10 21 7 33 -21 83 -42 73 -71 98 -140
119 -93 28 -114 31 -155 19z m-145 -435 c23 -12 26 -41 7 -78 -38 -76 -76
-160 -84 -187 -8 -28 -12 -30 -60 -30 -29 0 -58 -6 -64 -12 -20 -20 -47 -15
-65 12 -9 13 -24 27 -35 30 -48 16 -64 63 -30 92 15 13 17 21 10 40 -20 54 30
98 156 137 53 16 131 14 165 -4z"/>
<path d="M34656 17715 c-21 -9 -39 -10 -64 -3 -24 7 -43 6 -63 -3 -16 -6 -48
-9 -71 -6 -32 4 -49 0 -77 -17 -20 -13 -60 -28 -90 -35 -29 -6 -72 -23 -96
-37 -35 -20 -51 -24 -79 -18 -26 4 -43 1 -61 -10 -13 -9 -38 -16 -56 -16 -40
0 -82 -25 -103 -62 -10 -15 -28 -36 -42 -44 -27 -18 -31 -36 -10 -53 9 -8 12
-25 8 -56 -3 -27 0 -50 7 -59 7 -8 47 -28 89 -45 65 -26 92 -31 172 -33 52 -2
122 3 155 10 33 7 79 15 102 17 22 2 51 8 62 15 12 6 36 8 54 5 17 -3 70 -7
117 -8 81 -2 85 -1 88 21 2 15 10 22 26 22 28 0 96 -27 96 -38 0 -4 30 -23 68
-41 77 -39 81 -43 74 -77 -9 -46 -46 -43 -75 5 -10 17 -26 32 -36 36 -19 6
-65 -12 -116 -45 -16 -11 -42 -26 -56 -34 -52 -30 -42 -96 15 -96 22 0 46 -10
71 -30 21 -16 48 -30 60 -30 13 0 33 -11 46 -25 13 -13 29 -25 36 -25 7 0 30
-24 52 -52 35 -48 39 -60 43 -123 3 -53 13 -90 41 -153 32 -72 37 -93 37 -160
1 -48 6 -86 15 -102 8 -14 14 -34 15 -44 0 -11 10 -30 21 -43 18 -18 22 -36
23 -90 2 -111 75 -233 131 -219 11 3 37 1 57 -3 35 -8 39 -7 53 22 13 25 13
34 2 51 -17 28 -21 93 -7 127 9 21 8 33 -4 57 -22 43 -21 107 2 124 29 20 45
57 37 86 -4 15 -9 38 -11 51 -2 22 -48 70 -68 71 -4 0 -5 17 -2 38 4 20 7 100
8 177 l1 140 -37 19 c-25 12 -34 22 -28 28 6 6 9 16 7 22 -2 6 -9 29 -14 52
-9 34 -20 47 -62 72 -39 25 -54 30 -69 22 -29 -16 -53 -2 -45 28 7 30 -15 57
-61 72 -22 8 -34 18 -36 33 -2 16 -11 23 -30 25 -20 2 -28 9 -28 23 0 10 7 19
15 19 8 0 24 5 34 12 15 9 31 8 76 -5 32 -9 62 -14 68 -10 18 11 152 2 193
-13 32 -12 47 -13 62 -5 11 6 54 11 96 11 61 0 77 -3 88 -18 22 -31 38 -35 66
-16 15 10 50 21 77 25 28 4 70 14 95 22 25 9 70 23 102 32 42 11 64 25 90 54
114 133 158 210 158 280 0 30 -5 53 -15 61 -17 14 -240 28 -287 17 -65 -15
-213 -15 -303 0 -97 16 -371 12 -419 -7 -33 -12 -388 -2 -442 13 -10 3 -32 -1
-48 -8z"/>
<path d="M31403 17410 c-12 -5 -27 -18 -33 -29 -7 -13 -35 -28 -81 -42 -56
-17 -73 -27 -84 -50 -18 -34 -62 -59 -104 -59 -19 0 -44 -12 -71 -35 -23 -19
-50 -35 -60 -35 -20 0 -70 -53 -70 -74 0 -7 -11 -23 -25 -36 -14 -13 -25 -34
-25 -47 0 -12 -16 -40 -35 -62 -19 -21 -35 -42 -35 -47 0 -5 -16 -24 -36 -44
-49 -48 -73 -125 -83 -268 -10 -140 -6 -178 25 -215 21 -24 24 -39 24 -102 0
-42 5 -77 11 -81 6 -3 19 -25 29 -48 10 -22 27 -51 37 -62 20 -24 78 -56 86
-48 7 7 47 -46 47 -62 0 -23 84 -94 125 -105 42 -11 124 -67 125 -84 0 -18 41
-36 84 -39 23 -2 52 -8 63 -15 12 -6 44 -11 72 -11 44 0 53 4 72 30 16 20 39
34 76 45 30 9 62 25 71 36 9 11 36 29 60 40 24 12 55 37 70 57 15 20 42 49 60
66 18 17 47 59 64 94 17 35 44 73 59 85 19 15 32 38 40 72 6 28 23 78 36 111
23 57 24 63 10 91 -13 25 -14 34 -3 55 7 13 16 47 20 75 5 42 3 52 -14 68 -15
13 -17 22 -10 36 6 10 10 26 10 37 0 11 6 25 14 31 20 17 16 140 -7 174 -9 14
-17 33 -17 41 0 8 -18 35 -39 60 -35 40 -39 50 -34 81 4 23 0 43 -11 59 -9 14
-16 41 -16 60 0 42 -46 86 -91 86 -36 0 -102 32 -147 71 -36 32 -59 35 -127
17 -41 -11 -46 -10 -65 10 -22 24 -33 26 -67 12z m115 -402 c53 -18 68 -28 88
-59 13 -21 24 -44 24 -51 0 -7 12 -38 26 -68 30 -63 35 -144 14 -228 -11 -40
-11 -56 -1 -81 12 -26 11 -33 -7 -58 -11 -15 -34 -41 -51 -57 -17 -17 -31 -37
-31 -45 0 -22 -102 -128 -134 -141 -60 -22 -83 -14 -154 58 -38 38 -81 94 -97
127 -16 32 -47 71 -67 88 -21 17 -38 38 -38 47 0 9 -15 23 -33 32 -17 8 -49
30 -70 48 -53 48 -50 73 18 140 30 30 55 63 55 72 0 10 9 23 20 30 12 8 20 24
20 39 0 32 35 65 80 74 19 4 51 19 72 33 26 17 47 23 65 20 16 -3 39 -2 53 2
31 10 66 4 148 -22z"/>
<path d="M10641 16759 c-52 -26 -109 -63 -127 -83 -24 -26 -41 -36 -63 -36
-17 0 -42 -11 -59 -25 -17 -14 -33 -25 -38 -25 -4 0 -22 15 -39 33 -55 57
-115 102 -133 99 -9 -2 -24 -10 -32 -17 -8 -8 -45 -27 -82 -44 -76 -34 -93
-57 -84 -112 7 -43 68 -147 92 -156 8 -3 24 -23 34 -44 11 -21 34 -54 51 -74
37 -41 65 -94 75 -138 8 -39 21 -56 51 -68 13 -5 23 -17 23 -28 0 -26 64 -46
112 -37 48 10 120 80 173 169 53 91 54 119 10 206 -24 49 -25 54 -10 77 8 13
32 32 53 43 57 29 202 217 202 261 0 19 -61 51 -93 49 -12 -1 -64 -23 -116
-50z"/>
<path d="M5635 12510 c-3 -5 -3 -14 0 -20 3 -5 -11 -39 -30 -75 l-37 -66 37
-42 c20 -23 46 -52 58 -64 49 -52 55 -156 10 -204 -24 -26 -24 -28 -8 -58 9
-18 23 -35 31 -38 25 -9 14 -37 -31 -73 -53 -43 -57 -51 -44 -90 7 -19 8 -40
2 -57 -11 -31 0 -77 24 -105 19 -21 17 -26 -34 -72 -34 -30 -57 -40 -130 -57
-48 -11 -110 -30 -138 -41 -27 -12 -87 -25 -132 -31 -94 -12 -135 -1 -156 42
-7 14 -21 27 -32 29 -38 8 -45 22 -45 96 0 48 5 79 15 94 13 18 14 32 6 79
-14 78 -8 188 28 495 7 60 6 87 -6 120 -27 82 -73 94 -150 42 -20 -13 -47 -24
-61 -24 -14 0 -33 -7 -42 -15 -9 -9 -40 -21 -68 -29 -59 -15 -123 -56 -148
-94 -19 -29 -22 -90 -9 -180 5 -33 4 -62 -3 -75 -20 -43 -22 -59 -8 -85 7 -15
17 -52 20 -82 4 -30 13 -95 21 -145 8 -49 14 -101 14 -115 0 -14 5 -70 11
-125 12 -100 14 -340 4 -357 -3 -5 5 -26 19 -46 21 -33 24 -48 25 -135 1 -109
10 -134 50 -142 15 -3 41 -10 57 -16 51 -19 157 -38 174 -31 9 3 26 18 38 33
12 14 36 32 53 39 16 7 30 16 30 21 0 5 16 27 36 49 32 36 36 44 26 65 -8 17
-8 32 1 54 9 24 8 33 -4 48 -9 10 -23 39 -31 65 -18 55 -10 68 39 68 19 0 48
7 65 16 18 9 54 16 84 15 29 0 77 8 106 17 41 14 74 16 147 12 88 -5 95 -7
114 -32 19 -25 19 -31 7 -81 -9 -40 -10 -59 -1 -75 6 -11 11 -31 11 -44 0 -13
6 -33 14 -44 8 -11 16 -43 18 -70 l3 -49 46 -6 c26 -4 58 -14 72 -24 28 -18
77 -14 132 10 17 7 47 20 68 29 20 9 41 26 46 38 5 13 18 46 29 73 19 46 20
60 11 159 -5 59 -13 115 -18 124 -14 27 -41 141 -41 174 0 21 -11 43 -35 69
l-35 39 2 94 c1 72 -3 100 -15 119 -13 21 -15 35 -7 84 9 55 13 167 13 368 1
75 -3 96 -21 125 -12 19 -22 42 -22 50 0 8 -33 50 -73 93 l-73 77 -61 0 c-34
0 -65 -4 -68 -10z"/>
<path d="M9808 12440 c-31 -5 -74 -17 -95 -26 -25 -11 -70 -17 -128 -19 -148
-3 -327 -25 -360 -43 -20 -11 -65 -19 -133 -23 -104 -6 -104 -6 -137 -42 -23
-26 -43 -37 -62 -37 -34 -1 -68 -24 -58 -40 9 -14 17 -164 14 -250 -2 -36 -2
-81 -1 -100 1 -19 1 -57 1 -85 -4 -213 2 -324 24 -398 9 -32 17 -79 17 -104 0
-25 4 -62 10 -82 5 -20 12 -48 15 -63 5 -24 43 -68 89 -101 16 -11 19 -25 17
-72 -1 -48 3 -64 25 -96 14 -21 28 -56 31 -78 5 -35 14 -48 57 -84 28 -23 57
-48 64 -54 7 -7 18 -13 24 -13 5 0 22 -9 38 -20 30 -21 143 -44 228 -44 46 -1
54 -4 65 -26 12 -22 19 -25 65 -23 28 1 89 11 134 22 58 14 125 21 223 22 154
3 160 5 232 79 43 44 48 65 28 109 -10 20 -21 43 -25 51 -18 40 -127 52 -280
31 -85 -12 -158 -6 -266 21 -22 5 -54 8 -70 7 -70 -7 -102 10 -164 87 -33 40
-62 86 -66 101 -3 15 -12 46 -20 68 -10 27 -14 69 -12 125 l3 85 35 3 c20 2
53 -5 82 -19 l47 -22 98 22 c170 38 168 38 227 98 33 34 56 66 56 79 0 22 -21
83 -41 117 -8 15 -6 24 8 39 17 20 36 20 91 3 21 -7 23 -5 20 16 -2 17 -13 26
-39 34 -21 5 -46 18 -57 28 -16 15 -29 17 -64 12 -23 -3 -72 -2 -108 4 -51 8
-76 7 -120 -4 -80 -22 -155 -20 -179 4 -20 20 -20 26 -5 127 9 63 81 99 217
110 45 3 93 13 106 21 13 8 56 23 97 33 89 21 122 41 126 77 3 23 9 29 40 34
24 4 46 16 60 34 37 45 87 138 88 161 0 30 -28 82 -51 94 -26 14 -191 20 -261
10z"/>
<path d="M4154 12373 c-24 -13 -56 -23 -71 -23 -36 0 -46 -8 -68 -50 -21 -41
-35 -91 -39 -140 -4 -50 -24 -137 -36 -160 -18 -34 -6 -170 21 -225 9 -18 6
-65 -13 -195 -2 -8 4 -41 12 -74 12 -53 12 -62 -3 -88 -9 -16 -17 -38 -17 -48
0 -48 -80 -37 -95 12 -4 13 -14 30 -21 39 -22 25 -61 132 -69 189 -6 45 -11
52 -44 69 -20 11 -43 32 -51 48 -7 15 -25 38 -39 50 -18 16 -25 33 -26 60 -1
26 -12 54 -38 91 -20 29 -34 59 -30 68 3 8 -4 34 -15 57 -39 80 -72 165 -72
185 0 40 -23 46 -112 28 -46 -9 -102 -20 -126 -25 -23 -4 -48 -15 -55 -23 -7
-9 -34 -18 -65 -20 -87 -8 -116 -55 -81 -133 23 -51 81 -105 113 -105 40 0 63
-30 69 -87 4 -32 2 -55 -5 -59 -6 -4 -8 -22 -4 -43 4 -29 1 -40 -20 -62 -24
-25 -26 -34 -25 -114 0 -47 7 -114 16 -150 13 -50 14 -68 5 -86 -7 -12 -15
-70 -18 -128 -3 -65 -10 -114 -18 -126 -8 -11 -14 -29 -14 -41 0 -30 -56 -104
-79 -104 -11 0 -30 14 -43 31 -13 16 -37 47 -54 67 -16 20 -43 66 -59 102 -27
62 -70 134 -115 193 -12 15 -23 34 -24 41 -1 8 -8 21 -15 29 -7 9 -16 28 -20
44 -4 15 -21 37 -38 48 -41 26 -65 68 -61 105 2 21 -6 39 -30 65 -17 20 -32
43 -32 51 0 19 -27 73 -50 99 -10 11 -21 31 -26 45 -13 36 -65 120 -92 148
-32 34 -83 26 -197 -29 l-90 -44 1 -45 c1 -33 12 -62 38 -105 26 -43 35 -67
31 -85 -4 -18 2 -36 20 -60 14 -18 25 -40 25 -48 0 -7 16 -34 35 -59 19 -25
40 -64 46 -87 16 -59 22 -69 48 -73 47 -7 61 -22 61 -64 0 -22 -4 -48 -9 -58
-7 -12 -2 -28 20 -61 26 -39 30 -51 24 -87 -4 -29 -1 -51 9 -72 9 -16 16 -43
16 -60 0 -21 6 -32 20 -36 28 -9 77 -61 100 -106 21 -40 71 -74 96 -65 21 8
57 -32 49 -52 -4 -9 -9 -36 -11 -59 -3 -34 0 -46 16 -60 11 -10 20 -25 20 -35
0 -10 11 -25 24 -34 14 -8 26 -25 28 -37 2 -15 18 -29 50 -44 31 -15 56 -36
72 -62 14 -22 36 -42 48 -46 13 -4 41 -15 63 -26 22 -10 57 -18 78 -17 21 1
43 -4 49 -10 19 -19 47 -14 82 13 18 14 38 25 45 25 7 0 17 14 22 30 6 17 15
30 20 30 5 0 16 15 25 33 9 17 29 46 44 63 16 19 34 59 45 100 10 38 24 78 31
90 14 24 21 285 9 381 -6 53 -4 68 14 106 11 24 21 48 21 53 0 6 5 15 12 22
17 17 48 -4 48 -32 0 -14 14 -34 40 -55 26 -21 40 -40 40 -55 0 -13 16 -41 35
-62 32 -35 34 -39 20 -58 -31 -43 -37 -61 -26 -89 11 -29 30 -34 60 -15 10 6
26 8 35 5 22 -9 21 -47 -2 -47 -18 0 -42 -18 -42 -31 0 -4 7 -15 16 -23 23
-24 71 -19 110 10 l35 27 38 -42 c38 -41 57 -47 129 -41 42 3 112 48 112 72 0
10 22 42 49 72 36 39 54 71 66 113 10 32 23 74 31 93 8 22 15 95 18 192 5 133
8 164 26 198 11 22 18 45 15 50 -4 6 -8 36 -10 68 -2 31 -11 75 -20 96 l-17
40 31 25 31 26 0 125 c0 69 5 141 10 162 6 20 10 60 10 90 1 29 1 80 0 113 0
43 -5 68 -20 90 -19 29 -22 30 -101 31 -66 0 -89 -4 -125 -23z"/>
<path d="M6615 12324 c-33 -7 -65 -13 -72 -13 -7 -1 -18 -13 -25 -28 -9 -19
-25 -31 -49 -37 -28 -7 -39 -17 -53 -49 -16 -36 -16 -43 -2 -85 9 -25 16 -61
16 -80 0 -19 6 -60 14 -91 8 -31 20 -96 26 -146 6 -49 15 -112 20 -140 5 -27
9 -74 9 -104 1 -41 13 -81 52 -174 40 -95 50 -129 45 -156 -4 -27 0 -40 19
-63 21 -25 25 -40 25 -97 0 -56 4 -75 25 -105 14 -20 25 -50 25 -65 0 -26 8
-33 80 -70 44 -23 89 -41 99 -41 18 0 71 52 71 69 0 5 13 25 29 44 25 32 27
42 21 76 -4 24 -2 50 5 69 16 36 16 180 1 207 -33 61 -38 95 -41 260 -3 140 0
175 13 197 13 22 13 31 3 57 -9 20 -11 50 -6 88 5 50 4 62 -14 85 -12 14 -21
38 -21 52 0 18 -5 26 -17 26 -10 0 -26 7 -36 14 -17 14 -17 16 12 37 48 35 36
91 -25 124 -19 10 -34 26 -34 35 0 23 -39 100 -53 105 -35 11 -109 10 -162 -1z"/>
<path d="M7625 12270 c-11 -5 -33 -9 -50 -10 -16 0 -64 -18 -105 -38 -65 -33
-77 -43 -87 -75 -7 -21 -22 -50 -34 -66 -23 -31 -22 -50 11 -206 5 -22 11 -74
15 -115 9 -113 24 -157 63 -187 32 -24 34 -28 27 -67 -4 -22 -9 -55 -12 -72
-4 -23 2 -38 21 -61 21 -25 25 -39 23 -89 -1 -48 3 -67 21 -91 12 -18 22 -46
22 -66 0 -21 11 -50 30 -78 16 -24 30 -54 30 -67 0 -12 9 -39 20 -59 23 -43
25 -64 9 -80 -15 -15 -3 -33 22 -33 10 0 19 -5 19 -11 0 -6 15 -25 34 -43 31
-28 65 -99 66 -136 0 -36 22 -91 40 -100 11 -6 39 -12 63 -14 30 -2 58 -14 96
-41 57 -41 90 -48 245 -49 74 -1 79 1 100 27 19 23 29 27 75 27 62 0 148 33
156 61 9 28 41 46 141 80 112 38 129 49 152 101 10 24 26 49 35 57 23 19 21
54 -4 77 -29 26 -207 33 -294 11 -80 -20 -207 -21 -352 -2 -148 19 -149 20
-200 68 -36 35 -43 47 -43 80 0 28 -8 50 -30 77 -16 21 -30 45 -30 53 0 8 -11
49 -25 91 -14 42 -27 95 -30 118 -3 23 -10 47 -15 52 -6 6 -10 34 -10 64 0 62
-23 159 -49 207 -16 30 -16 40 -6 92 10 45 10 64 0 83 -6 14 -9 39 -6 55 8 40
5 272 -4 313 -4 17 -12 32 -19 32 -6 0 -28 9 -49 20 -40 22 -52 23 -82 10z
m95 -1476 c0 -8 -4 -12 -10 -9 -5 3 -10 10 -10 16 0 5 5 9 10 9 6 0 10 -7 10
-16z"/>
<path d="M5590 12138 c0 -7 9 -19 21 -26 19 -12 20 -11 17 10 -3 24 -38 39
-38 16z"/>
<path d="M22347 9999 c-27 -11 -69 -40 -94 -65 -43 -42 -45 -47 -41 -89 4 -28
15 -56 32 -76 19 -22 25 -37 20 -52 -4 -12 -7 -39 -8 -62 -1 -22 -10 -52 -20
-67 -13 -20 -16 -36 -11 -55 5 -16 7 -40 6 -54 -1 -14 5 -31 13 -39 9 -7 16
-23 16 -36 0 -19 -5 -24 -24 -24 -34 0 -45 -18 -48 -80 l-3 -55 48 2 c60 2 60
-10 2 -70 -25 -26 -52 -64 -60 -85 -24 -55 -30 -214 -13 -288 8 -33 16 -92 17
-129 1 -38 9 -82 17 -97 8 -16 14 -43 13 -61 -1 -19 9 -51 25 -78 32 -57 57
-147 58 -214 1 -31 10 -69 26 -100 13 -27 27 -63 31 -80 7 -30 33 -49 81 -59
14 -3 32 -19 42 -36 18 -33 39 -37 78 -17 17 9 37 11 64 5 22 -5 43 -5 50 1 6
5 30 14 53 20 32 9 50 22 77 60 41 56 42 67 21 226 -23 165 -26 178 -48 202
-17 19 -20 35 -19 109 0 58 -4 97 -14 115 -8 16 -14 39 -14 52 0 12 -5 28 -11
34 -6 6 -12 35 -14 65 -1 29 -8 77 -14 107 -6 29 -11 80 -11 113 0 33 -4 67
-10 77 -9 17 -23 88 -39 193 -4 27 -17 58 -28 70 -15 17 -19 32 -16 56 4 27
-1 39 -31 72 -32 36 -35 42 -24 65 9 19 9 34 1 58 -12 35 -24 153 -25 238 0
35 -7 70 -21 99 -18 38 -27 45 -52 47 -16 1 -52 -7 -78 -18z m25 -846 c25 -29
31 -72 12 -80 -20 -7 -43 16 -50 51 -8 45 11 60 38 29z m-12 -685 c16 -30 6
-63 -20 -63 -17 0 -53 64 -46 82 9 23 49 11 66 -19z"/>
<path d="M23170 10004 c-25 -8 -55 -26 -67 -40 -22 -24 -22 -26 -7 -62 22 -50
34 -119 27 -164 -4 -30 2 -50 36 -112 24 -44 38 -81 35 -91 -4 -9 -1 -27 6
-41 12 -21 11 -33 -3 -78 -10 -29 -26 -63 -37 -76 -24 -28 -25 -42 -5 -80 15
-28 14 -31 -8 -50 -16 -14 -23 -28 -20 -44 3 -13 0 -33 -6 -44 -9 -17 -6 -26
15 -51 29 -35 27 -43 -30 -93 l-31 -27 23 -22 c17 -15 21 -24 13 -32 -6 -6
-11 -32 -11 -57 0 -26 -7 -56 -16 -68 -15 -22 -14 -27 6 -83 12 -32 20 -68 17
-79 -3 -11 -1 -23 4 -26 5 -3 9 -14 9 -26 0 -11 7 -41 15 -67 8 -25 21 -75 30
-111 9 -36 20 -84 26 -107 14 -58 42 -74 103 -61 26 5 50 16 53 24 5 15 42 18
80 8 18 -5 22 -11 17 -31 -5 -18 0 -32 22 -54 15 -16 31 -29 35 -29 4 0 23 14
41 30 18 17 39 30 46 30 27 0 72 41 72 66 0 18 9 27 34 38 l35 14 -5 69 c-3
37 -6 97 -7 133 -2 49 -9 78 -30 119 -25 49 -38 123 -24 137 3 3 2 16 -3 29
-15 39 33 60 80 35 13 -7 29 -5 55 6 34 14 38 14 70 -6 28 -18 37 -19 62 -8
15 6 39 21 53 33 14 12 42 26 62 32 31 9 39 8 52 -6 9 -10 16 -23 16 -29 0
-18 85 -15 121 4 17 8 43 17 59 19 70 9 190 89 190 128 0 12 7 31 15 41 20 27
19 59 -3 79 -9 9 -65 32 -122 51 -126 41 -332 65 -620 71 -102 2 -193 7 -202
10 -10 4 -18 17 -18 30 0 13 -10 45 -21 72 -32 70 -61 245 -47 283 15 45 70
59 127 32 23 -12 104 -31 179 -43 76 -11 154 -30 175 -41 22 -11 45 -17 52
-14 7 2 55 -4 107 -14 51 -11 103 -20 115 -20 31 0 193 87 229 124 17 17 41
55 54 85 l24 53 -27 22 c-48 37 -129 64 -237 76 -58 7 -152 24 -210 37 -208
49 -371 63 -443 38 -23 -8 -52 -15 -65 -15 -12 0 -40 -9 -62 -20 -67 -34 -129
-20 -201 45 -44 39 -47 40 -109 19z m65 -1174 c3 -5 -1 -10 -10 -10 -9 0 -13
5 -10 10 3 6 8 10 10 10 2 0 7 -4 10 -10z m335 -590 c0 -5 -7 -10 -16 -10 -8
0 -12 5 -9 10 3 6 10 10 16 10 5 0 9 -4 9 -10z"/>
<path d="M13120 9650 c0 -28 44 -48 65 -30 14 12 14 15 -1 31 -24 26 -64 25
-64 -1z"/>
<path d="M24046 8833 c-11 -11 -6 -23 9 -23 8 0 15 4 15 9 0 13 -16 22 -24 14z"/>
<path d="M27660 8020 c-25 -5 -62 -15 -82 -24 -23 -10 -66 -16 -111 -16 l-73
0 -41 -45 c-33 -37 -46 -45 -75 -45 -21 0 -48 -10 -69 -25 -59 -42 -75 -46
-114 -28 -30 15 -42 15 -78 5 -53 -16 -207 -18 -244 -4 -16 6 -50 13 -77 16
-57 7 -76 20 -76 52 0 45 -65 56 -160 28 -39 -12 -65 -29 -101 -65 -27 -28
-49 -56 -49 -63 0 -7 -9 -25 -21 -39 -16 -22 -18 -30 -9 -48 9 -15 9 -33 2
-63 -6 -24 -8 -67 -3 -102 4 -34 3 -73 -2 -88 -7 -20 -4 -34 13 -61 21 -33 21
-37 6 -54 -20 -22 -21 -75 0 -91 25 -21 37 -52 45 -110 4 -30 12 -81 18 -114
7 -37 7 -65 1 -76 -7 -13 -4 -25 11 -44 16 -20 18 -30 10 -45 -6 -11 -11 -27
-11 -36 0 -14 6 -16 35 -11 35 7 35 6 35 -28 0 -19 3 -41 6 -50 3 -8 -3 -22
-16 -33 -52 -43 -52 -44 -46 -107 9 -86 13 -115 26 -165 14 -56 8 -71 -29 -71
-25 0 -29 -4 -34 -32 -2 -18 0 -42 6 -53 6 -11 10 -30 8 -42 -3 -28 45 -93 67
-91 10 1 40 0 68 0 48 -2 53 -5 78 -41 19 -27 25 -46 21 -63 -10 -38 15 -52
78 -43 28 4 109 8 180 10 89 2 134 7 150 17 33 22 124 49 140 42 20 -7 57 13
57 31 0 19 34 28 78 20 48 -8 214 28 259 56 18 12 38 30 44 41 14 26 5 118
-15 156 -20 39 -87 73 -163 82 -80 10 -246 -9 -283 -32 -19 -12 -57 -16 -166
-17 -193 -1 -191 -3 -185 164 1 36 -7 140 -14 167 -5 18 -2 27 10 32 9 3 21 3
27 0 6 -4 82 -9 170 -11 130 -3 168 -1 200 12 35 14 41 14 61 0 29 -20 47 -19
73 6 19 18 26 19 44 9 l23 -12 -32 -20 c-17 -11 -31 -24 -31 -29 0 -17 29 -21
62 -9 18 6 49 13 68 16 19 2 42 13 50 23 21 25 54 41 83 41 13 0 44 13 68 30
24 16 49 30 55 30 15 0 40 31 47 58 13 54 -68 88 -241 102 -101 9 -122 8 -196
-11 -75 -19 -87 -19 -127 -7 -29 10 -80 14 -149 12 -93 -2 -115 1 -195 28
-123 41 -154 73 -156 160 -1 24 -10 57 -21 75 -16 27 -18 43 -12 108 6 67 10
78 36 100 23 19 41 25 78 25 44 0 55 5 100 45 61 54 90 57 148 14 53 -39 78
-36 74 10 -2 29 0 32 20 29 17 -2 23 -10 23 -28 0 -36 12 -40 90 -34 65 5 98
14 182 50 17 8 39 14 50 14 10 0 38 9 62 20 24 11 54 20 67 20 14 0 42 16 67
39 23 21 60 48 82 59 57 29 84 62 100 123 11 40 12 63 4 95 -16 61 -50 73
-159 54z"/>
<path d="M28397 7804 c-58 -15 -93 -37 -102 -63 -3 -11 -18 -22 -34 -26 -15
-3 -42 -19 -61 -36 l-33 -30 6 -87 c4 -66 1 -94 -10 -116 -13 -24 -13 -35 -3
-67 13 -38 13 -38 -37 -96 -39 -46 -51 -68 -56 -104 -6 -42 -3 -52 25 -90 l31
-42 -31 -26 -31 -26 4 -111 c2 -60 8 -121 13 -135 7 -18 4 -34 -10 -64 -17
-33 -19 -44 -9 -70 6 -17 11 -43 11 -56 0 -15 11 -35 25 -47 14 -12 25 -32 25
-45 0 -16 9 -28 25 -35 14 -6 25 -16 25 -22 0 -6 -11 -15 -25 -20 -14 -5 -25
-16 -25 -25 0 -19 24 -19 40 0 20 24 34 17 55 -28 19 -40 22 -42 70 -45 28 -2
58 -10 68 -19 31 -29 77 -119 77 -154 1 -25 8 -39 26 -52 35 -26 68 -15 88 28
23 47 50 62 69 35 21 -30 106 -72 162 -81 28 -5 64 -11 81 -15 22 -4 40 -1 58
11 19 13 37 16 65 11 22 -3 47 -3 55 0 24 9 19 39 -9 52 -14 6 -25 16 -25 22
0 20 33 23 79 6 26 -9 54 -14 62 -11 8 3 39 -1 68 -8 36 -9 48 -16 37 -20 -25
-10 -19 -25 12 -29 17 -2 39 6 62 23 19 15 52 29 74 32 21 4 46 13 56 22 11
10 32 15 56 14 101 -6 201 134 149 209 -29 41 -98 50 -450 62 -181 6 -346 15
-365 21 -19 5 -61 9 -92 9 -69 0 -93 9 -137 50 -18 17 -44 38 -57 47 -13 8
-24 20 -24 25 0 5 -7 16 -15 24 -8 9 -15 24 -15 35 0 11 -7 30 -15 42 -11 18
-12 35 -5 88 8 56 7 72 -8 100 -14 28 -17 68 -19 232 -1 190 -1 198 21 225 34
42 49 122 50 277 1 136 0 142 -24 172 -31 39 -44 42 -103 27z"/>
<path d="M30605 7783 c-61 -7 -201 -37 -220 -46 -11 -6 -58 -14 -105 -18 -106
-9 -210 -52 -254 -106 -50 -60 -76 -103 -76 -124 0 -25 -16 -57 -43 -86 -18
-21 -19 -27 -8 -65 14 -46 37 -78 56 -78 7 0 25 -12 40 -26 17 -15 45 -29 67
-32 29 -3 42 -11 53 -32 22 -43 90 -98 137 -110 24 -6 66 -19 95 -28 49 -15
54 -15 87 3 l35 19 32 -29 c29 -28 31 -33 26 -88 l-5 -58 43 -19 c33 -14 49
-30 65 -59 12 -25 27 -41 38 -41 42 0 96 -94 106 -185 7 -54 5 -63 -18 -94
-14 -19 -26 -42 -26 -51 0 -36 -28 -57 -82 -63 -30 -3 -72 -16 -93 -29 -35
-20 -52 -23 -135 -22 -71 0 -109 6 -153 22 -74 28 -120 28 -146 1 -22 -24 -57
-22 -53 4 5 28 -34 20 -62 -14 -32 -37 -32 -47 -3 -90 26 -39 120 -79 204 -86
39 -4 54 -9 58 -23 8 -26 56 -43 99 -35 41 8 66 -6 66 -36 0 -22 0 -22 37 -8
15 6 37 12 48 13 39 5 130 29 162 42 17 8 41 14 53 14 53 0 164 69 260 161 21
20 59 52 85 70 47 34 101 120 91 146 -3 7 0 38 6 68 11 56 11 56 -22 90 -26
27 -31 39 -26 60 13 50 -12 96 -90 170 -41 39 -74 76 -74 82 0 21 -85 115
-130 142 -25 15 -68 51 -95 78 -28 28 -71 61 -95 73 -25 13 -62 40 -84 61 -21
22 -43 39 -48 39 -5 0 -8 14 -6 32 4 43 63 84 132 91 38 3 55 11 73 31 13 15
23 35 23 45 0 10 16 32 35 50 34 31 35 32 20 61 -8 16 -15 43 -15 60 0 49 -56
67 -165 53z"/>
<path d="M32023 7767 c-23 -7 -52 -22 -65 -35 -14 -12 -33 -22 -44 -22 -10 -1
-30 -7 -44 -15 -14 -8 -52 -14 -87 -15 -65 0 -93 -15 -93 -50 0 -10 -14 -30
-30 -43 -24 -21 -37 -25 -66 -20 -32 5 -35 4 -32 -14 3 -22 -18 -53 -36 -53
-7 0 -27 -16 -46 -35 -20 -20 -44 -35 -57 -35 -28 0 -39 -21 -24 -47 7 -13 22
-18 53 -18 39 0 43 -2 46 -26 2 -17 -6 -37 -24 -58 -21 -25 -25 -38 -20 -63 4
-21 1 -39 -9 -55 -19 -28 -14 -38 25 -58 25 -13 28 -19 21 -38 -4 -12 -8 -38
-9 -57 0 -32 3 -37 51 -60 l52 -25 -3 -90 -4 -90 31 -18 31 -18 -20 -26 c-32
-41 -26 -65 26 -96 36 -22 45 -32 41 -48 -4 -13 4 -28 21 -44 l27 -25 -23 -43
-22 -42 24 -60 c19 -47 32 -63 55 -73 17 -6 31 -16 31 -22 0 -5 19 -19 41 -31
40 -20 41 -22 36 -59 -3 -28 -1 -43 10 -52 9 -7 13 -22 9 -39 -8 -40 14 -52
91 -51 37 1 72 -3 78 -8 7 -6 24 -6 45 0 27 8 39 6 64 -9 17 -11 51 -22 76
-25 24 -2 46 -10 48 -15 7 -21 45 -11 80 20 32 29 40 31 85 25 54 -6 77 4 77
34 0 10 18 37 39 60 30 33 44 40 60 35 12 -3 21 -10 21 -15 0 -5 12 -16 27
-24 27 -14 41 -11 132 34 35 16 50 55 53 133 2 71 0 79 -23 103 -17 17 -49 30
-93 41 -71 16 -69 16 -231 -39 -16 -5 -59 -13 -95 -18 -36 -4 -96 -20 -135
-35 -105 -41 -120 -42 -152 -8 -15 16 -44 49 -63 73 -19 24 -45 54 -56 67 -12
13 -26 36 -32 51 -18 48 -35 139 -28 150 8 13 94 72 105 72 4 0 18 -11 31 -25
13 -14 29 -24 36 -21 6 2 16 0 21 -5 6 -6 14 -4 22 5 15 17 33 9 84 -36 25
-22 42 -27 117 -33 72 -6 93 -4 120 10 27 14 47 16 104 10 39 -4 79 -11 89
-17 39 -20 107 31 107 81 0 11 5 23 11 26 5 4 23 27 38 52 26 42 27 48 16 87
-12 41 -12 41 -63 42 -40 2 -59 8 -83 28 -27 23 -37 26 -79 20 -36 -5 -54 -2
-74 11 -19 13 -37 16 -68 11 -34 -5 -50 -2 -77 15 -30 18 -50 20 -202 21 -154
0 -170 -1 -202 -21 -19 -11 -44 -21 -56 -21 -24 0 -84 76 -102 130 -6 19 -20
50 -31 69 -21 38 -18 101 7 121 8 6 63 16 122 22 59 5 131 18 158 28 60 21 82
15 104 -30 14 -28 26 -36 91 -57 65 -21 95 -25 220 -26 100 0 152 3 168 12 13
7 40 14 60 15 21 2 51 10 69 19 18 10 38 17 46 17 24 0 95 58 113 91 8 17 13
40 10 52 -3 11 4 37 14 57 18 36 17 80 -2 80 -5 0 -6 15 -3 34 6 30 3 37 -21
52 -38 25 -140 35 -183 17 -31 -12 -37 -11 -79 12 -29 16 -60 25 -91 25 -31 1
-59 9 -86 25 -22 14 -50 25 -63 25 -12 0 -49 7 -81 16 -58 16 -60 16 -95 -5
l-35 -22 -38 25 c-46 29 -146 40 -210 23z"/>
<path d="M15417 7253 c-16 -15 -5 -33 19 -33 20 0 25 4 20 16 -3 9 -6 18 -6
20 0 7 -26 5 -33 -3z"/>
<path d="M15600 7235 c0 -10 7 -15 18 -13 21 4 19 22 -2 26 -10 2 -16 -3 -16
-13z"/>
<path d="M15829 6704 c-10 -13 -10 -21 0 -47 7 -18 16 -45 20 -62 4 -17 14
-31 25 -33 28 -6 76 18 76 38 0 10 5 20 12 22 9 3 8 9 -2 22 -60 74 -103 93
-131 60z"/>
</g>
</svg>
